<svg width="108" height="110" viewBox="0 0 108 110" fill="none" xmlns="http://www.w3.org/2000/svg">
<circle cx="53.9215" cy="55.0443" r="41.5641" fill="#3766E4"/>
<path fill-rule="evenodd" clip-rule="evenodd" d="M71.9574 40.678C71.2228 42.2989 70.2549 43.8486 69.0487 45.2797C66.2463 48.6049 62.5845 50.7834 58.6606 51.7649C58.6189 51.7753 58.5765 51.786 58.5334 51.797C57.623 52.0276 56.3891 52.3402 55.2359 51.3768C54.0595 50.394 54.156 49.2753 54.2354 48.3547C54.2433 48.2632 54.251 48.1736 54.2573 48.0863C54.5468 44.0685 56.0658 40.0999 58.8682 36.7747C60.0683 35.3508 61.4254 34.1377 62.8926 33.1389C64.8176 33.6398 66.6646 34.563 68.292 35.9225C69.9027 37.2682 71.1279 38.899 71.9574 40.678ZM35.7772 53.0722C34.0139 53.7111 32.3973 54.5714 30.9472 55.6094C30.772 57.563 31.0141 59.5852 31.7333 61.5524C32.4599 63.5399 33.5958 65.2589 35.0114 66.651C36.7836 66.5163 38.5681 66.1414 40.3225 65.5056C44.4194 64.021 47.7279 61.3402 49.9964 58.0049C50.0457 57.9324 50.0973 57.8587 50.1501 57.7833C50.6812 57.0256 51.3266 56.1048 50.8014 54.668C50.2865 53.2596 49.0609 52.9161 48.1566 52.6626C48.1138 52.6506 48.0717 52.6388 48.0304 52.6271C44.1393 51.5238 39.874 51.5876 35.7772 53.0722ZM76.3338 55.6094C74.8836 54.5714 73.2671 53.7111 71.5038 53.0722C67.407 51.5876 63.1417 51.5238 59.2505 52.6271C59.2377 52.6308 59.2248 52.6344 59.2118 52.6381C59.1831 52.6462 59.1541 52.6543 59.1247 52.6625C58.2205 52.916 56.9944 53.2596 56.4796 54.668C55.9543 56.1048 56.5997 57.0256 57.1308 57.7833C57.1836 57.8587 57.2353 57.9324 57.2846 58.0049C59.553 61.3402 62.8616 64.021 66.9584 65.5056C68.7128 66.1414 70.4973 66.5163 72.2696 66.651C73.6852 65.2589 74.8211 63.5399 75.5477 61.5524C76.2668 59.5852 76.5089 57.563 76.3338 55.6094ZM59.5632 75.6525C60.0469 73.9407 60.306 72.1341 60.306 70.2659C60.306 65.9253 58.9073 61.913 56.5351 58.6499C56.5189 58.6276 56.5025 58.6049 56.486 58.582L56.4585 58.5439C55.91 57.7846 55.1665 56.7555 53.6611 56.7555C52.1254 56.7555 51.4771 57.6742 50.9436 58.4302C50.8905 58.5054 50.8386 58.579 50.7871 58.6499C48.4149 61.9129 47.0163 65.9252 47.0163 70.2659C47.0163 72.1247 47.2727 73.9225 47.7518 75.6266C49.5498 76.4748 51.5607 76.9497 53.6851 76.9497C55.7878 76.9497 57.7792 76.4845 59.5632 75.6525Z" fill="white"/>
<path fill-rule="evenodd" clip-rule="evenodd" d="M36.1993 42.2847C35.8999 41.7584 35.627 41.2222 35.3803 40.678C36.2097 38.899 37.435 37.2682 39.0457 35.9225C40.6731 34.563 42.5201 33.6398 44.4451 33.1389C44.9014 33.4495 45.347 33.7808 45.7805 34.1328C43.5506 34.3695 41.3713 35.2754 39.5667 36.8698C37.8738 38.3656 36.7461 40.2593 36.1993 42.2847ZM36.7953 43.2651C37.2052 41.0968 38.3133 39.043 40.0981 37.466C41.9813 35.802 44.3045 34.9459 46.64 34.8722C47.1236 35.3128 47.5897 35.7812 48.0361 36.2771C45.5713 35.9878 42.9991 36.7067 40.9978 38.475C39.0707 40.1777 38.051 42.5193 37.9741 44.8967C37.5497 44.3673 37.1568 43.8227 36.7953 43.2651ZM38.7977 45.8605C39.3532 46.4707 39.9388 47.0388 40.5504 47.5645C39.5959 44.9991 40.2514 42.004 42.4286 40.0803C44.629 38.1361 47.7362 37.8585 50.1937 39.1535C49.7848 38.4918 49.3328 37.8473 48.8371 37.2238C46.3327 36.6468 43.5964 37.2447 41.5292 39.0712C39.5203 40.8462 38.5934 43.3837 38.7977 45.8605ZM51.0772 40.7427C48.814 38.6753 45.3039 38.6055 42.96 40.6765C40.595 42.7661 40.2625 46.2883 42.1101 48.7753C43.4227 49.6931 44.8267 50.4374 46.2881 51.0053C45.2997 50.1641 44.3574 49.2454 43.4699 48.2497C43.4566 48.2348 43.4447 48.2192 43.4341 48.203C43.4192 48.1906 43.4051 48.177 43.3918 48.1621C41.7154 46.2813 41.939 43.3825 43.8595 41.6856C45.7759 39.9924 48.6852 40.1117 50.3633 41.9811C50.4167 42.0035 50.4661 42.0378 50.5072 42.0839C51.0746 42.7205 51.6754 43.31 52.3047 43.8521C51.9877 42.7925 51.5788 41.7521 51.0772 40.7427ZM52.6475 45.1599C51.6772 44.4153 50.7627 43.5699 49.919 42.6248C49.8655 42.6024 49.8162 42.5681 49.7751 42.5221C48.4055 40.9855 45.9958 40.8637 44.3909 42.2818C42.7859 43.6999 42.621 46.0964 43.9906 47.633C44.0039 47.6479 44.0158 47.6635 44.0265 47.6796C44.0413 47.6921 44.0554 47.7057 44.0687 47.7206C45.4196 49.2361 46.9008 50.5681 48.4805 51.7147C48.546 51.7317 48.6115 51.7485 48.6771 51.7649C48.7188 51.7753 48.7612 51.786 48.8043 51.797C49.4625 51.9637 50.2898 52.1733 51.1335 51.9126C48.9263 50.5827 46.8797 48.9041 45.0771 46.8818C44.1404 45.8309 44.2352 44.2232 45.2904 43.2909C46.3455 42.3587 47.9601 42.4559 48.8968 43.5068C50.1295 44.8898 51.5039 46.0732 52.9788 47.0545C52.8995 46.4197 52.7891 45.7874 52.6475 45.1599ZM53.0791 48.0686C51.3415 46.9855 49.7279 45.64 48.298 44.0359C47.6542 43.3136 46.5455 43.2476 45.8218 43.8871C45.098 44.5266 45.0321 45.6304 45.6759 46.3527C47.5384 48.4422 49.6696 50.1533 51.9715 51.4801C52.0151 51.4474 52.0585 51.413 52.1018 51.3768C52.4735 51.0663 52.7181 50.7423 52.8763 50.4152C50.6306 49.1457 48.5527 47.4926 46.7428 45.4621C46.5961 45.2975 46.6112 45.0456 46.7765 44.8995C46.9419 44.7534 47.1949 44.7684 47.3416 44.9331C49.0483 46.8478 51.0014 48.4153 53.111 49.6302C53.174 49.1861 53.1366 48.7519 53.1023 48.3547C53.0944 48.2632 53.0867 48.1736 53.0804 48.0863C53.08 48.0804 53.0795 48.0745 53.0791 48.0686Z" fill="white"/>
<path d="M53.6416 50.9345L53.662 50.9851C54.1309 52.1529 55.2269 52.9492 56.4824 53.0343L56.5368 53.038L56.495 53.073C55.5293 53.8799 55.1106 55.1683 55.4177 56.3888L55.431 56.4417L55.3848 56.4127C54.319 55.7435 52.9643 55.7435 51.8985 56.4127L51.8523 56.4417L51.8656 56.3888C52.1726 55.1683 51.754 53.8799 50.7883 53.073L50.7465 53.038L50.8009 53.0343C52.0564 52.9492 53.1524 52.1529 53.6213 50.9851L53.6416 50.9345Z" fill="white"/>
<path d="M6.11242 29.2505L6.14418 29.2877C6.8769 30.1466 7.05707 31.3175 6.60782 32.3009L6.58835 32.3435L6.6333 32.3271C7.67036 31.9482 8.86402 32.1901 9.70509 32.9497L9.74155 32.9826L9.73757 32.9353C9.64579 31.8422 10.2033 30.8208 11.1724 30.3069L11.2144 30.2846L11.167 30.2717C10.0732 29.9751 9.22414 29.1019 8.98198 28.0247L8.97148 27.978L8.94616 28.0174C8.36194 28.9271 7.27963 29.4089 6.16091 29.2571L6.11242 29.2505Z" fill="#3766E4"/>
<path d="M99.6174 25.9309L99.5881 25.9701C98.9126 26.8747 98.8088 28.0548 99.3208 29.007L99.343 29.0483L99.2971 29.0348C98.2377 28.724 97.0622 29.0428 96.2722 29.8553L96.2379 29.8905L96.2388 29.843C96.2595 28.7463 95.6369 27.7632 94.6366 27.3132L94.5932 27.2937L94.6397 27.2778C95.7119 26.9108 96.5026 25.9844 96.6744 24.8937L96.6818 24.8465L96.7097 24.8842C97.3516 25.7541 98.4629 26.1646 99.5694 25.9406L99.6174 25.9309Z" fill="#3766E4"/>
<path d="M55.6 110L55.5809 109.955C55.1408 108.915 54.1744 108.23 53.0939 108.192L53.047 108.19L53.0818 108.157C53.8848 107.399 54.2028 106.224 53.8999 105.132L53.8868 105.084L53.9274 105.109C54.8638 105.68 56.0267 105.639 56.92 105.002L56.9588 104.975L56.9491 105.023C56.7248 106.134 57.1256 107.284 57.9805 107.983L58.0176 108.013L57.971 108.018C56.896 108.133 55.9808 108.885 55.6158 109.954L55.6 110Z" fill="#3766E4"/>
<path d="M14.7413 25.6174C14.706 25.6591 14.6635 25.6841 14.6137 25.6922C14.5633 25.6926 14.5172 25.6751 14.4754 25.6399L11.5036 23.1318C11.4618 23.0965 11.439 23.0558 11.4351 23.0095C11.4305 22.9556 11.4459 22.9077 11.4811 22.8659L11.7139 22.59C11.7492 22.5482 11.7921 22.5271 11.8425 22.5268C11.8923 22.5187 11.9381 22.5323 11.9798 22.5675L13.1899 23.5887L14.6503 21.8583L13.4402 20.8371C13.3984 20.8019 13.3756 20.7611 13.3717 20.7148C13.3671 20.6609 13.3825 20.613 13.4177 20.5712L13.6506 20.2954C13.6894 20.2494 13.7319 20.2244 13.7781 20.2205C13.8244 20.2166 13.8705 20.2341 13.9165 20.2729L16.8882 22.7809C16.93 22.8162 16.9532 22.8608 16.9578 22.9148C16.9617 22.961 16.946 23.005 16.9107 23.0468L16.6779 23.3227C16.6426 23.3645 16.6001 23.3894 16.5503 23.3975C16.4999 23.3979 16.4538 23.3805 16.412 23.3452L15.133 22.2658L13.6726 23.9962L14.9516 25.0756C14.9934 25.1109 15.0166 25.1555 15.0212 25.2094C15.0251 25.2557 15.0094 25.2997 14.9741 25.3415L14.7413 25.6174Z" fill="#3766E4"/>
<path d="M23.3202 16.9673C22.8787 17.3084 22.4207 17.4446 21.946 17.3759C21.468 17.3029 21.0321 17.0384 20.6382 16.5824L20.4612 16.3667L20.3022 16.1474C19.967 15.66 19.8244 15.1757 19.8744 14.6948C19.9243 14.2138 20.1701 13.8028 20.6115 13.4617C21.0876 13.0938 21.5725 12.961 22.0662 13.0634C22.5643 13.1623 23.014 13.4715 23.4153 13.9908L23.5056 14.1077C23.539 14.151 23.5523 14.1995 23.5454 14.2532C23.5395 14.2992 23.5149 14.3389 23.4716 14.3724L21.219 16.1129L21.2641 16.1714C21.4945 16.4426 21.7666 16.616 22.0806 16.6913C22.3945 16.7667 22.6835 16.7024 22.9475 16.4984C23.1509 16.3412 23.2853 16.1752 23.3506 16.0003C23.4169 15.8177 23.4491 15.6581 23.4471 15.5214C23.4459 15.4394 23.4528 15.3857 23.4678 15.3603C23.4794 15.3306 23.5111 15.2957 23.5631 15.2555L23.8487 15.0348C23.8877 15.0047 23.9285 14.9905 23.9712 14.992C24.0182 14.9903 24.0551 15.0067 24.0818 15.0413C24.1554 15.1365 24.1856 15.2964 24.1724 15.5208C24.1592 15.7453 24.0829 15.9909 23.9434 16.2576C23.8049 16.5167 23.5972 16.7532 23.3202 16.9673ZM22.6891 14.272L22.6741 14.2525C22.44 13.9496 22.1671 13.7664 21.8555 13.7031C21.5439 13.6397 21.2496 13.7151 20.9727 13.9291C20.6913 14.1464 20.5442 14.4122 20.5312 14.7264C20.5182 15.0405 20.6287 15.3491 20.8628 15.652L20.8779 15.6715L22.6891 14.272Z" fill="#3766E4"/>
<path d="M31.5328 11.616C31.1787 11.7883 30.8561 11.8752 30.565 11.877C30.2788 11.8763 30.0421 11.8211 29.855 11.7114C29.6728 11.5994 29.5409 11.4658 29.4594 11.3108C29.4379 11.2666 29.4359 11.225 29.4534 11.186C29.4686 11.1422 29.4983 11.1095 29.5426 11.0879L29.8598 10.9336C29.909 10.9097 29.9519 10.9041 29.9884 10.9167C30.0275 10.922 30.07 10.9469 30.116 10.9915C30.261 11.152 30.4314 11.2334 30.627 11.2355C30.8276 11.2353 31.0607 11.1706 31.3263 11.0414C31.582 10.917 31.766 10.7637 31.878 10.5814C31.9926 10.3919 31.9997 10.1938 31.8992 9.98725C31.6982 9.57411 31.3592 9.48357 30.8821 9.71563L30.4764 9.913C30.4272 9.93692 30.3807 9.94131 30.3368 9.92615C30.2929 9.911 30.259 9.87883 30.2351 9.82964L30.1454 9.64521C30.1215 9.59602 30.1171 9.5495 30.1322 9.50564C30.1474 9.46177 30.1796 9.42788 30.2288 9.40395L30.5903 9.22811C31.0132 9.02237 31.1422 8.74982 30.9771 8.41045C30.891 8.23339 30.7528 8.11814 30.5626 8.06469C30.3749 8.00394 30.1409 8.04174 29.8606 8.17811C29.5851 8.31208 29.4087 8.45569 29.3312 8.60895C29.2513 8.75729 29.2345 8.9479 29.2809 9.18079C29.3018 9.2862 29.263 9.36283 29.1646 9.41068L28.8548 9.5614C28.8154 9.58053 28.775 9.58498 28.7336 9.57475C28.6897 9.55959 28.6582 9.53234 28.639 9.493C28.5435 9.28403 28.5116 9.06843 28.5434 8.84618C28.5728 8.61901 28.673 8.39996 28.8441 8.18902C29.0201 7.97568 29.2704 7.79007 29.595 7.63217C29.9344 7.4671 30.2386 7.38603 30.5076 7.38897C30.7816 7.38952 31.0072 7.44702 31.1845 7.56147C31.3618 7.67593 31.4936 7.82169 31.5797 7.99875C31.6778 8.2004 31.7223 8.37945 31.7132 8.5359C31.7091 8.68996 31.6438 8.84947 31.5172 9.01442C31.7694 8.99516 31.9804 9.04761 32.1503 9.17177C32.3227 9.28862 32.4675 9.46754 32.5847 9.70854C32.7617 10.0725 32.7505 10.4246 32.5511 10.7649C32.3493 11.1002 32.0099 11.384 31.5328 11.616Z" fill="#3766E4"/>
<path d="M40.5844 8.0236C40.3245 8.08928 40.0699 8.09724 39.8204 8.04749C39.5761 7.9964 39.365 7.89746 39.1868 7.75069C39.0127 7.59727 38.8974 7.4092 38.8411 7.1865C38.7527 6.83653 38.8234 6.514 39.0535 6.21892C39.2835 5.92383 39.6357 5.67684 40.1101 5.47795L41.2609 5.00933L41.2026 4.77867C41.0646 4.23251 40.68 4.03919 40.049 4.19869C39.8051 4.26035 39.6217 4.36032 39.4987 4.4986C39.3743 4.63157 39.2944 4.77306 39.259 4.92305C39.2512 4.98143 39.2367 5.02458 39.2156 5.05249C39.1984 5.07376 39.1686 5.08976 39.1262 5.10048L38.816 5.17889C38.7682 5.19096 38.7218 5.18577 38.6766 5.16334C38.6354 5.13427 38.6088 5.09587 38.5968 5.04814C38.5659 4.92619 38.5861 4.77159 38.6572 4.58437C38.7323 4.3905 38.8744 4.20508 39.0836 4.02811C39.2913 3.84584 39.5676 3.71114 39.9122 3.62401C40.5061 3.47389 40.9652 3.50452 41.2894 3.71591C41.6189 3.92596 41.8359 4.23779 41.9405 4.65139L42.5939 7.23636C42.6073 7.28939 42.6002 7.33915 42.5724 7.38565C42.5487 7.42551 42.5103 7.45214 42.4572 7.46555L42.1073 7.55401C42.0543 7.56741 42.0078 7.56223 41.968 7.53846C41.9268 7.50938 41.8995 7.46833 41.8861 7.41531L41.7976 7.06534C41.7252 7.26981 41.5923 7.45852 41.3991 7.63148C41.2059 7.80443 40.9343 7.93514 40.5844 8.0236ZM40.5967 7.40276C40.9466 7.3143 41.2041 7.12791 41.3692 6.84361C41.5343 6.5593 41.5619 6.19975 41.4519 5.76494L41.3956 5.54224L40.4992 5.91269C40.1309 6.06222 39.8647 6.22542 39.7006 6.40227C39.5366 6.57913 39.4787 6.763 39.527 6.95389C39.5819 7.17129 39.7116 7.31621 39.9161 7.38863C40.1259 7.45971 40.3527 7.46442 40.5967 7.40276Z" fill="#3766E4"/>
<path d="M52.9078 3.86615C52.9152 3.92061 52.921 4.00797 52.9253 4.12822C52.929 4.23207 52.9289 4.30595 52.925 4.34988C52.9228 4.90271 52.7637 5.35167 52.4476 5.69678C52.1316 6.04189 51.6756 6.22506 51.0799 6.24629C50.4677 6.26812 49.9942 6.1126 49.6595 5.77975C49.3245 5.44143 49.1325 4.96667 49.0833 4.35547L49.0482 3.37162C49.0258 2.58981 49.1088 2.00126 49.2972 1.60598C49.4909 1.20503 49.7706 0.913217 50.1362 0.730528C50.5071 0.542177 51.1096 0.323682 51.9435 0.0750438L52.1628 0.00976131L52.2035 0.000101372C52.2418 -0.00126248 52.2778 0.0111357 52.3116 0.0372958C52.3453 0.063456 52.3685 0.0982046 52.381 0.141542L52.4577 0.450757L52.4676 0.499657C52.4705 0.581645 52.4287 0.637862 52.3423 0.668308C52.2773 0.687044 52.1337 0.727735 51.9115 0.790382C51.2937 0.960171 50.8473 1.10469 50.5725 1.22395C50.3031 1.343 50.0988 1.52268 49.9596 1.76297C49.8204 2.00326 49.7509 2.356 49.751 2.82118C49.8752 2.61973 50.0553 2.45187 50.2913 2.31758C50.5273 2.18329 50.782 2.11128 51.0553 2.10154C51.6073 2.08186 52.0424 2.236 52.3606 2.56398C52.684 2.88629 52.8664 3.32034 52.9078 3.86615ZM52.1693 4.33577C52.1734 4.29731 52.174 4.23709 52.171 4.1551C52.1675 4.05672 52.1622 3.98303 52.1549 3.93403C52.1294 3.52448 52.0143 3.2139 51.8098 3.00228C51.605 2.78519 51.3441 2.6823 51.0271 2.6936C50.6664 2.70646 50.3779 2.82893 50.1618 3.06102C49.9455 3.28764 49.8365 3.60622 49.8347 4.01674L49.8344 4.2384L49.849 4.41848C49.88 4.82783 50.0006 5.14095 50.2109 5.35784C50.4264 5.56907 50.709 5.66845 51.0588 5.65598C51.4032 5.64371 51.6753 5.52455 51.8752 5.29852C52.0749 5.06701 52.1729 4.7461 52.1693 4.33577Z" fill="#3766E4"/>
<path d="M64.1561 2.79716C64.1992 2.80484 64.234 2.82771 64.2606 2.86577C64.2925 2.9048 64.3046 2.94584 64.297 2.98892C64.2931 3.01046 64.2683 3.05604 64.2226 3.12567L62.0404 6.48677L61.9375 6.64342C61.7307 6.96213 61.5489 7.21862 61.3921 7.41289C61.2406 7.60812 61.0626 7.76529 60.858 7.88439C60.6579 8.00984 60.4394 8.05146 60.2025 8.00924L59.8956 7.95456C59.8417 7.94496 59.7993 7.91796 59.7683 7.87355C59.7418 7.83549 59.7333 7.78953 59.7429 7.73569L59.7875 7.48531C59.7971 7.43146 59.8214 7.38857 59.8604 7.35664C59.9039 7.33105 59.9525 7.32305 60.0064 7.33264L60.2164 7.37006C60.3348 7.39117 60.4361 7.38421 60.5201 7.34918C60.6041 7.31415 60.6853 7.24807 60.7637 7.15094C60.8475 7.05476 60.9581 6.90223 61.0953 6.69335L61.2916 6.38667L60.37 2.43919C60.3555 2.36439 60.3502 2.31623 60.3541 2.29469C60.3627 2.24623 60.3861 2.20872 60.4241 2.18217C60.4622 2.15562 60.5054 2.14666 60.5539 2.1553L60.9093 2.21862C60.9954 2.23397 61.0524 2.28856 61.0801 2.38239L61.8076 5.5953L63.592 2.82997C63.645 2.75053 63.72 2.71945 63.8169 2.73672L64.1561 2.79716Z" fill="#3766E4"/>
<path d="M69.2281 9.35645C69.1775 9.33574 69.1407 9.30295 69.1176 9.25808C69.0997 9.21528 69.1021 9.16604 69.1249 9.11036L69.566 8.03212C69.5867 7.9815 69.6184 7.94722 69.6612 7.92927C69.7112 7.90833 69.7614 7.90821 69.812 7.92892L69.85 7.94445C70.0626 8.03142 70.2946 7.91948 70.5458 7.60862C70.8021 7.29982 71.0866 6.76323 71.3993 5.99885L71.7969 5.02692C71.8176 4.9763 71.8494 4.94201 71.8922 4.92406C71.9421 4.90312 71.9924 4.90301 72.043 4.92372L74.4425 5.90526C74.4982 5.92804 74.535 5.96083 74.5529 6.00362C74.5709 6.04642 74.5684 6.09566 74.5457 6.15135L73.2473 9.32531L73.6042 9.4713C73.6599 9.49408 73.6967 9.52687 73.7146 9.56966C73.7326 9.61246 73.7302 9.6617 73.7074 9.71738L73.2632 10.8032C73.2404 10.8589 73.2076 10.8957 73.1648 10.9137C73.122 10.9316 73.0728 10.9292 73.0171 10.9064L72.683 10.7697C72.6324 10.749 72.5991 10.7148 72.5833 10.6669C72.5653 10.6241 72.5667 10.5774 72.5874 10.5268L72.8576 9.86616L70.0785 8.72931L69.8083 9.38991C69.7876 9.44054 69.7533 9.47378 69.7054 9.48966C69.6606 9.51267 69.6128 9.51382 69.5622 9.49312L69.2281 9.35645ZM72.5639 9.04576L73.6945 6.28183L72.2974 5.71029L72.0365 6.34812C71.614 7.3808 71.1763 8.03198 70.7232 8.30166L72.5639 9.04576Z" fill="#3766E4"/>
<path d="M82.5465 14.9652C82.5429 15.0091 82.5318 15.0446 82.5133 15.0717C82.4639 15.1439 82.3963 15.1507 82.3105 15.092L81.9247 14.8278C81.857 14.7815 81.8192 14.7059 81.8114 14.6012L81.7894 12.4983L81.1463 12.0581L80.2102 13.4256C80.1793 13.4707 80.1372 13.4982 80.084 13.5082C80.0384 13.5168 79.993 13.5056 79.9479 13.4747L79.6568 13.2754C79.6116 13.2445 79.5825 13.2047 79.5695 13.156C79.564 13.1059 79.5768 13.0583 79.6076 13.0131L81.8042 9.80424C81.8351 9.75911 81.8734 9.73227 81.919 9.72373C81.9722 9.71376 82.0214 9.72423 82.0665 9.75512L82.3576 9.95439C82.4072 9.98837 82.4363 10.0282 82.4449 10.0738C82.4534 10.1194 82.4407 10.167 82.4067 10.2167L81.5123 11.5232L82.1419 11.9542L84.0009 11.2284C84.0923 11.1916 84.1742 11.1979 84.2464 11.2473L84.5781 11.4744C84.6187 11.5022 84.6448 11.5366 84.6565 11.5777C84.6712 11.6143 84.6677 11.6484 84.6461 11.68C84.6399 11.689 84.6262 11.6995 84.6048 11.7114C84.5865 11.7187 84.5704 11.7276 84.5567 11.7381L82.5171 12.5391L82.5465 14.9652Z" fill="#3766E4"/>
<path d="M88.2688 20.1525C88.0831 19.9593 87.9501 19.7419 87.8699 19.5005C87.7934 19.263 87.7748 19.0305 87.8142 18.8031C87.8613 18.5758 87.9677 18.3826 88.1333 18.2235C88.3936 17.9734 88.7089 17.8752 89.0792 17.9291C89.4494 17.9829 89.8384 18.1667 90.246 18.4804L91.2228 19.2484L91.3944 19.0836C91.8006 18.6933 91.7783 18.2635 91.3273 17.7942C91.153 17.6127 90.9753 17.5028 90.7943 17.4644C90.6172 17.4221 90.4547 17.4228 90.3069 17.4662C90.2523 17.4883 90.2076 17.4971 90.1729 17.4926C90.1459 17.4882 90.1173 17.4702 90.087 17.4386L89.8653 17.2079C89.8312 17.1724 89.8127 17.1295 89.8098 17.0791C89.8147 17.029 89.8349 16.9868 89.8704 16.9527C89.9611 16.8655 90.1054 16.8065 90.3033 16.7757C90.5089 16.745 90.7404 16.7767 90.9977 16.8708C91.2589 16.9611 91.5127 17.1345 91.759 17.3908C92.1834 17.8325 92.384 18.2466 92.3608 18.6329C92.3414 19.0232 92.1778 19.3662 91.8702 19.6617L89.9475 21.509C89.9081 21.5469 89.8613 21.5653 89.8072 21.5642C89.7608 21.5633 89.7186 21.5431 89.6807 21.5037L89.4306 21.2434C89.3927 21.2039 89.3743 21.161 89.3752 21.1146C89.3801 21.0644 89.4022 21.0204 89.4417 20.9825L89.702 20.7324C89.4884 20.7707 89.2587 20.7487 89.0128 20.6664C88.7669 20.5841 88.5189 20.4128 88.2688 20.1525ZM88.8143 19.8559C89.0644 20.1162 89.3539 20.2477 89.6826 20.2504C90.0113 20.2531 90.3374 20.0991 90.6608 19.7884L90.8264 19.6293L90.0609 19.0337C89.7486 18.7876 89.475 18.6371 89.2402 18.5821C89.0053 18.5272 88.8169 18.5679 88.6749 18.7043C88.5132 18.8596 88.4515 19.0441 88.4898 19.2576C88.5318 19.4751 88.64 19.6745 88.8143 19.8559Z" fill="#3766E4"/>
<path d="M43.5656 104.05C43.6186 104.064 43.6594 104.092 43.6882 104.133C43.7104 104.178 43.7145 104.227 43.7008 104.28L42.7223 108.044C42.7086 108.097 42.6817 108.135 42.6417 108.159C42.595 108.186 42.5452 108.193 42.4922 108.179L42.1429 108.088C42.0899 108.075 42.0524 108.045 42.0303 108C42.0015 107.958 41.994 107.911 42.0077 107.858L42.4061 106.326L40.2147 105.756L39.8163 107.288C39.8025 107.341 39.7756 107.38 39.7356 107.403C39.6889 107.431 39.6391 107.437 39.5862 107.424L39.2368 107.333C39.1786 107.318 39.1377 107.29 39.1142 107.25C39.0907 107.21 39.0865 107.161 39.1017 107.103L40.0801 103.339C40.0939 103.286 40.1241 103.246 40.1708 103.219C40.2108 103.195 40.2573 103.19 40.3102 103.204L40.6596 103.295C40.7125 103.309 40.7534 103.336 40.7822 103.378C40.8043 103.423 40.8085 103.472 40.7947 103.525L40.3736 105.145L42.5651 105.714L42.9862 104.095C42.9999 104.042 43.0302 104.001 43.0768 103.974C43.1169 103.951 43.1633 103.946 43.2163 103.959L43.5656 104.05Z" fill="#3766E4"/>
<path d="M32.0586 100.049C32.5569 100.3 32.8776 100.654 33.0207 101.112C33.1613 101.575 33.111 102.082 32.8699 102.634L32.7518 102.887L32.6227 103.125C32.3279 103.638 31.9527 103.976 31.4973 104.139C31.042 104.301 30.5651 104.257 30.0668 104.006C29.5294 103.736 29.2002 103.356 29.0792 102.866C28.9534 102.374 29.038 101.835 29.333 101.249L29.3994 101.117C29.424 101.068 29.462 101.035 29.5134 101.018C29.5575 101.004 29.604 101.009 29.6528 101.033L32.1956 102.313L32.2288 102.247C32.374 101.922 32.4128 101.602 32.3451 101.286C32.2775 100.971 32.0947 100.738 31.7967 100.588C31.567 100.472 31.3593 100.423 31.1733 100.439C30.9801 100.458 30.8222 100.498 30.6997 100.559C30.6262 100.596 30.5748 100.613 30.5455 100.61C30.5137 100.612 30.4685 100.599 30.4099 100.569L30.0874 100.407C30.0434 100.385 30.013 100.354 29.9959 100.315C29.974 100.274 29.9729 100.233 29.9926 100.194C30.0467 100.087 30.1778 99.9903 30.3859 99.9053C30.5941 99.8202 30.8486 99.783 31.1494 99.7936C31.4429 99.8066 31.7459 99.8918 32.0586 100.049ZM29.9003 101.782L29.8892 101.804C29.7171 102.146 29.6698 102.472 29.7472 102.78C29.8247 103.088 30.0197 103.321 30.3324 103.479C30.6499 103.639 30.9532 103.656 31.2421 103.532C31.5311 103.408 31.7616 103.176 31.9338 102.834L31.9448 102.812L29.9003 101.782Z" fill="#3766E4"/>
<path d="M23.685 94.9534C23.9933 95.1984 24.2111 95.4518 24.3384 95.7136C24.4614 95.972 24.5138 96.2093 24.4958 96.4255C24.4734 96.6382 24.4099 96.8148 24.3053 96.9553C24.2747 96.9938 24.238 97.0136 24.1953 97.0146C24.1492 97.0199 24.1069 97.0072 24.0683 96.9766L23.7922 96.7571C23.7493 96.7231 23.7257 96.6868 23.7213 96.6484C23.7092 96.6109 23.7134 96.5617 23.7337 96.501C23.8158 96.3009 23.8157 96.1121 23.7331 95.9347C23.6462 95.7539 23.4872 95.5717 23.2559 95.3879C23.0333 95.211 22.8155 95.1113 22.6028 95.089C22.3823 95.0675 22.2007 95.1467 22.0577 95.3265C21.7719 95.6862 21.8367 96.0311 22.2521 96.3611L22.6053 96.6418C22.6482 96.6759 22.6722 96.7159 22.6775 96.762C22.6828 96.8082 22.6684 96.8526 22.6344 96.8954L22.5068 97.056C22.4727 97.0988 22.4327 97.1229 22.3866 97.1282C22.3405 97.1334 22.296 97.1191 22.2532 97.085L21.9384 96.835C21.5702 96.5423 21.2687 96.5438 21.0339 96.8392C20.9114 96.9934 20.8671 97.1678 20.9011 97.3624C20.9274 97.5579 21.0625 97.7527 21.3066 97.9466C21.5464 98.1371 21.7521 98.2343 21.9239 98.238C22.0921 98.246 22.2713 98.1787 22.4613 98.0363C22.5474 97.972 22.6332 97.9738 22.7189 98.0419L22.9886 98.2562C23.0229 98.2835 23.0444 98.318 23.053 98.3598C23.0583 98.4059 23.0473 98.4461 23.0201 98.4804C22.8729 98.6568 22.6923 98.7787 22.4781 98.846C22.2605 98.9176 22.0196 98.9218 21.7555 98.8587C21.4871 98.7921 21.2115 98.6465 20.9289 98.4219C20.6335 98.1871 20.429 97.9478 20.3154 97.7039C20.1976 97.4566 20.152 97.2282 20.1786 97.0188C20.2053 96.8095 20.2798 96.6277 20.4023 96.4736C20.5418 96.298 20.6841 96.1805 20.8291 96.1211C20.9698 96.0583 21.1419 96.0483 21.3453 96.0912C21.219 95.8721 21.1752 95.6591 21.2138 95.4523C21.2447 95.2463 21.3436 95.0385 21.5103 94.8286C21.7621 94.5118 22.0845 94.3698 22.4775 94.4026C22.8671 94.4398 23.2696 94.6234 23.685 94.9534Z" fill="#3766E4"/>
<path d="M16.5354 88.3415C16.7068 88.5474 16.824 88.7737 16.8869 89.0202C16.9463 89.2625 16.9483 89.4957 16.8928 89.7198C16.8297 89.9431 16.7099 90.1283 16.5333 90.2753C16.2559 90.5062 15.9344 90.5817 15.5689 90.5017C15.2034 90.4216 14.8285 90.2107 14.4443 89.8687L13.5245 89.0332L13.3417 89.1854C12.9087 89.5458 12.9004 89.9761 13.3168 90.4763C13.4778 90.6697 13.6472 90.792 13.8251 90.8432C13.9987 90.8979 14.1608 90.9088 14.3114 90.876C14.3674 90.8578 14.4126 90.8522 14.4469 90.8593C14.4735 90.8656 14.5008 90.8856 14.5288 90.9192L14.7335 91.1651C14.765 91.2029 14.7804 91.247 14.7797 91.2975C14.7712 91.3472 14.7481 91.3878 14.7103 91.4193C14.6136 91.4998 14.4655 91.5484 14.2659 91.5651C14.0586 91.5811 13.83 91.533 13.58 91.4208C13.3259 91.3121 13.0851 91.1212 12.8576 90.848C12.4657 90.3772 12.2951 89.9499 12.3457 89.5662C12.3928 89.1783 12.5803 88.8478 12.9082 88.5749L14.9573 86.869C14.9994 86.834 15.0473 86.819 15.1013 86.8239C15.1475 86.8282 15.1881 86.8513 15.2231 86.8933L15.454 87.1707C15.489 87.2128 15.5044 87.2569 15.5002 87.3031C15.4917 87.3528 15.4665 87.3952 15.4245 87.4302L15.1471 87.6611C15.3628 87.6381 15.5903 87.6764 15.8298 87.776C16.0692 87.8755 16.3044 88.064 16.5354 88.3415ZM15.9701 88.5985C15.7392 88.3211 15.4598 88.1693 15.1321 88.1433C14.8044 88.1172 14.4682 88.2476 14.1235 88.5345L13.947 88.6815L14.6683 89.33C14.9622 89.5976 15.2244 89.7672 15.4548 89.8388C15.6851 89.9103 15.876 89.8831 16.0273 89.7571C16.1996 89.6137 16.2743 89.4341 16.2513 89.2184C16.2248 88.9985 16.1311 88.7919 15.9701 88.5985Z" fill="#3766E4"/>
<path d="M7.46288 79.0226C7.5088 78.9924 7.58506 78.9494 7.69167 78.8936C7.78373 78.8454 7.85041 78.8136 7.89171 78.7981C8.39126 78.5613 8.86492 78.5109 9.31269 78.6469C9.76046 78.7829 10.1226 79.115 10.3991 79.6431C10.6832 80.1858 10.7474 80.68 10.5918 81.1257C10.4313 81.574 10.0861 81.9522 9.5561 82.2605L8.6839 82.7171C7.98845 83.075 7.42179 83.2544 6.9839 83.2552C6.53863 83.2537 6.15465 83.1275 5.83195 82.8766C5.50187 82.6235 5.0446 82.1745 4.46015 81.5298L4.30654 81.3601L4.28025 81.3276C4.26249 81.2937 4.25812 81.2559 4.26712 81.2141C4.27613 81.1723 4.29748 81.1365 4.33117 81.1065L4.57693 80.9038L4.61673 80.8737C4.68942 80.8356 4.75817 80.849 4.82298 80.9139C4.86795 80.9644 4.96667 81.0763 5.11912 81.2496C5.53912 81.7335 5.86226 82.0737 6.08854 82.2701C6.31228 82.4616 6.56257 82.5683 6.83941 82.59C7.11626 82.6118 7.46442 82.5221 7.8839 82.321C7.64858 82.2961 7.4194 82.2061 7.19634 82.0513C6.97328 81.8964 6.79834 81.6978 6.67151 81.4556C6.41532 80.9662 6.36641 80.5072 6.52478 80.0786C6.67578 79.6476 6.98848 79.2956 7.46288 79.0226ZM8.20542 79.4858C8.16896 79.4987 8.1144 79.5242 8.04171 79.5623C7.95449 79.6079 7.89035 79.6446 7.84927 79.6723C7.49093 79.8722 7.26051 80.1101 7.158 80.386C7.05065 80.6644 7.07054 80.9442 7.21766 81.2252C7.38507 81.545 7.62011 81.7523 7.92278 81.8469C8.2206 81.9441 8.55503 81.9049 8.92605 81.7292L9.1261 81.6337L9.2822 81.5427C9.638 81.338 9.86831 81.0939 9.97312 80.8106C10.0706 80.5251 10.0381 80.2272 9.87576 79.9171C9.71595 79.6118 9.49095 79.4179 9.20074 79.3352C8.90568 79.2551 8.57391 79.3053 8.20542 79.4858Z" fill="#3766E4"/>
<path d="M1.64027 69.3393C1.62859 69.2971 1.63417 69.2559 1.65704 69.2155C1.67844 69.1698 1.71022 69.1412 1.75239 69.1295C1.77347 69.1236 1.82529 69.1263 1.90784 69.1375L5.8818 69.6539L6.06754 69.679C6.4443 69.7279 6.75416 69.7811 6.99712 69.8386C7.23861 69.8909 7.45725 69.9835 7.65302 70.1166C7.85261 70.2429 7.98453 70.422 8.04878 70.6539L8.13203 70.9543C8.14663 71.007 8.1406 71.057 8.11392 71.1041C8.09106 71.1445 8.05328 71.172 8.00057 71.1866L7.75548 71.2545C7.70277 71.2691 7.65359 71.2657 7.60793 71.2443C7.56609 71.2162 7.53786 71.1757 7.52326 71.123L7.4663 70.9175C7.43417 70.8015 7.38417 70.7132 7.31629 70.6526C7.2484 70.5919 7.15372 70.5472 7.03224 70.5184C6.90931 70.4844 6.72401 70.4506 6.47635 70.4171L6.11496 70.3725L2.95275 72.9087C2.89153 72.954 2.85038 72.9796 2.8293 72.9855C2.78186 72.9986 2.73795 72.9938 2.69757 72.9709C2.65718 72.948 2.63041 72.9129 2.61727 72.8654L2.52088 72.5176C2.49752 72.4332 2.52216 72.3583 2.59481 72.2928L5.17833 70.2489L1.91354 69.834C1.81898 69.8204 1.75856 69.7662 1.73227 69.6714L1.64027 69.3393Z" fill="#3766E4"/>
<path d="M5.36542 61.9317C5.36861 61.9863 5.35494 62.0337 5.32441 62.0738C5.29356 62.1085 5.24811 62.1276 5.18805 62.1311L4.02507 62.199C3.97047 62.2022 3.92583 62.1884 3.89116 62.1575C3.85071 62.1215 3.82889 62.0763 3.8257 62.0217L3.82331 61.9807C3.80992 61.7514 3.60877 61.5906 3.21987 61.4982C2.83066 61.4004 2.22382 61.3756 1.39936 61.4237L0.351037 61.4849C0.296437 61.4881 0.2518 61.4743 0.217127 61.4435C0.176675 61.4075 0.154855 61.3622 0.151666 61.3076L0.000537073 58.7195C-0.00297015 58.6595 0.0106999 58.6121 0.0415472 58.5774C0.0723941 58.5428 0.117848 58.5237 0.177908 58.5202L3.60134 58.3202L3.57886 57.9353C3.57535 57.8753 3.58902 57.8279 3.61987 57.7932C3.65071 57.7585 3.69617 57.7395 3.75623 57.7359L4.9274 57.6676C4.98746 57.664 5.03483 57.6777 5.0695 57.7086C5.10417 57.7394 5.12326 57.7849 5.12677 57.8449L5.14781 58.2053C5.151 58.2599 5.13444 58.3047 5.09814 58.3397C5.06729 58.3743 5.02457 58.3933 4.96997 58.3965L4.25743 58.4381L4.43248 61.4356L5.14501 61.394C5.19961 61.3908 5.2444 61.4074 5.2794 61.4437C5.31953 61.4742 5.34119 61.5168 5.34438 61.5714L5.36542 61.9317ZM3.64438 59.0573L0.663212 59.2314L0.751211 60.7384L1.43917 60.6982C2.55302 60.6332 3.32939 60.7467 3.76831 61.0389L3.64438 59.0573Z" fill="#3766E4"/>
<path d="M4.6714 47.4972C4.71258 47.4815 4.74939 47.4761 4.78182 47.4811C4.8683 47.4945 4.90359 47.5526 4.88768 47.6553L4.81612 48.1174C4.80357 48.1984 4.75173 48.2651 4.66061 48.3174L2.77352 49.2456L2.65425 50.0158L4.29193 50.2694C4.34598 50.2777 4.38899 50.3038 4.42096 50.3475C4.44837 50.3849 4.45789 50.4307 4.44952 50.4847L4.39553 50.8333C4.38716 50.8874 4.36384 50.9308 4.32555 50.9636C4.28269 50.9902 4.23424 50.9993 4.18019 50.9909L0.337312 50.3958C0.283263 50.3874 0.242535 50.3645 0.215128 50.3271C0.183152 50.2834 0.17135 50.2345 0.17972 50.1805L0.233705 49.8319C0.242912 49.7724 0.266241 49.729 0.303693 49.7016C0.341144 49.6742 0.389596 49.6651 0.44905 49.6743L2.01377 49.9166L2.13053 49.1626L0.672952 47.7995C0.600248 47.7329 0.570592 47.6564 0.583984 47.5699L0.645503 47.1727C0.653036 47.124 0.672825 47.0856 0.704872 47.0573C0.731513 47.0282 0.763751 47.0166 0.801586 47.0225C0.812395 47.0242 0.827773 47.0321 0.847719 47.0462C0.862259 47.0596 0.877218 47.0702 0.892596 47.0781L2.496 48.5717L4.6714 47.4972Z" fill="#3766E4"/>
<path d="M6.87828 40.0956C6.78418 40.3466 6.64559 40.5604 6.46251 40.7371C6.28136 40.9086 6.07971 41.0258 5.85759 41.0885C5.63226 41.1442 5.41206 41.1317 5.19697 41.0511C4.85898 40.9243 4.63429 40.6823 4.5229 40.3251C4.41152 39.968 4.40928 39.5378 4.51618 39.0346L4.78695 37.8219L4.56418 37.7384C4.03671 37.5406 3.65871 37.7464 3.43018 38.3558C3.34185 38.5914 3.31944 38.7991 3.36297 38.979C3.40138 39.1569 3.47212 39.3032 3.57518 39.4178C3.61871 39.4575 3.64591 39.4939 3.6568 39.5272C3.66448 39.5535 3.66064 39.5871 3.64527 39.628L3.53293 39.9276C3.51565 39.9737 3.48492 40.0089 3.44075 40.0333C3.39338 40.0505 3.34665 40.0505 3.30056 40.0333C3.18278 39.9891 3.06723 39.8844 2.95393 39.7193C2.83742 39.5471 2.76605 39.3246 2.7398 39.0519C2.70843 38.7773 2.75516 38.4736 2.87999 38.1407C3.09507 37.5671 3.38185 37.2074 3.74032 37.0614C4.10072 36.9104 4.48064 36.9097 4.88008 37.0595L7.37661 37.9957C7.42782 38.0149 7.46463 38.0491 7.48704 38.0984C7.50624 38.1407 7.50624 38.1874 7.48704 38.2386L7.36029 38.5766C7.34109 38.6278 7.31036 38.663 7.26811 38.6822C7.22074 38.6995 7.17145 38.6986 7.12024 38.6794L6.78225 38.5526C6.909 38.7286 6.98838 38.9453 7.02038 39.2027C7.05239 39.46 7.00502 39.7577 6.87828 40.0956ZM6.37513 39.7317C6.50187 39.3937 6.49547 39.0759 6.35592 38.7783C6.21637 38.4806 5.93663 38.253 5.5167 38.0956L5.30161 38.0149L5.09518 38.9626C5.00812 39.3505 4.99052 39.6623 5.04237 39.8979C5.09422 40.1334 5.21233 40.2858 5.39669 40.3549C5.60665 40.4336 5.79965 40.4096 5.97569 40.2829C6.15365 40.151 6.28679 39.9673 6.37513 39.7317Z" fill="#3766E4"/>
<path d="M99.3068 36.6048C99.2883 36.5534 99.2879 36.5041 99.3058 36.4569C99.3307 36.413 99.3688 36.3818 99.4203 36.3633L103.078 35.0437C103.13 35.0251 103.176 35.0257 103.218 35.0454C103.267 35.0685 103.301 35.1057 103.32 35.1571L103.442 35.4967C103.461 35.5481 103.458 35.5958 103.433 35.6397C103.415 35.6868 103.38 35.7197 103.329 35.7382L101.839 36.2755L102.608 38.4055L104.097 37.8682C104.149 37.8496 104.195 37.8502 104.237 37.8699C104.286 37.8929 104.32 37.9302 104.339 37.9816L104.461 38.3212C104.482 38.3778 104.482 38.4271 104.462 38.4691C104.442 38.5111 104.404 38.5423 104.348 38.5627L100.69 39.8823C100.638 39.9009 100.588 39.8986 100.539 39.8756C100.497 39.8559 100.467 39.8203 100.448 39.7688L100.326 39.4293C100.307 39.3778 100.307 39.3285 100.325 39.2814C100.35 39.2375 100.388 39.2063 100.439 39.1878L102.014 38.6198L101.245 36.4899L99.6708 37.0578C99.6194 37.0764 99.5692 37.0741 99.5202 37.0511C99.4781 37.0314 99.4479 36.9958 99.4293 36.9444L99.3068 36.6048Z" fill="#3766E4"/>
<path d="M102.509 48.3594C102.434 47.8065 102.545 47.3417 102.842 46.965C103.144 46.5875 103.591 46.3422 104.183 46.2292L104.458 46.1837L104.728 46.1556C105.317 46.1091 105.808 46.2277 106.2 46.5114C106.591 46.7952 106.824 47.2135 106.899 47.7664C106.979 48.3626 106.852 48.8489 106.516 49.2254C106.182 49.6072 105.689 49.8421 105.039 49.93L104.892 49.9497C104.838 49.957 104.79 49.9443 104.746 49.9115C104.71 49.8833 104.687 49.8422 104.68 49.788L104.299 46.9668L104.226 46.9767C103.876 47.0405 103.59 47.1896 103.367 47.4238C103.145 47.658 103.056 47.9404 103.101 48.2711C103.135 48.5258 103.212 48.7252 103.331 48.8692C103.456 49.0179 103.578 49.1256 103.697 49.1922C103.769 49.2322 103.812 49.265 103.826 49.2907C103.846 49.3156 103.861 49.3605 103.87 49.4256L103.918 49.7833C103.924 49.8321 103.916 49.8746 103.894 49.9108C103.872 49.9524 103.839 49.9761 103.796 49.9819C103.676 49.9981 103.523 49.9443 103.335 49.8206C103.147 49.697 102.973 49.5081 102.812 49.2539C102.656 49.0044 102.555 48.7062 102.509 48.3594ZM105.158 49.1605L105.183 49.1572C105.562 49.1059 105.857 48.9612 106.068 48.723C106.278 48.4849 106.36 48.1923 106.313 47.8454C106.266 47.4931 106.109 47.2328 105.844 47.0645C105.578 46.8962 105.256 46.8376 104.876 46.8889L104.852 46.8921L105.158 49.1605Z" fill="#3766E4"/>
<path d="M103.037 58.1473C103.064 57.7545 103.15 57.4317 103.295 57.1787C103.438 56.9312 103.604 56.7538 103.793 56.6466C103.981 56.5448 104.163 56.4974 104.338 56.5043C104.387 56.5078 104.424 56.5269 104.449 56.5615C104.479 56.5966 104.493 56.6387 104.489 56.6878L104.464 57.0397C104.46 57.0942 104.444 57.1342 104.414 57.1595C104.39 57.1907 104.347 57.2151 104.286 57.2326C104.074 57.2779 103.919 57.3848 103.819 57.5531C103.719 57.727 103.658 57.9612 103.637 58.2558C103.617 58.5395 103.658 58.7754 103.76 58.9636C103.867 59.1576 104.035 59.2627 104.264 59.279C104.722 59.3115 104.97 59.0632 105.008 58.534L105.04 58.0839C105.044 58.0294 105.063 57.9869 105.098 57.9565C105.133 57.9261 105.178 57.9128 105.232 57.9167L105.437 57.9312C105.492 57.9351 105.534 57.9545 105.565 57.9896C105.595 58.0247 105.608 58.0695 105.604 58.124L105.576 58.525C105.543 58.9942 105.714 59.2421 106.091 59.2689C106.287 59.2828 106.456 59.2208 106.597 59.0828C106.744 58.9506 106.828 58.729 106.85 58.4181C106.872 58.1126 106.836 57.8879 106.742 57.7442C106.653 57.6008 106.496 57.491 106.272 57.4147C106.17 57.3801 106.123 57.3082 106.131 57.1991L106.155 56.8554C106.158 56.8118 106.174 56.7745 106.204 56.7437C106.239 56.7133 106.278 56.6997 106.322 56.7028C106.551 56.7245 106.753 56.8047 106.93 56.9433C107.112 57.0824 107.252 57.2787 107.349 57.5323C107.446 57.7914 107.481 58.101 107.456 58.4611C107.429 58.8375 107.347 59.1415 107.21 59.373C107.072 59.61 106.91 59.7766 106.722 59.873C106.534 59.9693 106.342 60.0105 106.146 59.9966C105.922 59.9807 105.745 59.9297 105.614 59.8436C105.482 59.763 105.377 59.6267 105.297 59.4346C105.188 59.6626 105.037 59.8191 104.845 59.9042C104.657 59.9951 104.43 60.031 104.163 60.012C103.759 59.9834 103.46 59.7976 103.265 59.4548C103.075 59.1124 102.999 58.6765 103.037 58.1473Z" fill="#3766E4"/>
<path d="M101.622 67.7824C101.695 67.5246 101.815 67.3 101.983 67.1088C102.15 66.9229 102.341 66.7895 102.557 66.7086C102.777 66.6344 102.997 66.6287 103.218 66.6913C103.566 66.7896 103.81 67.0122 103.95 67.359C104.091 67.7057 104.129 68.1342 104.064 68.6445L103.894 69.8755L104.123 69.9403C104.665 70.0938 105.025 69.8575 105.202 69.2313C105.271 68.9892 105.276 68.7803 105.218 68.6047C105.165 68.4305 105.082 68.2906 104.97 68.1849C104.923 68.1489 104.893 68.1148 104.879 68.0826C104.87 68.057 104.871 68.0232 104.883 67.9811L104.97 67.6733C104.983 67.6259 105.011 67.5883 105.053 67.5604C105.099 67.5393 105.145 67.5354 105.193 67.5488C105.314 67.5831 105.437 67.6778 105.564 67.8331C105.694 67.995 105.784 68.2108 105.833 68.4804C105.886 68.7515 105.865 69.0581 105.768 69.4001C105.601 69.9895 105.345 70.3717 105 70.5468C104.653 70.7272 104.275 70.7592 103.864 70.643L101.299 69.9164C101.246 69.9015 101.207 69.8704 101.18 69.8231C101.158 69.7826 101.154 69.736 101.169 69.6834L101.267 69.3361C101.282 69.2835 101.31 69.2458 101.35 69.2232C101.396 69.2021 101.445 69.199 101.498 69.2139L101.845 69.3122C101.704 69.1473 101.607 68.9379 101.554 68.6841C101.501 68.4303 101.524 68.1297 101.622 67.7824ZM102.153 68.1035C102.055 68.4508 102.088 68.767 102.251 69.0521C102.415 69.3372 102.713 69.5409 103.144 69.6631L103.365 69.7257L103.493 68.7641C103.547 68.3704 103.539 68.0582 103.468 67.8277C103.397 67.5973 103.266 67.4552 103.077 67.4016C102.861 67.3404 102.671 67.3803 102.506 67.5212C102.34 67.6673 102.222 67.8614 102.153 68.1035Z" fill="#3766E4"/>
<path d="M99.0607 80.5335C99.0098 80.5127 98.9312 80.4741 98.825 80.4177C98.7332 80.369 98.6692 80.3319 98.6331 80.3066C98.1555 80.0283 97.8462 79.666 97.7054 79.2197C97.5645 78.7734 97.6339 78.287 97.9134 77.7604C98.2006 77.2194 98.572 76.8871 99.0276 76.7636C99.4881 76.6427 99.9953 76.7137 100.549 76.9768L101.419 77.4383C102.107 77.8098 102.575 78.176 102.823 78.5368C103.074 78.905 103.187 79.2931 103.162 79.7011C103.14 80.1165 103.028 80.7475 102.826 81.594L102.773 81.8166L102.761 81.8566C102.743 81.8905 102.714 81.9155 102.675 81.9316C102.635 81.9478 102.593 81.9504 102.55 81.9396L102.244 81.8514L102.196 81.8356C102.124 81.7971 102.096 81.7328 102.113 81.6427C102.129 81.577 102.166 81.4324 102.222 81.2086C102.384 80.5887 102.482 80.1299 102.517 79.8322C102.548 79.5394 102.495 79.2726 102.356 79.0319C102.218 78.7912 101.947 78.5546 101.544 78.3222C101.656 78.5304 101.712 78.7703 101.71 79.0419C101.708 79.3134 101.643 79.57 101.515 79.8115C101.256 80.2994 100.905 80.5992 100.462 80.7107C100.021 80.8297 99.554 80.7706 99.0607 80.5335ZM99.0232 79.6591C99.0545 79.6819 99.1063 79.7125 99.1788 79.751C99.2658 79.7972 99.3323 79.8294 99.3783 79.8476C99.7458 80.0303 100.072 80.0859 100.358 80.0146C100.648 79.9458 100.868 79.7713 101.016 79.4911C101.186 79.1722 101.224 78.8612 101.131 78.558C101.043 78.2574 100.821 78.0037 100.467 77.7969L100.275 77.6858L100.112 77.6084C99.7417 77.4306 99.4102 77.3785 99.1173 77.4521C98.8266 77.5331 98.5992 77.7282 98.4351 78.0374C98.2736 78.3417 98.2407 78.637 98.3365 78.9231C98.4371 79.2118 98.666 79.4572 99.0232 79.6591Z" fill="#3766E4"/>
<path d="M94.3623 90.8094C94.3341 90.8429 94.2969 90.8616 94.2506 90.8655C94.2009 90.8737 94.1593 90.8637 94.1258 90.8355C94.1091 90.8214 94.082 90.7771 94.0445 90.7027L92.2249 87.1323L92.1406 86.9648C91.968 86.6264 91.8368 86.3407 91.747 86.1077C91.6536 85.879 91.6065 85.6462 91.6057 85.4095C91.5971 85.1735 91.6703 84.9634 91.8253 84.7794L92.0261 84.5409C92.0614 84.4991 92.1059 84.4759 92.1599 84.4712C92.2061 84.4673 92.2502 84.4829 92.292 84.5181L92.4865 84.682C92.5284 84.7172 92.5534 84.7597 92.5615 84.8095C92.5619 84.8599 92.5445 84.906 92.5093 84.9478L92.3719 85.111C92.2944 85.203 92.2498 85.2942 92.2381 85.3845C92.2265 85.4747 92.2431 85.5781 92.288 85.6946C92.3294 85.8153 92.4062 85.9872 92.5185 86.2105L92.6859 86.5339L96.5654 87.7095C96.6374 87.7344 96.6817 87.7538 96.6985 87.7679C96.7361 87.7996 96.7569 87.8386 96.7609 87.8849C96.7648 87.9311 96.751 87.973 96.7193 88.0107L96.4867 88.2868C96.4304 88.3537 96.3546 88.3757 96.2595 88.3528L93.1133 87.3764L94.6159 90.3044C94.6582 90.3901 94.6477 90.4705 94.5842 90.5458L94.3623 90.8094Z" fill="#3766E4"/>
<path d="M86.1458 91.9222C86.189 91.8887 86.2358 91.8732 86.2862 91.8757C86.3322 91.8816 86.3737 91.9083 86.4105 91.9559L87.1237 92.877C87.1572 92.9202 87.1711 92.9648 87.1652 93.0109C87.1584 93.0646 87.1333 93.1082 87.0901 93.1417L87.0576 93.1668C86.876 93.3074 86.857 93.5643 87.0006 93.9373C87.1399 94.3137 87.4623 94.8283 87.9679 95.4813L88.6109 96.3116C88.6443 96.3549 88.6582 96.3995 88.6523 96.4455C88.6455 96.4993 88.6204 96.5428 88.5772 96.5763L86.5274 98.1636C86.4799 98.2004 86.4331 98.2159 86.387 98.21C86.341 98.2042 86.2995 98.1775 86.2627 98.1299L84.1632 95.4185L83.8583 95.6546C83.8107 95.6914 83.7639 95.7069 83.7179 95.701C83.6718 95.6952 83.6304 95.6685 83.5936 95.6209L82.8753 94.6933C82.8385 94.6457 82.823 94.5989 82.8288 94.5529C82.8347 94.5069 82.8614 94.4654 82.909 94.4286L83.1944 94.2076C83.2376 94.1741 83.2839 94.1624 83.3333 94.1726C83.3794 94.1785 83.4191 94.203 83.4526 94.2463L83.8896 94.8106L86.2637 92.9723L85.8267 92.4079C85.7932 92.3647 85.7816 92.3184 85.7917 92.269C85.7943 92.2186 85.8171 92.1767 85.8604 92.1432L86.1458 91.9222ZM84.747 94.9664L86.5753 97.3276L87.7688 96.4034L87.3469 95.8585C86.6638 94.9763 86.3187 94.2716 86.3117 93.7444L84.747 94.9664Z" fill="#3766E4"/>
<path d="M74.6293 100.652C74.593 100.627 74.5678 100.599 74.5536 100.57C74.5158 100.491 74.5437 100.429 74.6374 100.384L75.0591 100.182C75.1331 100.147 75.2174 100.152 75.3121 100.197L77.1442 101.23L77.847 100.893L77.1308 99.3984C77.1072 99.3491 77.1043 99.2989 77.1223 99.2478C77.1377 99.204 77.1701 99.1703 77.2194 99.1467L77.5375 98.9942C77.5868 98.9706 77.6359 98.9653 77.6846 98.9783C77.7307 98.9987 77.7656 99.0335 77.7892 99.0828L79.4699 102.59C79.4936 102.639 79.4977 102.685 79.4823 102.729C79.4643 102.78 79.4306 102.818 79.3813 102.841L79.0632 102.994C79.0089 103.02 78.9599 103.025 78.9162 103.01C78.8724 102.994 78.8375 102.959 78.8115 102.905L78.1272 101.477L77.4391 101.807L77.1383 103.78C77.1244 103.877 77.078 103.945 76.9991 103.983L76.6366 104.157C76.5922 104.178 76.5493 104.183 76.5079 104.173C76.4689 104.167 76.4411 104.147 76.4245 104.113C76.4198 104.103 76.4176 104.086 76.418 104.061C76.4208 104.042 76.4211 104.023 76.419 104.006L76.7451 101.839L74.6293 100.652Z" fill="#3766E4"/>
<path d="M67.2758 103.014C67.536 102.95 67.7907 102.943 68.0399 102.994C68.2838 103.047 68.4944 103.147 68.6717 103.295C68.845 103.449 68.9591 103.638 69.0141 103.861C69.1006 104.212 69.0279 104.534 68.7962 104.827C68.5644 105.121 68.2108 105.366 67.7353 105.562L66.5817 106.024L66.6387 106.255C66.7736 106.802 67.157 106.998 67.7889 106.842C68.0332 106.782 68.2172 106.683 68.341 106.545C68.4661 106.413 68.5468 106.272 68.5831 106.122C68.5913 106.064 68.606 106.021 68.6273 105.993C68.6446 105.972 68.6745 105.956 68.717 105.945L69.0276 105.869C69.0754 105.857 69.1218 105.862 69.1669 105.885C69.2079 105.914 69.2343 105.953 69.2461 106.001C69.2762 106.123 69.2552 106.277 69.1829 106.464C69.1067 106.658 68.9635 106.842 68.7534 107.018C68.5445 107.199 68.2675 107.332 67.9224 107.417C67.3276 107.564 66.8688 107.531 66.5458 107.317C66.2175 107.105 66.0023 106.792 65.9001 106.378L65.2617 103.789C65.2486 103.736 65.256 103.687 65.284 103.64C65.308 103.601 65.3466 103.574 65.3997 103.561L65.7501 103.475C65.8032 103.462 65.8496 103.467 65.8894 103.491C65.9304 103.52 65.9575 103.562 65.9706 103.615L66.057 103.965C66.1306 103.761 66.2645 103.573 66.4587 103.401C66.6529 103.229 66.9253 103.1 67.2758 103.014ZM67.2599 103.635C66.9094 103.721 66.6508 103.906 66.4841 104.189C66.3174 104.473 66.2877 104.832 66.3951 105.267L66.4501 105.491L67.3486 105.125C67.7179 104.978 67.985 104.816 68.1501 104.64C68.3151 104.464 68.3741 104.281 68.3269 104.09C68.2732 103.872 68.1444 103.726 67.9403 103.653C67.7309 103.58 67.5041 103.574 67.2599 103.635Z" fill="#3766E4"/>
</svg>
