<svg width="140" height="140" viewBox="0 0 140 140" fill="none" xmlns="http://www.w3.org/2000/svg">
<circle cx="70" cy="70" r="70" fill="white"/>
<path fill-rule="evenodd" clip-rule="evenodd" d="M100.549 48.0548C99.3231 50.7764 97.7081 53.3785 95.6957 55.7815C91.02 61.3647 84.9103 65.0227 78.3634 66.6707C78.2939 66.6882 78.2232 66.7063 78.1512 66.7246C76.6323 67.1119 74.5735 67.6368 72.6494 66.0191C70.6866 64.3689 70.8476 62.4904 70.9801 60.9447C70.9932 60.791 71.0061 60.6406 71.0166 60.4941C71.4996 53.7478 74.034 47.0841 78.7098 41.5009C80.7121 39.11 82.9764 37.0731 85.4244 35.396C88.6362 36.237 91.7179 37.7872 94.4332 40.0699C97.1206 42.3294 99.1649 45.0677 100.549 48.0548ZM40.183 68.8658C37.241 69.9386 34.5439 71.3831 32.1243 73.1261C31.8321 76.4063 32.236 79.8018 33.4359 83.1049C34.6482 86.4421 36.5435 89.3284 38.9053 91.6658C41.8623 91.4398 44.8397 90.8102 47.7668 89.7427C54.6023 87.2499 60.1225 82.7486 63.9074 77.1482C63.9896 77.0265 64.0758 76.9027 64.164 76.7762C65.05 75.504 66.1269 73.9579 65.2505 71.5454C64.3915 69.1805 62.3465 68.6037 60.8378 68.1781C60.7664 68.158 60.6961 68.1382 60.6272 68.1185C54.135 66.2659 47.0185 66.373 40.183 68.8658ZM107.851 73.1261C105.431 71.3831 102.734 69.9386 99.792 68.8658C92.9565 66.373 85.84 66.2659 79.3477 68.1185C79.3263 68.1246 79.3048 68.1307 79.2831 68.1369C79.2353 68.1505 79.1868 68.1641 79.1378 68.178L79.1371 68.1781C77.6284 68.6037 75.5835 69.1805 74.7244 71.5454C73.8481 73.9579 74.9249 75.504 75.811 76.7762C75.8991 76.9027 75.9853 77.0265 76.0676 77.1482C79.8524 82.7486 85.3727 87.2499 92.2081 89.7427C95.1353 90.8102 98.1127 91.4398 101.07 91.6658C103.432 89.3284 105.327 86.4421 106.539 83.1049C107.739 79.8018 108.143 76.4063 107.851 73.1261ZM79.8693 106.78C80.6765 103.906 81.1087 100.873 81.1087 97.7356C81.1087 90.4473 78.7751 83.7103 74.8171 78.2313C74.7901 78.1938 74.7627 78.1558 74.7351 78.1173L74.6892 78.0534C73.7741 76.7785 72.5337 75.0504 70.0219 75.0504C67.4597 75.0504 66.3779 76.5931 65.4878 77.8625C65.3993 77.9887 65.3126 78.1122 65.2267 78.2313C61.2687 83.7103 58.9352 90.4473 58.9352 97.7356C58.9352 100.857 59.363 103.875 60.1623 106.737C63.1623 108.161 66.5175 108.958 70.062 108.958C73.5702 108.958 76.8929 108.177 79.8693 106.78Z" fill="#3766E4"/>
<path fill-rule="evenodd" clip-rule="evenodd" d="M40.8874 50.7527C40.3878 49.8689 39.9324 48.9685 39.5209 48.0548C40.9048 45.0677 42.949 42.3294 45.6365 40.0699C48.3517 37.7872 51.4334 36.237 54.6453 35.396C55.4065 35.9175 56.15 36.4739 56.8734 37.0648C53.1527 37.4623 49.5166 38.9833 46.5057 41.6605C43.6812 44.172 41.7997 47.3518 40.8874 50.7527ZM41.8818 52.3988C42.5656 48.7581 44.4144 45.3095 47.3924 42.6615C50.5345 39.8676 54.4106 38.4301 58.3073 38.3063C59.1142 39.0462 59.8919 39.8327 60.6366 40.6653C56.5242 40.1795 52.2326 41.3867 48.8935 44.3558C45.6782 47.2148 43.9769 51.1465 43.8486 55.1385C43.1404 54.2495 42.4849 53.335 41.8818 52.3988ZM45.2228 56.7568C46.1495 57.7814 47.1266 58.7353 48.147 59.6179C46.5545 55.3104 47.6481 50.2813 51.2807 47.0513C54.9521 43.7867 60.1363 43.3207 64.2366 45.4951C63.5544 44.384 62.8002 43.3018 61.9732 42.2549C57.7946 41.286 53.2292 42.29 49.7801 45.3568C46.4283 48.3372 44.8818 52.598 45.2228 56.7568ZM65.7107 48.1634C61.9346 44.6921 56.0781 44.5749 52.1673 48.0523C48.2214 51.5609 47.6666 57.475 50.7494 61.6509C52.9394 63.192 55.282 64.4417 57.7202 65.3953C56.0711 63.9829 54.499 62.4402 53.0181 60.7683C52.996 60.7434 52.9761 60.7172 52.9584 60.6901C52.9336 60.6692 52.91 60.6463 52.8879 60.6213C50.0908 57.4633 50.4639 52.5959 53.6681 49.7468C56.8656 46.9036 61.7197 47.104 64.5196 50.2429C64.6087 50.2804 64.6911 50.3381 64.7596 50.4155C65.7064 51.4843 66.7088 52.4741 67.7588 53.3844C67.2298 51.6053 66.5477 49.8584 65.7107 48.1634ZM68.3307 55.5804C66.7119 54.33 65.186 52.9106 63.7782 51.3237C63.6891 51.2862 63.6067 51.2285 63.5382 51.1512C61.253 48.5711 57.2326 48.3667 54.5548 50.7478C51.877 53.1288 51.6017 57.1529 53.887 59.7329C53.9091 59.7579 53.929 59.7841 53.9467 59.8112C53.9715 59.8321 53.9951 59.855 54.0172 59.88C56.2712 62.4247 58.7425 64.6613 61.3783 66.5864C61.4875 66.6151 61.5968 66.6432 61.7063 66.6707C61.7757 66.6882 61.8465 66.7063 61.9184 66.7246C63.0166 67.0046 64.397 67.3565 65.8046 66.9187C62.122 64.6857 58.7073 61.8671 55.6997 58.4715C54.1368 56.707 54.2951 54.0075 56.0555 52.4422C57.816 50.8768 60.5099 51.0401 62.0728 52.8047C64.1296 55.1268 66.4227 57.1138 68.8835 58.7616C68.7511 57.6957 68.567 56.6339 68.3307 55.5804ZM69.0509 60.4643C66.1516 58.6456 63.4594 56.3865 61.0737 53.693C59.9995 52.4802 58.1497 52.3694 56.9422 53.4432C55.7346 54.5169 55.6246 56.3704 56.6988 57.5832C59.8064 61.0917 63.3622 63.9648 67.2029 66.1925C67.2755 66.1376 67.348 66.0799 67.4203 66.0191C68.0403 65.4978 68.4484 64.9537 68.7125 64.4045C64.9656 62.2728 61.4987 59.4972 58.479 56.0878C58.2341 55.8114 58.2593 55.3885 58.5352 55.1431C58.8111 54.8978 59.2332 54.9231 59.478 55.1995C62.3256 58.4144 65.5843 61.0464 69.1041 63.0865C69.2092 62.3406 69.1467 61.6117 69.0896 60.9447L69.0896 60.9445C69.0764 60.7909 69.0635 60.6406 69.053 60.4941C69.0523 60.4842 69.0516 60.4742 69.0509 60.4643Z" fill="#3766E4"/>
<path d="M69.9887 65.2764L70.0227 65.3614C70.8051 67.3222 72.6337 68.6593 74.7285 68.8022L74.8193 68.8084L74.7494 68.8671C73.1382 70.222 72.4397 72.3854 72.952 74.4346L72.9742 74.5234L72.8971 74.4747C71.1189 73.3512 68.8586 73.3512 67.0804 74.4747L67.0033 74.5234L67.0255 74.4346C67.5378 72.3854 66.8393 70.222 65.228 68.8671L65.1582 68.8084L65.249 68.8022C67.3438 68.6593 69.1724 67.3222 69.9548 65.3614L69.9887 65.2764Z" fill="#3766E4"/>
<path d="M17.5686 41.1835L17.6034 41.2243C18.4055 42.1645 18.6027 43.4463 18.1109 44.5229L18.0896 44.5696L18.1388 44.5516C19.2741 44.1368 20.5809 44.4016 21.5016 45.2332L21.5415 45.2692L21.5372 45.2173C21.4367 44.0207 22.0471 42.9026 23.1079 42.34L23.1539 42.3156L23.102 42.3015C21.9046 41.9767 20.9751 41.0208 20.71 39.8416L20.6985 39.7905L20.6708 39.8336C20.0312 40.8295 18.8464 41.3569 17.6217 41.1907L17.5686 41.1835Z" fill="#3766E4"/>
<path d="M119.931 37.5494L119.899 37.5924C119.16 38.5827 119.046 39.8746 119.607 40.917L119.631 40.9622L119.581 40.9474C118.421 40.6071 117.134 40.9561 116.269 41.8456L116.232 41.8842L116.233 41.8322C116.255 40.6315 115.574 39.5554 114.479 39.0627L114.431 39.0413L114.482 39.0239C115.656 38.6222 116.521 37.608 116.709 36.4141L116.718 36.3623L116.748 36.4036C117.451 37.3559 118.667 37.8053 119.879 37.5601L119.931 37.5494Z" fill="#3766E4"/>
<path d="M71.7461 129.582L71.7252 129.533C71.2434 128.395 70.1854 127.645 69.0026 127.603L68.9513 127.601L68.9894 127.565C69.8685 126.735 70.2165 125.448 69.885 124.253L69.8707 124.201L69.9151 124.228C70.9402 124.853 72.2133 124.808 73.1912 124.111L73.2336 124.081L73.223 124.134C72.9775 125.35 73.4162 126.609 74.3521 127.374L74.3927 127.407L74.3417 127.412C73.1649 127.539 72.163 128.362 71.7634 129.532L71.7461 129.582Z" fill="#3766E4"/>
<path d="M27.0148 37.2062C26.9762 37.252 26.9297 37.2793 26.8752 37.2881C26.82 37.2885 26.7695 37.2694 26.7237 37.2308L23.4705 34.4852C23.4247 34.4466 23.3997 34.4019 23.3954 34.3513C23.3904 34.2923 23.4072 34.2398 23.4458 34.1941L23.7007 33.8921C23.7393 33.8463 23.7862 33.8232 23.8414 33.8228C23.8959 33.814 23.946 33.8288 23.9918 33.8675L25.3164 34.9854L26.9152 33.0911L25.5905 31.9731C25.5448 31.9345 25.5197 31.8899 25.5155 31.8393C25.5105 31.7802 25.5273 31.7278 25.5659 31.6821L25.8207 31.3801C25.8632 31.3297 25.9098 31.3024 25.9604 31.2981C26.011 31.2938 26.0615 31.3129 26.1118 31.3554L29.3651 34.1011C29.4109 34.1397 29.4363 34.1885 29.4413 34.2476C29.4455 34.2982 29.4284 34.3464 29.3898 34.3922L29.1349 34.6942C29.0963 34.7399 29.0497 34.7672 28.9952 34.7761C28.94 34.7765 28.8896 34.7574 28.8438 34.7188L27.4437 33.5371L25.8449 35.4314L27.2451 36.6131C27.2908 36.6517 27.3162 36.7006 27.3212 36.7596C27.3255 36.8103 27.3083 36.8584 27.2697 36.9042L27.0148 37.2062Z" fill="#3766E4"/>
<path d="M36.4064 27.7367C35.9231 28.1101 35.4217 28.2592 34.902 28.184C34.3787 28.1041 33.9015 27.8145 33.4704 27.3153L33.2766 27.0792L33.1025 26.8392C32.7355 26.3055 32.5794 25.7754 32.6341 25.2489C32.6888 24.7224 32.9578 24.2724 33.4411 23.899C33.9623 23.4963 34.4931 23.351 35.0337 23.463C35.5789 23.5713 36.0712 23.9097 36.5105 24.4783L36.6093 24.6062C36.646 24.6536 36.6605 24.7067 36.653 24.7655C36.6465 24.8159 36.6196 24.8594 36.5722 24.896L34.1061 26.8014L34.1555 26.8654C34.4077 27.1624 34.7056 27.3521 35.0493 27.4346C35.393 27.5171 35.7094 27.4467 35.9984 27.2234C36.2211 27.0513 36.3682 26.8696 36.4397 26.6781C36.5123 26.4783 36.5475 26.3035 36.5453 26.1538C36.544 26.064 36.5516 26.0053 36.568 25.9775C36.5807 25.945 36.6154 25.9067 36.6723 25.8628L36.985 25.6212C37.0276 25.5882 37.0723 25.5726 37.1191 25.5744C37.1705 25.5724 37.2109 25.5904 37.2402 25.6283C37.3207 25.7325 37.3538 25.9075 37.3393 26.1532C37.3249 26.3989 37.2413 26.6678 37.0886 26.9598C36.937 27.2434 36.7096 27.5024 36.4064 27.7367ZM35.7155 24.7861L35.699 24.7648C35.4428 24.4331 35.1441 24.2326 34.803 24.1633C34.4619 24.0939 34.1397 24.1764 33.8365 24.4107C33.5285 24.6486 33.3674 24.9396 33.3532 25.2835C33.339 25.6274 33.46 25.9652 33.7162 26.2968L33.7327 26.3182L35.7155 24.7861Z" fill="#3766E4"/>
<path d="M45.397 21.8785C45.0093 22.0671 44.6562 22.1623 44.3375 22.1642C44.0242 22.1634 43.7651 22.103 43.5602 21.983C43.3607 21.8603 43.2164 21.7141 43.1272 21.5444C43.1036 21.496 43.1014 21.4504 43.1207 21.4078C43.1372 21.3598 43.1698 21.324 43.2182 21.3004L43.5655 21.1315C43.6194 21.1053 43.6663 21.0991 43.7063 21.1129C43.7491 21.1188 43.7956 21.146 43.846 21.1948C44.0047 21.3706 44.1912 21.4597 44.4054 21.462C44.625 21.4617 44.8802 21.3909 45.1709 21.2494C45.4509 21.1132 45.6522 20.9454 45.7749 20.7459C45.9004 20.5384 45.9081 20.3216 45.7981 20.0955C45.5781 19.6432 45.2069 19.5441 44.6847 19.7981L44.2405 20.0142C44.1866 20.0404 44.1357 20.0452 44.0877 20.0286C44.0397 20.012 44.0026 19.9768 43.9764 19.9229L43.8782 19.721C43.852 19.6672 43.8472 19.6162 43.8638 19.5682C43.8804 19.5202 43.9156 19.4831 43.9694 19.4569L44.3652 19.2644C44.8282 19.0392 44.9694 18.7408 44.7887 18.3693C44.6944 18.1755 44.5431 18.0493 44.3349 17.9908C44.1294 17.9243 43.8732 17.9656 43.5663 18.1149C43.2648 18.2616 43.0716 18.4188 42.9868 18.5866C42.8993 18.749 42.881 18.9577 42.9317 19.2126C42.9546 19.328 42.9122 19.4119 42.8045 19.4643L42.4653 19.6293C42.4222 19.6502 42.378 19.6551 42.3326 19.6439C42.2845 19.6273 42.2501 19.5975 42.2291 19.5544C42.1245 19.3256 42.0896 19.0896 42.1244 18.8463C42.1565 18.5976 42.2663 18.3578 42.4536 18.1269C42.6462 17.8933 42.9203 17.6901 43.2756 17.5173C43.6471 17.3366 43.9802 17.2478 44.2747 17.251C44.5746 17.2516 44.8216 17.3146 45.0157 17.4399C45.2098 17.5652 45.354 17.7247 45.4483 17.9186C45.5557 18.1393 45.6044 18.3353 45.5945 18.5066C45.59 18.6753 45.5185 18.8499 45.3799 19.0305C45.656 19.0094 45.887 19.0668 46.0729 19.2027C46.2617 19.3306 46.4202 19.5265 46.5485 19.7903C46.7423 20.1888 46.7301 20.5742 46.5118 20.9468C46.2909 21.3139 45.9193 21.6245 45.397 21.8785Z" fill="#3766E4"/>
<path d="M55.306 17.9458C55.0216 18.0177 54.7428 18.0264 54.4696 17.9719C54.2023 17.916 53.9711 17.8077 53.7761 17.647C53.5854 17.4791 53.4592 17.2732 53.3976 17.0294C53.3008 16.6463 53.3783 16.2932 53.6301 15.9701C53.8819 15.6471 54.2675 15.3767 54.7868 15.159L56.0467 14.646L55.9828 14.3935C55.8317 13.7956 55.4107 13.5839 54.72 13.7585C54.4529 13.826 54.2521 13.9355 54.1175 14.0869C53.9813 14.2324 53.8939 14.3873 53.8551 14.5515C53.8466 14.6154 53.8307 14.6627 53.8075 14.6932C53.7887 14.7165 53.7561 14.734 53.7097 14.7458L53.3701 14.8316C53.3178 14.8448 53.267 14.8391 53.2176 14.8146C53.1725 14.7827 53.1433 14.7407 53.1301 14.6885C53.0963 14.555 53.1184 14.3857 53.1963 14.1808C53.2785 13.9685 53.4341 13.7655 53.663 13.5718C53.8905 13.3723 54.1929 13.2248 54.5702 13.1294C55.2203 12.9651 55.7229 12.9986 56.0778 13.23C56.4386 13.46 56.6761 13.8013 56.7906 14.2541L57.5059 17.084C57.5206 17.142 57.5128 17.1965 57.4824 17.2474C57.4564 17.291 57.4144 17.3202 57.3563 17.3349L56.9732 17.4317C56.9151 17.4464 56.8643 17.4407 56.8207 17.4147C56.7756 17.3829 56.7457 17.3379 56.731 17.2799L56.6342 16.8968C56.5549 17.1206 56.4095 17.3272 56.1979 17.5165C55.9864 17.7059 55.6891 17.8489 55.306 17.9458ZM55.3195 17.2661C55.7026 17.1693 55.9845 16.9653 56.1652 16.654C56.3459 16.3428 56.3761 15.9492 56.2558 15.4732L56.1941 15.2294L55.2128 15.6349C54.8095 15.7986 54.5181 15.9773 54.3386 16.1709C54.159 16.3645 54.0956 16.5658 54.1484 16.7747C54.2086 17.0127 54.3506 17.1714 54.5745 17.2507C54.8041 17.3285 55.0524 17.3336 55.3195 17.2661Z" fill="#3766E4"/>
<path d="M68.7968 13.3945C68.8049 13.4541 68.8113 13.5498 68.816 13.6814C68.8201 13.7951 68.82 13.876 68.8157 13.924C68.8133 14.5292 68.6391 15.0207 68.2931 15.3985C67.9471 15.7763 67.448 15.9769 66.7957 16.0001C66.1256 16.024 65.6073 15.8538 65.2408 15.4894C64.8741 15.119 64.6639 14.5993 64.6101 13.9302L64.5717 12.8531C64.5471 11.9973 64.638 11.353 64.8443 10.9202C65.0563 10.4813 65.3624 10.1618 65.7627 9.96184C66.1687 9.75565 66.8282 9.51645 67.7412 9.24426L67.9813 9.1728L68.0258 9.16222C68.0677 9.16073 68.1072 9.1743 68.1441 9.20294C68.1811 9.23158 68.2064 9.26962 68.2201 9.31706L68.304 9.65557L68.3149 9.7091C68.3181 9.79885 68.2724 9.8604 68.1777 9.89373C68.1066 9.91424 67.9494 9.95878 67.7062 10.0274C67.0298 10.2132 66.5412 10.3714 66.2403 10.502C65.9454 10.6323 65.7217 10.829 65.5693 11.0921C65.4169 11.3551 65.3408 11.7413 65.341 12.2505C65.4769 12.03 65.6741 11.8462 65.9325 11.6992C66.1908 11.5522 66.4696 11.4734 66.7688 11.4627C67.3731 11.4412 67.8495 11.6099 68.1978 11.969C68.5519 12.3218 68.7515 12.797 68.7968 13.3945ZM67.9883 13.9086C67.9928 13.8665 67.9935 13.8006 67.9903 13.7108C67.9864 13.6031 67.9806 13.5225 67.9727 13.4688C67.9447 13.0205 67.8187 12.6805 67.5948 12.4488C67.3706 12.2111 67.085 12.0985 66.738 12.1109C66.3431 12.125 66.0273 12.259 65.7907 12.5131C65.5539 12.7612 65.4346 13.1099 65.4326 13.5594L65.4323 13.802L65.4483 13.9992C65.4822 14.4473 65.6143 14.7901 65.8444 15.0275C66.0803 15.2587 66.3898 15.3675 66.7727 15.3539C67.1497 15.3404 67.4476 15.21 67.6664 14.9626C67.8851 14.7091 67.9924 14.3578 67.9883 13.9086Z" fill="#3766E4"/>
<path d="M81.1107 12.2242C81.1579 12.2327 81.196 12.2577 81.2251 12.2994C81.26 12.3421 81.2733 12.387 81.2649 12.4342C81.2607 12.4577 81.2336 12.5076 81.1835 12.5839L78.7946 16.2634L78.6819 16.4349C78.4555 16.7838 78.2565 17.0645 78.0848 17.2772C77.919 17.4909 77.7241 17.663 77.5002 17.7934C77.2811 17.9307 77.0419 17.9763 76.7825 17.9301L76.4465 17.8702C76.3876 17.8597 76.3412 17.8301 76.3073 17.7815C76.2782 17.7399 76.2689 17.6895 76.2794 17.6306L76.3283 17.3565C76.3388 17.2976 76.3654 17.2506 76.4081 17.2156C76.4557 17.1876 76.5089 17.1789 76.5679 17.1894L76.7977 17.2303C76.9274 17.2534 77.0383 17.2458 77.1302 17.2075C77.2222 17.1691 77.3111 17.0968 77.397 16.9905C77.4887 16.8852 77.6097 16.7182 77.7599 16.4895L77.9748 16.1538L76.9659 11.8324C76.9501 11.7505 76.9443 11.6978 76.9485 11.6742C76.958 11.6211 76.9835 11.5801 77.0252 11.551C77.0668 11.5219 77.1142 11.5121 77.1673 11.5216L77.5563 11.5909C77.6506 11.6077 77.7129 11.6675 77.7433 11.7702L78.5397 15.2874L80.4931 12.2602C80.5512 12.1732 80.6333 12.1392 80.7394 12.1581L81.1107 12.2242Z" fill="#3766E4"/>
<path d="M86.6632 19.4049C86.6077 19.3822 86.5674 19.3463 86.5422 19.2972C86.5226 19.2504 86.5252 19.1965 86.5502 19.1355L87.033 17.9551C87.0557 17.8997 87.0905 17.8622 87.1373 17.8425C87.192 17.8196 87.247 17.8195 87.3024 17.8421L87.344 17.8591C87.5767 17.9544 87.8306 17.8318 88.1057 17.4915C88.3863 17.1534 88.6978 16.566 89.0401 15.7292L89.4753 14.6652C89.498 14.6098 89.5328 14.5723 89.5796 14.5526C89.6343 14.5297 89.6893 14.5296 89.7447 14.5522L92.3715 15.6268C92.4324 15.6517 92.4727 15.6876 92.4924 15.7345C92.512 15.7813 92.5094 15.8352 92.4845 15.8962L91.0631 19.3708L91.4538 19.5306C91.5147 19.5556 91.555 19.5915 91.5747 19.6383C91.5943 19.6852 91.5917 19.7391 91.5668 19.8L91.0805 20.9887C91.0556 21.0497 91.0197 21.09 90.9728 21.1096C90.926 21.1293 90.8721 21.1266 90.8111 21.1017L90.4454 20.9521C90.3899 20.9294 90.3535 20.8919 90.3362 20.8395C90.3165 20.7926 90.318 20.7415 90.3407 20.6861L90.6365 19.9629L87.5941 18.7183L87.2983 19.4415C87.2756 19.4969 87.2381 19.5333 87.1857 19.5507C87.1366 19.5759 87.0843 19.5772 87.0289 19.5545L86.6632 19.4049ZM90.315 19.0648L91.5527 16.039L90.0232 15.4133L89.7376 16.1116C89.2751 17.2421 88.7959 17.955 88.2999 18.2502L90.315 19.0648Z" fill="#3766E4"/>
<path d="M101.243 25.5449C101.239 25.5931 101.227 25.6319 101.207 25.6616C101.153 25.7406 101.079 25.748 100.985 25.6838L100.562 25.3946C100.488 25.3439 100.447 25.2612 100.438 25.1465L100.414 22.8444L99.7103 22.3624L98.6855 23.8595C98.6517 23.9089 98.6057 23.939 98.5474 23.95C98.4975 23.9593 98.4478 23.9471 98.3984 23.9133L98.0797 23.6951C98.0303 23.6613 97.9985 23.6177 97.9842 23.5644C97.9782 23.5095 97.9921 23.4574 98.026 23.408L100.431 19.8951C100.464 19.8457 100.506 19.8163 100.556 19.807C100.615 19.7961 100.668 19.8075 100.718 19.8413L101.036 20.0595C101.091 20.0967 101.123 20.1403 101.132 20.1902C101.141 20.2401 101.127 20.2923 101.09 20.3466L100.111 21.777L100.8 22.2488L102.835 21.4541C102.935 21.4139 103.025 21.4208 103.104 21.4749L103.467 21.7235C103.512 21.7539 103.54 21.7916 103.553 21.8366C103.569 21.8767 103.565 21.914 103.542 21.9486C103.535 21.9585 103.52 21.9699 103.496 21.9829C103.476 21.9909 103.459 22.0007 103.444 22.0121L101.211 22.889L101.243 25.5449Z" fill="#3766E4"/>
<path d="M107.508 31.2237C107.304 31.0121 107.159 30.7742 107.071 30.5099C106.987 30.2499 106.967 29.9954 107.01 29.7464C107.061 29.4976 107.178 29.2861 107.359 29.1119C107.644 28.8381 107.989 28.7307 108.395 28.7896C108.8 28.8485 109.226 29.0497 109.672 29.3932L110.741 30.2339L110.929 30.0535C111.374 29.6262 111.349 29.1557 110.856 28.6419C110.665 28.4433 110.471 28.323 110.272 28.2809C110.078 28.2347 109.901 28.2353 109.739 28.2829C109.679 28.3071 109.63 28.3167 109.592 28.3117C109.563 28.3069 109.531 28.2872 109.498 28.2527L109.255 28.0001C109.218 27.9613 109.198 27.9143 109.195 27.8592C109.2 27.8042 109.222 27.7581 109.261 27.7207C109.36 27.6253 109.518 27.5607 109.735 27.527C109.96 27.4934 110.213 27.5281 110.495 27.6311C110.781 27.73 111.059 27.9197 111.328 28.2004C111.793 28.6839 112.013 29.1372 111.987 29.5602C111.966 29.9874 111.787 30.3628 111.45 30.6864L109.345 32.7087C109.302 32.7502 109.251 32.7703 109.192 32.7691C109.141 32.7681 109.095 32.746 109.053 32.7028L108.779 32.4179C108.738 32.3747 108.718 32.3277 108.719 32.2769C108.724 32.222 108.748 32.1738 108.792 32.1323L109.077 31.8585C108.843 31.9004 108.591 31.8763 108.322 31.7862C108.053 31.6962 107.781 31.5086 107.508 31.2237ZM108.105 30.899C108.379 31.1839 108.695 31.3279 109.055 31.3309C109.415 31.3338 109.772 31.1652 110.126 30.8251L110.308 30.6508L109.469 29.9989C109.128 29.7295 108.828 29.5647 108.571 29.5045C108.314 29.4443 108.108 29.4889 107.952 29.6383C107.775 29.8083 107.708 30.0102 107.749 30.244C107.796 30.482 107.914 30.7004 108.105 30.899Z" fill="#3766E4"/>
<path d="M58.5715 123.069C58.6295 123.084 58.6742 123.114 58.7057 123.16C58.7299 123.209 58.7345 123.263 58.7195 123.321L57.6483 127.441C57.6333 127.499 57.6038 127.541 57.56 127.567C57.5089 127.597 57.4544 127.604 57.3964 127.589L57.014 127.49C56.956 127.475 56.9149 127.442 56.8907 127.393C56.8592 127.347 56.851 127.296 56.866 127.238L57.3022 125.56L54.9031 124.936L54.467 126.614C54.4519 126.672 54.4225 126.714 54.3787 126.74C54.3276 126.77 54.273 126.777 54.2151 126.762L53.8326 126.663C53.7689 126.646 53.7242 126.616 53.6984 126.572C53.6727 126.528 53.6681 126.474 53.6847 126.411L54.7558 122.291C54.7709 122.233 54.804 122.189 54.8551 122.159C54.8989 122.133 54.9498 122.128 55.0077 122.143L55.3902 122.242C55.4481 122.257 55.4929 122.287 55.5244 122.333C55.5486 122.382 55.5532 122.436 55.5381 122.494L55.0771 124.267L57.4762 124.891L57.9372 123.118C57.9522 123.06 57.9853 123.016 58.0364 122.986C58.0802 122.96 58.1311 122.955 58.1891 122.97L58.5715 123.069Z" fill="#3766E4"/>
<path d="M45.9744 118.689C46.5199 118.964 46.871 119.351 47.0276 119.853C47.1816 120.359 47.1266 120.915 46.8625 121.519L46.7333 121.796L46.592 122.056C46.2692 122.618 45.8585 122.988 45.36 123.166C44.8615 123.344 44.3395 123.296 43.794 123.021C43.2057 122.725 42.8453 122.309 42.7128 121.773C42.575 121.234 42.6676 120.644 42.9907 120.002L43.0634 119.858C43.0903 119.805 43.1319 119.769 43.1882 119.75C43.2364 119.734 43.2873 119.739 43.3407 119.766L46.1244 121.168L46.1608 121.095C46.3197 120.74 46.3622 120.389 46.2881 120.043C46.2141 119.698 46.0139 119.443 45.6877 119.279C45.4363 119.152 45.2088 119.098 45.0053 119.116C44.7937 119.137 44.6209 119.181 44.4868 119.247C44.4064 119.287 44.3501 119.306 44.318 119.303C44.2832 119.306 44.2337 119.291 44.1695 119.259L43.8165 119.081C43.7684 119.057 43.735 119.023 43.7164 118.98C43.6924 118.935 43.6912 118.89 43.7127 118.848C43.7719 118.73 43.9155 118.625 44.1433 118.531C44.3712 118.438 44.6497 118.398 44.9791 118.409C45.3004 118.423 45.6321 118.517 45.9744 118.689ZM43.6117 120.587L43.5996 120.611C43.4111 120.985 43.3593 121.341 43.4441 121.679C43.5289 122.016 43.7424 122.271 44.0847 122.443C44.4323 122.618 44.7643 122.638 45.0806 122.502C45.3969 122.367 45.6493 122.112 45.8378 121.737L45.8499 121.713L43.6117 120.587Z" fill="#3766E4"/>
<path d="M36.8076 113.111C37.1451 113.379 37.3835 113.656 37.5229 113.943C37.6575 114.226 37.7149 114.485 37.6951 114.722C37.6707 114.955 37.6012 115.148 37.4867 115.302C37.4531 115.344 37.413 115.366 37.3663 115.367C37.3158 115.373 37.2694 115.359 37.2273 115.325L36.9249 115.085C36.878 115.048 36.8522 115.008 36.8474 114.966C36.8341 114.925 36.8386 114.871 36.8609 114.805C36.9508 114.586 36.9506 114.379 36.8602 114.185C36.7651 113.987 36.591 113.787 36.3379 113.586C36.0941 113.393 35.8558 113.283 35.6228 113.259C35.3815 113.235 35.1826 113.322 35.0262 113.519C34.7133 113.913 34.7842 114.29 35.2389 114.652L35.6257 114.959C35.6725 114.996 35.6989 115.04 35.7046 115.09C35.7104 115.141 35.6947 115.19 35.6574 115.237L35.5177 115.412C35.4805 115.459 35.4366 115.486 35.3862 115.491C35.3357 115.497 35.287 115.481 35.2401 115.444L34.8956 115.17C34.4924 114.85 34.1624 114.852 33.9053 115.175C33.7712 115.344 33.7228 115.535 33.76 115.748C33.7887 115.962 33.9367 116.175 34.2039 116.387C34.4664 116.596 34.6916 116.702 34.8796 116.706C35.0638 116.715 35.26 116.641 35.468 116.485C35.5622 116.415 35.6562 116.417 35.7499 116.492L36.0453 116.726C36.0828 116.756 36.1063 116.794 36.1158 116.84C36.1215 116.89 36.1095 116.934 36.0797 116.972C35.9186 117.165 35.7208 117.298 35.4863 117.372C35.2481 117.45 34.9845 117.455 34.6953 117.386C34.4014 117.313 34.0998 117.153 33.7904 116.908C33.467 116.651 33.2431 116.389 33.1188 116.122C32.9898 115.851 32.9399 115.601 32.969 115.372C32.9982 115.142 33.0798 114.943 33.2139 114.775C33.3666 114.583 33.5224 114.454 33.6811 114.389C33.8352 114.32 34.0236 114.309 34.2463 114.356C34.108 114.116 34.06 113.883 34.1023 113.657C34.1362 113.431 34.2444 113.204 34.4269 112.974C34.7025 112.627 35.0555 112.472 35.4857 112.508C35.9122 112.548 36.3529 112.749 36.8076 113.111Z" fill="#3766E4"/>
<path d="M28.9807 105.872C29.1684 106.098 29.2966 106.345 29.3655 106.615C29.4305 106.881 29.4327 107.136 29.372 107.381C29.3029 107.626 29.1717 107.828 28.9784 107.989C28.6747 108.242 28.3228 108.325 27.9227 108.237C27.5225 108.149 27.1121 107.919 26.6915 107.544L25.6846 106.629L25.4844 106.796C25.0105 107.191 25.0014 107.662 25.4573 108.209C25.6335 108.421 25.8189 108.555 26.0136 108.611C26.2037 108.671 26.3812 108.683 26.546 108.647C26.6073 108.627 26.6568 108.621 26.6944 108.629C26.7235 108.635 26.7534 108.657 26.784 108.694L27.0081 108.963C27.0426 109.005 27.0594 109.053 27.0586 109.108C27.0494 109.163 27.0241 109.207 26.9827 109.242C26.8768 109.33 26.7147 109.383 26.4962 109.401C26.2693 109.419 26.019 109.366 25.7454 109.243C25.4671 109.124 25.2035 108.915 24.9545 108.616C24.5255 108.101 24.3387 107.633 24.3941 107.213C24.4457 106.788 24.6509 106.427 25.0099 106.128L27.2532 104.26C27.2992 104.222 27.3517 104.206 27.4107 104.211C27.4613 104.216 27.5058 104.241 27.5441 104.287L27.7969 104.591C27.8352 104.637 27.852 104.685 27.8474 104.736C27.8382 104.79 27.8106 104.836 27.7646 104.875L27.4608 105.127C27.697 105.102 27.9461 105.144 28.2082 105.253C28.4704 105.362 28.7278 105.569 28.9807 105.872ZM28.3619 106.154C28.109 105.85 27.8032 105.684 27.4445 105.655C27.0857 105.627 26.7177 105.769 26.3403 106.084L26.1471 106.244L26.9367 106.954C27.2585 107.247 27.5455 107.433 27.7977 107.511C28.0499 107.59 28.2588 107.56 28.4244 107.422C28.6131 107.265 28.6949 107.068 28.6697 106.832C28.6407 106.592 28.5381 106.365 28.3619 106.154Z" fill="#3766E4"/>
<path d="M19.0488 95.6706C19.099 95.6375 19.1825 95.5904 19.2992 95.5293C19.4 95.4766 19.473 95.4417 19.5182 95.4248C20.0651 95.1656 20.5836 95.1104 21.0738 95.2593C21.564 95.4082 21.9604 95.7717 22.2631 96.3499C22.5741 96.944 22.6444 97.485 22.4741 97.9729C22.2984 98.4636 21.9205 98.8777 21.3403 99.2153L20.3854 99.7151C19.6241 100.107 19.0038 100.303 18.5244 100.304C18.0369 100.302 17.6166 100.164 17.2633 99.8897C16.902 99.6126 16.4014 99.1211 15.7616 98.4153L15.5934 98.2296L15.5646 98.194C15.5452 98.1568 15.5404 98.1154 15.5503 98.0697C15.5601 98.024 15.5835 97.9847 15.6204 97.9519L15.8894 97.73L15.933 97.697C16.0126 97.6553 16.0878 97.67 16.1588 97.741C16.208 97.7963 16.3161 97.9189 16.483 98.1086C16.9428 98.6383 17.2965 99.0107 17.5442 99.2257C17.7891 99.4354 18.0631 99.5521 18.3662 99.5759C18.6693 99.5998 19.0504 99.5016 19.5097 99.2815C19.252 99.2541 19.0011 99.1557 18.757 98.9862C18.5128 98.8166 18.3213 98.5993 18.1824 98.334C17.9019 97.7983 17.8484 97.2958 18.0218 96.8266C18.1871 96.3548 18.5294 95.9695 19.0488 95.6706ZM19.8616 96.1777C19.8217 96.1918 19.762 96.2197 19.6824 96.2614C19.5869 96.3114 19.5167 96.3515 19.4717 96.3818C19.0795 96.6007 18.8272 96.8611 18.715 97.1632C18.5975 97.468 18.6192 97.7742 18.7803 98.0819C18.9636 98.432 19.2209 98.6588 19.5522 98.7625C19.8782 98.8689 20.2443 98.8259 20.6505 98.6336L20.8695 98.5291L21.0404 98.4295C21.4299 98.2053 21.682 97.9381 21.7968 97.628C21.9034 97.3154 21.8679 96.9893 21.6902 96.6498C21.5153 96.3156 21.2689 96.1033 20.9512 96.0128C20.6282 95.9251 20.265 95.98 19.8616 96.1777Z" fill="#3766E4"/>
<path d="M12.6746 85.07C12.6618 85.0239 12.6679 84.9787 12.6929 84.9345C12.7163 84.8845 12.7511 84.8531 12.7973 84.8403C12.8204 84.8339 12.8771 84.8368 12.9675 84.8491L17.3179 85.4144L17.5212 85.4419C17.9337 85.4954 18.2729 85.5536 18.5389 85.6166C18.8032 85.6738 19.0426 85.7753 19.2569 85.9209C19.4754 86.0592 19.6198 86.2553 19.6902 86.5091L19.7813 86.838C19.7973 86.8957 19.7907 86.9504 19.7615 87.002C19.7364 87.0462 19.6951 87.0763 19.6374 87.0923L19.3691 87.1666C19.3114 87.1826 19.2575 87.1789 19.2075 87.1554C19.1617 87.1246 19.1308 87.0804 19.1148 87.0227L19.0525 86.7977C19.0173 86.6707 18.9626 86.5741 18.8883 86.5077C18.814 86.4413 18.7103 86.3923 18.5773 86.3608C18.4427 86.3236 18.2399 86.2866 17.9688 86.2499L17.5731 86.201L14.1114 88.9775C14.0444 89.0271 13.9993 89.0552 13.9762 89.0616C13.9243 89.0759 13.8762 89.0706 13.832 89.0456C13.7878 89.0206 13.7585 88.9821 13.7441 88.9302L13.6386 88.5493C13.613 88.457 13.64 88.375 13.7195 88.3032L16.5478 86.0658L12.9737 85.6115C12.8702 85.5967 12.8041 85.5374 12.7753 85.4335L12.6746 85.07Z" fill="#3766E4"/>
<path d="M16.7526 76.9607C16.7561 77.0205 16.7411 77.0723 16.7077 77.1163C16.6739 77.1542 16.6242 77.1751 16.5584 77.179L15.2853 77.2533C15.2255 77.2568 15.1766 77.2417 15.1387 77.2079C15.0944 77.1685 15.0705 77.1189 15.067 77.0591L15.0644 77.0143C15.0497 76.7633 14.8295 76.5872 14.4038 76.4861C13.9777 76.379 13.3134 76.3519 12.4108 76.4046L11.2632 76.4716C11.2034 76.4751 11.1546 76.4599 11.1166 76.4262C11.0723 76.3868 11.0484 76.3372 11.0449 76.2774L10.8795 73.4442C10.8757 73.3785 10.8906 73.3266 10.9244 73.2886C10.9582 73.2507 11.0079 73.2298 11.0737 73.226L14.8214 73.0071L14.7968 72.5857C14.7929 72.52 14.8079 72.4681 14.8417 72.4301C14.8755 72.3922 14.9252 72.3713 14.991 72.3674L16.2731 72.2926C16.3388 72.2887 16.3907 72.3037 16.4286 72.3375C16.4666 72.3712 16.4875 72.421 16.4913 72.4868L16.5144 72.8813C16.5179 72.941 16.4997 72.9901 16.46 73.0284C16.4262 73.0663 16.3794 73.0871 16.3197 73.0905L15.5396 73.1361L15.7313 76.4176L16.5113 76.372C16.5711 76.3686 16.6201 76.3867 16.6584 76.4264C16.7024 76.4599 16.7261 76.5064 16.7296 76.5662L16.7526 76.9607ZM14.8685 73.814L11.6049 74.0046L11.7013 75.6543L12.4544 75.6103C13.6738 75.5391 14.5237 75.6634 15.0042 75.9832L14.8685 73.814Z" fill="#3766E4"/>
<path d="M15.9928 61.1588C16.0379 61.1416 16.0782 61.1357 16.1137 61.1412C16.2084 61.1558 16.247 61.2194 16.2296 61.3318L16.1513 61.8377C16.1375 61.9265 16.0808 61.9995 15.981 62.0567L13.9152 63.0728L13.7846 63.9159L15.5774 64.1936C15.6366 64.2027 15.6837 64.2312 15.7187 64.279C15.7487 64.32 15.7591 64.3701 15.7499 64.4293L15.6908 64.8109C15.6817 64.8701 15.6561 64.9177 15.6142 64.9536C15.5673 64.9827 15.5143 64.9926 15.4551 64.9835L11.2482 64.332C11.189 64.3228 11.1444 64.2977 11.1144 64.2567C11.0794 64.2089 11.0665 64.1554 11.0757 64.0962L11.1348 63.7146C11.1448 63.6495 11.1704 63.602 11.2114 63.572C11.2524 63.542 11.3054 63.532 11.3705 63.5421L13.0834 63.8073L13.2113 62.9819L11.6156 61.4898C11.536 61.4168 11.5036 61.3331 11.5182 61.2384L11.5856 60.8035C11.5938 60.7502 11.6155 60.7082 11.6506 60.6772C11.6797 60.6454 11.715 60.6327 11.7564 60.6391C11.7683 60.6409 11.7851 60.6496 11.8069 60.6651C11.8228 60.6797 11.8392 60.6913 11.8561 60.7L13.6113 62.335L15.9928 61.1588Z" fill="#3766E4"/>
<path d="M18.4088 53.0561C18.3058 53.3308 18.154 53.5648 17.9536 53.7583C17.7553 53.9461 17.5346 54.0743 17.2914 54.143C17.0447 54.204 16.8036 54.1903 16.5682 54.102C16.1982 53.9633 15.9522 53.6984 15.8303 53.3073C15.7083 52.9163 15.7059 52.4454 15.8229 51.8946L16.1193 50.5669L15.8754 50.4755C15.298 50.259 14.8842 50.4843 14.634 51.1514C14.5373 51.4093 14.5128 51.6367 14.5605 51.8336C14.6025 52.0284 14.6799 52.1885 14.7928 52.314C14.8404 52.3574 14.8702 52.3974 14.8821 52.4338C14.8905 52.4625 14.8863 52.4993 14.8695 52.5442L14.7465 52.8722C14.7276 52.9226 14.694 52.9612 14.6456 52.9878C14.5937 53.0067 14.5426 53.0067 14.4921 52.9878C14.3632 52.9394 14.2367 52.8249 14.1127 52.6441C13.9851 52.4555 13.907 52.212 13.8782 51.9135C13.8439 51.6129 13.8951 51.2803 14.0317 50.9159C14.2672 50.288 14.5811 49.8942 14.9735 49.7344C15.3681 49.569 15.784 49.5683 16.2213 49.7323L18.9543 50.7572C19.0104 50.7782 19.0507 50.8157 19.0752 50.8697C19.0962 50.9159 19.0962 50.9671 19.0752 51.0231L18.9364 51.3931C18.9154 51.4492 18.8818 51.4877 18.8355 51.5088C18.7837 51.5277 18.7297 51.5266 18.6736 51.5056L18.3036 51.3669C18.4424 51.5596 18.5293 51.7968 18.5643 52.0785C18.5994 52.3602 18.5475 52.6861 18.4088 53.0561ZM17.858 52.6577C17.9967 52.2877 17.9897 51.9398 17.8369 51.6139C17.6842 51.288 17.3779 51.0389 16.9182 50.8665L16.6827 50.7782L16.4567 51.8157C16.3614 52.2404 16.3422 52.5817 16.3989 52.8396C16.4557 53.0974 16.585 53.2642 16.7868 53.3399C17.0167 53.4261 17.228 53.3998 17.4207 53.2611C17.6155 53.1167 17.7612 52.9156 17.858 52.6577Z" fill="#3766E4"/>
<path d="M119.594 49.2345C119.573 49.1782 119.573 49.1242 119.592 49.0726C119.62 49.0246 119.661 48.9904 119.718 48.9701L123.722 47.5255C123.779 47.5052 123.83 47.5058 123.876 47.5274C123.929 47.5526 123.966 47.5934 123.987 47.6497L124.121 48.0214C124.141 48.0778 124.138 48.1299 124.11 48.178C124.091 48.2296 124.053 48.2655 123.996 48.2859L122.366 48.8741L123.207 51.2058L124.838 50.6176C124.894 50.5972 124.945 50.5979 124.991 50.6195C125.045 50.6447 125.082 50.6854 125.102 50.7418L125.236 51.1135C125.259 51.1754 125.259 51.2294 125.237 51.2754C125.216 51.3214 125.174 51.3555 125.112 51.3779L121.107 52.8225C121.051 52.8428 120.996 52.8404 120.943 52.8152C120.897 52.7936 120.863 52.7546 120.843 52.6983L120.709 52.3266C120.689 52.2703 120.688 52.2163 120.708 52.1647C120.735 52.1167 120.777 52.0825 120.833 52.0622L122.557 51.4404L121.715 49.1087L119.992 49.7305C119.936 49.7508 119.881 49.7483 119.827 49.7231C119.781 49.7015 119.748 49.6626 119.728 49.6063L119.594 49.2345Z" fill="#3766E4"/>
<path d="M123.099 62.1026C123.017 61.4974 123.138 60.9886 123.463 60.5761C123.794 60.1629 124.284 59.8944 124.931 59.7706L125.233 59.7208L125.528 59.6901C126.173 59.6391 126.711 59.769 127.139 60.0796C127.568 60.3903 127.823 60.8482 127.905 61.4534C127.993 62.1061 127.853 62.6385 127.486 63.0506C127.12 63.4687 126.58 63.7258 125.868 63.822L125.708 63.8436C125.649 63.8516 125.596 63.8377 125.548 63.8017C125.508 63.771 125.484 63.7259 125.476 63.6666L125.059 60.5781L124.979 60.589C124.595 60.6589 124.282 60.822 124.039 61.0784C123.795 61.3348 123.698 61.644 123.747 62.0059C123.785 62.2848 123.869 62.5031 123.999 62.6607C124.135 62.8235 124.269 62.9414 124.4 63.0144C124.478 63.0581 124.525 63.0941 124.541 63.1221C124.563 63.1494 124.579 63.1986 124.588 63.2698L124.641 63.6614C124.649 63.7148 124.64 63.7614 124.615 63.801C124.591 63.8465 124.555 63.8725 124.508 63.8789C124.377 63.8965 124.209 63.8377 124.003 63.7023C123.798 63.5669 123.607 63.3601 123.43 63.0819C123.26 62.8088 123.15 62.4823 123.099 62.1026ZM125.999 62.9796L126.026 62.976C126.441 62.9199 126.764 62.7615 126.995 62.5007C127.226 62.24 127.315 61.9197 127.264 61.54C127.212 61.1543 127.04 60.8693 126.75 60.6851C126.459 60.5008 126.106 60.4367 125.691 60.4928L125.664 60.4964L125.999 62.9796Z" fill="#3766E4"/>
<path d="M123.677 72.8178C123.707 72.3878 123.801 72.0343 123.959 71.7574C124.116 71.4865 124.298 71.2923 124.505 71.1749C124.711 71.0634 124.909 71.0115 125.101 71.0191C125.155 71.0229 125.195 71.0438 125.222 71.0818C125.256 71.1202 125.27 71.1662 125.267 71.22L125.239 71.6052C125.235 71.6649 125.217 71.7087 125.185 71.7364C125.159 71.7705 125.112 71.7972 125.044 71.8164C124.813 71.866 124.642 71.983 124.533 72.1673C124.424 72.3576 124.357 72.614 124.334 72.9365C124.312 73.2471 124.357 73.5054 124.469 73.7114C124.586 73.9238 124.769 74.0389 125.02 74.0567C125.522 74.0923 125.793 73.8204 125.834 73.2411L125.869 72.7484C125.874 72.6887 125.895 72.6422 125.933 72.6089C125.972 72.5756 126.021 72.561 126.081 72.5653L126.304 72.5812C126.364 72.5854 126.411 72.6067 126.444 72.6451C126.477 72.6835 126.492 72.7325 126.488 72.7923L126.456 73.2312C126.42 73.7449 126.608 74.0163 127.02 74.0456C127.235 74.0608 127.42 73.9929 127.575 73.8418C127.735 73.6972 127.827 73.4546 127.851 73.1142C127.875 72.7797 127.835 72.5338 127.733 72.3764C127.636 72.2195 127.464 72.0993 127.218 72.0158C127.107 71.9779 127.055 71.8992 127.064 71.7797L127.09 71.4035C127.094 71.3557 127.112 71.3149 127.144 71.2812C127.182 71.2479 127.226 71.233 127.273 71.2364C127.524 71.2602 127.746 71.3479 127.939 71.4997C128.138 71.6519 128.291 71.8669 128.397 72.1445C128.503 72.4282 128.542 72.7671 128.514 73.1612C128.485 73.5733 128.395 73.9061 128.245 74.1596C128.095 74.419 127.917 74.6014 127.711 74.7069C127.506 74.8124 127.295 74.8574 127.08 74.8422C126.835 74.8248 126.641 74.769 126.498 74.6748C126.354 74.5865 126.239 74.4373 126.152 74.227C126.032 74.4766 125.867 74.648 125.656 74.7411C125.451 74.8405 125.202 74.8799 124.909 74.8591C124.467 74.8277 124.14 74.6244 123.926 74.2491C123.719 73.8742 123.635 73.3971 123.677 72.8178Z" fill="#3766E4"/>
<path d="M122.128 83.3656C122.208 83.0833 122.34 82.8375 122.524 82.6282C122.706 82.4246 122.915 82.2786 123.152 82.19C123.392 82.1089 123.634 82.1026 123.876 82.1711C124.256 82.2788 124.523 82.5224 124.677 82.902C124.831 83.2817 124.872 83.7508 124.801 84.3094L124.615 85.6569L124.866 85.7279C125.459 85.896 125.853 85.6372 126.047 84.9517C126.122 84.6867 126.128 84.4581 126.064 84.2657C126.006 84.0751 125.916 83.9219 125.793 83.8062C125.742 83.7669 125.709 83.7295 125.694 83.6942C125.683 83.6662 125.684 83.6292 125.697 83.5831L125.793 83.2461C125.808 83.1943 125.838 83.1531 125.884 83.1226C125.934 83.0994 125.985 83.0952 126.037 83.1099C126.169 83.1474 126.305 83.2511 126.443 83.4211C126.586 83.5984 126.684 83.8346 126.737 84.1297C126.797 84.4265 126.773 84.7621 126.667 85.1366C126.484 85.7818 126.204 86.2002 125.826 86.3919C125.447 86.5893 125.032 86.6244 124.583 86.4971L121.774 85.7017C121.717 85.6854 121.673 85.6514 121.645 85.5996C121.62 85.5553 121.616 85.5043 121.632 85.4467L121.74 85.0665C121.756 85.0089 121.786 84.9677 121.831 84.9429C121.881 84.9197 121.935 84.9163 121.992 84.9326L122.372 85.0403C122.218 84.8598 122.112 84.6305 122.054 84.3527C121.996 84.0748 122.02 83.7458 122.128 83.3656ZM122.71 83.7171C122.602 84.0973 122.638 84.4435 122.817 84.7556C122.996 85.0677 123.322 85.2906 123.794 85.4244L124.036 85.493L124.176 84.4403C124.236 84.0092 124.227 83.6675 124.149 83.4152C124.071 83.1629 123.928 83.0074 123.721 82.9487C123.485 82.8818 123.276 82.9254 123.096 83.0796C122.914 83.2396 122.785 83.4521 122.71 83.7171Z" fill="#3766E4"/>
<path d="M119.324 97.3246C119.268 97.3018 119.182 97.2596 119.066 97.1978C118.966 97.1445 118.896 97.1039 118.856 97.0762C118.333 96.7715 117.995 96.3749 117.84 95.8864C117.686 95.3978 117.762 94.8653 118.068 94.2888C118.382 93.6965 118.789 93.3328 119.288 93.1976C119.792 93.0652 120.347 93.143 120.954 93.431L121.906 93.9362C122.659 94.3429 123.172 94.7438 123.443 95.1388C123.717 95.5418 123.841 95.9667 123.814 96.4133C123.789 96.8681 123.667 97.5588 123.446 98.4855L123.388 98.7292L123.375 98.7731C123.355 98.8101 123.324 98.8375 123.28 98.8552C123.237 98.8729 123.192 98.8758 123.144 98.8639L122.808 98.7673L122.757 98.75C122.677 98.7079 122.647 98.6375 122.665 98.5389C122.683 98.467 122.723 98.3086 122.785 98.0637C122.963 97.385 123.07 96.8827 123.107 96.5569C123.142 96.2363 123.083 95.9443 122.932 95.6808C122.78 95.4173 122.484 95.1583 122.043 94.9038C122.166 95.1318 122.226 95.3944 122.224 95.6917C122.223 95.9889 122.151 96.2698 122.011 96.5342C121.728 97.0684 121.343 97.3965 120.858 97.5186C120.376 97.6488 119.864 97.5842 119.324 97.3246ZM119.283 96.3674C119.317 96.3923 119.374 96.4259 119.453 96.468C119.549 96.5185 119.621 96.5538 119.672 96.5737C120.074 96.7737 120.431 96.8346 120.744 96.7565C121.062 96.6812 121.302 96.4902 121.465 96.1834C121.65 95.8344 121.692 95.4939 121.59 95.162C121.494 94.8329 121.252 94.5551 120.863 94.3287L120.653 94.2071L120.475 94.1224C120.07 93.9277 119.707 93.8707 119.386 93.9513C119.068 94.04 118.819 94.2535 118.639 94.592C118.462 94.9252 118.426 95.2484 118.531 95.5617C118.641 95.8777 118.892 96.1463 119.283 96.3674Z" fill="#3766E4"/>
<path d="M114.181 108.574C114.15 108.611 114.109 108.631 114.058 108.635C114.004 108.644 113.958 108.633 113.922 108.602C113.903 108.587 113.874 108.539 113.833 108.457L111.841 104.549L111.749 104.365C111.56 103.995 111.416 103.682 111.318 103.427C111.215 103.176 111.164 102.922 111.163 102.663C111.153 102.404 111.234 102.174 111.403 101.973L111.623 101.712C111.662 101.666 111.711 101.64 111.77 101.635C111.82 101.631 111.868 101.648 111.914 101.687L112.127 101.866C112.173 101.905 112.2 101.951 112.209 102.006C112.21 102.061 112.191 102.111 112.152 102.157L112.002 102.336C111.917 102.436 111.868 102.536 111.855 102.635C111.842 102.734 111.861 102.847 111.91 102.975C111.955 103.107 112.039 103.295 112.162 103.539L112.345 103.893L116.592 105.18C116.671 105.208 116.72 105.229 116.738 105.244C116.779 105.279 116.802 105.322 116.806 105.372C116.811 105.423 116.796 105.469 116.761 105.51L116.506 105.812C116.445 105.886 116.362 105.91 116.258 105.885L112.813 104.816L114.458 108.021C114.505 108.115 114.493 108.203 114.424 108.285L114.181 108.574Z" fill="#3766E4"/>
<path d="M105.186 109.792C105.233 109.755 105.284 109.739 105.339 109.741C105.39 109.748 105.435 109.777 105.476 109.829L106.256 110.837C106.293 110.885 106.308 110.934 106.302 110.984C106.294 111.043 106.267 111.09 106.22 111.127L106.184 111.155C105.985 111.309 105.964 111.59 106.122 111.998C106.274 112.41 106.627 112.974 107.181 113.688L107.884 114.597C107.921 114.645 107.936 114.694 107.93 114.744C107.922 114.803 107.895 114.851 107.847 114.887L105.604 116.625C105.551 116.665 105.5 116.682 105.45 116.676C105.399 116.669 105.354 116.64 105.314 116.588L103.015 113.62L102.682 113.878C102.629 113.918 102.578 113.935 102.528 113.929C102.477 113.923 102.432 113.893 102.392 113.841L101.605 112.826C101.565 112.774 101.548 112.722 101.555 112.672C101.561 112.622 101.59 112.576 101.642 112.536L101.955 112.294C102.002 112.257 102.053 112.245 102.107 112.256C102.157 112.262 102.201 112.289 102.237 112.336L102.716 112.954L105.315 110.942L104.836 110.324C104.8 110.277 104.787 110.226 104.798 110.172C104.801 110.117 104.826 110.071 104.873 110.034L105.186 109.792ZM103.654 113.125L105.656 115.71L106.963 114.698L106.501 114.101C105.753 113.136 105.375 112.364 105.367 111.787L103.654 113.125Z" fill="#3766E4"/>
<path d="M92.5783 119.349C92.5386 119.321 92.511 119.291 92.4955 119.259C92.4541 119.173 92.4846 119.105 92.5872 119.056L93.0489 118.834C93.1299 118.796 93.2222 118.801 93.3258 118.851L95.3315 119.981L96.1009 119.613L95.3168 117.977C95.2909 117.923 95.2878 117.868 95.3075 117.812C95.3244 117.764 95.3598 117.727 95.4138 117.701L95.762 117.534C95.816 117.508 95.8697 117.502 95.923 117.517C95.9735 117.539 96.0117 117.577 96.0376 117.631L97.8775 121.47C97.9034 121.524 97.9079 121.575 97.891 121.623C97.8713 121.679 97.8345 121.72 97.7805 121.746L97.4322 121.912C97.3728 121.941 97.3192 121.947 97.2713 121.93C97.2233 121.913 97.1851 121.875 97.1567 121.815L96.4075 120.252L95.6543 120.613L95.325 122.773C95.3098 122.88 95.259 122.954 95.1726 122.995L94.7758 123.186C94.7272 123.209 94.6802 123.215 94.6349 123.203C94.5921 123.197 94.5617 123.175 94.5436 123.138C94.5384 123.127 94.536 123.108 94.5365 123.081C94.5395 123.06 94.5399 123.04 94.5375 123.021L94.8945 120.649L92.5783 119.349Z" fill="#3766E4"/>
<path d="M84.5282 121.935C84.813 121.864 85.0919 121.857 85.3647 121.913C85.6317 121.971 85.8623 122.08 86.0563 122.242C86.246 122.411 86.371 122.618 86.4312 122.862C86.5258 123.246 86.4463 123.598 86.1926 123.92C85.9389 124.241 85.5518 124.51 85.0312 124.724L83.7684 125.23L83.8308 125.483C83.9784 126.082 84.3981 126.296 85.0899 126.125C85.3573 126.059 85.5588 125.951 85.6943 125.8C85.8313 125.656 85.9196 125.501 85.9594 125.337C85.9683 125.273 85.9844 125.226 86.0077 125.196C86.0267 125.173 86.0594 125.155 86.1059 125.144L86.446 125.06C86.4983 125.047 86.5491 125.053 86.5984 125.078C86.6433 125.11 86.6722 125.152 86.6852 125.204C86.7181 125.338 86.6951 125.507 86.616 125.712C86.5326 125.923 86.3758 126.126 86.1458 126.318C85.9171 126.516 85.6139 126.662 85.236 126.755C84.585 126.916 84.0826 126.879 83.729 126.646C83.3696 126.414 83.134 126.071 83.0222 125.618L82.3233 122.784C82.3089 122.725 82.3171 122.671 82.3477 122.62C82.374 122.577 82.4162 122.548 82.4744 122.534L82.858 122.439C82.9162 122.425 82.967 122.431 83.0104 122.457C83.0554 122.489 83.085 122.534 83.0993 122.592L83.194 122.976C83.2745 122.753 83.4211 122.547 83.6337 122.359C83.8464 122.171 84.1445 122.029 84.5282 121.935ZM84.5108 122.614C84.1271 122.709 83.844 122.911 83.6615 123.221C83.479 123.532 83.4465 123.925 83.5641 124.402L83.6243 124.646L84.608 124.246C85.0122 124.085 85.3046 123.908 85.4853 123.715C85.666 123.522 85.7305 123.322 85.6789 123.112C85.6201 122.874 85.479 122.714 85.2557 122.634C85.0265 122.555 84.7782 122.548 84.5108 122.614Z" fill="#3766E4"/>
</svg>
