<svg width="99" height="94" viewBox="0 0 99 94" fill="none" xmlns="http://www.w3.org/2000/svg">
<path fill-rule="evenodd" clip-rule="evenodd" d="M89.358 16.1757C87.7596 19.6535 85.6533 22.9786 83.0287 26.0492C76.9306 33.1836 68.9623 37.8578 60.4238 39.9638C60.3333 39.9861 60.241 40.0091 60.1472 40.0326C58.1661 40.5275 55.481 41.1982 52.9716 39.1311C50.4117 37.0224 50.6217 34.622 50.7945 32.6469C50.8117 32.4505 50.8285 32.2583 50.8422 32.071C51.4722 23.4505 54.7775 14.9354 60.8756 7.80102C63.487 4.74586 66.4402 2.14309 69.6328 0C73.8217 1.07472 77.8409 3.0555 81.3821 5.97251C84.887 8.85968 87.5532 12.3587 89.358 16.1757ZM10.629 42.7686C6.79202 44.1396 3.27442 45.9853 0.118776 48.2126C-0.262275 52.4041 0.264523 56.7431 1.8294 60.9638C3.41046 65.2282 5.88227 68.9164 8.96263 71.9032C12.8191 71.6144 16.7022 70.8098 20.5198 69.4458C29.4346 66.2605 36.6341 60.5085 41.5703 53.3522C41.6776 53.1967 41.79 53.0385 41.905 52.8768C43.0606 51.2512 44.465 49.2754 43.3221 46.1927C42.2017 43.1709 39.5347 42.4338 37.567 41.89C37.4738 41.8642 37.3822 41.8389 37.2924 41.8138C28.8252 39.4465 19.5438 39.5833 10.629 42.7686ZM98.8812 48.2126C95.7256 45.9853 92.208 44.1396 88.371 42.7686C79.4562 39.5833 70.1748 39.4465 61.7076 41.8138C61.6797 41.8216 61.6516 41.8294 61.6234 41.8373C61.561 41.8546 61.4978 41.8721 61.4338 41.8897C59.4662 42.4336 56.7983 43.1709 55.6779 46.1927C54.535 49.2754 55.9394 51.2512 57.095 52.8768C57.21 53.0385 57.3224 53.1967 57.4297 53.3522C62.3659 60.5085 69.5654 66.2605 78.4802 69.4458C82.2978 70.8098 86.1809 71.6144 90.0374 71.9032C93.1177 68.9164 95.5895 65.2282 97.1706 60.9638C98.7355 56.7431 99.2623 52.4041 98.8812 48.2126ZM62.3879 91.2169C63.4406 87.544 64.0043 83.6678 64.0043 79.6594C64.0043 70.3461 60.9608 61.7374 55.7989 54.7361C55.7635 54.6882 55.7279 54.6397 55.6919 54.5905L55.632 54.5088C54.4385 52.8797 52.8207 50.6715 49.5449 50.6715C46.2032 50.6715 44.7924 52.6428 43.6315 54.2649C43.5161 54.4262 43.4031 54.584 43.2909 54.7361C38.129 61.7373 35.0856 70.3461 35.0856 79.6593C35.0856 83.6475 35.6436 87.5049 36.686 91.1612C40.5986 92.9812 44.9744 94 49.5971 94C54.1725 94 58.506 93.002 62.3879 91.2169Z" fill="#CBD7DF"/>
<path fill-rule="evenodd" clip-rule="evenodd" d="M11.5476 19.6232C10.896 18.4938 10.3021 17.3434 9.76544 16.1757C11.5703 12.3587 14.2364 8.85968 17.7414 5.97251C21.2826 3.0555 25.3017 1.07472 29.4907 1.63097e-07C30.4835 0.666442 31.4532 1.37734 32.3966 2.13247C27.5441 2.6404 22.8019 4.58394 18.8751 8.005C15.1914 11.2143 12.7375 15.2775 11.5476 19.6232ZM12.8445 21.7267C13.7363 17.0744 16.1476 12.6677 20.0314 9.28413C24.1294 5.71397 29.1846 3.87711 34.2668 3.71887C35.3191 4.66439 36.3333 5.6693 37.3046 6.73327C31.9412 6.11247 26.344 7.65513 21.9892 11.4491C17.7959 15.1023 15.5769 20.1264 15.4096 25.2275C14.486 24.0916 13.6311 22.923 12.8445 21.7267ZM17.2018 27.2954C18.4105 28.6047 19.6848 29.8236 21.0157 30.9514C18.9387 25.4472 20.365 19.0209 25.1026 14.8935C29.8908 10.7219 36.652 10.1264 41.9997 12.905C41.11 11.4851 40.1263 10.1023 39.0477 8.76448C33.598 7.52642 27.6438 8.80932 23.1455 12.7282C18.7741 16.5366 16.7572 21.9812 17.2018 27.2954ZM43.9222 16.3146C38.9975 11.8788 31.3594 11.729 26.2589 16.1726C21.1127 20.656 20.3891 28.2132 24.4097 33.5493C27.2658 35.5185 30.3211 37.1155 33.501 38.334C31.3502 36.5291 29.2999 34.5579 27.3685 32.4215C27.3397 32.3896 27.3137 32.3561 27.2906 32.3215C27.2583 32.2948 27.2276 32.2655 27.1987 32.2336C23.5508 28.1983 24.0373 21.9785 28.2163 18.3378C32.3864 14.7048 38.7171 14.9608 42.3688 18.9717C42.4851 19.0198 42.5925 19.0935 42.6818 19.1923C43.9166 20.5581 45.224 21.8229 46.5933 22.9861C45.9034 20.7128 45.0138 18.4804 43.9222 16.3146ZM47.3392 25.7922C45.2279 24.1944 43.2379 22.3807 41.4019 20.3529C41.2856 20.3049 41.1782 20.2312 41.0889 20.1324C38.1085 16.8355 32.865 16.5743 29.3726 19.6169C25.8802 22.6595 25.5213 27.8016 28.5017 31.0985C28.5305 31.1304 28.5565 31.1638 28.5796 31.1985C28.6119 31.2251 28.6427 31.2544 28.6715 31.2863C31.6112 34.5381 34.8343 37.396 38.2719 39.856C38.4143 39.8926 38.5569 39.9286 38.6996 39.9638C38.7902 39.9861 38.8825 40.0091 38.9763 40.0326C40.4086 40.3904 42.2088 40.8401 44.0447 40.2806C39.2418 37.4272 34.7883 33.8256 30.8659 29.4866C28.8276 27.2318 29.034 23.7823 31.3299 21.7821C33.6259 19.7818 37.1393 19.9905 39.1776 22.2453C41.8601 25.2126 44.8508 27.7517 48.0602 29.8572C47.8875 28.4951 47.6473 27.1384 47.3392 25.7922ZM48.2785 32.033C44.4973 29.7091 40.9861 26.8223 37.8747 23.3805C36.4737 21.8308 34.0612 21.6892 32.4863 23.0612C30.9114 24.4333 30.7679 26.8017 32.1688 28.3514C36.2218 32.8347 40.8593 36.506 45.8683 39.3526C45.963 39.2825 46.0576 39.2088 46.1518 39.1311C46.9605 38.465 47.4928 37.7697 47.8371 37.0679C42.9505 34.344 38.429 30.7972 34.4906 26.4406C34.1713 26.0874 34.2041 25.5469 34.5639 25.2335C34.9237 24.92 35.4743 24.9522 35.7936 25.3055C39.5073 29.4136 43.7573 32.7768 48.3479 35.3837C48.485 34.4306 48.4035 33.4992 48.329 32.6469C48.3118 32.4506 48.2949 32.2582 48.2813 32.071C48.2803 32.0584 48.2794 32.0457 48.2785 32.033Z" fill="#CBD7DF"/>
<path d="M49.5025 38.1821L49.5468 38.2907C50.5672 40.7963 52.9521 42.5048 55.6841 42.6875L55.8025 42.6954L55.7115 42.7705C53.6101 44.5017 52.6991 47.2662 53.3672 49.8847L53.3962 49.9982L53.2956 49.936C50.9765 48.5003 48.0286 48.5003 45.7094 49.936L45.6089 49.9982L45.6379 49.8847C46.3059 47.2662 45.395 44.5017 43.2936 42.7705L43.2025 42.6954L43.321 42.6875C46.053 42.5048 48.4379 40.7963 49.4583 38.2907L49.5025 38.1821Z" fill="#CBD7DF"/>
</svg>
