<svg width="149" height="50" viewBox="0 0 149 50" fill="none" xmlns="http://www.w3.org/2000/svg">
<path fill-rule="evenodd" clip-rule="evenodd" d="M6.23276 0H142.378C145.822 0 148.611 2.8295 148.611 6.31986V43.6801C148.611 47.1685 145.821 50 142.378 50H6.23276C2.78933 50 0 47.1705 0 43.6801V6.31986C0 2.83148 2.7905 0 6.23276 0Z" />
<path fill-rule="evenodd" clip-rule="evenodd" d="M22.8961 17.3575C23.9969 17.3575 26.093 15.8156 28.254 16.0462C29.1581 16.073 31.731 16.4083 33.391 18.8625C33.257 18.9439 30.3259 20.6907 30.3578 24.2813C30.3918 28.3158 33.6246 29.8184 34.0657 30.0033L34.115 30.0231C34.093 30.1233 33.5393 32.0762 32.1606 34.0592C31.0092 35.8049 29.803 37.5117 27.887 37.5429C26.026 37.5863 25.3998 36.4322 23.2653 36.4322C21.1109 36.4322 20.4441 37.5117 18.6589 37.5863C16.8341 37.6543 15.44 35.7225 14.2469 33.9924C11.8619 30.4598 10.0053 24.0373 12.4947 19.6669C13.7009 17.5235 15.9003 16.1431 18.2513 16.1064C20.0783 16.0685 21.7734 17.3575 22.8961 17.3575ZM28.277 9.16699C28.4594 10.8481 27.8025 12.5047 26.8423 13.7223C25.8404 14.921 24.2375 15.8379 22.6764 15.7198C22.4721 14.1022 23.2631 12.3821 24.1485 11.3327C25.1494 10.1418 26.8873 9.22938 28.277 9.16699Z" fill="white"/>
<path d="M46.527 22.2204H49.1501L54.5738 36.5004H51.931L50.6096 32.7204H44.9887L43.6673 36.5004H41.123L46.527 22.2204ZM45.6592 30.8204H49.9587L47.8484 24.6804H47.7893L45.6592 30.8204ZM55.6586 26.1604H57.7886V27.5604H57.828C58.1436 26.9604 58.5841 26.5304 59.1495 26.2704C59.7148 26.0104 60.3262 25.8804 60.9837 25.8804C61.7857 25.8804 62.4858 26.0237 63.0841 26.3104C63.6824 26.597 64.1787 26.9904 64.5731 27.4904C64.9676 27.9904 65.2634 28.5737 65.4607 29.2404C65.6579 29.907 65.7565 30.6204 65.7565 31.3804C65.7565 32.0737 65.6678 32.747 65.4902 33.4004C65.3127 34.0537 65.0432 34.6304 64.6816 35.1304C64.32 35.6304 63.8631 36.0304 63.3109 36.3304C62.7587 36.6304 62.1078 36.7804 61.3584 36.7804C61.0297 36.7804 60.701 36.7504 60.3723 36.6904C60.0435 36.6304 59.728 36.5337 59.4256 36.4004C59.1232 36.267 58.8438 36.097 58.5874 35.8904C58.331 35.6837 58.1173 35.4404 57.9464 35.1604H57.9069V40.3204H55.6586V26.1604ZM63.5081 31.3404C63.5081 30.8737 63.449 30.4204 63.3306 29.9804C63.2123 29.5404 63.0348 29.1504 62.7981 28.8104C62.5615 28.4704 62.2656 28.197 61.9106 27.9904C61.5556 27.7837 61.148 27.6804 60.6878 27.6804C59.7411 27.6804 59.0278 28.0137 58.5479 28.6804C58.068 29.347 57.828 30.2337 57.828 31.3404C57.828 31.8604 57.8905 32.3437 58.0154 32.7904C58.1403 33.237 58.3277 33.6204 58.5775 33.9404C58.8273 34.2604 59.1264 34.5137 59.4749 34.7004C59.8233 34.887 60.2276 34.9804 60.6878 34.9804C61.2006 34.9804 61.6345 34.8737 61.9895 34.6604C62.3445 34.447 62.6371 34.1704 62.8672 33.8304C63.0973 33.4904 63.2616 33.1037 63.3602 32.6704C63.4588 32.237 63.5081 31.7937 63.5081 31.3404ZM67.709 26.1604H69.8391V27.5604H69.8785C70.1941 26.9604 70.6345 26.5304 71.1999 26.2704C71.7653 26.0104 72.3767 25.8804 73.0341 25.8804C73.8362 25.8804 74.5363 26.0237 75.1346 26.3104C75.7328 26.597 76.2292 26.9904 76.6236 27.4904C77.0181 27.9904 77.3139 28.5737 77.5111 29.2404C77.7084 29.907 77.807 30.6204 77.807 31.3804C77.807 32.0737 77.7182 32.747 77.5407 33.4004C77.3632 34.0537 77.0937 34.6304 76.7321 35.1304C76.3705 35.6304 75.9136 36.0304 75.3614 36.3304C74.8092 36.6304 74.1583 36.7804 73.4089 36.7804C73.0801 36.7804 72.7514 36.7504 72.4227 36.6904C72.094 36.6304 71.7785 36.5337 71.476 36.4004C71.1736 36.267 70.8942 36.097 70.6378 35.8904C70.3814 35.6837 70.1678 35.4404 69.9968 35.1604H69.9574V40.3204H67.709V26.1604ZM75.5586 31.3404C75.5586 30.8737 75.4994 30.4204 75.3811 29.9804C75.2628 29.5404 75.0853 29.1504 74.8486 28.8104C74.6119 28.4704 74.3161 28.197 73.9611 27.9904C73.6061 27.7837 73.1985 27.6804 72.7383 27.6804C71.7916 27.6804 71.0783 28.0137 70.5984 28.6804C70.1185 29.347 69.8785 30.2337 69.8785 31.3404C69.8785 31.8604 69.941 32.3437 70.0659 32.7904C70.1908 33.237 70.3782 33.6204 70.628 33.9404C70.8778 34.2604 71.1769 34.5137 71.5254 34.7004C71.8738 34.887 72.2781 34.9804 72.7383 34.9804C73.2511 34.9804 73.685 34.8737 74.04 34.6604C74.395 34.447 74.6875 34.1704 74.9176 33.8304C75.1477 33.4904 75.3121 33.1037 75.4107 32.6704C75.5093 32.237 75.5586 31.7937 75.5586 31.3404ZM87.116 31.7404C87.116 32.287 87.2081 32.7537 87.3921 33.1404C87.5762 33.527 87.8326 33.8437 88.1613 34.0904C88.49 34.337 88.868 34.517 89.2954 34.6304C89.7227 34.7437 90.1862 34.8004 90.6858 34.8004C91.2249 34.8004 91.6851 34.737 92.0664 34.6104C92.4477 34.4837 92.7567 34.3204 92.9933 34.1204C93.23 33.9204 93.4009 33.6904 93.5061 33.4304C93.6113 33.1704 93.6639 32.907 93.6639 32.6404C93.6639 32.0937 93.5423 31.6904 93.299 31.4304C93.0558 31.1704 92.7895 30.987 92.5003 30.8804C92.0006 30.6937 91.4188 30.517 90.7548 30.3504C90.0908 30.1837 89.2724 29.967 88.2994 29.7004C87.6945 29.5404 87.1916 29.3304 86.7906 29.0704C86.3896 28.8104 86.0707 28.5204 85.8341 28.2004C85.5974 27.8804 85.4297 27.5404 85.3311 27.1804C85.2325 26.8204 85.1832 26.4537 85.1832 26.0804C85.1832 25.3604 85.3311 24.737 85.627 24.2104C85.9228 23.6837 86.314 23.247 86.8005 22.9004C87.287 22.5537 87.8392 22.297 88.4572 22.1304C89.0751 21.9637 89.6997 21.8804 90.3308 21.8804C91.0671 21.8804 91.7607 21.977 92.4115 22.1704C93.0624 22.3637 93.6343 22.6537 94.1274 23.0404C94.6205 23.427 95.0116 23.9037 95.3009 24.4704C95.5901 25.037 95.7348 25.6937 95.7348 26.4404H93.2695C93.2037 25.5204 92.8947 24.8704 92.3425 24.4904C91.7903 24.1104 91.0868 23.9204 90.2322 23.9204C89.9429 23.9204 89.6471 23.9504 89.3447 24.0104C89.0423 24.0704 88.7661 24.1704 88.5163 24.3104C88.2665 24.4504 88.0594 24.6404 87.8951 24.8804C87.7307 25.1204 87.6485 25.4204 87.6485 25.7804C87.6485 26.287 87.803 26.6837 88.112 26.9704C88.421 27.257 88.8253 27.4737 89.325 27.6204C89.3775 27.6337 89.5846 27.6904 89.9462 27.7904C90.3078 27.8904 90.7121 28.0004 91.1591 28.1204C91.6062 28.2404 92.0434 28.357 92.4707 28.4704C92.898 28.5837 93.2037 28.667 93.3878 28.7204C93.848 28.867 94.249 29.067 94.5909 29.3204C94.9327 29.5737 95.2187 29.8637 95.4488 30.1904C95.6789 30.517 95.8498 30.867 95.9616 31.2404C96.0733 31.6137 96.1292 31.987 96.1292 32.3604C96.1292 33.1604 95.9682 33.8437 95.646 34.4104C95.3239 34.977 94.8999 35.4404 94.3739 35.8004C93.848 36.1604 93.2497 36.4237 92.5792 36.5904C91.9086 36.757 91.2249 36.8404 90.528 36.8404C89.726 36.8404 88.9699 36.7404 88.2599 36.5404C87.5499 36.3404 86.932 36.0337 86.406 35.6204C85.8801 35.207 85.4593 34.677 85.1438 34.0304C84.8282 33.3837 84.6638 32.6204 84.6507 31.7404H87.116ZM96.9379 26.1604H98.634V23.0604H100.882V26.1604H102.914V27.8604H100.882V33.3804C100.882 33.6204 100.892 33.827 100.912 34.0004C100.932 34.1737 100.978 34.3204 101.05 34.4404C101.122 34.5604 101.231 34.6504 101.375 34.7104C101.52 34.7704 101.717 34.8004 101.967 34.8004C102.125 34.8004 102.283 34.797 102.44 34.7904C102.598 34.7837 102.756 34.7604 102.914 34.7204V36.4804C102.664 36.507 102.421 36.5337 102.184 36.5604C101.947 36.587 101.704 36.6004 101.454 36.6004C100.863 36.6004 100.386 36.5437 100.024 36.4304C99.6628 36.317 99.3802 36.1504 99.1764 35.9304C98.9726 35.7104 98.8345 35.4337 98.7622 35.1004C98.6899 34.767 98.6471 34.387 98.634 33.9604V27.8604H96.9379V26.1604ZM109.205 36.7804C108.39 36.7804 107.664 36.6437 107.026 36.3704C106.388 36.097 105.849 35.7204 105.409 35.2404C104.968 34.7604 104.633 34.187 104.403 33.5204C104.173 32.8537 104.058 32.1204 104.058 31.3204C104.058 30.5337 104.173 29.807 104.403 29.1404C104.633 28.4737 104.968 27.9004 105.409 27.4204C105.849 26.9404 106.388 26.5637 107.026 26.2904C107.664 26.017 108.39 25.8804 109.205 25.8804C110.02 25.8804 110.747 26.017 111.385 26.2904C112.022 26.5637 112.561 26.9404 113.002 27.4204C113.442 27.9004 113.778 28.4737 114.008 29.1404C114.238 29.807 114.353 30.5337 114.353 31.3204C114.353 32.1204 114.238 32.8537 114.008 33.5204C113.778 34.187 113.442 34.7604 113.002 35.2404C112.561 35.7204 112.022 36.097 111.385 36.3704C110.747 36.6437 110.02 36.7804 109.205 36.7804ZM109.205 34.9804C109.705 34.9804 110.139 34.8737 110.507 34.6604C110.875 34.447 111.178 34.167 111.414 33.8204C111.651 33.4737 111.825 33.0837 111.937 32.6504C112.049 32.217 112.104 31.7737 112.104 31.3204C112.104 30.8804 112.049 30.4404 111.937 30.0004C111.825 29.5604 111.651 29.1704 111.414 28.8304C111.178 28.4904 110.875 28.2137 110.507 28.0004C110.139 27.787 109.705 27.6804 109.205 27.6804C108.706 27.6804 108.272 27.787 107.904 28.0004C107.535 28.2137 107.233 28.4904 106.996 28.8304C106.76 29.1704 106.585 29.5604 106.474 30.0004C106.362 30.4404 106.306 30.8804 106.306 31.3204C106.306 31.7737 106.362 32.217 106.474 32.6504C106.585 33.0837 106.76 33.4737 106.996 33.8204C107.233 34.167 107.535 34.447 107.904 34.6604C108.272 34.8737 108.706 34.9804 109.205 34.9804ZM116.227 26.1604H118.337V28.1604H118.376C118.442 27.8804 118.57 27.607 118.761 27.3404C118.951 27.0737 119.182 26.8304 119.451 26.6104C119.721 26.3904 120.02 26.2137 120.349 26.0804C120.677 25.947 121.013 25.8804 121.354 25.8804C121.617 25.8804 121.798 25.887 121.897 25.9004C121.995 25.9137 122.097 25.927 122.202 25.9404V28.1404C122.045 28.1137 121.884 28.0904 121.719 28.0704C121.555 28.0504 121.394 28.0404 121.236 28.0404C120.855 28.0404 120.496 28.117 120.161 28.2704C119.826 28.4237 119.533 28.6504 119.283 28.9504C119.034 29.2504 118.836 29.6204 118.692 30.0604C118.547 30.5004 118.475 31.007 118.475 31.5804V36.5004H116.227V26.1604ZM130.17 30.4204C130.144 30.0604 130.068 29.7137 129.944 29.3804C129.819 29.047 129.648 28.757 129.431 28.5104C129.214 28.2637 128.951 28.0637 128.642 27.9104C128.333 27.757 127.988 27.6804 127.606 27.6804C127.212 27.6804 126.854 27.7504 126.532 27.8904C126.209 28.0304 125.933 28.2237 125.703 28.4704C125.473 28.717 125.289 29.007 125.151 29.3404C125.013 29.6737 124.937 30.0337 124.924 30.4204H130.17ZM124.924 31.9204C124.924 32.3204 124.98 32.707 125.092 33.0804C125.204 33.4537 125.371 33.7804 125.595 34.0604C125.818 34.3404 126.101 34.5637 126.443 34.7304C126.785 34.897 127.192 34.9804 127.666 34.9804C128.323 34.9804 128.852 34.837 129.253 34.5504C129.654 34.2637 129.953 33.8337 130.151 33.2604H132.281C132.162 33.8204 131.959 34.3204 131.669 34.7604C131.38 35.2004 131.032 35.5704 130.624 35.8704C130.216 36.1704 129.759 36.397 129.253 36.5504C128.747 36.7037 128.218 36.7804 127.666 36.7804C126.864 36.7804 126.154 36.647 125.536 36.3804C124.918 36.1137 124.395 35.7404 123.968 35.2604C123.54 34.7804 123.218 34.207 123.001 33.5404C122.784 32.8737 122.676 32.1404 122.676 31.3404C122.676 30.607 122.791 29.9104 123.021 29.2504C123.251 28.5904 123.58 28.0104 124.007 27.5104C124.434 27.0104 124.95 26.6137 125.555 26.3204C126.16 26.027 126.844 25.8804 127.606 25.8804C128.408 25.8804 129.128 26.0504 129.766 26.3904C130.404 26.7304 130.933 27.1804 131.354 27.7404C131.774 28.3004 132.08 28.9437 132.271 29.6704C132.461 30.397 132.511 31.147 132.419 31.9204H124.924Z" fill="white"/>
<path d="M45.7241 13.6224C46.2218 13.6352 46.5888 13.5697 46.8251 13.4259C47.0614 13.2822 47.1795 12.9995 47.1795 12.5778C47.1795 12.2775 47.0897 12.0459 46.9101 11.883C46.7306 11.7201 46.4833 11.6386 46.1683 11.6386C45.9793 11.6386 45.8139 11.6738 45.6721 11.744C45.5304 11.8143 45.4154 11.9118 45.3272 12.0363C45.239 12.1609 45.1744 12.3063 45.1335 12.4724C45.0925 12.6385 45.0752 12.8174 45.0815 13.009H43.9191C43.9317 12.6704 43.99 12.3574 44.0939 12.0699C44.1979 11.7824 44.3459 11.5348 44.5381 11.3272C44.7303 11.1195 44.9649 10.9566 45.2422 10.8384C45.5194 10.7202 45.8344 10.6611 46.1872 10.6611C46.4833 10.6611 46.7637 10.6995 47.0283 10.7761C47.2929 10.8528 47.5244 10.9678 47.7229 11.1211C47.9213 11.2745 48.0773 11.4661 48.1907 11.6961C48.3041 11.9261 48.3608 12.1945 48.3608 12.5011C48.3608 12.8525 48.2789 13.156 48.1151 13.4116C47.9513 13.6671 47.7024 13.8556 47.3685 13.977V13.9961C47.7591 14.0728 48.0678 14.2677 48.2946 14.5807C48.5214 14.8938 48.6348 15.2739 48.6348 15.7211C48.6348 16.047 48.5734 16.3409 48.4506 16.6028C48.3277 16.8647 48.1576 17.0868 47.9402 17.2688C47.7229 17.4509 47.4661 17.5899 47.17 17.6857C46.8739 17.7816 46.5495 17.8295 46.1966 17.8295C45.7808 17.8295 45.4233 17.772 45.124 17.657C44.8248 17.542 44.5759 17.3806 44.3774 17.173C44.179 16.9654 44.0309 16.713 43.9333 16.4159C43.8356 16.1188 43.7836 15.7882 43.7773 15.4241H44.9397C44.9271 15.8649 45.0248 16.2131 45.2327 16.4686C45.4406 16.7242 45.7619 16.852 46.1966 16.852C46.6062 16.852 46.918 16.7545 47.1322 16.5597C47.3464 16.3648 47.4535 16.0661 47.4535 15.6636C47.4535 15.3953 47.4173 15.1829 47.3449 15.0263C47.2724 14.8698 47.1637 14.7516 47.0188 14.6718C46.8739 14.5919 46.6944 14.544 46.4802 14.528C46.2659 14.512 46.0139 14.5072 45.7241 14.5136V13.6224ZM53.6341 16.5645C53.6341 16.6986 53.6514 16.7945 53.6861 16.852C53.7207 16.9095 53.7885 16.9382 53.8893 16.9382H54.0027C54.0468 16.9382 54.0972 16.9318 54.1539 16.9191V17.6761C54.1161 17.6889 54.0672 17.7033 54.0074 17.7193C53.9475 17.7352 53.8861 17.7496 53.8231 17.7624C53.7601 17.7752 53.6971 17.7847 53.6341 17.7911C53.5711 17.7975 53.5175 17.8007 53.4734 17.8007C53.2529 17.8007 53.0702 17.756 52.9253 17.6666C52.7804 17.5771 52.6859 17.4206 52.6418 17.197C52.4276 17.4078 52.1646 17.5611 51.8527 17.657C51.5408 17.7528 51.24 17.8007 50.9502 17.8007C50.7297 17.8007 50.5186 17.7704 50.317 17.7097C50.1154 17.649 49.9374 17.5595 49.7831 17.4413C49.6287 17.3231 49.5059 17.173 49.4145 16.9909C49.3231 16.8088 49.2775 16.5964 49.2775 16.3536C49.2775 16.047 49.3326 15.7978 49.4429 15.6061C49.5531 15.4145 49.698 15.2643 49.8776 15.1557C50.0571 15.0471 50.2587 14.9688 50.4824 14.9209C50.7061 14.873 50.9313 14.8363 51.1581 14.8107C51.3534 14.7724 51.5393 14.7452 51.7157 14.7293C51.8921 14.7133 52.048 14.6861 52.1835 14.6478C52.3189 14.6095 52.426 14.5504 52.5048 14.4705C52.5835 14.3906 52.6229 14.2709 52.6229 14.1111C52.6229 13.9706 52.5898 13.8556 52.5237 13.7661C52.4575 13.6767 52.3756 13.608 52.278 13.5601C52.1803 13.5122 52.0716 13.4802 51.9519 13.4643C51.8322 13.4483 51.7188 13.4403 51.6117 13.4403C51.3093 13.4403 51.0604 13.5042 50.8651 13.632C50.6698 13.7597 50.5596 13.9578 50.5344 14.2261H49.457C49.4759 13.9067 49.5515 13.6416 49.6838 13.4307C49.8161 13.2199 49.9847 13.0506 50.1894 12.9228C50.3942 12.795 50.6257 12.7056 50.884 12.6545C51.1423 12.6034 51.407 12.5778 51.6779 12.5778C51.9173 12.5778 52.1535 12.6034 52.3866 12.6545C52.6198 12.7056 52.8292 12.7886 53.0151 12.9036C53.201 13.0186 53.3506 13.1672 53.464 13.3493C53.5774 13.5313 53.6341 13.7534 53.6341 14.0153V16.5645ZM52.5568 15.1845C52.3929 15.2931 52.1913 15.3586 51.9519 15.3809C51.7125 15.4033 51.4731 15.4368 51.2337 15.4816C51.1203 15.5007 51.01 15.5279 50.9029 15.563C50.7958 15.5981 50.7013 15.6461 50.6194 15.7068C50.5375 15.7675 50.4729 15.8473 50.4257 15.9463C50.3784 16.0454 50.3548 16.1652 50.3548 16.3057C50.3548 16.4271 50.3895 16.5293 50.4588 16.6124C50.5281 16.6954 50.6115 16.7609 50.7092 16.8088C50.8069 16.8568 50.914 16.8903 51.0305 16.9095C51.1471 16.9286 51.2526 16.9382 51.3471 16.9382C51.4668 16.9382 51.596 16.9222 51.7346 16.8903C51.8732 16.8584 52.0039 16.8041 52.1268 16.7274C52.2496 16.6507 52.352 16.5533 52.4339 16.4351C52.5158 16.3169 52.5568 16.1716 52.5568 15.9991V15.1845ZM54.8248 12.712H58.1419V13.5266H55.9022V17.6666H54.8248V12.712ZM58.8224 12.712H59.843V13.3828H59.8619C60.0131 13.0953 60.2242 12.8893 60.4951 12.7647C60.766 12.6401 61.059 12.5778 61.374 12.5778C61.7583 12.5778 62.0938 12.6465 62.3804 12.7838C62.6671 12.9212 62.9049 13.1097 63.0939 13.3493C63.2829 13.5888 63.4247 13.8684 63.5192 14.1878C63.6137 14.5072 63.661 14.849 63.661 15.2132C63.661 15.5454 63.6184 15.8681 63.5334 16.1811C63.4483 16.4942 63.3192 16.7705 63.1459 17.0101C62.9727 17.2497 62.7537 17.4413 62.4891 17.5851C62.2245 17.7288 61.9126 17.8007 61.5535 17.8007C61.396 17.8007 61.2385 17.7863 61.081 17.7576C60.9235 17.7288 60.7723 17.6825 60.6274 17.6186C60.4825 17.5547 60.3486 17.4733 60.2257 17.3743C60.1029 17.2752 60.0005 17.1586 59.9186 17.0245H59.8997V19.497H58.8224V12.712ZM62.5836 15.194C62.5836 14.9704 62.5553 14.7532 62.4986 14.5424C62.4419 14.3315 62.3568 14.1447 62.2434 13.9818C62.13 13.8188 61.9882 13.6879 61.8181 13.5888C61.648 13.4898 61.4527 13.4403 61.2322 13.4403C60.7786 13.4403 60.4368 13.6 60.2068 13.9195C59.9769 14.2389 59.8619 14.6638 59.8619 15.194C59.8619 15.4432 59.8918 15.6748 59.9517 15.8888C60.0115 16.1029 60.1013 16.2866 60.221 16.4399C60.3407 16.5932 60.4841 16.7146 60.651 16.8041C60.818 16.8935 61.0117 16.9382 61.2322 16.9382C61.4779 16.9382 61.6858 16.8871 61.8559 16.7849C62.026 16.6827 62.1662 16.5501 62.2765 16.3872C62.3867 16.2243 62.4655 16.039 62.5127 15.8313C62.56 15.6237 62.5836 15.4113 62.5836 15.194ZM64.0295 12.712H65.2108L66.4866 16.4111H66.5055L67.7435 12.712H68.8681L66.9686 17.9349C66.8804 18.1585 66.7938 18.3725 66.7087 18.577C66.6237 18.7814 66.5197 18.9619 66.3968 19.1184C66.274 19.275 66.1212 19.3995 65.9385 19.4922C65.7558 19.5848 65.5227 19.6311 65.2392 19.6311C64.9872 19.6311 64.7383 19.612 64.4926 19.5736V18.6536C64.5808 18.6664 64.6658 18.6808 64.7478 18.6968C64.8297 18.7127 64.9147 18.7207 65.0029 18.7207C65.1289 18.7207 65.2329 18.7047 65.3148 18.6728C65.3967 18.6409 65.4644 18.5945 65.518 18.5338C65.5715 18.4731 65.6172 18.4013 65.655 18.3182C65.6928 18.2352 65.7274 18.1393 65.7589 18.0307L65.8818 17.6474L64.0295 12.712ZM69.3973 14.0536C69.4855 13.5425 69.7045 13.1688 70.0541 12.9324C70.4038 12.696 70.8653 12.5778 71.4386 12.5778C71.7158 12.5778 71.9805 12.6097 72.2325 12.6736C72.4845 12.7375 72.705 12.8318 72.894 12.9563C73.083 13.0809 73.2326 13.2327 73.3429 13.4116C73.4531 13.5904 73.5083 13.7981 73.5083 14.0345C73.5083 14.3092 73.4405 14.536 73.3051 14.7149C73.1696 14.8938 72.9822 15.0184 72.7428 15.0886V15.1078C73.0074 15.1589 73.2311 15.2883 73.4138 15.4959C73.5965 15.7036 73.6878 15.9671 73.6878 16.2866C73.6878 16.5677 73.6264 16.804 73.5035 16.9957C73.3807 17.1874 73.22 17.3423 73.0216 17.4605C72.8231 17.5787 72.5995 17.665 72.3506 17.7193C72.1017 17.7736 71.8513 17.8007 71.5993 17.8007C70.9062 17.8007 70.3534 17.6697 69.9407 17.4078C69.5281 17.1459 69.2713 16.7114 69.1705 16.1045H70.2479C70.2731 16.2706 70.3219 16.4079 70.3944 16.5166C70.4668 16.6252 70.555 16.713 70.659 16.7801C70.7629 16.8472 70.8811 16.8935 71.0134 16.9191C71.1457 16.9446 71.2843 16.9574 71.4292 16.9574C71.7757 16.9574 72.0561 16.8951 72.2703 16.7705C72.4845 16.6459 72.5916 16.4463 72.5916 16.1716C72.5916 15.9415 72.5207 15.7722 72.3789 15.6636C72.2372 15.555 72.012 15.5007 71.7032 15.5007H70.9189V14.6478H71.7127C71.9458 14.6478 72.1301 14.6079 72.2655 14.528C72.401 14.4481 72.4687 14.2964 72.4687 14.0728C72.4687 13.83 72.3711 13.6623 72.1758 13.5697C71.9804 13.477 71.7284 13.4307 71.4197 13.4307C71.1047 13.4307 70.87 13.4754 70.7157 13.5649C70.5613 13.6543 70.4621 13.8172 70.418 14.0536H69.3973ZM74.6045 12.712H75.6818V16.1141H75.7008L77.846 12.712H79.1785V17.6666H78.1012V14.2357H78.0823L75.8898 17.6666H74.6045V12.712ZM84.2345 13.5266H82.6184V17.6666H81.5411V13.5266H79.8589V12.712H84.2345V13.5266ZM88.2509 14.7532C88.2383 14.5807 88.202 14.4146 88.1422 14.2549C88.0823 14.0952 88.0004 13.9562 87.8965 13.838C87.7925 13.7198 87.6665 13.624 87.5185 13.5505C87.3704 13.477 87.205 13.4403 87.0223 13.4403C86.8333 13.4403 86.6616 13.4738 86.5073 13.5409C86.3529 13.608 86.2206 13.7006 86.1104 13.8188C86.0001 13.937 85.9119 14.076 85.8457 14.2357C85.7796 14.3954 85.7434 14.5679 85.7371 14.7532H88.2509ZM85.7371 15.472C85.7371 15.6636 85.7638 15.8489 85.8174 16.0278C85.8709 16.2067 85.9513 16.3632 86.0584 16.4974C86.1655 16.6316 86.3009 16.7386 86.4647 16.8184C86.6285 16.8983 86.8239 16.9382 87.0507 16.9382C87.3657 16.9382 87.6193 16.8695 87.8114 16.7322C88.0036 16.5948 88.1469 16.3888 88.2414 16.1141H89.2621C89.2054 16.3824 89.1077 16.622 88.9691 16.8328C88.8305 17.0436 88.6635 17.2209 88.4682 17.3647C88.2729 17.5084 88.054 17.617 87.8114 17.6905C87.5689 17.764 87.3153 17.8007 87.0507 17.8007C86.6664 17.8007 86.3261 17.7368 86.03 17.6091C85.7339 17.4813 85.4835 17.3024 85.2787 17.0724C85.074 16.8424 84.9196 16.5677 84.8157 16.2482C84.7117 15.9288 84.6597 15.5774 84.6597 15.194C84.6597 14.8427 84.7148 14.5088 84.8251 14.1926C84.9354 13.8763 85.0929 13.5984 85.2976 13.3588C85.5024 13.1193 85.7497 12.9292 86.0395 12.7886C86.3293 12.6481 86.6569 12.5778 87.0223 12.5778C87.4066 12.5778 87.7516 12.6593 88.0571 12.8222C88.3627 12.9851 88.6163 13.2007 88.8179 13.4691C89.0195 13.7374 89.166 14.0456 89.2573 14.3938C89.3487 14.742 89.3723 15.1014 89.3282 15.472H85.7371ZM93.8833 14.7341H95.0362C95.2442 14.7341 95.4158 14.6813 95.5513 14.5759C95.6867 14.4705 95.7545 14.322 95.7545 14.1303C95.7545 13.9067 95.693 13.7502 95.5702 13.6607C95.4473 13.5713 95.2694 13.5266 95.0362 13.5266H93.8833V14.7341ZM92.806 12.712H95.3765C95.8175 12.712 96.1703 12.8126 96.4349 13.0138C96.6995 13.2151 96.8318 13.5234 96.8318 13.9386C96.8318 14.1878 96.7704 14.4018 96.6475 14.5807C96.5247 14.7596 96.353 14.897 96.1325 14.9928V15.012C96.4349 15.0759 96.6633 15.2196 96.8176 15.4432C96.972 15.6668 97.0492 15.9479 97.0492 16.2866C97.0492 16.4782 97.0145 16.6587 96.9452 16.828C96.8759 16.9973 96.7688 17.1443 96.6239 17.2688C96.479 17.3934 96.2931 17.4909 96.0663 17.5611C95.8395 17.6314 95.5686 17.6666 95.2536 17.6666H92.806V12.712ZM93.8833 16.852H95.1591C95.4237 16.852 95.6253 16.7897 95.7639 16.6651C95.9025 16.5405 95.9718 16.3664 95.9718 16.1428C95.9718 15.9192 95.9025 15.7483 95.7639 15.6301C95.6253 15.5119 95.4237 15.4528 95.1591 15.4528H93.8833V16.852Z" fill="white"/>
</svg>
