<svg width="185" height="185" viewBox="0 0 185 185" fill="none" xmlns="http://www.w3.org/2000/svg">
<rect width="185" height="185" fill="#3766E4"/>
<path fill-rule="evenodd" clip-rule="evenodd" d="M131.847 63.8075C130.274 67.3001 128.202 70.6393 125.62 73.723C119.619 80.8877 111.779 85.5818 103.378 87.6967C103.288 87.7191 103.198 87.7423 103.105 87.7658C101.156 88.2628 98.5141 88.9364 96.045 86.8605C93.5262 84.7428 93.7328 82.3323 93.9029 80.3487C93.9198 80.1515 93.9363 79.9585 93.9498 79.7704C94.5696 71.1132 97.8219 62.5619 103.822 55.3972C106.392 52.329 109.297 49.7152 112.439 47.563C116.56 48.6423 120.515 50.6315 123.999 53.5609C127.448 56.4603 130.071 59.9743 131.847 63.8075ZM54.3822 90.5135C50.6068 91.8903 47.1457 93.7439 44.0407 95.9806C43.6658 100.19 44.1841 104.547 45.7239 108.786C47.2795 113.069 49.7117 116.772 52.7426 119.772C56.5371 119.482 60.3579 118.674 64.1142 117.304C72.8859 114.105 79.9698 108.329 84.8268 101.142C84.9323 100.986 85.0429 100.827 85.156 100.665C86.2931 99.0321 87.675 97.048 86.5504 93.9522C85.448 90.9174 82.8238 90.1772 80.8877 89.6311C80.796 89.6052 80.7059 89.5798 80.6175 89.5546C72.2862 87.1772 63.1539 87.3146 54.3822 90.5135ZM141.218 95.9806C138.113 93.7439 134.651 91.8903 130.876 90.5135C122.104 87.3146 112.972 87.1772 104.641 89.5546C104.613 89.5624 104.586 89.5703 104.558 89.5782C104.496 89.5956 104.434 89.6131 104.371 89.6309L104.371 89.6311C102.434 90.1772 99.8103 90.9174 98.7079 93.9522C97.5833 97.048 98.9652 99.0321 100.102 100.665C100.215 100.827 100.326 100.986 100.431 101.142C105.288 108.329 112.372 114.105 121.144 117.304C124.9 118.674 128.721 119.482 132.516 119.772C135.547 116.772 137.979 113.069 139.534 108.786C141.074 104.547 141.592 100.19 141.218 95.9806ZM105.31 139.168C106.346 135.479 106.901 131.587 106.901 127.561C106.901 118.208 103.906 109.563 98.8269 102.532C98.7921 102.484 98.757 102.435 98.7216 102.386L98.6627 102.304C97.4883 100.668 95.8965 98.45 92.6733 98.45C89.3853 98.45 87.9971 100.43 86.8548 102.059C86.7412 102.221 86.6301 102.379 86.5197 102.532C81.4407 109.563 78.4461 118.208 78.4461 127.561C78.4461 131.566 78.9951 135.44 80.0209 139.112C83.8707 140.94 88.1762 141.963 92.7247 141.963C97.2267 141.963 101.491 140.96 105.31 139.168Z" fill="white"/>
<path fill-rule="evenodd" clip-rule="evenodd" d="M55.286 67.2696C54.6449 66.1355 54.0606 64.9801 53.5325 63.8075C55.3084 59.9743 57.9317 56.4603 61.3804 53.5609C64.8647 50.6315 68.8193 48.6423 72.9411 47.563C73.9179 48.2323 74.872 48.9462 75.8003 49.7045C71.0257 50.2146 66.3596 52.1664 62.4959 55.602C58.8713 58.825 56.4568 62.9055 55.286 67.2696ZM56.5622 69.3821C57.4396 64.71 59.8122 60.2846 63.6337 56.8866C67.6658 53.3013 72.6399 51.4566 77.6404 51.2977C78.6759 52.2472 79.6739 53.2564 80.6295 54.3249C75.3522 53.7014 69.8449 55.2507 65.56 59.0608C61.434 62.7296 59.2507 67.775 59.0861 72.8977C58.1772 71.757 57.3361 70.5835 56.5622 69.3821ZM60.8495 74.9745C62.0387 76.2893 63.2926 77.5134 64.6021 78.646C62.5585 73.1184 63.9618 66.6648 68.6234 62.5198C73.3348 58.3305 79.9874 57.7325 85.2493 60.5228C84.3739 59.0969 83.4059 57.7082 82.3447 56.3647C76.9825 55.1214 71.1238 56.4098 66.6978 60.3453C62.3965 64.1699 60.412 69.6376 60.8495 74.9745ZM87.1409 63.9469C82.2952 59.4923 74.7798 59.3419 69.7612 63.8044C64.6976 68.3068 63.9856 75.8961 67.9416 81.255C70.7519 83.2325 73.7581 84.8363 76.8869 86.06C74.7707 84.2475 72.7533 82.2679 70.853 80.1223C70.8246 80.0903 70.799 80.0567 70.7763 80.0219C70.7445 79.9951 70.7143 79.9657 70.6859 79.9337C67.0965 75.8812 67.5753 69.635 71.6871 65.9788C75.7903 62.3303 82.0194 62.5874 85.6124 66.6154C85.7268 66.6636 85.8325 66.7377 85.9204 66.8369C87.1353 68.2085 88.4218 69.4787 89.7691 70.6468C89.0903 68.3638 88.215 66.122 87.1409 63.9469ZM90.503 73.4649C88.4256 71.8603 86.4676 70.0389 84.661 68.0025C84.5466 67.9542 84.4409 67.8802 84.3531 67.781C81.4205 64.4701 76.2612 64.2078 72.8249 67.2633C69.3886 70.3189 69.0354 75.4828 71.9679 78.7937C71.9963 78.8257 72.0219 78.8593 72.0446 78.8941C72.0764 78.9209 72.1067 78.9503 72.1351 78.9824C75.0275 82.248 78.1989 85.118 81.5812 87.5884C81.7214 87.6252 81.8617 87.6613 82.0022 87.6967C82.0913 87.7191 82.1821 87.7423 82.2744 87.7658C83.6836 88.1251 85.455 88.5767 87.2614 88.0149C82.5356 85.1493 78.1536 81.5324 74.2941 77.1749C72.2886 74.9106 72.4917 71.4465 74.7508 69.4377C77.0099 67.4289 80.4669 67.6385 82.4725 69.9029C85.1119 72.8828 88.0545 75.4326 91.2125 77.5472C91.0425 76.1793 90.8062 74.8168 90.503 73.4649ZM91.4272 79.7322C87.7067 77.3984 84.2519 74.4994 81.1904 71.0429C79.812 69.4866 77.4382 69.3444 75.8885 70.7223C74.3389 72.1002 74.1978 74.4787 75.5762 76.0349C79.5641 80.5373 84.1271 84.2242 89.0558 87.083C89.149 87.0126 89.242 86.9385 89.3347 86.8605C90.1304 86.1915 90.6541 85.4933 90.993 84.7885C86.1848 82.053 81.7358 78.4912 77.8607 74.116C77.5465 73.7613 77.5788 73.2186 77.9328 72.9038C78.2869 72.589 78.8286 72.6213 79.1427 72.9761C82.7969 77.1017 86.9786 80.4792 91.4955 83.0971C91.6304 82.14 91.5502 81.2046 91.4769 80.3487L91.4769 80.3485C91.46 80.1513 91.4434 79.9584 91.43 79.7704C91.4291 79.7577 91.4281 79.745 91.4272 79.7322Z" fill="white"/>
<path d="M92.6285 85.9072L92.6721 86.0163C93.6761 88.5326 96.0227 90.2484 98.7109 90.4318L98.8274 90.4398L98.7378 90.5151C96.6701 92.2537 95.7738 95.03 96.4312 97.6596L96.4596 97.7736L96.3607 97.7111C94.0788 96.2693 91.1783 96.2693 88.8964 97.7111L88.7974 97.7736L88.8259 97.6596C89.4833 95.03 88.5869 92.2537 86.5193 90.5151L86.4297 90.4398L86.5462 90.4318C89.2344 90.2484 91.581 88.5326 92.585 86.0163L92.6285 85.9072Z" fill="white"/>
<path d="M156.677 67.5453C156.646 67.475 156.641 67.4059 156.662 67.3381C156.692 67.2742 156.743 67.2268 156.813 67.1958L161.243 65.2438L160.843 64.3368C160.812 64.2665 160.807 64.1975 160.827 64.1296C160.851 64.0689 160.898 64.023 160.968 63.992L161.305 63.8433C161.376 63.8123 161.441 63.8086 161.502 63.8322C161.573 63.8597 161.624 63.9086 161.655 63.979L162.055 64.886L162.582 64.6536C163.151 64.4026 163.651 64.346 164.081 64.4839C164.522 64.6257 164.881 65.013 165.16 65.6458L165.434 66.2681C165.465 66.3384 165.466 66.4055 165.435 66.4693C165.415 66.5372 165.369 66.5865 165.299 66.6175L164.961 66.7663C164.891 66.7972 164.824 66.7974 164.76 66.7668C164.699 66.7432 164.653 66.6962 164.622 66.6259L164.357 66.0248C164.215 65.7014 164.031 65.5136 163.807 65.4614C163.582 65.4092 163.294 65.4605 162.943 65.6154L162.468 65.8246L163.068 67.1851C163.099 67.2554 163.099 67.3225 163.068 67.3864C163.048 67.4542 163.002 67.5036 162.932 67.5346L162.595 67.6833C162.524 67.7143 162.457 67.7144 162.393 67.6838C162.333 67.6602 162.287 67.6133 162.256 67.543L161.656 66.1825L157.227 68.1345C157.156 68.1655 157.086 68.1672 157.015 68.1397C156.954 68.1161 156.908 68.0691 156.877 67.9988L156.677 67.5453Z" fill="white"/>
<path d="M159.922 76.7786C159.7 75.9631 159.759 75.2704 160.097 74.7005C160.438 74.138 160.986 73.738 161.742 73.5006L162.217 73.3594L162.698 73.2404C163.47 73.0622 164.146 73.1331 164.727 73.4528C165.309 73.78 165.71 74.3439 165.927 75.1446C166.145 75.9453 166.085 76.6306 165.746 77.2005C165.41 77.7779 164.864 78.1852 164.108 78.4227C163.949 78.4819 163.792 78.5327 163.636 78.575C163.48 78.6174 163.319 78.6534 163.152 78.6829C162.38 78.861 161.704 78.7902 161.123 78.4704C160.544 78.1581 160.144 77.5942 159.922 76.7786ZM160.756 76.5517C160.885 77.0262 161.136 77.3602 161.507 77.5539C161.887 77.7529 162.362 77.7869 162.932 77.6558C163.008 77.643 163.15 77.6084 163.358 77.5519C163.565 77.4954 163.705 77.4534 163.777 77.4258C164.334 77.2503 164.723 76.9813 164.943 76.6188C165.172 76.2618 165.222 75.8461 165.093 75.3716C164.964 74.8971 164.709 74.5603 164.329 74.3613C163.958 74.1677 163.487 74.1364 162.918 74.2675L162.492 74.3714L162.073 74.4975C161.515 74.673 161.122 74.9393 160.892 75.2963C160.673 75.6588 160.627 76.0772 160.756 76.5517Z" fill="white"/>
<path d="M162.023 86.2878C162.014 86.2114 162.03 86.144 162.07 86.0854C162.118 86.0337 162.181 86.0035 162.257 85.995L167.675 85.3927C167.751 85.3842 167.819 85.3999 167.877 85.4398C167.937 85.4873 167.971 85.5492 167.979 85.6256L168.033 86.1067C168.042 86.1907 168.023 86.2586 167.974 86.3103C167.934 86.3689 167.872 86.4028 167.788 86.4122L167.284 86.4682C167.838 86.7236 168.157 87.2254 168.24 87.9738L168.29 88.4205C168.299 88.5045 168.284 88.572 168.243 88.6229C168.202 88.6738 168.14 88.7039 168.056 88.7133L167.632 88.7604C167.556 88.7689 167.488 88.7532 167.43 88.7133C167.379 88.6726 167.349 88.6102 167.339 88.5262L167.267 87.8733C167.22 87.4533 167.061 87.1347 166.789 86.9175C166.519 86.7079 166.173 86.6265 165.753 86.6732L162.374 87.0489C162.298 87.0573 162.23 87.0378 162.171 86.9903C162.119 86.942 162.089 86.8796 162.08 86.8032L162.023 86.2878Z" fill="white"/>
<path d="M160.029 97.2953C160.058 96.6582 160.188 96.1525 160.42 95.7782C160.651 95.4039 160.909 95.1423 161.193 94.9934C161.476 94.8521 161.717 94.7858 161.917 94.7947C161.986 94.7977 162.046 94.8273 162.097 94.8834C162.141 94.9392 162.161 95.0016 162.158 95.0707L162.136 95.5773C162.133 95.6464 162.115 95.7033 162.082 95.748C162.042 95.7923 161.975 95.8278 161.881 95.8545C161.258 96.0422 160.929 96.516 160.895 97.276C160.87 97.8517 160.974 98.2831 161.207 98.5703C161.441 98.8575 161.868 99.0149 162.49 99.0424L163.285 99.0776C162.736 98.6072 162.48 97.9729 162.515 97.1746C162.551 96.361 162.839 95.7623 163.379 95.3785C163.919 95.0025 164.588 94.8206 165.387 94.8329L165.71 94.8357L166.021 94.861C166.81 94.919 167.457 95.1591 167.962 95.5814C168.473 96.0116 168.711 96.6336 168.675 97.4472C168.639 98.2532 168.316 98.8695 167.705 99.2963L168.2 99.3182C168.277 99.3216 168.341 99.3475 168.393 99.3959C168.444 99.452 168.468 99.5185 168.465 99.5952L168.443 100.09C168.439 100.167 168.41 100.227 168.354 100.271C168.298 100.322 168.231 100.346 168.155 100.343L162.57 100.096C160.797 100.017 159.95 99.0838 160.029 97.2953ZM163.404 97.4216C163.38 97.9589 163.535 98.3695 163.869 98.6535C164.209 98.9454 164.625 99.1138 165.115 99.1586C165.184 99.1693 165.318 99.1791 165.518 99.1879C165.71 99.1964 165.84 99.1984 165.91 99.1937C166.402 99.1925 166.827 99.0613 167.185 98.8002C167.55 98.5472 167.744 98.152 167.768 97.6147C167.792 97.0621 167.633 96.6513 167.292 96.3823C166.957 96.1214 166.514 95.9672 165.962 95.9197L165.663 95.895L165.352 95.8927C164.798 95.8913 164.34 96.0056 163.976 96.2356C163.619 96.4736 163.428 96.8689 163.404 97.4216Z" fill="white"/>
<path d="M161.013 109.158C161.181 108.393 161.551 107.833 162.124 107.479C162.705 107.126 163.413 107.018 164.249 107.154L164.634 107.227L165.003 107.319C165.804 107.542 166.394 107.935 166.774 108.498C167.154 109.061 167.26 109.725 167.092 110.491C166.911 111.316 166.509 111.897 165.885 112.232C165.259 112.575 164.496 112.647 163.595 112.45L163.392 112.405C163.317 112.389 163.259 112.349 163.218 112.285C163.183 112.23 163.174 112.165 163.19 112.09L164.047 108.183L163.945 108.161C163.452 108.077 163.003 108.135 162.597 108.338C162.191 108.54 161.938 108.869 161.837 109.327C161.76 109.68 161.765 109.98 161.852 110.227C161.946 110.484 162.055 110.685 162.18 110.83C162.256 110.917 162.297 110.981 162.303 111.022C162.318 111.065 162.315 111.131 162.295 111.221L162.187 111.716C162.172 111.784 162.141 111.836 162.093 111.873C162.044 111.917 161.99 111.933 161.93 111.92C161.765 111.883 161.588 111.739 161.4 111.485C161.211 111.231 161.072 110.898 160.982 110.485C160.897 110.081 160.908 109.639 161.013 109.158ZM164.124 111.492L164.157 111.499C164.683 111.615 165.142 111.566 165.535 111.353C165.927 111.14 166.176 110.794 166.282 110.313C166.389 109.825 166.307 109.406 166.038 109.056C165.769 108.706 165.371 108.474 164.846 108.359L164.812 108.351L164.124 111.492Z" fill="white"/>
<path d="M157.936 119.812C158.361 118.699 159.202 118.383 160.458 118.863L163.343 119.966L163.668 119.116C163.695 119.044 163.739 118.995 163.798 118.968C163.858 118.942 163.923 118.942 163.995 118.97L164.34 119.101C164.411 119.129 164.461 119.172 164.487 119.232C164.521 119.294 164.524 119.361 164.497 119.433L164.172 120.283L165.969 120.971C166.041 120.998 166.09 121.042 166.117 121.101C166.151 121.163 166.154 121.23 166.126 121.302L165.945 121.776C165.918 121.848 165.871 121.895 165.804 121.919C165.742 121.953 165.675 121.956 165.603 121.929L163.805 121.241L163.295 122.576C163.267 122.648 163.22 122.696 163.154 122.72C163.091 122.753 163.024 122.757 162.953 122.729L162.608 122.597C162.536 122.57 162.489 122.523 162.465 122.456C162.438 122.397 162.438 122.331 162.466 122.259L162.976 120.924L160.167 119.85C159.801 119.71 159.502 119.662 159.272 119.705C159.039 119.756 158.867 119.925 158.757 120.212L158.506 120.869C158.479 120.94 158.432 120.988 158.365 121.012C158.306 121.039 158.24 121.038 158.168 121.011L157.813 120.875C157.741 120.848 157.688 120.803 157.655 120.74C157.628 120.681 157.628 120.615 157.656 120.544L157.936 119.812Z" fill="white"/>
<path d="M157.765 127.462C157.801 127.394 157.852 127.348 157.918 127.322C157.981 127.303 158.046 127.312 158.113 127.348L158.479 127.545C158.547 127.581 158.59 127.63 158.609 127.693C158.631 127.765 158.624 127.836 158.587 127.903L156.952 130.95C156.916 131.018 156.863 131.059 156.794 131.074C156.728 131.1 156.661 131.095 156.594 131.058L156.228 130.862C156.16 130.826 156.119 130.773 156.104 130.704C156.085 130.641 156.094 130.576 156.13 130.509L157.765 127.462Z" fill="white"/>
<path d="M150.971 133.276C151.018 133.216 151.076 133.178 151.146 133.164C151.217 133.161 151.282 133.183 151.343 133.231L155.645 136.597C155.705 136.645 155.74 136.701 155.747 136.766C155.757 136.841 155.738 136.909 155.69 136.97L155.392 137.351C155.345 137.411 155.286 137.443 155.215 137.446C155.15 137.454 155.087 137.434 155.027 137.387L154.718 137.146C154.868 137.79 154.725 138.39 154.289 138.947C153.769 139.612 153.121 139.866 152.346 139.709C152.487 140.053 152.529 140.418 152.471 140.802C152.41 141.193 152.249 141.555 151.988 141.887C151.6 142.384 151.113 142.656 150.528 142.706C149.943 142.755 149.33 142.529 148.688 142.027L146.065 139.974C146.005 139.927 145.97 139.866 145.961 139.79C145.953 139.725 145.973 139.663 146.02 139.602L146.325 139.212C146.373 139.152 146.431 139.114 146.501 139.1C146.571 139.097 146.637 139.119 146.697 139.167L149.239 141.155C149.723 141.534 150.146 141.704 150.508 141.666C150.876 141.632 151.188 141.451 151.444 141.125C151.671 140.834 151.758 140.498 151.706 140.116C151.656 139.744 151.394 139.374 150.922 139.004L148.381 137.016C148.32 136.968 148.285 136.907 148.276 136.831C148.268 136.767 148.288 136.704 148.335 136.643L148.648 136.244C148.695 136.184 148.754 136.146 148.823 136.132C148.894 136.129 148.96 136.151 149.02 136.199L151.561 138.187C152.039 138.562 152.467 138.726 152.845 138.68C153.218 138.64 153.525 138.465 153.766 138.157C153.993 137.866 154.084 137.532 154.038 137.155C153.987 136.783 153.726 136.413 153.254 136.043L150.703 134.048C150.643 134 150.608 133.939 150.599 133.863C150.591 133.799 150.611 133.736 150.658 133.675L150.971 133.276Z" fill="white"/>
<path d="M139.533 145.8C140.125 145.287 140.757 145.061 141.428 145.12C142.105 145.185 142.737 145.523 143.324 146.132L143.589 146.421L143.829 146.716C144.337 147.374 144.575 148.042 144.542 148.72C144.509 149.399 144.197 149.994 143.604 150.507C142.965 151.06 142.295 151.284 141.594 151.179C140.888 151.078 140.233 150.68 139.63 149.982L139.494 149.825C139.444 149.767 139.422 149.7 139.427 149.624C139.432 149.559 139.463 149.502 139.521 149.451L142.546 146.835L142.478 146.757C142.134 146.394 141.739 146.172 141.293 146.091C140.846 146.009 140.446 146.122 140.092 146.429C139.819 146.665 139.643 146.908 139.565 147.159C139.486 147.42 139.453 147.646 139.467 147.838C139.475 147.953 139.469 148.029 139.45 148.065C139.436 148.108 139.394 148.159 139.325 148.22L138.941 148.551C138.889 148.597 138.833 148.62 138.773 148.621C138.707 148.627 138.654 148.607 138.614 148.56C138.503 148.433 138.448 148.211 138.449 147.895C138.45 147.579 138.538 147.229 138.713 146.844C138.888 146.469 139.161 146.122 139.533 145.8ZM140.627 149.531L140.649 149.558C141.001 149.964 141.398 150.2 141.84 150.265C142.282 150.33 142.689 150.201 143.061 149.879C143.439 149.553 143.625 149.168 143.618 148.727C143.612 148.285 143.433 147.861 143.081 147.454L143.059 147.428L140.627 149.531Z" fill="white"/>
<path d="M134.088 153.878C134.153 153.836 134.22 153.821 134.291 153.831C134.354 153.845 134.407 153.884 134.448 153.949L134.672 154.298C134.713 154.363 134.727 154.427 134.713 154.491C134.697 154.565 134.656 154.623 134.591 154.664L131.679 156.528C131.614 156.569 131.548 156.58 131.48 156.559C131.41 156.549 131.354 156.512 131.313 156.447L131.089 156.098C131.048 156.033 131.037 155.967 131.058 155.899C131.072 155.835 131.111 155.783 131.176 155.741L134.088 153.878Z" fill="white"/>
<path d="M125.309 155.544C125.379 155.513 125.448 155.507 125.516 155.526C125.58 155.556 125.628 155.606 125.66 155.676L127.914 160.653C127.945 160.723 127.95 160.788 127.927 160.849C127.9 160.92 127.852 160.972 127.782 161.003L127.33 161.208C127.253 161.243 127.184 161.249 127.123 161.226C127.062 161.203 127.014 161.153 126.979 161.076L126.77 160.614C126.677 160.968 126.526 161.277 126.317 161.54C126.1 161.807 125.785 162.034 125.373 162.221C124.701 162.526 124.081 162.545 123.513 162.279C122.949 162.02 122.507 161.537 122.187 160.83L120.841 157.859C120.809 157.789 120.807 157.719 120.833 157.647C120.856 157.586 120.903 157.54 120.973 157.508L121.456 157.29C121.526 157.258 121.595 157.252 121.663 157.272C121.727 157.302 121.775 157.352 121.807 157.422L123.124 160.33C123.352 160.834 123.652 161.17 124.024 161.339C124.396 161.508 124.809 161.49 125.264 161.283C125.712 161.081 126.004 160.775 126.14 160.368C126.279 159.968 126.236 159.519 126.011 159.022L124.694 156.114C124.662 156.044 124.66 155.973 124.686 155.902C124.709 155.841 124.756 155.795 124.826 155.763L125.309 155.544Z" fill="white"/>
<path d="M112.79 160.144C113.609 159.932 114.301 159.999 114.866 160.344C115.425 160.691 115.818 161.244 116.047 162.002L116.182 162.479L116.296 162.962C116.464 163.736 116.386 164.411 116.059 164.988C115.725 165.567 115.156 165.96 114.353 166.168C113.55 166.377 112.865 166.308 112.299 165.963C111.726 165.619 111.325 165.069 111.097 164.31C111.039 164.15 110.991 163.992 110.95 163.836C110.91 163.68 110.876 163.518 110.848 163.351C110.679 162.577 110.758 161.902 111.085 161.325C111.404 160.75 111.972 160.356 112.79 160.144ZM113.007 160.981C112.531 161.104 112.194 161.351 111.996 161.719C111.793 162.098 111.753 162.572 111.878 163.143C111.889 163.22 111.922 163.362 111.976 163.57C112.03 163.778 112.071 163.919 112.098 163.991C112.266 164.551 112.531 164.942 112.891 165.167C113.245 165.4 113.66 165.455 114.136 165.332C114.612 165.208 114.952 164.957 115.155 164.579C115.353 164.21 115.39 163.74 115.266 163.169L115.167 162.743L115.046 162.321C114.877 161.762 114.615 161.366 114.261 161.132C113.901 160.908 113.483 160.857 113.007 160.981Z" fill="white"/>
<path d="M101.227 162.333C102.412 162.215 103.071 162.826 103.203 164.164L103.508 167.237L104.414 167.148C104.491 167.14 104.554 167.157 104.604 167.198C104.655 167.24 104.684 167.298 104.691 167.375L104.728 167.742C104.735 167.818 104.719 167.882 104.677 167.932C104.637 167.99 104.578 168.023 104.502 168.031L103.596 168.121L103.786 170.036C103.793 170.112 103.776 170.176 103.735 170.226C103.694 170.284 103.636 170.317 103.559 170.325L103.055 170.375C102.978 170.382 102.914 170.362 102.863 170.313C102.805 170.272 102.772 170.214 102.765 170.137L102.575 168.222L101.153 168.363C101.076 168.37 101.012 168.35 100.961 168.301C100.903 168.26 100.87 168.202 100.863 168.125L100.826 167.758C100.819 167.682 100.84 167.618 100.889 167.567C100.93 167.516 100.989 167.487 101.065 167.48L102.487 167.339L102.191 164.345C102.152 163.955 102.061 163.667 101.919 163.48C101.77 163.294 101.542 163.217 101.236 163.247L100.537 163.316C100.46 163.324 100.396 163.303 100.345 163.254C100.295 163.213 100.266 163.154 100.258 163.078L100.221 162.699C100.213 162.623 100.229 162.555 100.27 162.497C100.311 162.447 100.37 162.418 100.447 162.41L101.227 162.333Z" fill="white"/>
<path d="M37.8593 50.6713C37.8147 50.7338 37.758 50.7736 37.6892 50.7906C37.6187 50.7969 37.5521 50.7777 37.4896 50.7331L33.5489 47.922L32.9733 48.7289C32.9287 48.7914 32.872 48.8312 32.8032 48.8482C32.7389 48.859 32.6755 48.842 32.613 48.7974L32.3127 48.5832C32.2502 48.5386 32.2135 48.4842 32.2028 48.4199C32.1902 48.3448 32.2063 48.2761 32.2509 48.2135L32.8265 47.4066L32.3574 47.0719C31.8507 46.7105 31.5468 46.3097 31.4456 45.8694C31.3426 45.4184 31.4919 44.9114 31.8935 44.3485L32.2884 43.7949C32.333 43.7324 32.3906 43.6979 32.4612 43.6916C32.5299 43.6746 32.5956 43.6884 32.6581 43.7331L32.9584 43.9472C33.0209 43.9919 33.0553 44.0494 33.0616 44.12C33.0724 44.1843 33.0555 44.2477 33.0108 44.3103L32.6293 44.8451C32.4241 45.1328 32.3563 45.3865 32.4261 45.6062C32.4959 45.8259 32.6872 46.0473 33 46.2704L33.4222 46.5716L34.2856 45.3612C34.3302 45.2987 34.3878 45.2643 34.4584 45.258C34.5271 45.241 34.5928 45.2548 34.6553 45.2994L34.9556 45.5136C35.0181 45.5582 35.0526 45.6158 35.0588 45.6863C35.0696 45.7506 35.0527 45.8141 35.0081 45.8766L34.1446 47.0869L38.0853 49.8981C38.1478 49.9427 38.1854 50.0025 38.1979 50.0775C38.2087 50.1418 38.1917 50.2053 38.1471 50.2678L37.8593 50.6713Z" fill="white"/>
<path d="M44.14 43.1655C43.5522 43.7728 42.9269 44.0765 42.264 44.0764C41.6064 44.0709 40.9826 43.8039 40.3925 43.2756L40.0284 42.9393L39.6803 42.5863C39.133 42.0139 38.8485 41.3964 38.8268 40.7338C38.8105 40.0657 39.0909 39.4335 39.668 38.8373C40.2451 38.241 40.8651 37.9429 41.528 37.9429C42.1963 37.9374 42.8254 38.1988 43.4154 38.7271C43.5476 38.8336 43.6716 38.943 43.7876 39.0552C43.9035 39.1674 44.0169 39.2878 44.1277 39.4164C44.675 39.9889 44.9595 40.6064 44.9811 41.269C45.0082 41.926 44.7278 42.5582 44.14 43.1655ZM43.5189 42.5644C43.8609 42.211 44.0203 41.8253 43.9972 41.4073C43.9739 40.9784 43.7604 40.5526 43.3569 40.13C43.307 40.071 43.2048 39.9667 43.0502 39.8171C42.8956 39.6675 42.788 39.5687 42.7275 39.5208C42.2918 39.1313 41.8621 38.9345 41.4382 38.9306C41.0141 38.9158 40.6311 39.0851 40.2891 39.4384C39.9471 39.7917 39.7878 40.1829 39.8111 40.6117C39.8342 41.0298 40.0476 41.4501 40.4511 41.8728L40.7578 42.1856L41.0805 42.4819C41.5162 42.8715 41.946 43.0737 42.3701 43.0885C42.794 43.0924 43.1769 42.9177 43.5189 42.5644Z" fill="white"/>
<path d="M51.2423 36.5026C51.181 36.5489 51.115 36.5699 51.0443 36.5655C50.9751 36.5503 50.9173 36.5121 50.871 36.4508L47.5858 32.1005C47.5395 32.0392 47.5186 31.9731 47.523 31.9024C47.5335 31.8271 47.5694 31.7663 47.6307 31.72L48.017 31.4283C48.0844 31.3773 48.1528 31.3595 48.222 31.3746C48.2927 31.379 48.3535 31.4149 48.4044 31.4823L48.71 31.887C48.6465 31.2802 48.9153 30.75 49.5161 30.2962L49.8748 30.0253C49.9423 29.9744 50.0083 29.9534 50.0729 29.9624C50.1374 29.9714 50.1952 30.0097 50.2461 30.0771L50.5031 30.4174C50.5494 30.4787 50.5704 30.5447 50.566 30.6154C50.557 30.68 50.5188 30.7378 50.4513 30.7887L49.9271 31.1846C49.5898 31.4392 49.3972 31.7388 49.3491 32.0831C49.3072 32.4229 49.4136 32.7614 49.6683 33.0986L51.7172 35.8118C51.7635 35.8731 51.7814 35.9415 51.7709 36.0168C51.7557 36.086 51.7175 36.1438 51.6562 36.1901L51.2423 36.5026Z" fill="white"/>
<path d="M61.7239 32.5942C61.1618 32.8953 60.6606 33.0418 60.2203 33.0336C59.7801 33.0254 59.4236 32.9375 59.1507 32.7699C58.8846 32.5986 58.7044 32.425 58.6101 32.2489C58.5774 32.1879 58.5721 32.121 58.5941 32.0482C58.6198 31.9822 58.663 31.9328 58.724 31.9002L59.171 31.6607C59.232 31.628 59.29 31.6144 59.3452 31.6197C59.4039 31.6318 59.4686 31.6712 59.5393 31.738C60.0192 32.1782 60.5944 32.2187 61.2649 31.8595C61.7728 31.5873 62.0907 31.2776 62.2184 30.9302C62.3461 30.5829 62.263 30.1349 61.9691 29.5863L61.5935 28.8853C61.4692 29.597 61.0549 30.1415 60.3505 30.5188C59.6326 30.9035 58.9708 30.9617 58.3651 30.6934C57.7662 30.4216 57.2679 29.9389 56.8702 29.2454L56.7077 28.9664L56.5709 28.6867C56.2175 27.9782 56.0935 27.2994 56.1989 26.6502C56.3075 25.9905 56.7207 25.4684 57.4386 25.0838C58.1498 24.7028 58.8448 24.666 59.5238 24.9734L59.2898 24.5366C59.2535 24.4688 59.243 24.4004 59.2582 24.3312C59.2802 24.2584 59.3251 24.2039 59.3928 24.1676L59.8296 23.9335C59.8974 23.8972 59.9642 23.8919 60.0303 23.9176C60.1031 23.9396 60.1576 23.9844 60.1939 24.0522L62.8337 28.9793C63.6718 30.5438 63.3019 31.7487 61.7239 32.5942ZM60.1088 29.6285C60.5829 29.3745 60.8568 29.0316 60.9306 28.5998C61.0075 28.1577 60.94 27.7144 60.7281 27.2701C60.7022 27.2055 60.6421 27.0851 60.5478 26.9091C60.4571 26.7397 60.392 26.6264 60.3526 26.5691C60.1 26.1465 59.7702 25.8482 59.3631 25.674C58.9591 25.4895 58.5201 25.5242 58.046 25.7782C57.5584 26.0395 57.2863 26.3857 57.2297 26.817C57.1763 27.2379 57.27 27.6976 57.5109 28.1961L57.6423 28.4657L57.7994 28.7345C58.081 29.2113 58.4136 29.5474 58.7972 29.7428C59.184 29.9278 59.6212 29.8897 60.1088 29.6285Z" fill="white"/>
<path d="M71.4205 25.6893C70.6766 25.9361 70.0061 25.9035 69.4088 25.5917C68.8091 25.2725 68.3544 24.7191 68.0445 23.9314L67.9102 23.5631L67.8014 23.1985C67.5839 22.3963 67.6201 21.6881 67.9102 21.0738C68.2002 20.4595 68.7171 20.029 69.461 19.7823C70.2632 19.5162 70.9677 19.5658 71.5746 19.9311C72.1888 20.2941 72.6411 20.9131 72.9313 21.7882L72.9967 21.9851C73.0209 22.058 73.0159 22.1285 72.9818 22.1965C72.9525 22.2547 72.9015 22.296 72.8285 22.3202L69.0327 23.5793L69.0653 23.6777C69.2445 24.1445 69.5246 24.5009 69.9057 24.7468C70.2868 24.9928 70.6998 25.042 71.1446 24.8944C71.4874 24.7807 71.7427 24.6232 71.9107 24.4217C72.0835 24.2106 72.2004 24.014 72.2614 23.8318C72.298 23.7225 72.3321 23.6546 72.3638 23.6279C72.393 23.5939 72.4513 23.5624 72.5388 23.5334L73.0202 23.3737C73.0858 23.3519 73.1465 23.352 73.2024 23.374C73.2655 23.3935 73.3068 23.4324 73.3261 23.4908C73.3793 23.6512 73.345 23.8771 73.2231 24.1685C73.1012 24.4599 72.8857 24.75 72.5767 25.0386C72.2726 25.3176 71.8872 25.5345 71.4205 25.6893ZM71.8379 21.823L71.827 21.7902C71.6577 21.2797 71.3812 20.91 70.9977 20.6811C70.6141 20.4521 70.189 20.4151 69.7222 20.5699C69.2482 20.7271 68.9295 21.0109 68.7661 21.4213C68.6027 21.8317 68.6057 22.2921 68.7751 22.8026L68.7859 22.8354L71.8379 21.823Z" fill="white"/>
<path d="M82.1509 22.8936C80.9773 23.0962 80.2762 22.5349 80.0475 21.2099L79.5223 18.1661L78.6251 18.321C78.5494 18.334 78.4849 18.3218 78.4316 18.2842C78.3783 18.2466 78.3452 18.1899 78.3321 18.1142L78.2694 17.7508C78.2563 17.6751 78.2686 17.6106 78.3062 17.5573C78.3424 17.4965 78.3984 17.4595 78.4742 17.4465L79.3714 17.2916L79.0441 15.395C79.031 15.3193 79.0433 15.2548 79.0809 15.2015C79.1172 15.1407 79.1732 15.1037 79.2489 15.0906L79.7486 15.0044C79.8243 14.9913 79.8895 15.0074 79.944 15.0525C80.0049 15.0888 80.0418 15.1448 80.0549 15.2205L80.3822 17.1172L81.7905 16.8742C81.8662 16.8611 81.9314 16.8772 81.9859 16.9223C82.0468 16.9586 82.0837 17.0146 82.0968 17.0903L82.1595 17.4538C82.1726 17.5295 82.1565 17.5946 82.1114 17.6492C82.0738 17.7025 82.0171 17.7356 81.9414 17.7487L80.5331 17.9917L81.0446 20.956C81.1113 21.3421 81.2221 21.6232 81.3772 21.7991C81.5399 21.9738 81.7727 22.035 82.0756 21.9827L82.7684 21.8631C82.8441 21.8501 82.9092 21.8661 82.9638 21.9113C83.0171 21.9489 83.0502 22.0055 83.0633 22.0812L83.128 22.456C83.141 22.5318 83.1294 22.6 83.0932 22.6609C83.0556 22.7141 82.9989 22.7473 82.9232 22.7604L82.1509 22.8936Z" fill="white"/>
<path d="M88.8156 19.1331C88.7388 19.1365 88.6726 19.1163 88.6168 19.0726C88.5688 19.0285 88.5431 18.9681 88.5397 18.8914L88.5216 18.4769C88.5183 18.4001 88.5386 18.3377 88.5827 18.2896C88.6341 18.2335 88.6981 18.2038 88.7749 18.2005L92.2292 18.0498C92.3059 18.0464 92.3685 18.0706 92.4169 18.1223C92.4726 18.166 92.5022 18.2263 92.5055 18.303L92.5236 18.7175C92.527 18.7943 92.5028 18.8569 92.4511 18.9053C92.407 18.9534 92.3466 18.9791 92.2699 18.9824L88.8156 19.1331Z" fill="white"/>
<path d="M97.2842 22.0045C97.208 21.9947 97.1462 21.9635 97.0987 21.9109C97.0599 21.8517 97.0453 21.7839 97.0552 21.7077L97.7522 16.2895C97.762 16.2133 97.7927 16.1552 97.8443 16.1154C97.9045 16.0689 97.9727 16.0506 98.0489 16.0604L98.529 16.1221C98.6052 16.1319 98.6628 16.1665 98.7016 16.2257C98.7415 16.2773 98.7565 16.3412 98.7467 16.4174L98.6967 16.8061C99.1739 16.3484 99.763 16.1647 100.464 16.2549C101.302 16.3627 101.852 16.7897 102.112 17.5359C102.336 17.2394 102.628 17.0174 102.988 16.8701C103.355 16.7237 103.749 16.6774 104.168 16.7314C104.793 16.8117 105.276 17.0908 105.617 17.5685C105.959 18.0463 106.077 18.689 105.973 19.4968L105.548 22.8004C105.539 22.8766 105.504 22.9379 105.443 22.9844C105.392 23.0242 105.328 23.0393 105.252 23.0295L104.76 22.9662C104.684 22.9564 104.622 22.9252 104.575 22.8726C104.536 22.8134 104.521 22.7457 104.531 22.6695L104.943 19.4688C105.021 18.8592 104.951 18.4086 104.733 18.1172C104.516 17.8181 104.202 17.6421 103.79 17.5891C103.424 17.5421 103.09 17.6386 102.788 17.8786C102.495 18.112 102.31 18.5259 102.234 19.1203L101.822 22.321C101.812 22.3972 101.777 22.4585 101.717 22.505C101.665 22.5448 101.601 22.5599 101.525 22.55L101.022 22.4853C100.946 22.4755 100.884 22.4443 100.837 22.3918C100.798 22.3325 100.783 22.2648 100.793 22.1886L101.205 18.9879C101.282 18.3859 101.205 17.9344 100.972 17.6333C100.748 17.3333 100.441 17.1583 100.052 17.1083C99.6864 17.0612 99.353 17.1539 99.052 17.3863C98.7586 17.6197 98.5736 18.0336 98.4972 18.628L98.0839 21.8401C98.0741 21.9163 98.0391 21.9776 97.9789 22.0241C97.9273 22.064 97.8634 22.079 97.7872 22.0692L97.2842 22.0045Z" fill="white"/>
<path d="M113.893 25.4413C113.15 25.1935 112.632 24.766 112.341 24.1586C112.051 23.5439 112.018 22.8283 112.242 22.0119L112.355 21.6365L112.486 21.2793C112.792 20.5067 113.245 19.9611 113.845 19.6428C114.445 19.3244 115.117 19.2891 115.861 19.5368C116.662 19.804 117.197 20.2656 117.464 20.9216C117.739 21.58 117.731 22.3466 117.439 23.2213L117.374 23.4181C117.349 23.491 117.303 23.5445 117.235 23.5785C117.177 23.6077 117.111 23.6101 117.038 23.5858L113.244 22.3216L113.211 22.42C113.075 22.9011 113.086 23.3542 113.244 23.7794C113.402 24.2046 113.704 24.4913 114.148 24.6394C114.491 24.7536 114.79 24.7803 115.045 24.7195C115.31 24.6539 115.521 24.5664 115.679 24.457C115.774 24.3914 115.842 24.3574 115.883 24.355C115.927 24.3452 115.992 24.3549 116.08 24.3841L116.561 24.5444C116.627 24.5662 116.675 24.6027 116.707 24.6537C116.746 24.7072 116.755 24.763 116.736 24.8214C116.683 24.9817 116.52 25.1421 116.248 25.3025C115.976 25.4629 115.629 25.5662 115.209 25.6124C114.798 25.6538 114.36 25.5967 113.893 25.4413ZM116.543 22.5945L116.553 22.5617C116.723 22.0515 116.723 21.5898 116.553 21.1768C116.383 20.7638 116.065 20.4795 115.598 20.3241C115.125 20.1662 114.699 20.2027 114.323 20.4336C113.946 20.6645 113.673 21.035 113.503 21.5453L113.492 21.5781L116.543 22.5945Z" fill="white"/>
<path d="M123.619 25.9958C123.55 25.9614 123.502 25.9114 123.475 25.8461C123.454 25.7842 123.461 25.7189 123.496 25.6503L123.682 25.2795C123.717 25.2109 123.765 25.1663 123.827 25.1458C123.899 25.1219 123.969 25.1271 124.038 25.1616L127.128 26.7137C127.196 26.7481 127.239 26.7998 127.256 26.8685C127.283 26.9339 127.28 27.0009 127.245 27.0695L127.059 27.4403C127.025 27.5089 126.973 27.5518 126.904 27.5688C126.842 27.5893 126.777 27.5823 126.708 27.5479L123.619 25.9958Z" fill="white"/>
<path d="M129.536 32.6927C129.473 32.6487 129.432 32.5924 129.415 32.5238C129.408 32.4533 129.426 32.3866 129.47 32.3236L132.597 27.844C132.641 27.781 132.695 27.7438 132.759 27.7324C132.834 27.719 132.903 27.7344 132.966 27.7784L133.372 28.062C133.442 28.1104 133.482 28.1667 133.494 28.2309C133.505 28.295 133.486 28.3618 133.438 28.4311L133.148 28.8469C133.5 28.7457 133.842 28.7179 134.176 28.7634C134.516 28.8133 134.872 28.968 135.244 29.2275C135.848 29.6496 136.181 30.1726 136.243 30.7963C136.308 31.4137 136.119 32.0406 135.675 32.6769L133.808 35.3514C133.764 35.4144 133.705 35.4526 133.63 35.4659C133.566 35.4773 133.502 35.461 133.439 35.4171L133.004 35.1136C132.941 35.0696 132.901 35.0134 132.883 34.9448C132.876 34.8743 132.895 34.8075 132.939 34.7445L134.766 32.1267C135.082 31.6731 135.218 31.2433 135.174 30.8374C135.129 30.4314 134.902 30.0855 134.493 29.7997C134.089 29.5182 133.678 29.4231 133.258 29.5143C132.843 29.5992 132.479 29.8653 132.167 30.3126L130.34 32.9305C130.296 32.9935 130.236 33.0316 130.161 33.0449C130.097 33.0564 130.034 33.0401 129.971 32.9961L129.536 32.6927Z" fill="white"/>
<path d="M139.884 41.1054C139.284 40.5105 138.988 39.8815 138.996 39.2187C139.009 38.5612 139.283 37.9406 139.819 37.3569L140.159 36.9968L140.516 36.6529C141.095 36.1125 141.716 35.8353 142.379 35.8215C143.047 35.8131 143.676 36.1009 144.265 36.6851C144.855 37.2692 145.145 37.8927 145.138 38.5556C145.135 39.2239 144.866 39.8499 144.331 40.4336C144.223 40.5645 144.112 40.6872 143.999 40.8018C143.885 40.9164 143.763 41.0283 143.633 41.1376C143.054 41.678 142.434 41.9552 141.771 41.969C141.113 41.9882 140.485 41.7004 139.884 41.1054ZM140.493 40.4915C140.842 40.8376 141.226 41.0016 141.644 40.9835C142.073 40.9653 142.502 40.7569 142.929 40.3584C142.988 40.3092 143.094 40.2082 143.245 40.0554C143.397 39.9026 143.497 39.7962 143.546 39.7362C143.94 39.3053 144.142 38.8779 144.151 38.4541C144.171 38.0302 144.006 37.6452 143.657 37.299C143.308 36.9529 142.918 36.7889 142.489 36.8071C142.071 36.8253 141.648 37.0336 141.221 37.4321L140.904 37.7351L140.604 38.0543C140.209 38.4852 140.002 38.9126 139.982 39.3365C139.973 39.7603 140.144 40.1453 140.493 40.4915Z" fill="white"/>
<path d="M147.672 49.9291C146.966 48.9703 147.154 48.0921 148.237 47.2946L150.724 45.4627L150.184 44.7296C150.138 44.6678 150.12 44.6046 150.13 44.5402C150.14 44.4757 150.176 44.4207 150.237 44.3751L150.534 44.1564C150.596 44.1108 150.659 44.0929 150.724 44.1027C150.794 44.1079 150.853 44.1414 150.898 44.2033L151.438 44.9363L152.988 43.7948C153.05 43.7492 153.113 43.7313 153.177 43.7411C153.248 43.7463 153.306 43.7799 153.352 43.8417L153.652 44.25C153.698 44.3119 153.713 44.3773 153.697 44.4463C153.692 44.517 153.658 44.5751 153.596 44.6206L152.047 45.7622L152.894 46.9128C152.94 46.9747 152.955 47.0401 152.939 47.1091C152.933 47.1798 152.9 47.2379 152.838 47.2835L152.541 47.5022C152.479 47.5478 152.414 47.5626 152.345 47.5466C152.28 47.5368 152.225 47.501 152.18 47.4392L151.332 46.2885L148.91 48.0726C148.595 48.3051 148.393 48.53 148.305 48.7475C148.222 48.9711 148.271 49.2066 148.453 49.4541L148.87 50.0201C148.916 50.082 148.931 50.1474 148.915 50.2164C148.905 50.2809 148.869 50.3359 148.807 50.3815L148.501 50.6071C148.439 50.6526 148.373 50.6728 148.302 50.6676C148.238 50.6578 148.183 50.622 148.137 50.5601L147.672 49.9291Z" fill="white"/>
<path d="M83.5808 162.235C83.6572 162.243 83.7197 162.273 83.7682 162.325C83.8084 162.383 83.8243 162.451 83.8162 162.527L83.3018 167.34L84.2873 167.446C84.3637 167.454 84.4262 167.484 84.4748 167.535C84.5157 167.586 84.5321 167.649 84.5239 167.726L84.4847 168.093C84.4766 168.169 84.4471 168.228 84.3964 168.269C84.3372 168.316 84.2694 168.336 84.193 168.328L83.2075 168.223L83.1462 168.796C83.0801 169.414 82.8801 169.876 82.5462 170.18C82.2038 170.491 81.6889 170.61 81.0013 170.537L80.3251 170.465C80.2487 170.456 80.1905 170.423 80.1504 170.365C80.1018 170.313 80.0816 170.249 80.0897 170.173L80.1289 169.806C80.1371 169.73 80.1704 169.671 80.2287 169.631C80.2795 169.59 80.3431 169.574 80.4194 169.582L81.0727 169.652C81.4241 169.689 81.6784 169.624 81.8355 169.455C81.9926 169.287 82.0916 169.011 82.1324 168.629L82.1875 168.114L80.7092 167.956C80.6328 167.947 80.5745 167.914 80.5344 167.856C80.4858 167.804 80.4656 167.74 80.4738 167.664L80.513 167.297C80.5211 167.221 80.5544 167.162 80.6128 167.122C80.6635 167.081 80.7271 167.065 80.8035 167.073L82.2818 167.231L82.7962 162.418C82.8044 162.342 82.8381 162.28 82.8973 162.232C82.948 162.191 83.0116 162.174 83.088 162.183L83.5808 162.235Z" fill="white"/>
<path d="M73.9586 160.448C74.7763 160.662 75.3478 161.058 75.6733 161.636C75.9913 162.211 76.065 162.886 75.8944 163.659L75.7801 164.142L75.6435 164.618C75.4135 165.376 75.0152 165.927 74.4486 166.271C73.8746 166.613 73.1862 166.679 72.3834 166.469C71.5806 166.259 71.0165 165.866 70.6911 165.288C70.3583 164.709 70.2771 164.032 70.4477 163.259C70.4756 163.091 70.51 162.93 70.5508 162.773C70.5917 162.617 70.6409 162.459 70.6986 162.3C70.9286 161.542 71.3269 160.991 71.8935 160.647C72.4526 160.301 73.141 160.235 73.9586 160.448ZM73.7399 161.285C73.2641 161.16 72.8499 161.211 72.497 161.436C72.1348 161.667 71.8687 162.062 71.6986 162.621C71.6717 162.693 71.6311 162.834 71.5766 163.042C71.5222 163.25 71.4889 163.392 71.4769 163.468C71.3514 164.039 71.391 164.51 71.5957 164.881C71.791 165.258 72.1265 165.509 72.6022 165.633C73.0779 165.758 73.4969 165.704 73.8591 165.474C74.2119 165.248 74.4734 164.856 74.6435 164.297L74.7655 163.876L74.8652 163.449C74.9907 162.879 74.9558 162.405 74.7605 162.028C74.5558 161.657 74.2156 161.409 73.7399 161.285Z" fill="white"/>
<path d="M64.667 157.532C64.7374 157.563 64.7881 157.61 64.819 157.674C64.8398 157.741 64.8348 157.811 64.8042 157.881L62.627 162.879C62.5963 162.949 62.5491 163 62.4854 163.031C62.4146 163.059 62.344 163.057 62.2735 163.026L61.8297 162.833C61.7523 162.799 61.7031 162.749 61.6823 162.681C61.6514 162.617 61.6529 162.547 61.6866 162.469L61.8891 162.004C61.3917 162.357 60.7978 162.384 60.1075 162.083L59.6954 161.903C59.6179 161.87 59.5672 161.822 59.5434 161.762C59.5195 161.701 59.5245 161.632 59.5582 161.554L59.7285 161.164C59.7592 161.093 59.8064 161.042 59.8702 161.012C59.9309 160.988 59.9999 160.993 60.0774 161.026L60.6797 161.289C61.0671 161.458 61.4226 161.478 61.7462 161.351C62.0628 161.221 62.3055 160.962 62.4742 160.575L63.8321 157.458C63.8628 157.387 63.9135 157.338 63.9843 157.31C64.052 157.289 64.1211 157.294 64.1915 157.325L64.667 157.532Z" fill="white"/>
<path d="M56.116 150.319C56.6543 150.661 57.028 151.026 57.237 151.414C57.446 151.801 57.5444 152.155 57.5323 152.475C57.5138 152.791 57.451 153.033 57.3439 153.202C57.3068 153.26 57.2511 153.297 57.1769 153.314C57.1068 153.324 57.0425 153.311 56.9842 153.274L56.5561 153.002C56.4977 152.965 56.4573 152.921 56.4349 152.87C56.4165 152.813 56.4191 152.737 56.4426 152.643C56.5905 152.009 56.3434 151.488 55.7013 151.08C55.2148 150.771 54.7889 150.646 54.4236 150.705C54.0583 150.765 53.7088 151.057 53.3752 151.582L52.9489 152.254C53.6299 152.013 54.3077 152.106 54.9822 152.535C55.6698 152.971 56.0454 153.519 56.109 154.179C56.1662 154.834 55.9904 155.505 55.5815 156.192L55.4182 156.47L55.2417 156.727C54.798 157.383 54.2674 157.824 53.6501 158.051C53.0221 158.28 52.3643 158.176 51.6768 157.74C50.9958 157.307 50.6225 156.72 50.557 155.977L50.2913 156.396C50.2501 156.461 50.1956 156.503 50.1279 156.524C50.0536 156.541 49.9841 156.528 49.9192 156.487L49.5009 156.222C49.436 156.18 49.3985 156.125 49.3885 156.055C49.3719 155.98 49.3842 155.911 49.4254 155.846L52.4219 151.127C53.3734 149.629 54.6047 149.36 56.116 150.319ZM54.3252 153.182C53.8712 152.894 53.438 152.824 53.0256 152.971C52.6026 153.122 52.2496 153.398 51.9665 153.801C51.923 153.855 51.8477 153.966 51.7406 154.135C51.6376 154.297 51.5708 154.41 51.5402 154.472C51.2961 154.9 51.1981 155.333 51.2462 155.773C51.2838 156.216 51.5296 156.581 51.9836 156.87C52.4506 157.166 52.8858 157.233 53.2894 157.071C53.6823 156.911 54.0367 156.604 54.3528 156.149L54.5231 155.902L54.6802 155.633C54.9573 155.154 55.0868 154.699 55.0687 154.269C55.04 153.841 54.7922 153.479 54.3252 153.182Z" fill="white"/>
<path d="M45.3403 145.262C45.9205 145.789 46.2213 146.389 46.2428 147.062C46.2592 147.741 46.0003 148.409 45.4662 149.066L45.2113 149.364L44.9471 149.637C44.3551 150.221 43.7203 150.537 43.0427 150.586C42.3651 150.635 41.7363 150.396 41.1561 149.869C40.5305 149.3 40.2278 148.662 40.2482 147.954C40.2628 147.241 40.5801 146.543 41.1999 145.861L41.3394 145.707C41.3911 145.65 41.4549 145.62 41.5309 145.616C41.596 145.613 41.657 145.637 41.7139 145.689L44.6743 148.378L44.7441 148.301C45.0628 147.916 45.2357 147.497 45.2629 147.044C45.2901 146.591 45.1302 146.207 44.7832 145.892C44.5159 145.649 44.2533 145.504 43.9954 145.457C43.7266 145.41 43.4979 145.405 43.3092 145.441C43.1961 145.463 43.1201 145.466 43.0813 145.452C43.0374 145.443 42.9813 145.408 42.913 145.346L42.5376 145.005C42.4864 144.958 42.4567 144.905 42.4484 144.846C42.4344 144.781 42.4481 144.726 42.4894 144.681C42.6031 144.556 42.8167 144.475 43.1304 144.438C43.4441 144.401 43.8026 144.446 44.2058 144.574C44.5981 144.702 44.9763 144.931 45.3403 145.262ZM41.7671 146.796L41.7439 146.822C41.3823 147.22 41.1959 147.642 41.1847 148.089C41.1736 148.535 41.35 148.924 41.714 149.254C42.0837 149.59 42.4875 149.729 42.9252 149.669C43.3629 149.61 43.7626 149.382 44.1242 148.983L44.1474 148.958L41.7671 146.796Z" fill="white"/>
<path d="M37.6369 137.286C38.3895 138.209 38.2447 139.095 37.2026 139.945L34.8088 141.897L35.3842 142.603C35.4327 142.662 35.4537 142.724 35.4471 142.789C35.4405 142.854 35.4074 142.911 35.3479 142.959L35.0621 143.193C35.0025 143.241 34.9403 143.262 34.8754 143.255C34.8046 143.254 34.7449 143.223 34.6964 143.164L34.121 142.458L32.6293 143.674C32.5698 143.723 32.5076 143.744 32.4427 143.737C32.3719 143.735 32.3122 143.705 32.2637 143.645L31.9432 143.252C31.8947 143.193 31.8766 143.128 31.8892 143.058C31.8909 142.987 31.9216 142.928 31.9811 142.879L33.4728 141.663L32.5697 140.555C32.5211 140.496 32.5031 140.431 32.5157 140.361C32.5174 140.291 32.5481 140.231 32.6076 140.182L32.8935 139.949C32.953 139.901 33.0176 139.883 33.0874 139.895C33.1522 139.902 33.2089 139.935 33.2575 139.995L34.1606 141.102L36.4919 139.201C36.7956 138.954 36.986 138.719 37.0631 138.497C37.1354 138.27 37.0745 138.037 36.8802 137.799L36.436 137.254C36.3874 137.195 36.3694 137.13 36.382 137.06C36.3886 136.995 36.4216 136.939 36.4812 136.89L36.7759 136.65C36.8355 136.601 36.9007 136.578 36.9715 136.58C37.0364 136.586 37.0931 136.619 37.1416 136.679L37.6369 137.286Z" fill="white"/>
<path d="M31.0887 133.326C31.1293 133.391 31.1443 133.459 31.1336 133.529C31.1188 133.592 31.0788 133.644 31.0136 133.685L30.6613 133.904C30.5961 133.945 30.5317 133.958 30.4682 133.943C30.3942 133.926 30.3368 133.885 30.2962 133.819L28.4691 130.884C28.4285 130.819 28.4188 130.752 28.4401 130.685C28.4508 130.615 28.4888 130.559 28.554 130.519L28.9063 130.3C28.9715 130.259 29.0379 130.249 29.1055 130.271C29.169 130.285 29.221 130.325 29.2616 130.391L31.0887 133.326Z" fill="white"/>
<path d="M29.4323 124.538C29.4611 124.61 29.4643 124.679 29.4418 124.746C29.4093 124.809 29.3574 124.855 29.2862 124.884L24.2236 126.937C24.1524 126.965 24.0868 126.967 24.0268 126.942C23.9567 126.912 23.9073 126.862 23.8784 126.79L23.6965 126.342C23.6676 126.271 23.6694 126.204 23.702 126.141C23.7274 126.081 23.7757 126.036 23.8469 126.007L24.21 125.86C23.577 125.669 23.1277 125.246 22.8621 124.591C22.5445 123.808 22.6469 123.119 23.1691 122.526C22.8008 122.477 22.4641 122.331 22.159 122.09C21.8511 121.842 21.6177 121.522 21.459 121.13C21.2222 120.547 21.2281 119.989 21.4767 119.457C21.7253 118.925 22.227 118.506 22.9818 118.2L26.0684 116.948C26.1397 116.919 26.2103 116.92 26.2803 116.949C26.3404 116.975 26.3848 117.023 26.4137 117.094L26.5999 117.553C26.6288 117.625 26.632 117.694 26.6095 117.761C26.577 117.824 26.5251 117.87 26.4539 117.899L23.4633 119.111C22.8937 119.342 22.5355 119.624 22.3887 119.957C22.2347 120.293 22.2357 120.654 22.3916 121.038C22.5302 121.38 22.7782 121.624 23.1356 121.769C23.483 121.91 23.9343 121.868 24.4897 121.643L27.4803 120.43C27.5515 120.401 27.6221 120.401 27.6922 120.431C27.7522 120.457 27.7967 120.505 27.8255 120.576L28.0161 121.046C28.045 121.117 28.0481 121.186 28.0256 121.254C27.9931 121.316 27.9413 121.362 27.8701 121.391L24.8795 122.604C24.317 122.832 23.9617 123.121 23.8135 123.471C23.6625 123.814 23.6606 124.168 23.8078 124.531C23.9464 124.873 24.1908 125.118 24.5411 125.266C24.8885 125.407 25.3398 125.365 25.8952 125.139L28.8964 123.922C28.9676 123.894 29.0383 123.894 29.1083 123.924C29.1684 123.949 29.2128 123.997 29.2417 124.069L29.4323 124.538Z" fill="white"/>
<path d="M24.2726 108.382C24.4218 109.151 24.3034 109.812 23.9174 110.364C23.5239 110.918 22.9166 111.298 22.0957 111.504L21.7132 111.59L21.3376 111.651C20.5142 111.764 19.8165 111.637 19.2446 111.27C18.6726 110.904 18.312 110.336 18.1628 109.567C18.0019 108.737 18.1416 108.045 18.5818 107.49C19.0206 106.927 19.6926 106.558 20.5977 106.383L20.8014 106.343C20.8768 106.328 20.946 106.342 21.0091 106.385C21.0631 106.421 21.0975 106.477 21.1121 106.553L21.8734 110.479L21.9752 110.459C22.4611 110.341 22.8505 110.109 23.1434 109.763C23.4362 109.417 23.538 109.013 23.4488 108.553C23.3801 108.199 23.2566 107.925 23.0784 107.733C22.8912 107.534 22.7112 107.393 22.5384 107.309C22.4347 107.259 22.3717 107.216 22.3493 107.182C22.3194 107.148 22.2956 107.086 22.2781 106.996L22.1815 106.498C22.1684 106.43 22.1762 106.37 22.2052 106.317C22.2327 106.257 22.2766 106.221 22.3369 106.21C22.5029 106.177 22.7225 106.24 22.9958 106.399C23.2691 106.557 23.5291 106.808 23.7757 107.152C24.0134 107.489 24.179 107.899 24.2726 108.382ZM20.4919 107.471L20.458 107.478C19.9299 107.58 19.5278 107.807 19.2515 108.158C18.9752 108.509 18.8838 108.926 18.9774 109.409C19.0725 109.899 19.3131 110.251 19.6991 110.466C20.0851 110.681 20.5421 110.737 21.0701 110.635L21.104 110.628L20.4919 107.471Z" fill="white"/>
<path d="M19.9809 99.6365C19.9846 99.7133 19.9647 99.7796 19.9212 99.8355C19.8774 99.8838 19.8171 99.9097 19.7403 99.9134L19.3259 99.9331C19.2491 99.9368 19.1866 99.9167 19.1384 99.8729C19.0821 99.8217 19.0521 99.7577 19.0485 99.681L18.8837 96.2274C18.8801 96.1506 18.904 96.088 18.9555 96.0393C18.999 95.9834 19.0591 95.9536 19.1359 95.95L19.5503 95.9302C19.6271 95.9265 19.6898 95.9505 19.7384 96.002C19.7866 96.0459 19.8126 96.1062 19.8162 96.1829L19.9809 99.6365Z" fill="white"/>
<path d="M22.9102 91.1939C22.9028 91.2704 22.8736 91.3332 22.8225 91.3823C22.7646 91.423 22.6973 91.4397 22.6209 91.4323L17.1832 90.9075C17.1067 90.9001 17.0478 90.8713 17.0063 90.821C16.9579 90.7623 16.9374 90.6947 16.9448 90.6182L16.9924 90.1249C17.0006 90.0408 17.0298 89.978 17.0801 89.9365C17.1304 89.8951 17.1976 89.8784 17.2818 89.8865L17.7865 89.9352C17.5257 89.6785 17.3332 89.3936 17.209 89.0806C17.0856 88.7599 17.0456 88.3739 17.0892 87.9227C17.1601 87.1885 17.4521 86.6416 17.9654 86.2821C18.4711 85.9217 19.1101 85.7789 19.8826 85.8534L23.1291 86.1668C23.2056 86.1741 23.268 86.2072 23.3164 86.2659C23.3578 86.3162 23.3748 86.3796 23.3675 86.4561L23.3165 86.9838C23.3092 87.0603 23.2799 87.1231 23.2289 87.1722C23.1709 87.2129 23.1037 87.2296 23.0272 87.2222L19.8495 86.9155C19.2989 86.8623 18.8577 86.9548 18.5259 87.193C18.1942 87.4311 18.0043 87.7988 17.9563 88.2959C17.9091 88.7853 18.0282 89.1905 18.3137 89.5114C18.5916 89.8315 19.002 90.0178 19.545 90.0702L22.7227 90.3769C22.7992 90.3843 22.8616 90.4173 22.91 90.476C22.9515 90.5264 22.9685 90.5898 22.9611 90.6662L22.9102 91.1939Z" fill="white"/>
<path d="M25.1589 78.0482C24.9352 78.8633 24.5327 79.43 23.9514 79.7486C23.372 80.0597 22.6967 80.1254 21.9254 79.9457L21.4444 79.8257L20.9695 79.6834C20.2145 79.4444 19.6682 79.0396 19.3308 78.469C18.9954 77.8909 18.9375 77.2018 19.1571 76.4016C19.3766 75.6013 19.7771 75.0419 20.3584 74.7234C20.9418 74.3974 21.6192 74.3243 22.3905 74.5041C22.5576 74.534 22.7189 74.5703 22.8746 74.613C23.0302 74.6557 23.1874 74.7068 23.3464 74.7663C24.1014 75.0054 24.6477 75.4102 24.9851 75.9808C25.3246 76.544 25.3825 77.2331 25.1589 78.0482ZM24.3253 77.8195C24.4554 77.3453 24.4098 76.9304 24.1887 76.575C23.9621 76.21 23.5703 75.9392 23.0133 75.7625C22.9412 75.7348 22.8015 75.6924 22.594 75.6355C22.3865 75.5786 22.2447 75.5437 22.1686 75.5308C21.5994 75.3985 21.128 75.4325 20.7543 75.6327C20.3753 75.8235 20.1208 76.156 19.9906 76.6303C19.8605 77.1045 19.9088 77.524 20.1353 77.889C20.3565 78.2444 20.7456 78.5105 21.3026 78.6873L21.7219 78.8142L22.1473 78.919C22.7165 79.0513 23.1907 79.022 23.5697 78.8312C23.9433 78.6309 24.1952 78.2937 24.3253 77.8195Z" fill="white"/>
<path d="M29.0224 66.9312C28.5338 68.0173 27.6764 68.2845 26.4502 67.7329L23.6333 66.4658L23.2598 67.2962C23.2283 67.3662 23.182 67.4128 23.1211 67.436C23.0601 67.4591 22.9946 67.4549 22.9245 67.4234L22.5882 67.2721C22.5181 67.2406 22.4715 67.1943 22.4484 67.1334C22.4182 67.0693 22.4189 67.0022 22.4505 66.9321L22.824 66.1018L21.0687 65.3122C20.9986 65.2807 20.952 65.2344 20.9289 65.1735C20.8987 65.1094 20.8994 65.0423 20.931 64.9722L21.139 64.5097C21.1705 64.4397 21.2203 64.3946 21.2882 64.3746C21.3523 64.3445 21.4194 64.3452 21.4895 64.3767L23.2448 65.1663L23.831 63.863C23.8626 63.7929 23.9123 63.7479 23.9803 63.7279C24.0444 63.6978 24.1115 63.6985 24.1815 63.73L24.5179 63.8813C24.588 63.9128 24.633 63.9625 24.653 64.0305C24.6761 64.0915 24.6719 64.157 24.6404 64.227L24.0541 65.5304L26.7974 66.7644C27.1547 66.9251 27.4497 66.9904 27.6824 66.9603C27.9181 66.9231 28.099 66.7644 28.2251 66.4841L28.5135 65.8429C28.5451 65.7729 28.5948 65.7279 28.6628 65.7079C28.7237 65.6847 28.7892 65.6889 28.8593 65.7205L29.2062 65.8765C29.2762 65.908 29.3263 65.9558 29.3565 66.0199C29.3796 66.0809 29.3754 66.1464 29.3439 66.2165L29.0224 66.9312Z" fill="white"/>
<path d="M159.043 55.2236L159.003 55.2794C158.078 56.5682 157.964 58.2286 158.709 59.5522L158.742 59.6096L158.677 59.5919C157.18 59.1838 155.538 59.6634 154.45 60.8259L154.403 60.8763L154.403 60.8095C154.402 59.2685 153.501 57.9046 152.084 57.2995L152.023 57.2732L152.088 57.2496C153.584 56.7053 154.669 55.3828 154.881 53.8462L154.89 53.7796L154.93 53.8318C155.856 55.0364 157.428 55.583 158.976 55.2385L159.043 55.2236Z" fill="white"/>
<path d="M26.4396 55.2236L26.4797 55.2794C27.404 56.5682 27.518 58.2286 26.7731 59.5522L26.7408 59.6096L26.8057 59.5919C28.3022 59.1838 29.9446 59.6634 31.0323 60.8259L31.0795 60.8763L31.0795 60.8095C31.08 59.2685 31.981 57.9046 33.3982 57.2995L33.4597 57.2732L33.3948 57.2496C31.8987 56.7053 30.8131 55.3828 30.6013 53.8462L30.5921 53.7796L30.552 53.8318C29.6268 55.0364 28.0549 55.583 26.5067 55.2385L26.4396 55.2236Z" fill="white"/>
<path d="M93.0873 170.479L93.1119 170.415C93.6777 168.933 95.0002 167.923 96.5152 167.815L96.5809 167.81L96.5304 167.766C95.3651 166.742 94.8599 165.107 95.2304 163.559L95.2465 163.492L95.1907 163.529C93.9047 164.378 92.27 164.378 90.9839 163.529L90.9282 163.492L90.9442 163.559C91.3147 165.107 90.8095 166.742 89.6443 167.766L89.5938 167.81L89.6594 167.815C91.1744 167.923 92.4969 168.933 93.0628 170.415L93.0873 170.479Z" fill="white"/>
</svg>
