<svg width="185" height="185" viewBox="0 0 185 185" fill="none" xmlns="http://www.w3.org/2000/svg">
<g clip-path="url(#clip0)">
<rect width="185" height="185" fill="#3766E4"/>
<path fill-rule="evenodd" clip-rule="evenodd" d="M63.2971 1.73235C37.7273 -7.93281 10.4055 -14.2994 -18.2061 -16.7997C-84.6823 -22.6089 -147.997 -6.65815 -201.138 25.1359C-201.313 25.2407 -201.49 25.346 -201.667 25.4518C-202.059 25.6854 -202.456 25.9213 -202.858 26.16C-215.219 33.5049 -231.978 43.4633 -233.988 66.4111C-236.038 89.8209 -222.833 100.934 -211.968 110.078C-210.887 110.987 -209.83 111.877 -208.813 112.758C-162.007 153.286 -102.427 179.976 -35.9509 185.785C-7.48376 188.272 20.3915 186.769 47.1291 181.747C62.5209 155.474 72.4778 125.455 75.3142 93.0716C78.1217 61.0195 73.6569 30.0396 63.2971 1.73235Z" fill="white"/>
<path fill-rule="evenodd" clip-rule="evenodd" d="M115.728 1.73235C141.298 -7.93281 168.62 -14.2994 197.231 -16.7997C263.708 -22.6089 327.023 -6.65815 380.163 25.1359C380.339 25.2407 380.515 25.346 380.692 25.4518C381.084 25.6854 381.481 25.9213 381.883 26.16C394.244 33.5049 411.003 43.4633 413.013 66.4111C415.064 89.8209 401.859 100.934 390.993 110.078C389.913 110.987 388.855 111.877 387.838 112.758C341.032 153.286 281.452 179.976 214.976 185.785C186.509 188.272 158.634 186.769 131.896 181.747C116.504 155.474 106.548 125.455 103.711 93.0716C100.904 61.0195 105.369 30.0396 115.728 1.73235Z" fill="white"/>
<rect x="1" y="1" width="183" height="183" stroke="#3766E4" stroke-width="2"/>
</g>
<defs>
<clipPath id="clip0">
<rect width="185" height="185" fill="white"/>
</clipPath>
</defs>
</svg>
