<svg width="40" height="40" viewBox="0 0 40 40" fill="none" xmlns="http://www.w3.org/2000/svg">
<path fill-rule="evenodd" clip-rule="evenodd" d="M20 40C31.0457 40 40 31.0457 40 20C40 8.9543 31.0457 0 20 0C8.9543 0 0 8.9543 0 20C0 31.0457 8.9543 40 20 40ZM17.9308 30.9999L17.9465 21.4953H15.5717C15.2631 21.4953 15.0126 21.2358 15.0114 20.9149L15 17.8512C14.9988 17.5286 15.2501 17.2664 15.5604 17.2664H17.9309V14.306C17.9309 10.8706 19.9488 9 22.8961 9H25.3147C25.6241 9 25.8751 9.26085 25.8751 9.58266V12.166C25.8751 12.4877 25.6243 12.7485 25.315 12.7486L23.8308 12.7494C22.2279 12.7494 21.9175 13.5413 21.9175 14.7036V17.2664H25.4396C25.7752 17.2664 26.0356 17.5711 25.996 17.9177L25.6468 20.9814C25.6134 21.2746 25.3743 21.4955 25.0904 21.4955H21.9332L21.9175 31L17.9308 30.9999Z" fill="#3766E4"/>
</svg>
