<svg width="185" height="185" viewBox="0 0 185 185" fill="none" xmlns="http://www.w3.org/2000/svg">
<rect x="1" y="1" width="183" height="183" fill="white" stroke="#3766E4" stroke-width="2"/>
<circle cx="92.2664" cy="92.5206" r="56.95" fill="#3766E4"/>
<path fill-rule="evenodd" clip-rule="evenodd" d="M116.866 74.0552C115.87 76.2658 114.559 78.3792 112.924 80.331C109.126 84.8657 104.164 87.8367 98.8466 89.1753C98.7902 89.1895 98.7327 89.2041 98.6743 89.219C97.4406 89.5336 95.7684 89.9599 94.2056 88.6461C92.6114 87.3057 92.7422 85.78 92.8498 84.5246C92.8605 84.3998 92.8709 84.2776 92.8795 84.1586C93.2718 78.6792 95.3302 73.2669 99.1279 68.7321C100.754 66.7902 102.593 65.1359 104.582 63.7737C107.19 64.4568 109.693 65.7158 111.899 67.5699C114.081 69.405 115.742 71.6291 116.866 74.0552ZM67.8361 90.9581C65.4466 91.8295 63.256 93.0027 61.2908 94.4184C61.0535 97.0826 61.3815 99.8405 62.3561 102.523C63.3407 105.234 64.8801 107.578 66.7984 109.477C69.2 109.293 71.6183 108.782 73.9958 107.915C79.5476 105.89 84.0312 102.234 87.1053 97.6852C87.1721 97.5864 87.2421 97.4858 87.3137 97.3831C88.0334 96.3498 88.908 95.094 88.1962 93.1345C87.4985 91.2138 85.8376 90.7453 84.6122 90.3996C84.5541 90.3833 84.4971 90.3672 84.4411 90.3512C79.1681 88.8465 73.388 88.9335 67.8361 90.9581ZM122.796 94.4184C120.831 93.0027 118.641 91.8295 116.251 90.9581C110.699 88.9335 104.919 88.8465 99.6461 90.3512C99.6287 90.3562 99.6112 90.3611 99.5936 90.3661C99.5547 90.3771 99.5154 90.3883 99.4755 90.3995L99.475 90.3996C98.2496 90.7453 96.5887 91.2138 95.891 93.1345C95.1792 95.094 96.0538 96.3498 96.7735 97.3831C96.8451 97.4858 96.9151 97.5864 96.9819 97.6852C100.056 102.234 104.54 105.89 110.091 107.915C112.469 108.782 114.887 109.293 117.289 109.477C119.207 107.578 120.746 105.234 121.731 102.523C122.706 99.8405 123.034 97.0826 122.796 94.4184ZM100.07 121.753C100.725 119.418 101.076 116.954 101.076 114.406C101.076 108.487 99.181 103.015 95.9663 98.5649C95.9443 98.5344 95.9221 98.5036 95.8997 98.4723L95.8624 98.4204C95.1191 97.3849 94.1116 95.9813 92.0716 95.9813C89.9905 95.9813 89.1119 97.2343 88.3889 98.2653C88.317 98.3679 88.2467 98.4682 88.1768 98.5649C84.9622 103.015 83.0668 108.487 83.0668 114.406C83.0668 116.941 83.4143 119.393 84.0635 121.717C86.5002 122.874 89.2252 123.522 92.1041 123.522C94.9535 123.522 97.6522 122.887 100.07 121.753Z" fill="white"/>
<path fill-rule="evenodd" clip-rule="evenodd" d="M68.4082 76.2465C68.0025 75.5287 67.6326 74.7974 67.2984 74.0552C68.4224 71.6291 70.0827 69.405 72.2655 67.5699C74.4708 65.7158 76.9738 64.4568 79.5825 63.7737C80.2008 64.1973 80.8047 64.6491 81.3922 65.1291C78.3703 65.452 75.417 66.6873 72.9715 68.8618C70.6774 70.9017 69.1492 73.4843 68.4082 76.2465ZM69.2159 77.5835C69.7713 74.6265 71.273 71.8255 73.6916 69.6748C76.2437 67.4056 79.3919 66.238 82.5569 66.1375C83.2123 66.7384 83.8439 67.3772 84.4488 68.0535C81.1086 67.6589 77.6229 68.6394 74.9109 71.0509C72.2994 73.373 70.9175 76.5664 70.8134 79.8087C70.2381 79.0867 69.7058 78.3439 69.2159 77.5835ZM71.9295 81.1231C72.6822 81.9553 73.4758 82.73 74.3046 83.4469C73.0111 79.9483 73.8993 75.8637 76.8498 73.2402C79.8317 70.5887 84.0424 70.2102 87.3727 71.9763C86.8186 71.0738 86.206 70.1949 85.5343 69.3445C82.1404 68.5576 78.4323 69.373 75.631 71.8639C72.9086 74.2846 71.6526 77.7453 71.9295 81.1231ZM88.5699 74.1435C85.503 71.324 80.7463 71.2289 77.5699 74.0533C74.365 76.903 73.9144 81.7064 76.4182 85.0982C78.197 86.3498 80.0997 87.3649 82.08 88.1394C80.7406 86.9922 79.4637 85.7393 78.2609 84.3813C78.243 84.361 78.2268 84.3398 78.2124 84.3177C78.1923 84.3008 78.1731 84.2822 78.1552 84.2619C75.8833 81.697 76.1864 77.7436 78.7889 75.4295C81.3859 73.1203 85.3284 73.283 87.6025 75.8324C87.6749 75.863 87.7419 75.9098 87.7975 75.9726C88.5664 76.8408 89.3807 77.6447 90.2334 78.384C89.8038 76.939 89.2498 75.5202 88.5699 74.1435ZM90.6979 80.1676C89.3831 79.1521 88.1438 77.9992 87.0004 76.7103C86.928 76.6798 86.8611 76.633 86.8055 76.5702C84.9494 74.4746 81.6839 74.3086 79.509 76.2425C77.3341 78.1764 77.1105 81.4448 78.9666 83.5404C78.9846 83.5607 79.0008 83.5819 79.0152 83.6039C79.0353 83.6209 79.0544 83.6395 79.0724 83.6598C80.9031 85.7267 82.9103 87.5432 85.0511 89.1068C85.1398 89.1301 85.2286 89.1529 85.3175 89.1753C85.3739 89.1895 85.4314 89.2041 85.4898 89.219C86.3818 89.4465 87.5029 89.7323 88.6462 89.3767C85.6552 87.563 82.8817 85.2738 80.4389 82.5158C79.1695 81.0827 79.2981 78.8901 80.7279 77.6187C82.1578 76.3473 84.3458 76.48 85.6152 77.9131C87.2857 79.7992 89.1482 81.4131 91.1469 82.7514C91.0394 81.8857 90.8898 81.0233 90.6979 80.1676ZM91.2829 84.1344C88.9281 82.6572 86.7415 80.8224 84.8038 78.6347C83.9313 77.6497 82.4289 77.5597 81.4481 78.4318C80.4673 79.3039 80.3779 80.8093 81.2504 81.7943C83.7744 84.644 86.6625 86.9775 89.7819 88.7869C89.8409 88.7423 89.8998 88.6954 89.9585 88.6461C90.4621 88.2226 90.7936 87.7807 91.008 87.3347C87.9648 85.6033 85.149 83.3489 82.6963 80.5798C82.4974 80.3553 82.5179 80.0117 82.7419 79.8125C82.966 79.6132 83.3089 79.6337 83.5077 79.8582C85.8205 82.4694 88.4673 84.6072 91.3261 86.2641C91.4115 85.6584 91.3607 85.0663 91.3143 84.5246L91.3143 84.5244C91.3036 84.3997 91.2931 84.2775 91.2846 84.1586C91.284 84.1505 91.2835 84.1424 91.2829 84.1344Z" fill="white"/>
<path d="M92.0426 88.0427L92.0701 88.1118C92.7056 89.7044 94.1908 90.7904 95.8922 90.9065L95.966 90.9115L95.9092 90.9592C94.6006 92.0596 94.0333 93.8167 94.4493 95.4811L94.4674 95.5533L94.4047 95.5137C92.9605 94.6012 91.1246 94.6012 89.6804 95.5137L89.6177 95.5533L89.6358 95.4811C90.0518 93.8167 89.4845 92.0596 88.1759 90.9592L88.1191 90.9115L88.1929 90.9065C89.8943 90.7904 91.3795 89.7044 92.015 88.1118L92.0426 88.0427Z" fill="white"/>
<path d="M153.74 67.6682C153.71 67.6004 153.705 67.5338 153.725 67.4684C153.755 67.4068 153.803 67.3611 153.871 67.3312L158.142 65.4489L157.757 64.5743C157.727 64.5066 157.722 64.44 157.742 64.3746C157.764 64.316 157.81 64.2717 157.878 64.2419L158.203 64.0984C158.271 64.0686 158.334 64.065 158.393 64.0878C158.461 64.1143 158.51 64.1615 158.54 64.2293L158.925 65.1039L159.434 64.8798C159.983 64.6378 160.465 64.5832 160.88 64.7162C161.304 64.8529 161.651 65.2264 161.92 65.8366L162.184 66.4366C162.214 66.5044 162.215 66.5691 162.185 66.6307C162.165 66.6961 162.121 66.7437 162.054 66.7736L161.728 66.917C161.66 66.9469 161.596 66.947 161.534 66.9175C161.476 66.8948 161.431 66.8495 161.401 66.7817L161.146 66.202C161.009 65.8901 160.832 65.709 160.615 65.6587C160.399 65.6084 160.121 65.6579 159.782 65.8073L159.324 66.009L159.902 67.3208C159.932 67.3886 159.932 67.4533 159.903 67.5149C159.883 67.5803 159.839 67.628 159.772 67.6578L159.446 67.8012C159.378 67.8311 159.314 67.8313 159.252 67.8018C159.193 67.779 159.149 67.7337 159.119 67.6659L158.541 66.354L154.27 68.2363C154.202 68.2662 154.134 68.2679 154.066 68.2413C154.007 68.2186 153.963 68.1733 153.933 68.1055L153.74 67.6682Z" fill="#3766E4"/>
<path d="M156.869 76.5716C156.655 75.7852 156.711 75.1173 157.038 74.5677C157.366 74.0253 157.895 73.6397 158.624 73.4107L159.082 73.2745L159.546 73.1598C160.29 72.988 160.942 73.0563 161.502 73.3646C162.064 73.6801 162.45 74.2239 162.66 74.996C162.87 75.7681 162.812 76.4289 162.485 76.9785C162.161 77.5352 161.634 77.928 160.905 78.1569C160.752 78.214 160.6 78.263 160.45 78.3038C160.3 78.3447 160.144 78.3794 159.983 78.4079C159.239 78.5796 158.587 78.5113 158.027 78.203C157.469 77.9018 157.083 77.358 156.869 76.5716ZM157.673 76.3528C157.798 76.8103 158.039 77.1325 158.397 77.3192C158.764 77.5111 159.222 77.5438 159.771 77.4174C159.845 77.4051 159.982 77.3718 160.182 77.3173C160.382 77.2628 160.517 77.2223 160.586 77.1957C161.124 77.0264 161.499 76.767 161.711 76.4176C161.932 76.0733 161.98 75.6724 161.856 75.2149C161.731 74.7573 161.485 74.4326 161.118 74.2407C160.76 74.054 160.307 74.0238 159.758 74.1502L159.347 74.2504L158.943 74.372C158.405 74.5412 158.026 74.798 157.805 75.1423C157.593 75.4918 157.549 75.8953 157.673 76.3528Z" fill="#3766E4"/>
<path d="M158.895 85.741C158.887 85.6674 158.902 85.6024 158.94 85.5459C158.987 85.496 159.047 85.4669 159.121 85.4587L164.345 84.8779C164.419 84.8698 164.484 84.8849 164.54 84.9233C164.597 84.9692 164.63 85.0289 164.638 85.1025L164.69 85.5664C164.699 85.6474 164.68 85.7129 164.633 85.7628C164.595 85.8192 164.535 85.852 164.454 85.861L163.968 85.915C164.503 86.1612 164.81 86.6452 164.89 87.3668L164.938 87.7976C164.947 87.8786 164.932 87.9436 164.893 87.9927C164.853 88.0418 164.793 88.0709 164.712 88.0799L164.303 88.1253C164.23 88.1335 164.165 88.1183 164.108 88.0799C164.059 88.0406 164.03 87.9805 164.021 87.8995L163.951 87.2699C163.906 86.8649 163.753 86.5577 163.491 86.3483C163.23 86.1462 162.897 86.0677 162.492 86.1127L159.234 86.4749C159.16 86.4831 159.094 86.4643 159.037 86.4185C158.987 86.3718 158.958 86.3117 158.95 86.2381L158.895 85.741Z" fill="#3766E4"/>
<path d="M156.972 96.3553C157 95.7409 157.125 95.2533 157.349 94.8924C157.572 94.5315 157.821 94.2792 158.094 94.1356C158.367 93.9993 158.6 93.9355 158.792 93.944C158.859 93.9469 158.917 93.9755 158.967 94.0296C159.009 94.0833 159.028 94.1435 159.025 94.2102L159.004 94.6987C159.001 94.7653 158.983 94.8201 158.952 94.8632C158.913 94.906 158.848 94.9402 158.758 94.9659C158.157 95.147 157.84 95.6039 157.808 96.3366C157.783 96.8917 157.883 97.3078 158.108 97.5847C158.333 97.8617 158.746 98.0134 159.345 98.0399L160.111 98.0738C159.583 97.6203 159.335 97.0086 159.369 96.2389C159.404 95.4543 159.682 94.877 160.202 94.507C160.723 94.1444 161.368 93.969 162.139 93.9809L162.45 93.9835L162.75 94.0079C163.511 94.0638 164.135 94.2954 164.621 94.7026C165.115 95.1175 165.344 95.7172 165.309 96.5018C165.275 97.2789 164.963 97.8733 164.374 98.2847L164.851 98.3059C164.925 98.3091 164.987 98.3341 165.037 98.3808C165.086 98.4349 165.11 98.499 165.106 98.573L165.085 99.0504C165.082 99.1244 165.053 99.1825 165 99.2246C164.945 99.2741 164.881 99.2973 164.807 99.294L159.423 99.0557C157.713 98.98 156.896 98.0799 156.972 96.3553ZM160.226 96.477C160.204 96.9952 160.353 97.3911 160.675 97.6649C161.003 97.9465 161.404 98.1088 161.877 98.152C161.943 98.1623 162.072 98.1718 162.265 98.1803C162.45 98.1885 162.576 98.1903 162.643 98.1859C163.117 98.1846 163.527 98.0582 163.872 97.8064C164.224 97.5625 164.411 97.1814 164.434 96.6633C164.458 96.1304 164.305 95.7342 163.975 95.4749C163.653 95.2233 163.225 95.0746 162.693 95.0288L162.405 95.005L162.105 95.0028C161.571 95.0014 161.129 95.1116 160.778 95.3334C160.434 95.5629 160.25 95.9441 160.226 96.477Z" fill="#3766E4"/>
<path d="M157.921 107.795C158.083 107.056 158.44 106.516 158.993 106.175C159.553 105.835 160.235 105.731 161.041 105.862L161.412 105.932L161.768 106.021C162.54 106.236 163.11 106.615 163.476 107.158C163.842 107.701 163.945 108.341 163.783 109.079C163.608 109.876 163.22 110.435 162.619 110.758C162.015 111.089 161.279 111.159 160.411 110.968L160.215 110.926C160.143 110.91 160.087 110.871 160.048 110.809C160.014 110.756 160.005 110.694 160.02 110.621L160.846 106.854L160.748 106.833C160.273 106.751 159.84 106.808 159.448 107.003C159.057 107.198 158.813 107.516 158.716 107.957C158.641 108.297 158.646 108.587 158.73 108.825C158.82 109.072 158.926 109.266 159.047 109.407C159.119 109.491 159.159 109.552 159.165 109.592C159.179 109.633 159.176 109.697 159.157 109.783L159.053 110.261C159.038 110.326 159.008 110.377 158.963 110.412C158.915 110.455 158.863 110.47 158.805 110.457C158.646 110.422 158.475 110.283 158.294 110.038C158.112 109.793 157.978 109.472 157.891 109.074C157.809 108.684 157.819 108.258 157.921 107.795ZM160.92 110.045L160.953 110.052C161.46 110.163 161.902 110.116 162.281 109.911C162.66 109.705 162.9 109.371 163.001 108.908C163.104 108.438 163.026 108.034 162.766 107.696C162.507 107.359 162.123 107.134 161.617 107.023L161.584 107.016L160.92 110.045Z" fill="#3766E4"/>
<path d="M154.954 118.067C155.364 116.994 156.174 116.69 157.385 117.153L160.167 118.216L160.481 117.396C160.507 117.327 160.549 117.28 160.607 117.254C160.664 117.228 160.727 117.229 160.797 117.255L161.129 117.382C161.198 117.409 161.245 117.451 161.271 117.508C161.304 117.568 161.307 117.633 161.28 117.702L160.967 118.522L162.7 119.185C162.769 119.211 162.817 119.253 162.842 119.31C162.875 119.37 162.878 119.435 162.852 119.504L162.677 119.961C162.651 120.03 162.605 120.076 162.541 120.099C162.481 120.132 162.416 120.135 162.347 120.109L160.613 119.446L160.121 120.733C160.095 120.802 160.049 120.848 159.985 120.871C159.925 120.904 159.86 120.907 159.791 120.88L159.459 120.753C159.39 120.727 159.344 120.682 159.321 120.617C159.295 120.56 159.296 120.497 159.322 120.427L159.814 119.14L157.105 118.104C156.752 117.969 156.464 117.923 156.242 117.965C156.017 118.014 155.852 118.176 155.746 118.453L155.504 119.086C155.477 119.156 155.432 119.202 155.368 119.225C155.31 119.25 155.247 119.25 155.178 119.224L154.835 119.093C154.766 119.066 154.715 119.023 154.683 118.963C154.657 118.905 154.657 118.842 154.684 118.773L154.954 118.067Z" fill="#3766E4"/>
<path d="M154.789 125.444C154.824 125.379 154.873 125.334 154.937 125.309C154.997 125.291 155.06 125.3 155.125 125.335L155.477 125.524C155.543 125.559 155.584 125.606 155.603 125.667C155.624 125.737 155.617 125.805 155.582 125.87L154.006 128.808C153.97 128.873 153.92 128.913 153.853 128.928C153.789 128.952 153.725 128.947 153.659 128.912L153.307 128.723C153.242 128.688 153.202 128.637 153.187 128.57C153.169 128.51 153.177 128.447 153.212 128.382L154.789 125.444Z" fill="#3766E4"/>
<path d="M148.237 131.051C148.283 130.992 148.339 130.956 148.406 130.943C148.475 130.94 148.538 130.961 148.596 131.007L152.745 134.253C152.803 134.299 152.836 134.353 152.844 134.415C152.852 134.488 152.834 134.554 152.788 134.612L152.501 134.98C152.455 135.038 152.398 135.069 152.33 135.072C152.267 135.079 152.207 135.06 152.149 135.015L151.851 134.782C151.996 135.403 151.858 135.982 151.438 136.518C150.935 137.16 150.311 137.405 149.564 137.254C149.699 137.585 149.74 137.937 149.685 138.308C149.625 138.684 149.47 139.033 149.219 139.354C148.844 139.833 148.375 140.096 147.811 140.143C147.246 140.191 146.655 139.973 146.037 139.489L143.507 137.51C143.449 137.464 143.415 137.405 143.406 137.332C143.399 137.269 143.418 137.209 143.464 137.151L143.758 136.774C143.804 136.716 143.86 136.68 143.927 136.667C143.995 136.664 144.059 136.685 144.117 136.731L146.567 138.648C147.034 139.014 147.442 139.178 147.791 139.14C148.146 139.108 148.447 138.934 148.693 138.619C148.913 138.339 148.997 138.014 148.947 137.646C148.898 137.287 148.646 136.93 148.191 136.574L145.74 134.656C145.682 134.611 145.648 134.551 145.639 134.479C145.632 134.416 145.651 134.356 145.696 134.298L145.998 133.912C146.043 133.854 146.1 133.818 146.167 133.805C146.235 133.802 146.298 133.823 146.357 133.869L148.807 135.786C149.268 136.147 149.681 136.305 150.045 136.261C150.404 136.222 150.7 136.054 150.933 135.757C151.152 135.477 151.24 135.155 151.195 134.791C151.146 134.432 150.894 134.075 150.439 133.719L147.98 131.794C147.921 131.749 147.888 131.69 147.879 131.617C147.871 131.554 147.89 131.494 147.936 131.436L148.237 131.051Z" fill="#3766E4"/>
<path d="M137.208 143.127C137.78 142.632 138.389 142.414 139.036 142.471C139.688 142.534 140.298 142.859 140.864 143.447L141.12 143.725L141.351 144.01C141.841 144.644 142.07 145.289 142.039 145.943C142.007 146.597 141.705 147.171 141.134 147.666C140.517 148.199 139.871 148.415 139.196 148.313C138.515 148.217 137.884 147.832 137.302 147.16L137.171 147.008C137.123 146.952 137.101 146.888 137.106 146.815C137.111 146.752 137.141 146.696 137.197 146.648L140.114 144.125L140.048 144.05C139.717 143.7 139.336 143.486 138.905 143.407C138.475 143.329 138.089 143.437 137.747 143.733C137.484 143.961 137.314 144.196 137.239 144.437C137.163 144.689 137.132 144.907 137.144 145.092C137.152 145.203 137.147 145.276 137.129 145.311C137.115 145.352 137.075 145.402 137.007 145.46L136.638 145.78C136.587 145.824 136.533 145.846 136.475 145.847C136.412 145.853 136.361 145.834 136.322 145.789C136.215 145.665 136.162 145.452 136.163 145.147C136.165 144.842 136.249 144.504 136.418 144.133C136.586 143.772 136.849 143.437 137.208 143.127ZM138.263 146.725L138.285 146.75C138.624 147.143 139.007 147.37 139.433 147.432C139.859 147.495 140.252 147.371 140.61 147.061C140.975 146.746 141.154 146.375 141.148 145.949C141.142 145.523 140.969 145.114 140.63 144.722L140.608 144.697L138.263 146.725Z" fill="#3766E4"/>
<path d="M131.958 150.916C132.021 150.876 132.086 150.861 132.153 150.871C132.215 150.884 132.265 150.922 132.305 150.984L132.521 151.321C132.561 151.384 132.574 151.446 132.561 151.507C132.545 151.579 132.506 151.635 132.443 151.674L129.635 153.471C129.573 153.511 129.509 153.521 129.443 153.502C129.376 153.492 129.322 153.456 129.282 153.394L129.066 153.057C129.026 152.994 129.016 152.931 129.036 152.865C129.05 152.804 129.088 152.753 129.15 152.713L131.958 150.916Z" fill="#3766E4"/>
<path d="M123.492 152.523C123.56 152.493 123.626 152.487 123.692 152.506C123.754 152.535 123.8 152.583 123.831 152.651L126.004 157.449C126.035 157.516 126.039 157.58 126.017 157.638C125.991 157.707 125.944 157.757 125.877 157.787L125.442 157.984C125.367 158.018 125.301 158.024 125.242 158.002C125.183 157.979 125.137 157.931 125.103 157.857L124.902 157.412C124.812 157.753 124.666 158.051 124.464 158.305C124.256 158.562 123.952 158.781 123.554 158.961C122.906 159.255 122.308 159.274 121.761 159.017C121.217 158.767 120.791 158.302 120.482 157.62L119.184 154.755C119.154 154.688 119.151 154.62 119.177 154.551C119.199 154.492 119.244 154.448 119.311 154.417L119.777 154.206C119.845 154.176 119.911 154.17 119.977 154.189C120.039 154.218 120.085 154.266 120.115 154.333L121.386 157.138C121.606 157.623 121.895 157.948 122.254 158.111C122.612 158.274 123.011 158.256 123.449 158.057C123.881 157.862 124.163 157.567 124.294 157.174C124.428 156.788 124.387 156.356 124.17 155.877L122.899 153.072C122.869 153.005 122.866 152.937 122.892 152.868C122.914 152.809 122.959 152.765 123.027 152.734L123.492 152.523Z" fill="#3766E4"/>
<path d="M111.421 156.959C112.21 156.754 112.877 156.818 113.423 157.151C113.962 157.486 114.341 158.019 114.561 158.75L114.692 159.21L114.801 159.676C114.964 160.422 114.888 161.073 114.573 161.629C114.251 162.187 113.703 162.567 112.928 162.768C112.154 162.969 111.493 162.902 110.948 162.569C110.395 162.238 110.009 161.707 109.788 160.976C109.733 160.822 109.686 160.669 109.647 160.519C109.608 160.368 109.575 160.212 109.548 160.051C109.385 159.305 109.461 158.653 109.776 158.097C110.084 157.543 110.632 157.163 111.421 156.959ZM111.631 157.765C111.172 157.885 110.847 158.122 110.656 158.478C110.459 158.842 110.421 159.3 110.541 159.851C110.553 159.924 110.584 160.061 110.636 160.262C110.689 160.463 110.727 160.598 110.753 160.668C110.916 161.208 111.171 161.585 111.518 161.802C111.86 162.027 112.26 162.08 112.719 161.961C113.178 161.842 113.505 161.6 113.702 161.235C113.893 160.879 113.928 160.426 113.808 159.876L113.713 159.464L113.596 159.058C113.433 158.519 113.181 158.136 112.84 157.911C112.493 157.695 112.09 157.646 111.631 157.765Z" fill="#3766E4"/>
<path d="M100.271 159.069C101.413 158.956 102.049 159.544 102.177 160.835L102.471 163.798L103.344 163.712C103.418 163.705 103.479 163.721 103.528 163.761C103.576 163.8 103.604 163.857 103.612 163.931L103.647 164.285C103.654 164.359 103.638 164.42 103.598 164.468C103.559 164.524 103.502 164.556 103.429 164.563L102.555 164.65L102.738 166.497C102.746 166.571 102.729 166.632 102.689 166.68C102.65 166.736 102.594 166.768 102.52 166.775L102.034 166.824C101.96 166.831 101.898 166.811 101.849 166.764C101.793 166.725 101.761 166.668 101.754 166.594L101.571 164.748L100.199 164.884C100.126 164.891 100.064 164.871 100.015 164.824C99.9588 164.785 99.9272 164.728 99.9199 164.654L99.8848 164.301C99.8775 164.227 99.8974 164.165 99.9447 164.116C99.9845 164.067 100.041 164.039 100.115 164.032L101.486 163.896L101.2 161.01C101.163 160.634 101.076 160.356 100.939 160.176C100.794 159.996 100.575 159.921 100.28 159.951L99.6053 160.017C99.5315 160.025 99.47 160.005 99.4206 159.958C99.372 159.918 99.3441 159.861 99.3367 159.787L99.3006 159.422C99.2932 159.349 99.3091 159.284 99.3483 159.228C99.3881 159.179 99.4449 159.151 99.5186 159.144L100.271 159.069Z" fill="#3766E4"/>
<path d="M39.17 51.3968C39.127 51.4571 39.0723 51.4955 39.006 51.5119C38.938 51.5179 38.8738 51.4995 38.8135 51.4564L35.0137 48.7457L34.4586 49.5238C34.4156 49.5841 34.3609 49.6225 34.2946 49.6389C34.2326 49.6492 34.1715 49.6329 34.1111 49.5899L33.8216 49.3834C33.7613 49.3403 33.726 49.2878 33.7156 49.2258C33.7035 49.1535 33.719 49.0871 33.762 49.0268L34.317 48.2488L33.8647 47.9261C33.3761 47.5775 33.0831 47.191 32.9855 46.7665C32.8862 46.3316 33.0301 45.8427 33.4174 45.2999L33.7982 44.7661C33.8412 44.7058 33.8967 44.6726 33.9648 44.6665C34.0311 44.6501 34.0944 44.6634 34.1547 44.7065L34.4442 44.913C34.5045 44.956 34.5377 45.0116 34.5438 45.0796C34.5542 45.1416 34.5378 45.2028 34.4948 45.2631L34.1269 45.7788C33.929 46.0562 33.8637 46.3009 33.931 46.5127C33.9983 46.7245 34.1828 46.938 34.4843 47.1531L34.8914 47.4436L35.724 46.2765C35.767 46.2162 35.8226 46.183 35.8906 46.1769C35.9569 46.1605 36.0202 46.1738 36.0806 46.2168L36.3701 46.4234C36.4304 46.4664 36.4636 46.5219 36.4696 46.59C36.48 46.652 36.4637 46.7131 36.4207 46.7734L35.5881 47.9405L39.3879 50.6512C39.4482 50.6943 39.4844 50.7519 39.4965 50.8243C39.5069 50.8863 39.4906 50.9474 39.4476 51.0078L39.17 51.3968Z" fill="#3766E4"/>
<path d="M45.2264 44.1592C44.6596 44.7448 44.0566 45.0376 43.4173 45.0376C42.7833 45.0322 42.1817 44.7748 41.6128 44.2654L41.2617 43.941L40.926 43.6007C40.3983 43.0487 40.1239 42.4532 40.103 41.8144C40.0872 41.1701 40.3576 40.5606 40.9141 39.9856C41.4706 39.4106 42.0684 39.1231 42.7077 39.1232C43.352 39.1179 43.9587 39.37 44.5277 39.8794C44.6551 39.9821 44.7747 40.0875 44.8865 40.1957C44.9983 40.304 45.1076 40.4201 45.2144 40.5441C45.7422 41.0961 46.0165 41.6915 46.0374 42.3304C46.0635 42.964 45.7931 43.5736 45.2264 44.1592ZM44.6274 43.5795C44.9572 43.2388 45.1109 42.8669 45.0886 42.4638C45.0661 42.0502 44.8603 41.6397 44.4712 41.2321C44.4231 41.1753 44.3245 41.0747 44.1755 40.9304C44.0264 40.7862 43.9227 40.6909 43.8643 40.6447C43.4442 40.2691 43.0298 40.0794 42.621 40.0756C42.2121 40.0613 41.8428 40.2245 41.513 40.5653C41.1832 40.906 41.0296 41.2831 41.0521 41.6967C41.0744 42.0998 41.2801 42.5051 41.6693 42.9127L41.965 43.2143L42.2762 43.5001C42.6962 43.8757 43.1107 44.0706 43.5197 44.0849C43.9284 44.0887 44.2977 43.9202 44.6274 43.5795Z" fill="#3766E4"/>
<path d="M52.0749 37.7343C52.0158 37.779 51.9521 37.7992 51.8839 37.795C51.8172 37.7804 51.7615 37.7435 51.7169 37.6844L48.5491 33.4895C48.5044 33.4304 48.4842 33.3667 48.4884 33.2985C48.4986 33.2259 48.5332 33.1673 48.5923 33.1226L48.9648 32.8413C49.0298 32.7922 49.0957 32.775 49.1624 32.7896C49.2306 32.7938 49.2893 32.8284 49.3384 32.8934L49.6331 33.2837C49.5719 32.6986 49.831 32.1872 50.4104 31.7497L50.7563 31.4885C50.8213 31.4394 50.885 31.4192 50.9472 31.4278C51.0095 31.4365 51.0652 31.4734 51.1143 31.5384L51.3621 31.8666C51.4067 31.9257 51.427 31.9893 51.4227 32.0575C51.414 32.1198 51.3772 32.1755 51.3121 32.2246L50.8066 32.6063C50.4814 32.8519 50.2957 33.1407 50.2494 33.4728C50.209 33.8004 50.3115 34.1268 50.5571 34.452L52.5328 37.0683C52.5774 37.1274 52.5947 37.1933 52.5846 37.2659C52.57 37.3326 52.5331 37.3883 52.474 37.433L52.0749 37.7343Z" fill="#3766E4"/>
<path d="M62.182 33.9656C61.6399 34.256 61.1567 34.3972 60.7322 34.3893C60.3077 34.3814 59.9638 34.2966 59.7007 34.135C59.4442 33.9699 59.2704 33.8024 59.1794 33.6326C59.1479 33.5738 59.1428 33.5093 59.164 33.4391C59.1887 33.3754 59.2305 33.3279 59.2893 33.2964L59.7203 33.0654C59.7791 33.034 59.8351 33.0208 59.8882 33.0259C59.9449 33.0376 60.0073 33.0756 60.0754 33.14C60.5382 33.5644 61.0928 33.6035 61.7394 33.2571C62.2292 32.9947 62.5357 32.696 62.6588 32.3611C62.7819 32.0261 62.7018 31.5942 62.4184 31.0652L62.0563 30.3892C61.9364 31.0755 61.5369 31.6005 60.8577 31.9644C60.1654 32.3353 59.5273 32.3914 58.9432 32.1327C58.3657 31.8706 57.8852 31.4052 57.5017 30.7365L57.345 30.4674L57.2131 30.1977C56.8723 29.5145 56.7527 28.8599 56.8544 28.2339C56.9591 27.5979 57.3576 27.0944 58.0498 26.7235C58.7355 26.3561 59.4058 26.3206 60.0605 26.6171L59.8348 26.1958C59.7998 26.1305 59.7897 26.0645 59.8044 25.9978C59.8256 25.9276 59.8689 25.875 59.9342 25.84L60.3554 25.6143C60.4207 25.5794 60.4852 25.5742 60.5489 25.5989C60.6191 25.6202 60.6717 25.6634 60.7067 25.7287L63.2521 30.4798C64.0603 31.9884 63.7036 33.1503 62.182 33.9656ZM60.6246 31.1058C61.0818 30.8609 61.3459 30.5303 61.417 30.1139C61.4912 29.6876 61.4261 29.2601 61.2218 28.8317C61.1968 28.7694 61.1388 28.6534 61.0479 28.4836C60.9604 28.3203 60.8977 28.211 60.8596 28.1557C60.6161 27.7483 60.2981 27.4606 59.9055 27.2927C59.516 27.1147 59.0927 27.1482 58.6355 27.3931C58.1653 27.645 57.9029 27.9789 57.8484 28.3948C57.7968 28.8007 57.8872 29.2439 58.1196 29.7246L58.2462 29.9846L58.3977 30.2438C58.6692 30.7035 58.9899 31.0276 59.3599 31.2161C59.7328 31.3945 60.1544 31.3577 60.6246 31.1058Z" fill="#3766E4"/>
<path d="M71.5321 27.3074C70.8148 27.5454 70.1682 27.514 69.5923 27.2132C69.0141 26.9055 68.5755 26.3718 68.2768 25.6123L68.1472 25.2571L68.0423 24.9055C67.8326 24.1321 67.8676 23.4492 68.1472 22.8568C68.4269 22.2645 68.9254 21.8493 69.6426 21.6114C70.4162 21.3548 71.0955 21.4027 71.6808 21.7549C72.273 22.1049 72.7091 22.7018 72.989 23.5457L73.052 23.7355C73.0753 23.8059 73.0705 23.8738 73.0376 23.9393C73.0094 23.9955 72.9602 24.0353 72.8899 24.0586L69.2296 25.2728L69.2611 25.3677C69.4339 25.8178 69.704 26.1614 70.0714 26.3986C70.4389 26.6358 70.8372 26.6832 71.2661 26.5409C71.5966 26.4313 71.8429 26.2793 72.0048 26.0851C72.1714 25.8815 72.2842 25.6919 72.343 25.5163C72.3783 25.4109 72.4112 25.3453 72.4417 25.3196C72.4699 25.2869 72.5261 25.2565 72.6105 25.2285L73.0746 25.0745C73.1379 25.0535 73.1965 25.0536 73.2504 25.0748C73.3112 25.0936 73.351 25.1312 73.3697 25.1874C73.421 25.3421 73.3879 25.56 73.2703 25.841C73.1528 26.1219 72.945 26.4016 72.6471 26.68C72.3538 26.949 71.9822 27.1581 71.5321 27.3074ZM71.9347 23.5793L71.9242 23.5476C71.7609 23.0554 71.4943 22.6989 71.1244 22.4781C70.7546 22.2573 70.3446 22.2216 69.8946 22.3709C69.4375 22.5225 69.1302 22.7962 68.9726 23.1919C68.8151 23.5876 68.8179 24.0316 68.9812 24.5239L68.9917 24.5555L71.9347 23.5793Z" fill="#3766E4"/>
<path d="M81.8792 24.6116C80.7475 24.8069 80.0714 24.2657 79.851 22.988L79.3445 20.053L78.4793 20.2023C78.4063 20.2149 78.3441 20.2031 78.2927 20.1668C78.2414 20.1306 78.2094 20.076 78.1968 20.003L78.1363 19.6525C78.1237 19.5795 78.1355 19.5173 78.1718 19.466C78.2068 19.4073 78.2608 19.3717 78.3338 19.3591L79.199 19.2098L78.8834 17.3809C78.8708 17.3078 78.8826 17.2457 78.9188 17.1943C78.9538 17.1356 79.0078 17.1 79.0808 17.0874L79.5627 17.0042C79.6357 16.9916 79.6985 17.0071 79.7511 17.0507C79.8098 17.0857 79.8454 17.1396 79.858 17.2127L80.1736 19.0416L81.5316 18.8072C81.6046 18.7946 81.6675 18.8101 81.7201 18.8536C81.7787 18.8886 81.8144 18.9426 81.827 19.0156L81.8875 19.3661C81.9001 19.4391 81.8846 19.5019 81.841 19.5545C81.8048 19.6059 81.7502 19.6379 81.6771 19.6505L80.3192 19.8848L80.8124 22.7432C80.8767 23.1155 80.9836 23.3865 81.1331 23.5562C81.29 23.7246 81.5145 23.7836 81.8065 23.7332L82.4746 23.6179C82.5476 23.6053 82.6104 23.6208 82.663 23.6644C82.7144 23.7006 82.7464 23.7552 82.759 23.8282L82.8213 24.1896C82.8339 24.2627 82.8227 24.3285 82.7877 24.3872C82.7515 24.4385 82.6969 24.4705 82.6239 24.4831L81.8792 24.6116Z" fill="#3766E4"/>
<path d="M88.3057 20.9855C88.2317 20.9887 88.1678 20.9692 88.1141 20.9271C88.0677 20.8846 88.0429 20.8264 88.0397 20.7523L88.0223 20.3526C88.019 20.2786 88.0387 20.2184 88.0811 20.1721C88.1307 20.118 88.1925 20.0894 88.2665 20.0861L91.5973 19.9408C91.6714 19.9376 91.7317 19.9609 91.7784 20.0108C91.8321 20.0529 91.8606 20.111 91.8638 20.185L91.8813 20.5847C91.8845 20.6587 91.8612 20.7191 91.8113 20.7658C91.7688 20.8121 91.7106 20.8369 91.6366 20.8401L88.3057 20.9855Z" fill="#3766E4"/>
<path d="M96.4718 23.7542C96.3983 23.7448 96.3387 23.7147 96.2929 23.664C96.2555 23.6069 96.2415 23.5416 96.2509 23.4681L96.9231 18.2434C96.9325 18.1699 96.9621 18.114 97.0119 18.0755C97.0699 18.0307 97.1357 18.013 97.2092 18.0225L97.6721 18.082C97.7456 18.0915 97.8011 18.1248 97.8386 18.1819C97.877 18.2317 97.8915 18.2933 97.882 18.3668L97.8338 18.7415C98.2939 18.3002 98.862 18.1231 99.5381 18.2101C100.346 18.314 100.876 18.7258 101.127 19.4453C101.343 19.1594 101.625 18.9454 101.972 18.8033C102.326 18.6621 102.705 18.6175 103.109 18.6695C103.712 18.747 104.178 19.0161 104.507 19.4768C104.836 19.9374 104.951 20.5572 104.85 21.3362L104.441 24.5217C104.431 24.5952 104.397 24.6543 104.339 24.6991C104.29 24.7375 104.228 24.752 104.155 24.7426L103.681 24.6816C103.607 24.6721 103.547 24.6421 103.502 24.5914C103.464 24.5342 103.45 24.469 103.46 24.3955L103.857 21.3092C103.932 20.7213 103.865 20.2868 103.655 20.0058C103.445 19.7174 103.142 19.5477 102.745 19.4966C102.393 19.4513 102.071 19.5443 101.779 19.7758C101.496 20.0008 101.318 20.3999 101.244 20.9731L100.847 24.0594C100.838 24.1329 100.804 24.192 100.746 24.2368C100.696 24.2753 100.635 24.2898 100.561 24.2803L100.076 24.2179C100.003 24.2084 99.9431 24.1784 99.8973 24.1277C99.8598 24.0706 99.8458 24.0053 99.8553 23.9318L100.252 20.8455C100.327 20.2649 100.252 19.8295 100.028 19.5393C99.8114 19.2499 99.5157 19.0812 99.1409 19.0329C98.7882 18.9876 98.4667 19.0769 98.1764 19.301C97.8935 19.5261 97.7151 19.9252 97.6414 20.4984L97.2429 23.5957C97.2335 23.6692 97.1997 23.7283 97.1417 23.7732C97.0919 23.8116 97.0303 23.8261 96.9568 23.8166L96.4718 23.7542Z" fill="#3766E4"/>
<path d="M112.487 27.0682C111.77 26.8293 111.271 26.417 110.99 25.8314C110.711 25.2386 110.68 24.5486 110.895 23.7614L111.004 23.3994L111.13 23.055C111.426 22.3099 111.862 21.7839 112.441 21.4769C113.02 21.1699 113.668 21.1358 114.384 21.3747C115.158 21.6324 115.673 22.0775 115.931 22.71C116.196 23.3449 116.188 24.0841 115.907 24.9276L115.843 25.1174C115.82 25.1876 115.775 25.2392 115.71 25.272C115.654 25.3001 115.59 25.3025 115.52 25.2791L111.862 24.06L111.83 24.1549C111.699 24.6188 111.709 25.0558 111.862 25.4658C112.014 25.8757 112.305 26.1522 112.733 26.295C113.064 26.4051 113.352 26.4309 113.598 26.3722C113.853 26.309 114.057 26.2246 114.209 26.1191C114.301 26.0559 114.366 26.0231 114.406 26.0207C114.448 26.0113 114.512 26.0207 114.596 26.0488L115.06 26.2034C115.123 26.2245 115.17 26.2596 115.2 26.3088C115.238 26.3603 115.247 26.4142 115.229 26.4705C115.177 26.6251 115.02 26.7797 114.758 26.9344C114.495 27.0891 114.161 27.1887 113.756 27.2332C113.36 27.2731 112.937 27.2181 112.487 27.0682ZM115.042 24.3232L115.053 24.2916C115.217 23.7995 115.216 23.3544 115.052 22.9561C114.888 22.5578 114.581 22.2838 114.132 22.1339C113.675 21.9816 113.265 22.0168 112.902 22.2394C112.538 22.4621 112.275 22.8194 112.111 23.3114L112.1 23.3431L115.042 24.3232Z" fill="#3766E4"/>
<path d="M121.866 27.603C121.799 27.5697 121.753 27.5216 121.727 27.4586C121.707 27.3989 121.714 27.336 121.747 27.2698L121.926 26.9123C121.96 26.846 122.006 26.8031 122.066 26.7833C122.135 26.7602 122.203 26.7653 122.27 26.7986L125.249 28.2951C125.315 28.3284 125.356 28.3782 125.373 28.4445C125.399 28.5075 125.396 28.5721 125.363 28.6383L125.183 28.9958C125.15 29.062 125.1 29.1033 125.034 29.1198C124.974 29.1395 124.911 29.1328 124.845 29.0995L121.866 27.603Z" fill="#3766E4"/>
<path d="M127.571 34.0605C127.51 34.0181 127.471 33.9639 127.454 33.8977C127.448 33.8297 127.465 33.7654 127.508 33.7046L130.523 29.3851C130.565 29.3243 130.617 29.2885 130.679 29.2775C130.752 29.2646 130.818 29.2794 130.879 29.3218L131.271 29.5953C131.337 29.642 131.376 29.6962 131.387 29.7581C131.398 29.82 131.381 29.8844 131.334 29.9512L131.054 30.3522C131.393 30.2546 131.724 30.2278 132.045 30.2717C132.373 30.3198 132.716 30.4689 133.075 30.7191C133.658 31.1262 133.979 31.6305 134.038 32.2319C134.102 32.8273 133.919 33.4317 133.491 34.0453L131.691 36.6243C131.648 36.685 131.591 36.7218 131.519 36.7347C131.457 36.7457 131.396 36.73 131.335 36.6876L130.916 36.395C130.855 36.3526 130.816 36.2983 130.799 36.2322C130.792 36.1642 130.81 36.0998 130.852 36.0391L132.614 33.5148C132.92 33.0774 133.051 32.663 133.008 32.2715C132.965 31.8801 132.746 31.5466 132.351 31.2709C131.962 30.9995 131.565 30.9078 131.161 30.9957C130.76 31.0776 130.409 31.3342 130.108 31.7656L128.346 34.2898C128.304 34.3506 128.246 34.3874 128.174 34.4002C128.112 34.4112 128.051 34.3955 127.99 34.3531L127.571 34.0605Z" fill="#3766E4"/>
<path d="M137.55 42.1727C136.971 41.599 136.685 40.9926 136.693 40.3534C136.706 39.7194 136.97 39.121 137.487 38.5581L137.815 38.2109L138.159 37.8793C138.718 37.3581 139.316 37.0909 139.955 37.0776C140.6 37.0695 141.206 37.347 141.774 37.9103C142.343 38.4736 142.623 39.0748 142.615 39.714C142.613 40.3584 142.354 40.962 141.838 41.5249C141.733 41.6511 141.627 41.7695 141.517 41.88C141.408 41.9905 141.29 42.0984 141.165 42.2037C140.607 42.7249 140.008 42.9921 139.369 43.0054C138.735 43.024 138.129 42.7464 137.55 42.1727ZM138.137 41.5807C138.473 41.9145 138.843 42.0726 139.247 42.0551C139.661 42.0376 140.074 41.8366 140.486 41.4524C140.543 41.4049 140.645 41.3076 140.791 41.1602C140.937 41.0129 141.033 40.9103 141.08 40.8525C141.461 40.4369 141.655 40.0248 141.664 39.6161C141.683 39.2074 141.524 38.8361 141.188 38.5023C140.851 38.1685 140.476 38.0104 140.062 38.028C139.658 38.0455 139.251 38.2464 138.839 38.6307L138.533 38.9228L138.244 39.2306C137.863 39.6461 137.664 40.0583 137.644 40.467C137.636 40.8757 137.8 41.2469 138.137 41.5807Z" fill="#3766E4"/>
<path d="M145.06 50.6812C144.379 49.7566 144.56 48.9098 145.604 48.1408L148.002 46.3743L147.481 45.6674C147.437 45.6078 147.42 45.5469 147.429 45.4847C147.439 45.4226 147.473 45.3695 147.533 45.3256L147.819 45.1147C147.879 45.0707 147.94 45.0535 148.002 45.0629C148.07 45.0679 148.126 45.1003 148.17 45.1599L148.691 45.8668L150.185 44.766C150.245 44.7221 150.306 44.7048 150.368 44.7142C150.436 44.7193 150.492 44.7516 150.536 44.8113L150.826 45.2049C150.87 45.2646 150.884 45.3277 150.869 45.3943C150.864 45.4624 150.831 45.5184 150.772 45.5623L149.278 46.6631L150.095 47.7726C150.139 47.8323 150.153 47.8954 150.138 47.9619C150.133 48.03 150.1 48.0861 150.041 48.13L149.754 48.3409C149.695 48.3849 149.632 48.3992 149.565 48.3838C149.503 48.3743 149.45 48.3398 149.406 48.2802L148.589 47.1706L146.253 48.891C145.949 49.1151 145.754 49.332 145.67 49.5417C145.589 49.7574 145.637 49.9845 145.813 50.2231L146.215 50.7689C146.259 50.8286 146.273 50.8917 146.258 50.9582C146.248 51.0204 146.214 51.0734 146.154 51.1174L145.859 51.3349C145.799 51.3788 145.735 51.3983 145.667 51.3932C145.605 51.3838 145.552 51.3493 145.508 51.2896L145.06 50.6812Z" fill="#3766E4"/>
<path d="M83.2566 158.975C83.3302 158.983 83.3905 159.012 83.4373 159.061C83.476 159.118 83.4914 159.183 83.4836 159.256L82.9875 163.897L83.9379 163.999C84.0115 164.007 84.0718 164.036 84.1186 164.085C84.1581 164.134 84.1739 164.196 84.166 164.269L84.1282 164.623C84.1204 164.697 84.092 164.753 84.043 164.793C83.986 164.839 83.9206 164.858 83.8469 164.85L82.8966 164.748L82.8375 165.301C82.7737 165.898 82.5809 166.343 82.2589 166.636C81.9288 166.936 81.4322 167.051 80.7692 166.98L80.1172 166.91C80.0436 166.902 79.9874 166.87 79.9487 166.814C79.9019 166.764 79.8824 166.703 79.8902 166.629L79.928 166.275C79.9359 166.202 79.968 166.145 80.0243 166.107C80.0732 166.067 80.1345 166.051 80.2082 166.059L80.8381 166.127C81.1769 166.163 81.4221 166.1 81.5736 165.937C81.7251 165.774 81.8206 165.509 81.8599 165.141L81.9131 164.643L80.4876 164.491C80.4139 164.483 80.3577 164.451 80.319 164.395C80.2722 164.345 80.2527 164.283 80.2606 164.21L80.2984 163.856C80.3062 163.782 80.3383 163.726 80.3946 163.687C80.4436 163.648 80.5049 163.632 80.5785 163.64L82.004 163.792L82.5001 159.151C82.5079 159.078 82.5404 159.018 82.5975 158.972C82.6464 158.932 82.7077 158.916 82.7814 158.924L83.2566 158.975Z" fill="#3766E4"/>
<path d="M73.9782 157.252C74.7667 157.458 75.3178 157.84 75.6316 158.397C75.9382 158.952 76.0093 159.602 75.8448 160.348L75.7346 160.813L75.6029 161.273C75.3811 162.003 74.997 162.535 74.4507 162.867C73.8972 163.197 73.2334 163.26 72.4593 163.058C71.6852 162.855 71.1412 162.476 70.8274 161.919C70.5065 161.36 70.4282 160.708 70.5927 159.962C70.6196 159.8 70.6528 159.644 70.6921 159.494C70.7315 159.343 70.779 159.191 70.8346 159.037C71.0564 158.306 71.4405 157.775 71.9868 157.443C72.526 157.109 73.1898 157.046 73.9782 157.252ZM73.7673 158.058C73.3085 157.938 72.909 157.987 72.5688 158.204C72.2196 158.427 71.9629 158.808 71.7989 159.347C71.773 159.417 71.7338 159.552 71.6813 159.753C71.6288 159.953 71.5967 160.091 71.5851 160.164C71.4641 160.714 71.5023 161.169 71.6997 161.527C71.888 161.89 72.2115 162.131 72.6702 162.251C73.129 162.371 73.533 162.32 73.8822 162.098C74.2224 161.88 74.4746 161.502 74.6386 160.963L74.7562 160.557L74.8523 160.146C74.9734 159.595 74.9397 159.139 74.7514 158.775C74.554 158.417 74.226 158.178 73.7673 158.058Z" fill="#3766E4"/>
<path d="M65.0186 154.44C65.0865 154.469 65.1353 154.515 65.1651 154.576C65.1852 154.642 65.1804 154.708 65.1508 154.776L63.0514 159.595C63.0219 159.663 62.9763 159.712 62.9149 159.742C62.8466 159.769 62.7785 159.767 62.7106 159.738L62.2827 159.551C62.2079 159.519 62.1606 159.47 62.1405 159.405C62.1107 159.343 62.1121 159.275 62.1447 159.2L62.3399 158.752C61.8602 159.093 61.2876 159.118 60.6219 158.828L60.2246 158.655C60.1498 158.622 60.101 158.577 60.078 158.518C60.055 158.46 60.0598 158.393 60.0923 158.319L60.2565 157.942C60.2861 157.874 60.3316 157.825 60.3931 157.795C60.4516 157.772 60.5182 157.777 60.5929 157.809L61.1737 158.062C61.5473 158.225 61.8901 158.245 62.2021 158.122C62.5074 157.997 62.7414 157.747 62.9041 157.374L64.2135 154.368C64.243 154.3 64.292 154.253 64.3602 154.226C64.4255 154.206 64.4921 154.211 64.5601 154.24L65.0186 154.44Z" fill="#3766E4"/>
<path d="M56.7731 147.485C57.2922 147.814 57.6525 148.166 57.854 148.54C58.0555 148.914 58.1504 149.255 58.1388 149.563C58.1209 149.868 58.0603 150.101 57.9571 150.264C57.9213 150.32 57.8676 150.357 57.7961 150.372C57.7284 150.382 57.6665 150.369 57.6102 150.333L57.1974 150.071C57.1411 150.036 57.1022 149.993 57.0805 149.944C57.0629 149.889 57.0653 149.816 57.088 149.725C57.2306 149.114 56.9923 148.611 56.3731 148.218C55.9041 147.92 55.4934 147.8 55.1411 147.857C54.7889 147.914 54.4519 148.196 54.1302 148.703L53.7191 149.35C54.3758 149.118 55.0293 149.208 55.6798 149.621C56.3428 150.042 56.7049 150.57 56.7663 151.206C56.8215 151.838 56.6519 152.485 56.2576 153.148L56.1002 153.416L55.93 153.663C55.5021 154.296 54.9905 154.721 54.3952 154.94C53.7897 155.161 53.1554 155.061 52.4925 154.64C51.8358 154.223 51.4758 153.657 51.4126 152.941L51.1565 153.344C51.1167 153.407 51.0642 153.448 50.9989 153.468C50.9273 153.484 50.8602 153.472 50.7977 153.432L50.3943 153.176C50.3317 153.136 50.2956 153.083 50.2859 153.015C50.2699 152.944 50.2818 152.876 50.3215 152.814L53.2109 148.264C54.1284 146.819 55.3158 146.559 56.7731 147.485ZM55.0462 150.246C54.6084 149.968 54.1907 149.9 53.7931 150.042C53.3852 150.187 53.0448 150.453 52.7719 150.842C52.7299 150.894 52.6572 151.002 52.554 151.164C52.4547 151.321 52.3903 151.429 52.3608 151.489C52.1254 151.901 52.0309 152.32 52.0773 152.744C52.1135 153.171 52.3505 153.523 52.7883 153.801C53.2386 154.087 53.6583 154.152 54.0474 153.995C54.4263 153.841 54.7681 153.544 55.0728 153.106L55.2371 152.868L55.3886 152.609C55.6558 152.147 55.7806 151.708 55.7632 151.293C55.7355 150.881 55.4965 150.531 55.0462 150.246Z" fill="#3766E4"/>
<path d="M46.3824 142.608C46.9418 143.116 47.2319 143.695 47.2527 144.344C47.2684 144.999 47.0188 145.643 46.5038 146.276L46.258 146.563L46.0032 146.827C45.4323 147.39 44.8202 147.694 44.1669 147.742C43.5135 147.789 42.9071 147.558 42.3477 147.05C41.7444 146.502 41.4525 145.887 41.4721 145.204C41.4863 144.516 41.7922 143.843 42.3899 143.185L42.5244 143.037C42.5742 142.982 42.6358 142.953 42.709 142.95C42.7718 142.947 42.8306 142.97 42.8855 143.02L45.7402 145.613L45.8074 145.538C46.1148 145.167 46.2815 144.763 46.3077 144.326C46.3339 143.89 46.1798 143.52 45.8452 143.216C45.5874 142.982 45.3342 142.842 45.0855 142.796C44.8263 142.751 44.6058 142.746 44.4239 142.781C44.3147 142.802 44.2415 142.805 44.2041 142.791C44.1617 142.783 44.1076 142.749 44.0418 142.689L43.6798 142.36C43.6305 142.315 43.6018 142.264 43.5938 142.207C43.5803 142.145 43.5935 142.092 43.6333 142.048C43.7429 141.927 43.949 141.849 44.2515 141.813C44.554 141.778 44.8996 141.822 45.2884 141.944C45.6667 142.068 46.0314 142.289 46.3824 142.608ZM42.9368 144.087L42.9144 144.112C42.5657 144.496 42.386 144.903 42.3753 145.334C42.3645 145.764 42.5346 146.139 42.8857 146.458C43.2421 146.782 43.6314 146.915 44.0535 146.858C44.4756 146.801 44.861 146.581 45.2097 146.197L45.2321 146.172L42.9368 144.087Z" fill="#3766E4"/>
<path d="M38.9542 134.917C39.6799 135.807 39.5403 136.662 38.5354 137.481L36.2271 139.363L36.7819 140.044C36.8288 140.101 36.849 140.161 36.8426 140.224C36.8363 140.286 36.8044 140.341 36.747 140.388L36.4713 140.613C36.4139 140.659 36.3539 140.68 36.2914 140.673C36.2231 140.672 36.1656 140.642 36.1187 140.585L35.5639 139.904L34.1255 141.077C34.0681 141.124 34.0081 141.144 33.9456 141.138C33.8773 141.136 33.8198 141.106 33.7729 141.049L33.4639 140.67C33.4171 140.613 33.3997 140.55 33.4118 140.483C33.4135 140.415 33.4431 140.357 33.5005 140.31L34.9389 139.138L34.068 138.07C34.0212 138.012 34.0039 137.95 34.016 137.883C34.0176 137.814 34.0472 137.757 34.1046 137.71L34.3802 137.485C34.4376 137.438 34.5 137.421 34.5672 137.433C34.6297 137.44 34.6844 137.471 34.7312 137.529L35.6021 138.597L37.8501 136.764C38.1429 136.525 38.3266 136.299 38.4009 136.085C38.4706 135.866 38.4118 135.641 38.2246 135.412L37.7962 134.886C37.7493 134.829 37.732 134.767 37.7441 134.699C37.7505 134.637 37.7823 134.582 37.8398 134.535L38.124 134.304C38.1814 134.257 38.2443 134.234 38.3126 134.236C38.3751 134.242 38.4298 134.274 38.4766 134.332L38.9542 134.917Z" fill="#3766E4"/>
<path d="M32.64 131.099C32.6791 131.161 32.6936 131.227 32.6832 131.294C32.669 131.355 32.6304 131.406 32.5675 131.445L32.2278 131.656C32.1649 131.695 32.1029 131.708 32.0417 131.694C31.9702 131.677 31.9149 131.637 31.8758 131.574L30.1139 128.744C30.0748 128.681 30.0655 128.617 30.086 128.552C30.0963 128.484 30.1329 128.431 30.1958 128.392L30.5355 128.18C30.5984 128.141 30.6624 128.132 30.7276 128.152C30.7888 128.167 30.839 128.205 30.8781 128.268L32.64 131.099Z" fill="#3766E4"/>
<path d="M31.0427 122.625C31.0705 122.694 31.0736 122.76 31.0519 122.825C31.0205 122.886 30.9705 122.93 30.9019 122.958L26.0202 124.937C25.9515 124.965 25.8882 124.967 25.8303 124.942C25.7628 124.914 25.7151 124.865 25.6873 124.797L25.5119 124.364C25.484 124.295 25.4858 124.231 25.5171 124.17C25.5416 124.112 25.5882 124.069 25.6569 124.041L26.007 123.899C25.3967 123.715 24.9634 123.307 24.7073 122.676C24.4011 121.92 24.4997 121.257 25.0033 120.685C24.6481 120.637 24.3235 120.497 24.0293 120.264C23.7324 120.025 23.5074 119.716 23.3543 119.339C23.126 118.776 23.1317 118.238 23.3714 117.725C23.6111 117.212 24.0949 116.808 24.8227 116.513L27.7991 115.306C27.8677 115.278 27.9358 115.278 28.0034 115.307C28.0613 115.331 28.1041 115.378 28.132 115.447L28.3116 115.89C28.3394 115.958 28.3425 116.025 28.3208 116.09C28.2894 116.15 28.2394 116.195 28.1707 116.222L25.287 117.392C24.7378 117.614 24.3923 117.886 24.2508 118.208C24.1023 118.532 24.1033 118.879 24.2536 119.25C24.3873 119.579 24.6264 119.814 24.971 119.954C25.306 120.09 25.7412 120.05 26.2768 119.833L29.1605 118.663C29.2291 118.635 29.2972 118.636 29.3648 118.664C29.4227 118.689 29.4655 118.735 29.4934 118.804L29.6771 119.257C29.705 119.326 29.708 119.393 29.6863 119.457C29.655 119.518 29.605 119.562 29.5363 119.59L26.6526 120.759C26.1102 120.979 25.7676 121.258 25.6247 121.596C25.479 121.927 25.4772 122.267 25.6192 122.618C25.7528 122.947 25.9885 123.183 26.3263 123.326C26.6612 123.462 27.0965 123.422 27.632 123.205L30.526 122.031C30.5947 122.003 30.6628 122.004 30.7303 122.032C30.7882 122.057 30.8311 122.103 30.8589 122.172L31.0427 122.625Z" fill="#3766E4"/>
<path d="M26.0674 107.046C26.2112 107.787 26.0971 108.425 25.7249 108.957C25.3454 109.491 24.7599 109.858 23.9683 110.056L23.5994 110.139L23.2373 110.198C22.4433 110.307 21.7705 110.184 21.219 109.831C20.6675 109.478 20.3198 108.93 20.1759 108.188C20.0207 107.388 20.1554 106.72 20.5799 106.185C21.003 105.643 21.651 105.287 22.5238 105.118L22.7202 105.08C22.7929 105.066 22.8597 105.079 22.9205 105.12C22.9726 105.155 23.0057 105.209 23.0198 105.282L23.7539 109.068L23.8521 109.049C24.3206 108.935 24.6961 108.711 24.9785 108.377C25.2609 108.043 25.3591 107.655 25.273 107.211C25.2067 106.869 25.0877 106.605 24.9159 106.42C24.7354 106.228 24.5618 106.092 24.3952 106.011C24.2952 105.963 24.2344 105.922 24.2128 105.888C24.1839 105.856 24.161 105.796 24.1441 105.709L24.051 105.229C24.0383 105.164 24.0459 105.106 24.0738 105.055C24.1003 104.997 24.1427 104.962 24.2009 104.951C24.3609 104.92 24.5727 104.981 24.8362 105.133C25.0998 105.286 25.3505 105.528 25.5883 105.859C25.8174 106.185 25.9771 106.58 26.0674 107.046ZM22.4218 106.168L22.389 106.174C21.8799 106.273 21.4921 106.491 21.2257 106.83C20.9592 107.168 20.8711 107.57 20.9614 108.036C21.0531 108.508 21.285 108.848 21.6573 109.055C22.0295 109.263 22.4702 109.317 22.9793 109.218L23.012 109.212L22.4218 106.168Z" fill="#3766E4"/>
<path d="M21.9291 98.6128C21.9326 98.6868 21.9134 98.7507 21.8715 98.8047C21.8292 98.8512 21.771 98.8762 21.697 98.8797L21.2974 98.8988C21.2234 98.9023 21.1631 98.883 21.1166 98.8407C21.0623 98.7913 21.0334 98.7297 21.0299 98.6557L20.8711 95.3254C20.8675 95.2514 20.8906 95.191 20.9403 95.1441C20.9822 95.0902 21.0402 95.0615 21.1142 95.0579L21.5138 95.0389C21.5878 95.0354 21.6483 95.0584 21.6951 95.1081C21.7417 95.1504 21.7667 95.2085 21.7702 95.2826L21.9291 98.6128Z" fill="#3766E4"/>
<path d="M24.7536 90.4718C24.7465 90.5456 24.7183 90.6061 24.6691 90.6535C24.6132 90.6928 24.5484 90.7088 24.4747 90.7017L19.2313 90.1956C19.1575 90.1885 19.1007 90.1607 19.0607 90.1122C19.0141 90.0556 18.9943 89.9904 19.0014 89.9167L19.0473 89.441C19.0552 89.3599 19.0833 89.2993 19.1318 89.2593C19.1804 89.2194 19.2452 89.2033 19.3263 89.2111L19.813 89.2581C19.5615 89.0105 19.3759 88.7358 19.2562 88.434C19.1371 88.1247 19.0986 87.7526 19.1406 87.3175C19.209 86.6095 19.4906 86.0822 19.9856 85.7354C20.4731 85.388 21.0893 85.2502 21.8342 85.3221L24.9647 85.6243C25.0385 85.6314 25.0987 85.6633 25.1453 85.7199C25.1853 85.7684 25.2017 85.8295 25.1946 85.9033L25.1455 86.4121C25.1384 86.4859 25.1102 86.5464 25.0609 86.5938C25.0051 86.633 24.9402 86.6491 24.8665 86.642L21.8023 86.3462C21.2714 86.295 20.8459 86.3842 20.526 86.6138C20.2061 86.8435 20.023 87.198 19.9768 87.6773C19.9312 88.1493 20.0461 88.54 20.3214 88.8494C20.5893 89.1581 20.9851 89.3377 21.5087 89.3883L24.5729 89.684C24.6466 89.6911 24.7068 89.723 24.7535 89.7796C24.7934 89.8281 24.8099 89.8892 24.8027 89.963L24.7536 90.4718Z" fill="#3766E4"/>
<path d="M26.922 77.7958C26.7063 78.5817 26.3182 79.1283 25.7576 79.4354C25.199 79.7354 24.5478 79.7988 23.804 79.6254L23.3402 79.5097L22.8823 79.3726C22.1543 79.1421 21.6275 78.7517 21.3022 78.2015C20.9788 77.6441 20.9229 76.9796 21.1346 76.208C21.3463 75.4363 21.7325 74.8969 22.2931 74.5898C22.8556 74.2755 23.5088 74.205 24.2526 74.3783C24.4137 74.4071 24.5692 74.4421 24.7193 74.4833C24.8693 74.5245 25.021 74.5738 25.1742 74.6312C25.9023 74.8617 26.4291 75.252 26.7544 75.8022C27.0817 76.3453 27.1376 77.0098 26.922 77.7958ZM26.1182 77.5752C26.2436 77.118 26.1997 76.7179 25.9865 76.3752C25.768 76.0233 25.3902 75.7622 24.8531 75.5917C24.7836 75.565 24.6488 75.5242 24.4488 75.4693C24.2487 75.4144 24.112 75.3807 24.0386 75.3683C23.4897 75.2407 23.0351 75.2735 22.6748 75.4666C22.3093 75.6506 22.0639 75.9712 21.9384 76.4285C21.813 76.8858 21.8595 77.2903 22.0779 77.6422C22.2912 77.985 22.6664 78.2416 23.2035 78.412L23.6078 78.5344L24.018 78.6355C24.5669 78.763 25.0241 78.7348 25.3896 78.5508C25.7498 78.3577 25.9927 78.0325 26.1182 77.5752Z" fill="#3766E4"/>
<path d="M30.6475 67.076C30.1763 68.1233 29.3496 68.381 28.1671 67.8491L25.4509 66.6272L25.0907 67.4279C25.0603 67.4955 25.0158 67.5404 24.957 67.5627C24.8982 67.585 24.835 67.581 24.7675 67.5506L24.4431 67.4047C24.3756 67.3743 24.3306 67.3297 24.3083 67.2709C24.2793 67.2091 24.2799 67.1444 24.3103 67.0768L24.6705 66.2762L22.9779 65.5148C22.9104 65.4844 22.8654 65.4398 22.8431 65.381C22.8141 65.3192 22.8147 65.2545 22.8451 65.187L23.0457 64.741C23.0761 64.6734 23.1241 64.63 23.1896 64.6108C23.2514 64.5817 23.3161 64.5824 23.3837 64.6128L25.0763 65.3741L25.6416 64.1174C25.672 64.0498 25.72 64.0064 25.7855 63.9871C25.8473 63.9581 25.912 63.9587 25.9796 63.9891L26.3039 64.135C26.3715 64.1654 26.4149 64.2134 26.4341 64.2789C26.4564 64.3377 26.4524 64.4009 26.422 64.4684L25.8567 65.7252L28.502 66.9151C28.8465 67.0701 29.131 67.1331 29.3553 67.104C29.5827 67.0682 29.7571 66.9151 29.8787 66.6448L30.1568 66.0266C30.1872 65.959 30.2352 65.9156 30.3007 65.8964C30.3595 65.874 30.4226 65.8781 30.4902 65.9085L30.8247 66.0589C30.8922 66.0893 30.9405 66.1354 30.9696 66.1973C30.9919 66.256 30.9879 66.3192 30.9575 66.3868L30.6475 67.076Z" fill="#3766E4"/>
<path d="M156.027 55.7864L155.988 55.8403C155.097 57.083 154.987 58.6841 155.705 59.9604L155.736 60.0157L155.674 59.9987C154.231 59.6052 152.647 60.0676 151.598 61.1886L151.553 61.2372L151.553 61.1728C151.552 59.6869 150.683 58.3717 149.317 57.7882L149.258 57.7629L149.32 57.7401C150.763 57.2152 151.809 55.9399 152.014 54.4583L152.023 54.3941L152.061 54.4444C152.953 55.6059 154.469 56.133 155.962 55.8008L156.027 55.7864Z" fill="#3766E4"/>
<path d="M28.1549 55.7864L28.1935 55.8403C29.0849 57.083 29.1948 58.6841 28.4765 59.9604L28.4454 60.0157L28.5079 59.9987C29.9509 59.6052 31.5346 60.0676 32.5835 61.1886L32.629 61.2372L32.629 61.1728C32.6295 59.6869 33.4983 58.3717 34.8649 57.7882L34.9241 57.7629L34.8616 57.7401C33.4189 57.2152 32.3722 55.9399 32.1679 54.4583L32.159 54.3941L32.1203 54.4444C31.2282 55.6059 29.7124 56.133 28.2196 55.8008L28.1549 55.7864Z" fill="#3766E4"/>
<path d="M92.4273 166.924L92.451 166.862C92.9966 165.434 94.2719 164.459 95.7328 164.355L95.7961 164.351L95.7474 164.308C94.6237 163.321 94.1366 161.745 94.4939 160.252L94.5094 160.187L94.4556 160.222C93.2155 161.041 91.6392 161.041 90.3991 160.222L90.3453 160.187L90.3608 160.252C90.7181 161.745 90.231 163.321 89.1073 164.308L89.0586 164.351L89.1219 164.355C90.5828 164.459 91.8581 165.434 92.4037 166.862L92.4273 166.924Z" fill="#3766E4"/>
</svg>
