<svg width="56" height="56" viewBox="0 0 56 56" fill="none" xmlns="http://www.w3.org/2000/svg">
<circle cx="28" cy="28" r="28" fill="white"/>
<path fill-rule="evenodd" clip-rule="evenodd" d="M40.0908 18.9214C39.6013 20.0082 38.9564 21.0473 38.1528 22.0069C36.2856 24.2364 33.8459 25.6972 31.2315 26.3553C31.2038 26.3623 31.1755 26.3695 31.1468 26.3768C30.5402 26.5314 29.7181 26.741 28.9497 26.0951C28.1659 25.4361 28.2302 24.686 28.2831 24.0687C28.2884 24.0073 28.2935 23.9473 28.2977 23.8887C28.4906 21.1948 29.5027 18.5337 31.3698 16.3042C32.1694 15.3494 33.0736 14.5361 34.0512 13.8663C35.3338 14.2022 36.5644 14.8212 37.6486 15.7328C38.7218 16.635 39.5382 17.7285 40.0908 18.9214ZM15.9849 27.2318C14.8101 27.6602 13.7331 28.2371 12.7668 28.9331C12.6502 30.243 12.8115 31.5989 13.2906 32.9179C13.7747 34.2506 14.5315 35.4032 15.4747 36.3366C16.6555 36.2463 17.8445 35.9949 19.0134 35.5686C21.743 34.5732 23.9474 32.7757 25.4588 30.5392C25.4916 30.4907 25.5261 30.4412 25.5612 30.3907C25.9151 29.8827 26.3451 29.2652 25.9951 28.3019C25.6521 27.3575 24.8355 27.1272 24.233 26.9572C24.2045 26.9492 24.1764 26.9413 24.1489 26.9334C21.5564 26.1936 18.7145 26.2364 15.9849 27.2318ZM43.0067 28.9331C42.0404 28.2371 40.9634 27.6602 39.7886 27.2318C37.059 26.2364 34.2171 26.1936 31.6246 26.9334C31.616 26.9359 31.6074 26.9383 31.5988 26.9408C31.5797 26.9462 31.5603 26.9516 31.5407 26.9572L31.5405 26.9572C30.938 27.1272 30.1214 27.3575 29.7784 28.3019C29.4284 29.2652 29.8584 29.8827 30.2123 30.3907C30.2474 30.4412 30.2819 30.4907 30.3147 30.5392C31.8261 32.7757 34.0305 34.5732 36.7601 35.5686C37.929 35.9949 39.118 36.2463 40.2988 36.3366C41.2419 35.4032 41.9988 34.2506 42.4829 32.9179C42.962 31.5989 43.1233 30.243 43.0067 28.9331ZM31.8329 42.3722C32.1552 41.2244 32.3278 40.0131 32.3278 38.7604C32.3278 35.85 31.3959 33.1597 29.8154 30.9717C29.8046 30.9568 29.7936 30.9416 29.7826 30.9262L29.7643 30.9007C29.3988 30.3916 28.9035 29.7015 27.9005 29.7015C26.8773 29.7015 26.4453 30.3176 26.0899 30.8245C26.0545 30.8749 26.0199 30.9242 25.9856 30.9717C24.4051 33.1597 23.4732 35.8499 23.4732 38.7604C23.4732 40.0067 23.6441 41.2122 23.9633 42.3548C25.1613 42.9236 26.5011 43.242 27.9165 43.242C29.3174 43.242 30.6443 42.9301 31.8329 42.3722Z" fill="#3766E4"/>
<path fill-rule="evenodd" clip-rule="evenodd" d="M16.2662 19.9987C16.0667 19.6458 15.8848 19.2863 15.7205 18.9214C16.2731 17.7285 17.0895 16.635 18.1627 15.7328C19.2469 14.8212 20.4775 14.2022 21.7601 13.8663C22.0641 14.0746 22.361 14.2968 22.6499 14.5327C21.1641 14.6915 19.7121 15.2988 18.5098 16.3679C17.3819 17.3709 16.6305 18.6407 16.2662 19.9987ZM16.6633 20.6561C16.9364 19.2022 17.6747 17.8251 18.8638 16.7677C20.1186 15.652 21.6664 15.078 23.2225 15.0285C23.5447 15.324 23.8553 15.638 24.1527 15.9705C22.5105 15.7765 20.7967 16.2586 19.4633 17.4443C18.1793 18.5859 17.4999 20.156 17.4487 21.7501C17.1659 21.3951 16.9041 21.0299 16.6633 20.6561ZM17.9975 22.3963C18.3675 22.8055 18.7577 23.1864 19.1652 23.5389C18.5293 21.8187 18.966 19.8105 20.4166 18.5206C21.8827 17.217 23.9529 17.0309 25.5903 17.8992C25.3178 17.4555 25.0166 17.0234 24.6864 16.6053C23.0178 16.2184 21.1946 16.6193 19.8173 17.844C18.4789 19.0341 17.8613 20.7356 17.9975 22.3963ZM26.1789 18.9647C24.671 17.5785 22.3323 17.5317 20.7706 18.9204C19.1949 20.3215 18.9734 22.6831 20.2044 24.3507C21.0789 24.9661 22.0144 25.4652 22.988 25.846C22.3295 25.2819 21.7017 24.6659 21.1104 23.9983C21.1015 23.9883 21.0936 23.9778 21.0865 23.967C21.0766 23.9587 21.0672 23.9495 21.0584 23.9396C19.9414 22.6785 20.0904 20.7348 21.3699 19.597C22.6468 18.4617 24.5852 18.5417 25.7032 19.7951C25.7389 19.8101 25.7718 19.8332 25.7991 19.8641C26.1772 20.2909 26.5775 20.6861 26.9968 21.0496C26.7855 20.3392 26.5131 19.6416 26.1789 18.9647ZM27.2251 21.9266C26.5787 21.4273 25.9694 20.8605 25.4072 20.2268C25.3716 20.2117 25.3387 20.1887 25.3114 20.1578C24.3988 19.1276 22.7933 19.0459 21.724 19.9968C20.6547 20.9476 20.5448 22.5545 21.4573 23.5848C21.4662 23.5948 21.4741 23.6052 21.4812 23.6161C21.4911 23.6244 21.5005 23.6335 21.5093 23.6435C22.4094 24.6597 23.3963 25.5528 24.4488 26.3216C24.4924 26.333 24.5361 26.3443 24.5798 26.3553C24.6075 26.3623 24.6358 26.3695 24.6645 26.3768C25.1031 26.4886 25.6543 26.6291 26.2164 26.4543C24.7458 25.5626 23.3822 24.437 22.1812 23.0811C21.5571 22.3765 21.6203 21.2985 22.3233 20.6734C23.0263 20.0483 24.1021 20.1135 24.7262 20.8181C25.5475 21.7454 26.4632 22.5389 27.4459 23.1969C27.393 22.7713 27.3195 22.3473 27.2251 21.9266ZM27.5127 23.8769C26.355 23.1506 25.2799 22.2485 24.3272 21.1729C23.8983 20.6886 23.1596 20.6443 22.6774 21.0731C22.1951 21.5019 22.1512 22.242 22.5802 22.7263C23.8211 24.1274 25.2411 25.2747 26.7748 26.1643C26.8038 26.1424 26.8327 26.1193 26.8616 26.0951C27.1092 25.8869 27.2722 25.6696 27.3776 25.4503C25.8814 24.599 24.4969 23.4907 23.2911 22.1292C23.1933 22.0188 23.2033 21.8499 23.3135 21.752C23.4237 21.654 23.5922 21.6641 23.69 21.7745C24.8271 23.0583 26.1284 24.1093 27.534 24.924C27.576 24.6261 27.551 24.3351 27.5282 24.0687L27.5282 24.0686C27.5229 24.0073 27.5178 23.9472 27.5136 23.8887C27.5133 23.8848 27.513 23.8808 27.5127 23.8769Z" fill="#3766E4"/>
<path d="M27.886 25.7984L27.8996 25.8323C28.212 26.6154 28.9422 27.1493 29.7787 27.2064L29.815 27.2089L29.7871 27.2323C29.1437 27.7733 28.8648 28.6372 29.0693 29.4555L29.0782 29.491L29.0474 29.4716C28.3373 29.0229 27.4347 29.0229 26.7246 29.4716L26.6938 29.491L26.7027 29.4555C26.9073 28.6372 26.6283 27.7733 25.9849 27.2323L25.957 27.2089L25.9933 27.2064C26.8298 27.1493 27.56 26.6154 27.8725 25.8323L27.886 25.7984Z" fill="#3766E4"/>
<path d="M47.819 20.0846C47.8093 20.0627 47.8077 20.0412 47.8141 20.0201C47.8236 20.0002 47.8393 19.9855 47.8612 19.9758L49.2396 19.3684L49.1152 19.0862C49.1056 19.0643 49.1039 19.0428 49.1103 19.0217C49.1176 19.0028 49.1323 18.9885 49.1541 18.9789L49.2592 18.9326C49.281 18.9229 49.3014 18.9218 49.3203 18.9291C49.3424 18.9377 49.3583 18.9529 49.3679 18.9748L49.4923 19.257L49.6564 19.1847C49.8336 19.1066 49.9891 19.089 50.123 19.1319C50.26 19.1761 50.3719 19.2966 50.4587 19.4935L50.544 19.6871C50.5537 19.709 50.5537 19.7299 50.5442 19.7498C50.5378 19.7709 50.5237 19.7862 50.5018 19.7959L50.3968 19.8422C50.3749 19.8518 50.354 19.8519 50.3342 19.8423C50.3153 19.835 50.301 19.8204 50.2913 19.7985L50.2089 19.6114C50.1646 19.5108 50.1074 19.4523 50.0376 19.4361C49.9677 19.4199 49.8781 19.4358 49.7687 19.4841L49.621 19.5491L49.8076 19.9725C49.8172 19.9944 49.8173 20.0153 49.8077 20.0351C49.8014 20.0562 49.7872 20.0716 49.7653 20.0813L49.6603 20.1275C49.6384 20.1372 49.6176 20.1372 49.5977 20.1277C49.5788 20.1204 49.5645 20.1057 49.5549 20.0839L49.3683 19.6605L47.9899 20.2679C47.968 20.2776 47.946 20.2781 47.924 20.2695C47.9051 20.2622 47.8908 20.2476 47.8812 20.2257L47.819 20.0846Z" fill="#3766E4"/>
<path d="M48.8287 22.9579C48.7597 22.7041 48.7778 22.4885 48.8832 22.3112C48.9892 22.1361 49.1598 22.0117 49.3949 21.9378L49.5427 21.8938L49.6925 21.8568C49.9326 21.8014 50.1431 21.8234 50.3238 21.9229C50.5051 22.0247 50.6297 22.2002 50.6975 22.4494C50.7652 22.6985 50.7465 22.9118 50.6411 23.0891C50.5363 23.2688 50.3664 23.3956 50.1313 23.4695C50.0818 23.4879 50.0328 23.5037 49.9844 23.5169C49.9359 23.53 49.8857 23.5412 49.8337 23.5504C49.5935 23.6059 49.3831 23.5838 49.2024 23.4843C49.0223 23.3871 48.8978 23.2116 48.8287 22.9579ZM49.0883 22.8872C49.1284 23.0349 49.2063 23.1388 49.3218 23.1991C49.4402 23.261 49.5881 23.2716 49.7653 23.2308C49.789 23.2268 49.8331 23.2161 49.8977 23.1985C49.9623 23.1809 50.0059 23.1678 50.0283 23.1592C50.2018 23.1046 50.3227 23.0209 50.3911 22.9081C50.4625 22.797 50.4781 22.6677 50.4379 22.52C50.3977 22.3723 50.3184 22.2676 50.2 22.2056C50.0845 22.1454 49.9381 22.1356 49.7609 22.1764L49.6284 22.2088L49.4979 22.248C49.3244 22.3026 49.202 22.3855 49.1306 22.4966C49.0622 22.6094 49.0481 22.7396 49.0883 22.8872Z" fill="#3766E4"/>
<path d="M49.4824 25.9169C49.4798 25.8932 49.4846 25.8722 49.4971 25.854C49.5121 25.8379 49.5315 25.8285 49.5553 25.8258L51.2413 25.6384C51.265 25.6358 51.286 25.6407 51.3042 25.6531C51.3227 25.6678 51.3333 25.6871 51.3359 25.7109L51.3526 25.8606C51.3555 25.8867 51.3494 25.9079 51.3344 25.924C51.3219 25.9422 51.3027 25.9527 51.2765 25.9556L51.1197 25.9731C51.2921 26.0526 51.3913 26.2087 51.4172 26.4416L51.4326 26.5806C51.4355 26.6068 51.4306 26.6277 51.418 26.6436C51.4053 26.6594 51.3859 26.6688 51.3597 26.6717L51.2279 26.6864C51.2041 26.689 51.1831 26.6841 51.1649 26.6717C51.149 26.6591 51.1397 26.6396 51.1368 26.6135L51.1142 26.4103C51.0996 26.2796 51.0501 26.1805 50.9656 26.1129C50.8814 26.0477 50.7739 26.0223 50.6432 26.0369L49.5917 26.1538C49.568 26.1564 49.5468 26.1503 49.5284 26.1356C49.5122 26.1205 49.5029 26.1011 49.5002 26.0773L49.4824 25.9169Z" fill="#3766E4"/>
<path d="M48.8621 29.3423C48.8708 29.144 48.9113 28.9867 48.9835 28.8702C49.0556 28.7537 49.1358 28.6723 49.224 28.626C49.3121 28.582 49.3873 28.5614 49.4494 28.5641C49.4709 28.5651 49.4896 28.5743 49.5056 28.5918C49.5192 28.6091 49.5255 28.6285 49.5245 28.65L49.5176 28.8077C49.5166 28.8292 49.511 28.8469 49.5008 28.8608C49.4883 28.8746 49.4674 28.8856 49.4383 28.8939C49.2443 28.9524 49.142 29.0998 49.1316 29.3363C49.1236 29.5154 49.156 29.6497 49.2286 29.7391C49.3013 29.8284 49.4343 29.8774 49.6278 29.886L49.875 29.8969C49.7044 29.7505 49.6246 29.5532 49.6356 29.3047C49.6468 29.0515 49.7364 28.8652 49.9044 28.7458C50.0723 28.6288 50.2807 28.5722 50.5294 28.5761L50.6299 28.5769L50.7265 28.5848C50.9722 28.6028 51.1735 28.6776 51.3304 28.809C51.4896 28.9428 51.5636 29.1364 51.5524 29.3896C51.5413 29.6404 51.4407 29.8322 51.2505 29.965L51.4046 29.9718C51.4285 29.9728 51.4485 29.9809 51.4646 29.996C51.4805 30.0134 51.488 30.0341 51.4869 30.058L51.4801 30.2121C51.4791 30.236 51.4699 30.2547 51.4525 30.2683C51.4351 30.2843 51.4144 30.2917 51.3905 30.2907L49.6528 30.2138C49.101 30.1893 48.8374 29.8989 48.8621 29.3423ZM49.9122 29.3816C49.9048 29.5488 49.953 29.6766 50.0568 29.7649C50.1628 29.8558 50.2921 29.9082 50.4447 29.9221C50.4661 29.9255 50.5078 29.9285 50.5699 29.9313C50.6297 29.9339 50.6703 29.9345 50.6919 29.9331C50.8451 29.9327 50.9773 29.8918 51.0886 29.8106C51.2022 29.7319 51.2627 29.6089 51.2701 29.4417C51.2777 29.2697 51.2283 29.1419 51.1219 29.0582C51.0178 28.977 50.88 28.929 50.7083 28.9142L50.6153 28.9065L50.5184 28.9058C50.3461 28.9054 50.2033 28.941 50.0901 29.0125C49.9791 29.0866 49.9198 29.2096 49.9122 29.3816Z" fill="#3766E4"/>
<path d="M49.1681 33.0339C49.2203 32.7957 49.3356 32.6215 49.514 32.5112C49.6947 32.4015 49.915 32.3678 50.175 32.4101L50.2949 32.4327L50.4097 32.4616C50.6589 32.5309 50.8426 32.6531 50.9609 32.8284C51.0791 33.0036 51.1121 33.2103 51.0599 33.4486C51.0036 33.7055 50.8783 33.8861 50.6841 33.9904C50.4894 34.097 50.2519 34.1196 49.9717 34.0582L49.9086 34.0443C49.8853 34.0392 49.8672 34.0267 49.8544 34.0068C49.8435 33.9897 49.8406 33.9695 49.8457 33.9461L50.1121 32.7305L50.0806 32.7236C49.9273 32.6973 49.7874 32.7156 49.661 32.7785C49.5347 32.8413 49.4559 32.944 49.4246 33.0864C49.4006 33.1962 49.4021 33.2896 49.4293 33.3665C49.4584 33.4463 49.4924 33.5088 49.5314 33.5541C49.5548 33.5813 49.5676 33.6012 49.5697 33.6139C49.5742 33.6271 49.5733 33.6477 49.5672 33.6758L49.5334 33.8299C49.5288 33.8509 49.5191 33.8672 49.5043 33.8786C49.4891 33.8924 49.4721 33.8973 49.4534 33.8932C49.402 33.8819 49.3471 33.8368 49.2885 33.7579C49.2299 33.6789 49.1866 33.5752 49.1584 33.4467C49.1321 33.321 49.1354 33.1834 49.1681 33.0339ZM50.1361 33.7601L50.1466 33.7624C50.3101 33.7982 50.453 33.783 50.5752 33.7168C50.6974 33.6506 50.7749 33.5427 50.8077 33.3933C50.8409 33.2415 50.8157 33.1111 50.7318 33.0021C50.648 32.8932 50.5244 32.8208 50.3609 32.785L50.3504 32.7827L50.1361 33.7601Z" fill="#3766E4"/>
<path d="M48.2106 36.349C48.3429 36.0028 48.6045 35.9044 48.9953 36.0539L49.8931 36.3971L49.9943 36.1325C50.0028 36.1102 50.0164 36.0949 50.0349 36.0866C50.0534 36.0783 50.0738 36.0784 50.0962 36.087L50.2034 36.128C50.2257 36.1365 50.241 36.15 50.2493 36.1686C50.2598 36.1879 50.2608 36.2088 50.2522 36.2311L50.151 36.4958L50.7105 36.7097C50.7328 36.7182 50.7481 36.7317 50.7564 36.7502C50.7669 36.7696 50.7679 36.7905 50.7593 36.8128L50.703 36.9602C50.6945 36.9825 50.6798 36.9974 50.6591 37.0048C50.6397 37.0154 50.6188 37.0163 50.5965 37.0078L50.037 36.7939L49.8782 37.2093C49.8697 37.2316 49.855 37.2465 49.8343 37.2539C49.8149 37.2644 49.7941 37.2654 49.7717 37.2569L49.6645 37.2159C49.6422 37.2074 49.6273 37.1927 49.6199 37.172C49.6116 37.1534 49.6117 37.133 49.6203 37.1107L49.7791 36.6953L48.9048 36.361C48.7909 36.3174 48.6981 36.3024 48.6263 36.316C48.5538 36.3317 48.5004 36.3843 48.4662 36.4736L48.3881 36.6779C48.3796 36.7003 48.3649 36.7152 48.3442 36.7226C48.3256 36.7309 48.3052 36.7307 48.2829 36.7222L48.1723 36.6799C48.15 36.6714 48.1336 36.6574 48.1231 36.6381C48.1148 36.6195 48.1149 36.5991 48.1235 36.5768L48.2106 36.349Z" fill="#3766E4"/>
<path d="M48.1573 38.7297C48.1686 38.7086 48.1845 38.6941 48.2051 38.6861C48.2245 38.6803 48.2448 38.683 48.2658 38.6943L48.3796 38.7553C48.4007 38.7667 48.4141 38.782 48.42 38.8014C48.4268 38.8241 48.4246 38.846 48.4133 38.867L47.9046 39.8151C47.8933 39.8362 47.8769 39.8491 47.8553 39.8538C47.8348 39.8618 47.814 39.8601 47.7929 39.8488L47.6791 39.7877C47.6581 39.7764 47.6452 39.76 47.6404 39.7385C47.6346 39.7191 47.6373 39.6988 47.6486 39.6778L48.1573 38.7297Z" fill="#3766E4"/>
<path d="M46.0431 40.5389C46.0579 40.5201 46.076 40.5085 46.0976 40.5042C46.1197 40.5032 46.1401 40.5101 46.1589 40.5248L47.4977 41.5725C47.5165 41.5872 47.5272 41.6046 47.5296 41.6248C47.5325 41.6483 47.5265 41.6694 47.5118 41.6883L47.419 41.8069C47.4042 41.8257 47.3859 41.8356 47.3638 41.8366C47.3437 41.8391 47.3242 41.8329 47.3054 41.8182L47.2094 41.743C47.2559 41.9435 47.2115 42.1303 47.0759 42.3035C46.9138 42.5106 46.7123 42.5897 46.4712 42.5408C46.515 42.6478 46.5279 42.7612 46.5102 42.8809C46.4909 43.0025 46.4408 43.115 46.3598 43.2186C46.2389 43.373 46.0875 43.4579 45.9054 43.4733C45.7233 43.4887 45.5325 43.4183 45.3329 43.2621L44.5167 42.6233C44.4979 42.6086 44.487 42.5895 44.4841 42.566C44.4817 42.5458 44.4878 42.5264 44.5026 42.5075L44.5976 42.3861C44.6123 42.3673 44.6305 42.3557 44.6521 42.3513C44.6741 42.3503 44.6946 42.3572 44.7134 42.372L45.5042 42.9908C45.6549 43.1087 45.7865 43.1616 45.8991 43.1496C46.0137 43.139 46.1107 43.0829 46.1903 42.9812C46.261 42.8909 46.2883 42.7862 46.2721 42.6672C46.2563 42.5517 46.1749 42.4364 46.0281 42.3215L45.2372 41.7026C45.2184 41.6878 45.2076 41.6687 45.2047 41.6452C45.2022 41.6251 45.2084 41.6056 45.2231 41.5868L45.3204 41.4625C45.3351 41.4437 45.3533 41.4321 45.3749 41.4278C45.3969 41.4268 45.4173 41.4336 45.4362 41.4484L46.227 42.0673C46.3757 42.1837 46.5089 42.2347 46.6263 42.2204C46.7423 42.2079 46.8379 42.1537 46.9131 42.0577C46.9838 41.9673 47.012 41.8634 46.9977 41.7459C46.9818 41.6303 46.9005 41.515 46.7536 41.4001L45.96 40.779C45.9412 40.7643 45.9303 40.7452 45.9274 40.7217C45.925 40.7015 45.9311 40.682 45.9459 40.6632L46.0431 40.5389Z" fill="#3766E4"/>
<path d="M42.4838 44.4361C42.6683 44.2766 42.8649 44.2061 43.0738 44.2246C43.2842 44.2449 43.4808 44.3498 43.6637 44.5394L43.7462 44.6293L43.8209 44.7211C43.979 44.9258 44.0529 45.1337 44.0427 45.3449C44.0325 45.556 43.9352 45.7414 43.7507 45.9009C43.5518 46.0729 43.3433 46.1426 43.1254 46.1099C42.9056 46.0787 42.7018 45.9546 42.5141 45.7376L42.4719 45.6888C42.4562 45.6707 42.4493 45.6498 42.451 45.6262C42.4525 45.606 42.4622 45.5881 42.4803 45.5724L43.4216 44.7583L43.4005 44.7339C43.2934 44.621 43.1704 44.5519 43.0315 44.5266C42.8927 44.5013 42.7681 44.5364 42.6578 44.6318C42.5728 44.7053 42.5181 44.781 42.4939 44.8589C42.4693 44.9402 42.4591 45.0107 42.4633 45.0703C42.4658 45.1061 42.4641 45.1297 42.4582 45.1411C42.4538 45.1543 42.4408 45.1704 42.4191 45.1891L42.2997 45.2924C42.2835 45.3064 42.266 45.3136 42.2473 45.314C42.2268 45.3159 42.2103 45.3096 42.1978 45.2951C42.1634 45.2554 42.1464 45.1863 42.1467 45.088C42.1471 44.9897 42.1744 44.8807 42.2289 44.7609C42.2831 44.6445 42.3681 44.5362 42.4838 44.4361ZM42.8243 45.5973L42.8313 45.6055C42.9408 45.7321 43.0643 45.8054 43.2019 45.8255C43.3394 45.8457 43.4661 45.8057 43.5818 45.7056C43.6993 45.6039 43.7572 45.4844 43.7553 45.3469C43.7533 45.2095 43.6976 45.0775 43.5882 44.9509L43.5811 44.9428L42.8243 45.5973Z" fill="#3766E4"/>
<path d="M40.7896 46.9499C40.8098 46.937 40.8308 46.9321 40.8526 46.9351C40.8724 46.9395 40.8888 46.9517 40.9016 46.9719L40.9712 47.0806C40.9841 47.1007 40.9884 47.1207 40.984 47.1405C40.979 47.1637 40.9663 47.1817 40.9462 47.1945L40.0399 47.7744C40.0198 47.7873 39.9992 47.7906 39.9781 47.7842C39.9562 47.7812 39.9389 47.7696 39.926 47.7494L39.8564 47.6407C39.8435 47.6205 39.8403 47.5999 39.8466 47.5788C39.851 47.559 39.8632 47.5426 39.8834 47.5297L40.7896 46.9499Z" fill="#3766E4"/>
<path d="M38.0576 47.4684C38.0794 47.4586 38.1008 47.4567 38.122 47.4629C38.142 47.4722 38.1569 47.4878 38.1668 47.5095L38.8682 49.058C38.8781 49.0798 38.8794 49.1002 38.8723 49.1192C38.8639 49.1413 38.8489 49.1573 38.8271 49.1672L38.6866 49.2308C38.6627 49.2417 38.6412 49.2436 38.6222 49.2364C38.6032 49.2293 38.5883 49.2137 38.5774 49.1897L38.5123 49.046C38.4835 49.1562 38.4365 49.2523 38.3713 49.3343C38.3039 49.4173 38.2059 49.488 38.0774 49.5462C37.8684 49.6409 37.6755 49.6469 37.4989 49.5641C37.3233 49.4836 37.1857 49.3333 37.086 49.1133L36.6672 48.1888C36.6574 48.167 36.6566 48.145 36.665 48.1229C36.6721 48.1039 36.6866 48.0895 36.7084 48.0796L36.8586 48.0115C36.8804 48.0017 36.9019 47.9998 36.923 48.006C36.943 48.0153 36.9579 48.0309 36.9678 48.0526L37.3777 48.9576C37.4488 49.1144 37.5421 49.2191 37.6578 49.2717C37.7735 49.3242 37.9021 49.3185 38.0437 49.2544C38.1831 49.1912 38.2739 49.0963 38.3162 48.9695C38.3595 48.8449 38.3462 48.7052 38.2761 48.5506L37.8662 47.6457C37.8563 47.6239 37.8556 47.6019 37.8639 47.5798C37.8711 47.5608 37.8855 47.5464 37.9073 47.5365L38.0576 47.4684Z" fill="#3766E4"/>
<path d="M34.1621 48.8998C34.4167 48.8338 34.632 48.8545 34.8081 48.962C34.9819 49.0701 35.1043 49.2421 35.1754 49.4781L35.2176 49.6264L35.2528 49.7766C35.3054 50.0174 35.2809 50.2275 35.1792 50.4071C35.0753 50.5872 34.8983 50.7096 34.6483 50.7745C34.3984 50.8393 34.1854 50.818 34.0093 50.7105C33.8309 50.6036 33.7062 50.4322 33.6351 50.1962C33.6172 50.1465 33.602 50.0973 33.5894 50.0487C33.5768 50.0001 33.5662 49.9498 33.5576 49.8977C33.5051 49.6569 33.5296 49.4467 33.6312 49.2672C33.7306 49.0883 33.9075 48.9659 34.1621 48.8998ZM34.2296 49.1602C34.0815 49.1986 33.9767 49.2752 33.915 49.39C33.8517 49.5077 33.8394 49.6554 33.878 49.8331C33.8817 49.8568 33.892 49.9011 33.9088 49.9659C33.9256 50.0307 33.9382 50.0744 33.9465 50.0969C33.999 50.271 34.0813 50.3929 34.1933 50.4627C34.3035 50.5354 34.4327 50.5525 34.5808 50.5141C34.7289 50.4757 34.8347 50.3976 34.898 50.2799C34.9596 50.1651 34.9711 50.0189 34.9324 49.8412L34.9017 49.7084L34.864 49.5774C34.8114 49.4033 34.73 49.2799 34.6198 49.2072C34.5078 49.1374 34.3778 49.1218 34.2296 49.1602Z" fill="#3766E4"/>
<path d="M30.5636 49.5809C30.9324 49.5444 31.1374 49.7343 31.1787 50.1507L31.2736 51.1071L31.5555 51.0792C31.5793 51.0768 31.5991 51.0821 31.6148 51.0949C31.6304 51.1078 31.6395 51.1261 31.6418 51.1499L31.6532 51.2641C31.6555 51.2879 31.6503 51.3076 31.6374 51.3233C31.6248 51.3414 31.6066 51.3516 31.5828 51.354L31.3008 51.3819L31.3599 51.9779C31.3623 52.0017 31.357 52.0215 31.3442 52.0372C31.3316 52.0552 31.3133 52.0655 31.2896 52.0678L31.1325 52.0834C31.1087 52.0857 31.0889 52.0793 31.0729 52.0641C31.0549 52.0514 31.0447 52.0332 31.0423 52.0094L30.9832 51.4134L30.5406 51.4573C30.5169 51.4597 30.497 51.4532 30.4811 51.438C30.463 51.4254 30.4528 51.4072 30.4504 51.3834L30.4391 51.2692C30.4367 51.2454 30.4432 51.2255 30.4584 51.2096C30.4713 51.1939 30.4896 51.1849 30.5134 51.1825L30.9559 51.1386L30.8636 50.2071C30.8515 50.0858 30.8234 49.9961 30.7792 49.938C30.7326 49.8801 30.6618 49.8559 30.5666 49.8654L30.3489 49.887C30.3251 49.8893 30.3052 49.8829 30.2893 49.8676C30.2736 49.8548 30.2646 49.8364 30.2622 49.8127L30.2506 49.6949C30.2482 49.6711 30.2533 49.6502 30.266 49.6321C30.2788 49.6164 30.2971 49.6074 30.3209 49.605L30.5636 49.5809Z" fill="#3766E4"/>
<path d="M10.8435 14.8336C10.8297 14.8531 10.812 14.8655 10.7906 14.8708C10.7687 14.8727 10.748 14.8668 10.7285 14.8529L9.50223 13.9781L9.32311 14.2292C9.30922 14.2487 9.29158 14.261 9.27018 14.2663C9.25017 14.2697 9.23043 14.2644 9.21097 14.2505L9.11754 14.1839C9.09808 14.17 9.08667 14.1531 9.08332 14.133C9.07942 14.1097 9.08441 14.0883 9.09829 14.0688L9.27741 13.8177L9.13143 13.7136C8.97377 13.6011 8.87919 13.4764 8.8477 13.3394C8.81565 13.199 8.86211 13.0413 8.98708 12.8661L9.10997 12.6938C9.12385 12.6744 9.14177 12.6637 9.16373 12.6617C9.18513 12.6564 9.20556 12.6607 9.22503 12.6746L9.31845 12.7412C9.33792 12.7551 9.34863 12.773 9.35059 12.795C9.35394 12.815 9.34867 12.8347 9.33478 12.8542L9.21606 13.0206C9.15219 13.1102 9.13111 13.1891 9.15283 13.2575C9.17456 13.3258 9.23408 13.3947 9.3314 13.4642L9.46278 13.5579L9.73147 13.1812C9.74535 13.1618 9.76327 13.1511 9.78523 13.1491C9.80663 13.1438 9.82706 13.1481 9.84652 13.162L9.93995 13.2287C9.95942 13.2425 9.97013 13.2605 9.97209 13.2824C9.97543 13.3024 9.97017 13.3222 9.95628 13.3416L9.6876 13.7183L10.9139 14.593C10.9333 14.6069 10.945 14.6255 10.9489 14.6489C10.9523 14.6689 10.947 14.6886 10.9331 14.7081L10.8435 14.8336Z" fill="#3766E4"/>
<path d="M12.798 12.498C12.6151 12.687 12.4205 12.7814 12.2142 12.7814C12.0096 12.7797 11.8155 12.6966 11.6318 12.5322L11.5185 12.4276L11.4102 12.3177C11.2399 12.1396 11.1514 11.9474 11.1446 11.7413C11.1395 11.5334 11.2268 11.3366 11.4064 11.1511C11.586 10.9655 11.7789 10.8728 11.9852 10.8728C12.1931 10.8711 12.3889 10.9524 12.5725 11.1168C12.6136 11.15 12.6522 11.184 12.6883 11.2189C12.7244 11.2538 12.7597 11.2913 12.7942 11.3313C12.9645 11.5095 13.053 11.7016 13.0597 11.9078C13.0682 12.1123 12.9809 12.309 12.798 12.498ZM12.6047 12.3109C12.7111 12.201 12.7607 12.0809 12.7535 11.9509C12.7463 11.8174 12.6799 11.6849 12.5543 11.5534C12.5388 11.535 12.507 11.5026 12.4589 11.456C12.4108 11.4095 12.3773 11.3787 12.3584 11.3638C12.2229 11.2426 12.0891 11.1814 11.9572 11.1801C11.8253 11.1755 11.7061 11.2282 11.5997 11.3382C11.4932 11.4481 11.4436 11.5698 11.4509 11.7033C11.4581 11.8334 11.5245 11.9642 11.6501 12.0957L11.7455 12.1931L11.8459 12.2853C11.9815 12.4065 12.1153 12.4694 12.2472 12.474C12.3791 12.4752 12.4983 12.4209 12.6047 12.3109Z" fill="#3766E4"/>
<path d="M15.0081 10.4246C14.989 10.439 14.9685 10.4455 14.9465 10.4442C14.925 10.4394 14.907 10.4276 14.8926 10.4085L13.8703 9.05472C13.8559 9.03564 13.8493 9.0151 13.8507 8.9931C13.854 8.96965 13.8652 8.95073 13.8842 8.93632L14.0044 8.84555C14.0254 8.8297 14.0467 8.82413 14.0682 8.82884C14.0902 8.8302 14.1092 8.84138 14.125 8.86236L14.2201 8.9883C14.2004 8.79947 14.284 8.63446 14.471 8.49326L14.5826 8.40897C14.6036 8.39312 14.6241 8.38659 14.6442 8.3894C14.6643 8.3922 14.6823 8.4041 14.6981 8.42508L14.7781 8.53098C14.7925 8.55006 14.799 8.5706 14.7977 8.5926C14.7948 8.6127 14.783 8.63067 14.762 8.64652L14.5988 8.76971C14.4939 8.84896 14.4339 8.94216 14.419 9.04933C14.4059 9.15505 14.4391 9.26038 14.5183 9.36533L15.1559 10.2096C15.1703 10.2287 15.1759 10.25 15.1726 10.2734C15.1679 10.295 15.156 10.3129 15.1369 10.3273L15.0081 10.4246Z" fill="#3766E4"/>
<path d="M18.2698 9.20835C18.0949 9.30207 17.9389 9.34765 17.8019 9.3451C17.6649 9.34254 17.554 9.31519 17.4691 9.26303C17.3863 9.20974 17.3302 9.15569 17.3008 9.1009C17.2907 9.08193 17.289 9.06112 17.2959 9.03846C17.3038 9.01791 17.3173 9.00256 17.3363 8.99239L17.4754 8.91787C17.4944 8.90771 17.5124 8.90346 17.5296 8.90511C17.5479 8.90887 17.568 8.92114 17.59 8.94192C17.7393 9.0789 17.9183 9.09151 18.127 8.97972C18.285 8.89504 18.3839 8.79865 18.4237 8.69056C18.4634 8.58247 18.4376 8.44307 18.3461 8.27236L18.2292 8.05423C18.1906 8.27568 18.0616 8.44511 17.8424 8.56254C17.619 8.68223 17.4131 8.70034 17.2246 8.61687C17.0382 8.53228 16.8832 8.38208 16.7594 8.16628L16.7088 8.07946L16.6663 7.99241C16.5563 7.77194 16.5177 7.5607 16.5505 7.35867C16.5843 7.15341 16.7129 6.99093 16.9363 6.87124C17.1576 6.75268 17.3739 6.74123 17.5852 6.8369L17.5123 6.70096C17.5011 6.67988 17.4978 6.65858 17.5025 6.63705C17.5094 6.6144 17.5233 6.59742 17.5444 6.58613L17.6803 6.5133C17.7014 6.50201 17.7222 6.50036 17.7428 6.50833C17.7654 6.51518 17.7824 6.52914 17.7937 6.55022L18.6151 8.08346C18.876 8.5703 18.7609 8.94526 18.2698 9.20835ZM17.7672 8.28548C17.9148 8.20644 18 8.09974 18.0229 7.96538C18.0469 7.82778 18.0259 7.68985 17.9599 7.55158C17.9519 7.53148 17.9332 7.49404 17.9038 7.43924C17.8756 7.38655 17.8553 7.35129 17.8431 7.33345C17.7645 7.20195 17.6618 7.10911 17.5352 7.05492C17.4095 6.99749 17.2728 7.0083 17.1253 7.08734C16.9736 7.16864 16.8889 7.27639 16.8713 7.4106C16.8547 7.54157 16.8838 7.68462 16.9588 7.83975L16.9997 7.92364L17.0486 8.0073C17.1362 8.15565 17.2397 8.26024 17.3591 8.32105C17.4794 8.37863 17.6155 8.36677 17.7672 8.28548Z" fill="#3766E4"/>
<path d="M21.2872 7.05968C21.0557 7.13647 20.8471 7.12633 20.6612 7.02928C20.4746 6.92996 20.3331 6.75775 20.2367 6.51263L20.1949 6.39803L20.161 6.28456C20.0933 6.03496 20.1046 5.81457 20.1949 5.62341C20.2851 5.43226 20.446 5.29828 20.6775 5.2215C20.9271 5.13869 21.1463 5.15414 21.3352 5.26782C21.5263 5.38076 21.667 5.57339 21.7574 5.84571L21.7777 5.90698C21.7852 5.92968 21.7837 5.9516 21.7731 5.97276C21.764 5.99089 21.7481 6.00372 21.7254 6.01125L20.5442 6.40307L20.5543 6.43371C20.6101 6.57896 20.6972 6.68985 20.8158 6.76639C20.9344 6.84293 21.063 6.85824 21.2014 6.81232C21.308 6.77694 21.3875 6.72791 21.4398 6.66523C21.4935 6.59952 21.5299 6.53833 21.5489 6.48166C21.5603 6.44765 21.5709 6.42649 21.5808 6.41819C21.5898 6.40762 21.608 6.39782 21.6352 6.38878L21.785 6.3391C21.8054 6.33232 21.8243 6.33235 21.8417 6.33918C21.8614 6.34526 21.8742 6.35737 21.8802 6.37553C21.8968 6.42546 21.8861 6.49576 21.8482 6.58643C21.8102 6.67711 21.7432 6.76736 21.647 6.8572C21.5524 6.94401 21.4325 7.0115 21.2872 7.05968ZM21.4171 5.85656L21.4137 5.84634C21.361 5.68749 21.275 5.57244 21.1557 5.50119C21.0363 5.42995 20.904 5.41841 20.7588 5.46659C20.6113 5.51552 20.5121 5.60384 20.4612 5.73155C20.4104 5.85925 20.4113 6.00253 20.464 6.16139L20.4674 6.1716L21.4171 5.85656Z" fill="#3766E4"/>
<path d="M24.6263 6.18971C24.2611 6.25273 24.043 6.07808 23.9718 5.66575L23.8084 4.71859L23.5292 4.76677C23.5056 4.77084 23.4855 4.76702 23.469 4.75532C23.4524 4.74362 23.4421 4.726 23.438 4.70243L23.4185 4.58934C23.4144 4.56578 23.4182 4.54571 23.4299 4.52913C23.4412 4.5102 23.4586 4.4987 23.4822 4.49464L23.7614 4.44646L23.6596 3.85624C23.6555 3.83268 23.6593 3.81261 23.671 3.79604C23.6823 3.77711 23.6997 3.76561 23.7233 3.76154L23.8788 3.73471C23.9024 3.73064 23.9226 3.73563 23.9396 3.74969C23.9585 3.76098 23.97 3.7784 23.9741 3.80197L24.076 4.39218L24.5142 4.31655C24.5378 4.31249 24.558 4.31748 24.575 4.33153C24.5939 4.34282 24.6054 4.36025 24.6095 4.38381L24.629 4.49691C24.6331 4.52047 24.6281 4.54074 24.614 4.55772C24.6023 4.5743 24.5847 4.58462 24.5612 4.58869L24.1229 4.66431L24.2821 5.58674C24.3028 5.7069 24.3373 5.79436 24.3856 5.84911C24.4362 5.90346 24.5087 5.9225 24.6029 5.90624L24.8185 5.86904C24.8421 5.86497 24.8623 5.86996 24.8793 5.88402C24.8959 5.89571 24.9062 5.91334 24.9103 5.9369L24.9304 6.05353C24.9345 6.07709 24.9309 6.09834 24.9196 6.11727C24.9079 6.13385 24.8902 6.14417 24.8667 6.14824L24.6263 6.18971Z" fill="#3766E4"/>
<path d="M26.7003 5.0195C26.6764 5.02054 26.6558 5.01426 26.6384 5.00066C26.6235 4.98695 26.6155 4.96815 26.6144 4.94427L26.6088 4.81528C26.6078 4.79139 26.6141 4.77197 26.6278 4.75701C26.6438 4.73956 26.6637 4.73032 26.6876 4.72927L27.7625 4.68237C27.7864 4.68133 27.8059 4.68886 27.821 4.70495C27.8383 4.71856 27.8475 4.7373 27.8485 4.76119L27.8542 4.89018C27.8552 4.91406 27.8477 4.93354 27.8316 4.9486C27.8179 4.96356 27.7991 4.97156 27.7752 4.9726L26.7003 5.0195Z" fill="#3766E4"/>
<path d="M29.3356 5.91301C29.3119 5.90996 29.2926 5.90025 29.2779 5.88389C29.2658 5.86546 29.2613 5.84439 29.2643 5.82067L29.4812 4.1346C29.4843 4.11088 29.4938 4.09283 29.5099 4.08043C29.5286 4.06596 29.5498 4.06026 29.5736 4.06331L29.723 4.08253C29.7467 4.08558 29.7646 4.09632 29.7767 4.11475C29.7891 4.13081 29.7937 4.1507 29.7907 4.17441L29.7751 4.29535C29.9236 4.15294 30.107 4.09577 30.3251 4.12384C30.586 4.1574 30.7569 4.29028 30.8379 4.52248C30.9077 4.4302 30.9985 4.36113 31.1105 4.31527C31.2248 4.26971 31.3472 4.25533 31.4776 4.27211C31.6721 4.29712 31.8224 4.38396 31.9287 4.53262C32.0349 4.68129 32.0718 4.8813 32.0395 5.13267L31.9072 6.16068C31.9042 6.1844 31.8933 6.20349 31.8746 6.21795C31.8585 6.23035 31.8386 6.23502 31.8149 6.23197L31.662 6.21229C31.6382 6.20924 31.619 6.19953 31.6042 6.18317C31.5921 6.16474 31.5876 6.14367 31.5907 6.11995L31.7188 5.12396C31.7432 4.93425 31.7215 4.79404 31.6536 4.70335C31.586 4.61028 31.4882 4.55551 31.3601 4.53904C31.2463 4.52439 31.1424 4.55442 31.0484 4.62911C30.9571 4.70174 30.8996 4.83053 30.8758 5.0155L30.7476 6.0115C30.7446 6.03521 30.7337 6.0543 30.7149 6.06877C30.6989 6.08116 30.679 6.08584 30.6553 6.08279L30.4988 6.06265C30.4751 6.0596 30.4558 6.04989 30.441 6.03353C30.429 6.0151 30.4244 5.99403 30.4275 5.97031L30.5556 4.97432C30.5797 4.78698 30.5556 4.64647 30.4833 4.55279C30.4133 4.45942 30.3179 4.40495 30.1969 4.38939C30.0831 4.37475 29.9794 4.40359 29.8857 4.47591C29.7944 4.54854 29.7368 4.67734 29.713 4.86231L29.5844 5.86186C29.5814 5.88557 29.5705 5.90466 29.5518 5.91913C29.5357 5.93152 29.5158 5.9362 29.4921 5.93315L29.3356 5.91301Z" fill="#3766E4"/>
<path d="M34.5041 6.98249C34.2727 6.9054 34.1116 6.77234 34.0209 6.58333C33.9309 6.39205 33.9206 6.16939 33.9902 5.91533L34.0253 5.79851L34.0661 5.68737C34.1614 5.44692 34.3023 5.27716 34.4891 5.17809C34.6758 5.07902 34.8849 5.06803 35.1163 5.14512C35.3658 5.22826 35.5321 5.3719 35.6153 5.57603C35.7008 5.78092 35.6982 6.01947 35.6075 6.29167L35.5871 6.35292C35.5795 6.3756 35.5651 6.39224 35.544 6.40282C35.5258 6.4119 35.5054 6.41266 35.4827 6.4051L34.3021 6.0117L34.2919 6.04232C34.2495 6.19203 34.253 6.33304 34.3021 6.46535C34.3513 6.59766 34.445 6.68687 34.5834 6.73297C34.69 6.76849 34.783 6.7768 34.8624 6.75789C34.9448 6.73746 35.0106 6.71024 35.0597 6.67621C35.0892 6.65579 35.1104 6.6452 35.1232 6.64444C35.1369 6.64142 35.1573 6.64444 35.1845 6.65351L35.3342 6.70339C35.3546 6.7102 35.3697 6.72153 35.3796 6.73741C35.3917 6.75404 35.3947 6.77143 35.3886 6.78958C35.372 6.83948 35.3214 6.88939 35.2367 6.9393C35.152 6.98922 35.0443 7.02136 34.9135 7.03574C34.7857 7.04861 34.6492 7.03086 34.5041 6.98249ZM35.3285 6.09663L35.3319 6.08643C35.3848 5.92764 35.3847 5.78399 35.3318 5.65546C35.2789 5.52693 35.1798 5.43848 35.0346 5.39011C34.8872 5.34098 34.7549 5.35234 34.6377 5.42418C34.5205 5.49602 34.4355 5.61133 34.3826 5.77012L34.3792 5.78033L35.3285 6.09663Z" fill="#3766E4"/>
<path d="M37.5305 7.15506C37.5091 7.14433 37.4942 7.1288 37.4857 7.10846C37.4793 7.0892 37.4815 7.06889 37.4922 7.04753L37.5501 6.93215C37.5609 6.91079 37.5759 6.89692 37.5951 6.89054C37.6176 6.88309 37.6395 6.88474 37.6609 6.89547L38.6223 7.37843C38.6437 7.38916 38.657 7.40523 38.6623 7.42662C38.6709 7.44696 38.6697 7.4678 38.659 7.48917L38.6011 7.60454C38.5903 7.62591 38.5743 7.63924 38.5529 7.64455C38.5336 7.65093 38.5133 7.64875 38.4919 7.63802L37.5305 7.15506Z" fill="#3766E4"/>
<path d="M39.3718 9.239C39.3522 9.22531 39.3396 9.2078 39.3341 9.18646C39.3319 9.16452 39.3376 9.14375 39.3513 9.12415L40.3243 7.73017C40.338 7.71057 40.3549 7.69899 40.3748 7.69544C40.3981 7.69129 40.4196 7.69606 40.4392 7.70975L40.5657 7.79802C40.5872 7.81307 40.5998 7.83058 40.6033 7.85056C40.6069 7.87053 40.6011 7.8913 40.5861 7.91287L40.4958 8.04227C40.6052 8.01078 40.7119 8.00212 40.8157 8.01628C40.9215 8.03181 41.0322 8.07994 41.1479 8.16068C41.3361 8.29206 41.4397 8.45479 41.4588 8.64888C41.4792 8.841 41.4203 9.03608 41.2821 9.2341L40.7012 10.0664C40.6875 10.086 40.669 10.0978 40.6457 10.102C40.6257 10.1055 40.6059 10.1005 40.5863 10.0868L40.4511 9.99236C40.4315 9.97868 40.4189 9.96116 40.4134 9.93982C40.4112 9.91788 40.4169 9.89711 40.4306 9.87751L40.9992 9.06289C41.0978 8.92173 41.1401 8.78798 41.1262 8.66166C41.1123 8.53534 41.0417 8.42771 40.9142 8.33875C40.7888 8.25117 40.6607 8.22157 40.5301 8.24995C40.4009 8.27637 40.2877 8.35918 40.1905 8.49838L39.6219 9.313C39.6082 9.33261 39.5897 9.34448 39.5664 9.34863C39.5464 9.35218 39.5266 9.34711 39.507 9.33343L39.3718 9.239Z" fill="#3766E4"/>
<path d="M42.592 11.8569C42.4052 11.6718 42.3131 11.4761 42.3155 11.2698C42.3197 11.0652 42.405 10.8721 42.5716 10.6904L42.6776 10.5784L42.7887 10.4714C42.9689 10.3032 43.1621 10.2169 43.3683 10.2126C43.5763 10.21 43.7719 10.2996 43.9553 10.4814C44.1387 10.6632 44.2292 10.8572 44.2268 11.0635C44.226 11.2714 44.1423 11.4662 43.9758 11.6479C43.9421 11.6886 43.9076 11.7268 43.8723 11.7624C43.837 11.7981 43.7991 11.8329 43.7586 11.8669C43.5785 12.0351 43.3853 12.1213 43.1791 12.1256C42.9745 12.1316 42.7788 12.042 42.592 11.8569ZM42.7814 11.6659C42.8901 11.7736 43.0095 11.8246 43.1396 11.819C43.2732 11.8133 43.4065 11.7485 43.5395 11.6244C43.558 11.6091 43.5908 11.5777 43.6379 11.5302C43.6851 11.4826 43.7162 11.4495 43.7313 11.4308C43.8542 11.2967 43.917 11.1637 43.9198 11.0319C43.9259 10.9 43.8747 10.7801 43.766 10.6724C43.6573 10.5647 43.5362 10.5137 43.4027 10.5193C43.2725 10.525 43.1409 10.5898 43.0079 10.7138L42.9094 10.8081L42.816 10.9074C42.6932 11.0415 42.6287 11.1746 42.6225 11.3065C42.6198 11.4383 42.6727 11.5581 42.7814 11.6659Z" fill="#3766E4"/>
<path d="M45.0156 14.6027C44.7958 14.3043 44.8543 14.0311 45.1912 13.7829L45.965 13.2128L45.797 12.9847C45.7828 12.9655 45.7773 12.9458 45.7803 12.9257C45.7833 12.9057 45.7945 12.8886 45.8137 12.8744L45.9061 12.8063C45.9254 12.7921 45.945 12.7866 45.9651 12.7896C45.9871 12.7912 46.0052 12.8017 46.0193 12.8209L46.1874 13.049L46.6696 12.6938C46.6889 12.6796 46.7085 12.6741 46.7286 12.6771C46.7506 12.6787 46.7686 12.6892 46.7828 12.7084L46.8764 12.8355C46.8906 12.8547 46.8952 12.8751 46.8902 12.8965C46.8886 12.9185 46.8782 12.9366 46.8589 12.9508L46.3767 13.306L46.6405 13.6641C46.6547 13.6833 46.6593 13.7037 46.6543 13.7252C46.6527 13.7471 46.6422 13.7652 46.623 13.7794L46.5306 13.8475C46.5113 13.8617 46.491 13.8663 46.4695 13.8613C46.4494 13.8583 46.4323 13.8471 46.4181 13.8279L46.1544 13.4698L45.4007 14.025C45.3025 14.0973 45.2398 14.1673 45.2124 14.235C45.1865 14.3046 45.2019 14.3779 45.2586 14.4549L45.3883 14.631C45.4025 14.6503 45.4071 14.6706 45.4022 14.6921C45.3991 14.7122 45.388 14.7293 45.3687 14.7435L45.2734 14.8137C45.2542 14.8278 45.2336 14.8341 45.2116 14.8325C45.1915 14.8295 45.1744 14.8183 45.1602 14.7991L45.0156 14.6027Z" fill="#3766E4"/>
<path d="M25.0724 49.5504C25.0962 49.553 25.1156 49.5623 25.1307 49.5783C25.1432 49.5965 25.1482 49.6175 25.1456 49.6412L24.9856 51.139L25.2923 51.1718C25.316 51.1743 25.3355 51.1836 25.3506 51.1997C25.3633 51.2154 25.3684 51.2352 25.3659 51.259L25.3537 51.3731C25.3512 51.3969 25.342 51.4151 25.3262 51.4279C25.3078 51.4428 25.2867 51.4489 25.2629 51.4464L24.9562 51.4136L24.9372 51.5919C24.9166 51.7845 24.8543 51.9281 24.7504 52.0228C24.6439 52.1196 24.4837 52.1566 24.2697 52.1337L24.0593 52.1112C24.0355 52.1087 24.0174 52.0983 24.0049 52.0802C23.9898 52.0641 23.9835 52.0442 23.986 52.0205L23.9982 51.9063C24.0008 51.8826 24.0111 51.8644 24.0293 51.8519C24.0451 51.8392 24.0649 51.8341 24.0886 51.8367L24.2919 51.8584C24.4013 51.8701 24.4804 51.8497 24.5293 51.7972C24.5782 51.7447 24.609 51.659 24.6217 51.5401L24.6388 51.3797L24.1788 51.3305C24.155 51.328 24.1369 51.3176 24.1244 51.2994C24.1093 51.2834 24.103 51.2635 24.1056 51.2397L24.1177 51.1256C24.1203 51.1018 24.1306 51.0837 24.1488 51.0712C24.1646 51.0585 24.1844 51.0534 24.2082 51.0559L24.6682 51.1051L24.8283 49.6073C24.8308 49.5835 24.8413 49.5642 24.8597 49.5494C24.8755 49.5366 24.8953 49.5315 24.919 49.5341L25.0724 49.5504Z" fill="#3766E4"/>
<path d="M22.0781 48.9944C22.3326 49.061 22.5104 49.1841 22.6117 49.3639C22.7107 49.543 22.7336 49.7529 22.6805 49.9935L22.645 50.1436L22.6025 50.2919C22.5309 50.5278 22.4069 50.6992 22.2306 50.8063C22.052 50.9128 21.8378 50.9334 21.588 50.868C21.3381 50.8027 21.1626 50.6801 21.0613 50.5004C20.9578 50.3201 20.9325 50.1096 20.9856 49.8689C20.9943 49.8168 21.005 49.7665 21.0177 49.7179C21.0304 49.6693 21.0457 49.6202 21.0637 49.5705C21.1352 49.3347 21.2592 49.1632 21.4355 49.0561C21.6095 48.9484 21.8237 48.9279 22.0781 48.9944ZM22.0101 49.2546C21.862 49.2159 21.7331 49.2316 21.6233 49.3017C21.5106 49.3736 21.4278 49.4965 21.3749 49.6705C21.3665 49.693 21.3538 49.7367 21.3369 49.8014C21.32 49.8662 21.3096 49.9104 21.3059 49.9342C21.2668 50.1118 21.2791 50.2584 21.3428 50.3739C21.4036 50.4911 21.508 50.5691 21.656 50.6078C21.8041 50.6465 21.9345 50.63 22.0472 50.5581C22.157 50.488 22.2383 50.366 22.2913 50.192L22.3292 50.061L22.3602 49.9283C22.3993 49.7507 22.3884 49.6032 22.3277 49.486C22.264 49.3705 22.1581 49.2934 22.0101 49.2546Z" fill="#3766E4"/>
<path d="M19.1867 48.0869C19.2087 48.0964 19.2244 48.1111 19.234 48.131C19.2405 48.152 19.239 48.1735 19.2294 48.1955L18.5519 49.7507C18.5424 49.7726 18.5277 49.7884 18.5079 49.798C18.4858 49.8066 18.4638 49.8062 18.4419 49.7966L18.3038 49.7365C18.2797 49.726 18.2644 49.7102 18.258 49.6891C18.2483 49.6693 18.2488 49.6473 18.2593 49.6232L18.3223 49.4785C18.1675 49.5884 17.9827 49.5966 17.7679 49.503L17.6397 49.4472C17.6155 49.4367 17.5998 49.422 17.5924 49.4031C17.5849 49.3842 17.5865 49.3627 17.597 49.3386L17.65 49.2169C17.6595 49.195 17.6742 49.1792 17.6941 49.1696C17.7129 49.1622 17.7344 49.1638 17.7585 49.1743L17.946 49.2559C18.0665 49.3084 18.1771 49.3149 18.2778 49.2753C18.3764 49.2348 18.4519 49.1542 18.5044 49.0336L18.9269 48.0637C18.9365 48.0418 18.9523 48.0265 18.9743 48.0178C18.9954 48.0113 19.0169 48.0129 19.0388 48.0224L19.1867 48.0869Z" fill="#3766E4"/>
<path d="M16.5258 45.8424C16.6933 45.9488 16.8096 46.0623 16.8746 46.1829C16.9397 46.3035 16.9703 46.4136 16.9666 46.5132C16.9608 46.6115 16.9412 46.6868 16.9079 46.7393C16.8964 46.7575 16.879 46.7691 16.8559 46.7743C16.8341 46.7774 16.8141 46.7732 16.796 46.7617L16.6628 46.6771C16.6446 46.6656 16.632 46.6519 16.625 46.6362C16.6193 46.6184 16.6201 46.5948 16.6274 46.5655C16.6735 46.3681 16.5966 46.206 16.3968 46.0791C16.2454 45.983 16.1128 45.9441 15.9992 45.9626C15.8855 45.981 15.7767 46.072 15.6729 46.2355L15.5403 46.4444C15.7522 46.3693 15.9631 46.3985 16.173 46.5318C16.3869 46.6677 16.5038 46.8382 16.5236 47.0434C16.5414 47.2473 16.4867 47.4561 16.3595 47.6698L16.3087 47.7565L16.2537 47.8364C16.1157 48.0404 15.9506 48.1777 15.7584 48.2483C15.563 48.3197 15.3584 48.2874 15.1444 48.1515C14.9325 48.0169 14.8163 47.8341 14.7959 47.6031L14.7133 47.7333C14.7004 47.7535 14.6835 47.7668 14.6624 47.7732C14.6393 47.7784 14.6177 47.7745 14.5975 47.7617L14.4673 47.6791C14.4471 47.6662 14.4355 47.6489 14.4323 47.6271C14.4272 47.604 14.431 47.5824 14.4438 47.5622L15.3763 46.0938C15.6723 45.6276 16.0555 45.5438 16.5258 45.8424ZM15.9685 46.7333C15.8273 46.6436 15.6925 46.6217 15.5641 46.6677C15.4325 46.7144 15.3227 46.8004 15.2346 46.9257C15.221 46.9426 15.1976 46.9773 15.1643 47.0298C15.1322 47.0802 15.1114 47.1152 15.1019 47.1346C15.0259 47.2677 14.9954 47.4027 15.0104 47.5396C15.0221 47.6773 15.0986 47.7911 15.2399 47.8808C15.3852 47.9731 15.5206 47.9939 15.6462 47.9434C15.7685 47.8936 15.8788 47.7979 15.9771 47.6564L16.0301 47.5797L16.079 47.496C16.1652 47.3468 16.2055 47.2053 16.1999 47.0714C16.191 46.9383 16.1139 46.8256 15.9685 46.7333Z" fill="#3766E4"/>
<path d="M13.1726 44.2685C13.3531 44.4325 13.4468 44.6192 13.4535 44.8288C13.4585 45.0401 13.378 45.248 13.2118 45.4523L13.1325 45.545L13.0502 45.6302C12.866 45.8117 12.6685 45.9101 12.4576 45.9253C12.2468 45.9405 12.0511 45.8661 11.8706 45.7022C11.6759 45.5253 11.5817 45.3268 11.588 45.1064C11.5926 44.8845 11.6913 44.6673 11.8842 44.4549L11.9276 44.4071C11.9437 44.3894 11.9635 44.38 11.9872 44.3789C12.0074 44.3779 12.0264 44.3854 12.0441 44.4015L12.9654 45.2382L12.9871 45.2143C13.0862 45.0944 13.1401 44.9641 13.1485 44.8232C13.157 44.6823 13.1072 44.5628 12.9992 44.4647C12.9161 44.3892 12.8343 44.344 12.7541 44.3293C12.6704 44.3147 12.5993 44.313 12.5406 44.3243C12.5053 44.3311 12.4817 44.3322 12.4696 44.3277C12.456 44.325 12.4385 44.314 12.4173 44.2947L12.3004 44.1886C12.2845 44.1741 12.2753 44.1577 12.2727 44.1392C12.2683 44.1191 12.2726 44.1019 12.2854 44.0878C12.3208 44.0488 12.3873 44.0236 12.4849 44.0122C12.5825 44.0007 12.6941 44.0148 12.8196 44.0545C12.9416 44.0943 13.0593 44.1656 13.1726 44.2685ZM12.0607 44.746L12.0534 44.754C11.9409 44.8779 11.8829 45.0093 11.8795 45.1483C11.876 45.2872 11.9309 45.4081 12.0442 45.511C12.1592 45.6155 12.2848 45.6585 12.4211 45.6401C12.5573 45.6217 12.6816 45.5506 12.7942 45.4267L12.8014 45.4187L12.0607 44.746Z" fill="#3766E4"/>
<path d="M10.7754 41.7867C11.0096 42.0739 10.9646 42.3497 10.6403 42.6141L9.89536 43.2215L10.0744 43.4411C10.0895 43.4596 10.096 43.479 10.094 43.4992C10.0919 43.5194 10.0817 43.537 10.0631 43.5521L9.97417 43.6246C9.95564 43.6398 9.93629 43.6463 9.9161 43.6442C9.89407 43.6437 9.87549 43.6342 9.86038 43.6156L9.68134 43.396L9.21715 43.7745C9.19862 43.7896 9.17927 43.7962 9.15908 43.7941C9.13704 43.7936 9.11847 43.784 9.10336 43.7655L9.00364 43.6432C8.98853 43.6247 8.98293 43.6046 8.98683 43.5829C8.98738 43.5608 8.99691 43.5423 9.01544 43.5272L9.47963 43.1487L9.19859 42.804C9.18348 42.7855 9.17788 42.7654 9.18179 42.7437C9.18233 42.7216 9.19187 42.703 9.2104 42.6879L9.29934 42.6154C9.31787 42.6003 9.33799 42.5947 9.35968 42.5986C9.37986 42.6007 9.39751 42.611 9.41262 42.6295L9.69365 42.9741L10.4191 42.3826C10.5136 42.3056 10.5729 42.2326 10.5969 42.1636C10.6194 42.0928 10.6004 42.0204 10.54 41.9463L10.4017 41.7767C10.3866 41.7582 10.381 41.7381 10.3849 41.7164C10.387 41.6962 10.3973 41.6785 10.4158 41.6634L10.5075 41.5886C10.526 41.5735 10.5463 41.5663 10.5684 41.5668C10.5885 41.5688 10.6062 41.5791 10.6213 41.5977L10.7754 41.7867Z" fill="#3766E4"/>
<path d="M8.73775 40.5544C8.75038 40.5747 8.75503 40.5957 8.7517 40.6175C8.7471 40.6372 8.73465 40.6534 8.71435 40.6661L8.60474 40.7343C8.58444 40.7469 8.56441 40.751 8.54465 40.7464C8.5216 40.741 8.50376 40.7282 8.49112 40.7079L7.92255 39.7944C7.90991 39.7741 7.90691 39.7535 7.91354 39.7325C7.91687 39.7107 7.92869 39.6935 7.94899 39.6808L8.0586 39.6126C8.07889 39.6 8.09956 39.597 8.12058 39.6036C8.14034 39.6082 8.15654 39.6206 8.16917 39.6409L8.73775 40.5544Z" fill="#3766E4"/>
<path d="M8.22227 37.8198C8.23126 37.842 8.23225 37.8635 8.22524 37.8844C8.21512 37.904 8.19899 37.9183 8.17683 37.9273L6.60144 38.5661C6.57929 38.575 6.55886 38.5756 6.54018 38.5677C6.51838 38.5585 6.50299 38.5428 6.494 38.5206L6.4374 38.381C6.42842 38.3589 6.42898 38.338 6.4391 38.3184C6.44701 38.2997 6.46204 38.2859 6.4842 38.2769L6.5972 38.2311C6.40023 38.1716 6.26041 38.04 6.17776 37.8361C6.07893 37.5924 6.11077 37.3782 6.27329 37.1937C6.15867 37.1782 6.0539 37.133 5.95897 37.058C5.86315 36.9807 5.79053 36.8811 5.74111 36.7593C5.66744 36.5776 5.66929 36.404 5.74665 36.2385C5.82401 36.0729 5.98013 35.9425 6.21499 35.8473L7.17551 35.4578C7.19767 35.4488 7.21965 35.449 7.24145 35.4582C7.26013 35.4661 7.27397 35.4811 7.28295 35.5033L7.3409 35.6462C7.34989 35.6683 7.35088 35.6899 7.34387 35.7108C7.33375 35.7304 7.31761 35.7446 7.29546 35.7536L6.36485 36.131C6.18759 36.2029 6.07612 36.2906 6.03043 36.3943C5.98253 36.4989 5.98284 36.611 6.03135 36.7306C6.07448 36.837 6.15165 36.9127 6.26286 36.958C6.37095 37.0018 6.51142 36.9887 6.68424 36.9187L7.61485 36.5413C7.63701 36.5323 7.65899 36.5325 7.68079 36.5417C7.69947 36.5496 7.71331 36.5646 7.72229 36.5868L7.78159 36.733C7.79057 36.7552 7.79156 36.7767 7.78456 36.7976C7.77444 36.8172 7.7583 36.8315 7.73614 36.8404L6.80553 37.2178C6.63049 37.2888 6.51992 37.3788 6.47381 37.4878C6.42681 37.5945 6.42622 37.7044 6.47204 37.8174C6.51516 37.9238 6.59122 38 6.70022 38.0461C6.80832 38.09 6.94878 38.0769 7.12161 38.0068L8.05554 37.6281C8.0777 37.6192 8.09967 37.6193 8.12147 37.6285C8.14016 37.6364 8.15399 37.6514 8.16298 37.6736L8.22227 37.8198Z" fill="#3766E4"/>
<path d="M6.61667 32.7921C6.6631 33.0315 6.62625 33.2372 6.50614 33.409C6.38369 33.5814 6.19473 33.6996 5.93926 33.7637L5.82024 33.7905L5.70336 33.8095C5.44713 33.8446 5.23002 33.8051 5.05203 33.691C4.87405 33.577 4.76184 33.4002 4.71541 33.1608C4.66534 32.9026 4.70881 32.6872 4.8458 32.5145C4.98234 32.3394 5.19145 32.2246 5.47312 32.17L5.53649 32.1577C5.55996 32.1531 5.58151 32.1575 5.60112 32.1707C5.61794 32.1821 5.62862 32.1995 5.63317 32.223L5.87009 33.4447L5.90178 33.4386C6.05298 33.4019 6.17415 33.3297 6.26528 33.2219C6.35641 33.1142 6.38809 32.9887 6.36033 32.8455C6.33894 32.7352 6.30051 32.6501 6.24506 32.5902C6.18681 32.5284 6.1308 32.4845 6.07703 32.4584C6.04476 32.4427 6.02515 32.4295 6.01818 32.4187C6.00886 32.4083 6.00147 32.389 5.99601 32.3608L5.96597 32.2059C5.96187 32.1848 5.96432 32.1661 5.97333 32.1497C5.98188 32.131 5.99554 32.1198 6.01432 32.1162C6.06596 32.1062 6.13431 32.1258 6.21936 32.1751C6.30441 32.2243 6.38531 32.3024 6.46206 32.4093C6.536 32.5143 6.58754 32.6419 6.61667 32.7921ZM5.44018 32.5088L5.42962 32.5109C5.26531 32.5427 5.14017 32.6133 5.05419 32.7225C4.96821 32.8317 4.93978 32.9614 4.96891 33.1117C4.9985 33.2642 5.07335 33.3739 5.19347 33.4407C5.31359 33.5076 5.4558 33.525 5.62011 33.4932L5.63067 33.4911L5.44018 32.5088Z" fill="#3766E4"/>
<path d="M5.28118 30.0707C5.28232 30.0946 5.27613 30.1153 5.2626 30.1327C5.24895 30.1477 5.23019 30.1558 5.2063 30.1569L5.07734 30.1631C5.05346 30.1642 5.03401 30.1579 5.01899 30.1443C5.00148 30.1284 4.99215 30.1085 4.99101 30.0846L4.93975 29.0099C4.93861 28.986 4.94606 28.9665 4.9621 28.9514C4.97563 28.934 4.99434 28.9247 5.01822 28.9236L5.14718 28.9174C5.17107 28.9163 5.19057 28.9237 5.2057 28.9397C5.22071 28.9534 5.22879 28.9722 5.22992 28.996L5.28118 30.0707Z" fill="#3766E4"/>
<path d="M6.19271 27.4436C6.19042 27.4674 6.18132 27.4869 6.16544 27.5022C6.1474 27.5149 6.12648 27.52 6.10268 27.5177L4.41058 27.3544C4.38678 27.3521 4.36843 27.3432 4.35553 27.3275C4.34047 27.3092 4.3341 27.2882 4.33639 27.2644L4.35121 27.1109C4.35374 27.0847 4.36283 27.0652 4.37849 27.0523C4.39414 27.0394 4.41506 27.0342 4.44124 27.0367L4.59831 27.0519C4.51715 26.972 4.45725 26.8833 4.41861 26.7859C4.3802 26.6861 4.36777 26.566 4.38132 26.4256C4.40337 26.1971 4.49426 26.027 4.65399 25.9151C4.81134 25.8029 5.0102 25.7585 5.25056 25.7817L6.26083 25.8792C6.28463 25.8815 6.30406 25.8918 6.31911 25.91C6.33201 25.9257 6.33731 25.9454 6.33501 25.9692L6.31916 26.1334C6.31687 26.1572 6.30777 26.1768 6.29189 26.192C6.27385 26.2047 6.25293 26.2099 6.22913 26.2076L5.24029 26.1122C5.06893 26.0956 4.93164 26.1244 4.8284 26.1985C4.72517 26.2726 4.66608 26.387 4.65115 26.5417C4.63645 26.694 4.67353 26.8201 4.76237 26.92C4.84884 27.0196 4.97656 27.0776 5.14553 27.0939L6.13438 27.1893C6.15818 27.1916 6.1776 27.2019 6.19266 27.2202C6.20556 27.2358 6.21086 27.2555 6.20856 27.2793L6.19271 27.4436Z" fill="#3766E4"/>
<path d="M6.89246 23.3528C6.82288 23.6065 6.69763 23.7828 6.51672 23.882C6.33644 23.9788 6.12629 23.9992 5.88626 23.9433L5.73659 23.9059L5.58882 23.8617C5.35386 23.7873 5.18388 23.6613 5.07888 23.4838C4.97451 23.3039 4.95648 23.0894 5.02481 22.8404C5.09313 22.5914 5.21774 22.4173 5.39866 22.3182C5.5802 22.2168 5.79098 22.194 6.03101 22.25C6.083 22.2593 6.1332 22.2706 6.18163 22.2838C6.23005 22.2971 6.27899 22.313 6.32845 22.3316C6.56341 22.4059 6.73339 22.5319 6.83839 22.7095C6.94403 22.8847 6.96205 23.0992 6.89246 23.3528ZM6.63307 23.2817C6.67355 23.1341 6.65938 23.005 6.59056 22.8944C6.52006 22.7808 6.39815 22.6965 6.22481 22.6416C6.20238 22.6329 6.15889 22.6197 6.09433 22.602C6.02977 22.5843 5.98564 22.5735 5.96195 22.5694C5.78482 22.5283 5.63811 22.5389 5.52184 22.6012C5.4039 22.6605 5.32469 22.764 5.2842 22.9116C5.24372 23.0592 5.25872 23.1897 5.32922 23.3033C5.39804 23.4139 5.51912 23.4967 5.69246 23.5517L5.82294 23.5912L5.95532 23.6238C6.13245 23.665 6.27999 23.6559 6.39793 23.5965C6.5142 23.5342 6.59258 23.4292 6.63307 23.2817Z" fill="#3766E4"/>
<path d="M8.09473 19.8934C7.94269 20.2314 7.67588 20.3145 7.2943 20.1429L6.41773 19.7486L6.3015 20.007C6.29169 20.0288 6.2773 20.0433 6.25834 20.0505C6.23937 20.0577 6.21898 20.0564 6.19718 20.0466L6.09251 19.9995C6.07071 19.9897 6.05621 19.9753 6.04901 19.9563C6.03963 19.9364 6.03985 19.9155 6.04965 19.8937L6.16589 19.6353L5.61967 19.3896C5.59787 19.3798 5.58336 19.3654 5.57617 19.3464C5.56679 19.3265 5.567 19.3056 5.57681 19.2838L5.64155 19.1399C5.65136 19.1181 5.66684 19.1041 5.68798 19.0978C5.70793 19.0885 5.72881 19.0887 5.75062 19.0985L6.29683 19.3442L6.47927 18.9386C6.48908 18.9168 6.50456 18.9028 6.52571 18.8966C6.54566 18.8872 6.56653 18.8874 6.58834 18.8972L6.693 18.9443C6.71481 18.9541 6.72882 18.9696 6.73504 18.9907C6.74223 19.0097 6.74093 19.0301 6.73112 19.0519L6.54868 19.4575L7.40234 19.8415C7.51355 19.8915 7.60535 19.9118 7.67773 19.9024C7.7511 19.8909 7.8074 19.8415 7.84664 19.7543L7.93639 19.5548C7.94619 19.5329 7.96167 19.5189 7.98282 19.5127C8.00179 19.5055 8.02218 19.5068 8.04398 19.5166L8.15192 19.5652C8.17372 19.575 8.18931 19.5899 8.19869 19.6098C8.20589 19.6288 8.20458 19.6492 8.19477 19.671L8.09473 19.8934Z" fill="#3766E4"/>
<path d="M48.5543 16.2502L48.5418 16.2676C48.2542 16.6687 48.2187 17.1853 48.4505 17.5972L48.4606 17.6151L48.4404 17.6096C47.9747 17.4826 47.4636 17.6318 47.1251 17.9936L47.1105 18.0093L47.1104 17.9885C47.1103 17.509 46.8299 17.0845 46.3889 16.8962L46.3698 16.888L46.39 16.8807C46.8555 16.7113 47.1933 16.2998 47.2593 15.8216L47.2621 15.8009L47.2746 15.8171C47.5625 16.192 48.0517 16.3621 48.5334 16.2549L48.5543 16.2502Z" fill="#3766E4"/>
<path d="M7.28945 16.2502L7.30192 16.2676C7.58956 16.6687 7.62504 17.1853 7.39323 17.5972L7.38318 17.6151L7.40337 17.6096C7.86904 17.4826 8.38013 17.6318 8.71862 17.9936L8.73329 18.0093L8.7333 17.9885C8.73346 17.509 9.01385 17.0845 9.45486 16.8962L9.47398 16.888L9.45379 16.8807C8.98822 16.7113 8.65042 16.2998 8.58449 15.8216L8.58163 15.8009L8.56915 15.8171C8.28125 16.192 7.79209 16.3621 7.31033 16.2549L7.28945 16.2502Z" fill="#3766E4"/>
<path d="M28.0305 52.1158L28.0381 52.0959C28.2142 51.6348 28.6258 51.3204 29.0972 51.2868L29.1176 51.2853L29.1019 51.2715C28.7393 50.953 28.5821 50.4443 28.6974 49.9624L28.7024 49.9416L28.685 49.953C28.2848 50.2172 27.7762 50.2172 27.376 49.953L27.3586 49.9416L27.3636 49.9624C27.4789 50.4443 27.3217 50.953 26.9591 51.2715L26.9434 51.2853L26.9638 51.2868C27.4352 51.3204 27.8468 51.6348 28.0229 52.0959L28.0305 52.1158Z" fill="#3766E4"/>
</svg>
