<svg width="56" height="58" viewBox="0 0 56 58" fill="none" xmlns="http://www.w3.org/2000/svg">
<circle cx="28.0988" cy="28.684" r="21.6593" fill="#3766E4"/>
<path fill-rule="evenodd" clip-rule="evenodd" d="M37.4968 21.1976C37.114 22.0422 36.6096 22.8498 35.9811 23.5956C34.5207 25.3283 32.6125 26.4636 30.5677 26.975C30.546 26.9805 30.524 26.9861 30.5015 26.9918C30.0271 27.112 29.3841 27.2749 28.7831 26.7728C28.1701 26.2607 28.2204 25.6777 28.2617 25.198C28.2659 25.1503 28.2699 25.1036 28.2732 25.0581C28.424 22.9644 29.2156 20.8963 30.6759 19.1636C31.3013 18.4216 32.0085 17.7894 32.7731 17.2689C33.7762 17.5299 34.7387 18.011 35.5867 18.7195C36.4261 19.4207 37.0646 20.2705 37.4968 21.1976ZM18.643 27.6563C17.7242 27.9892 16.8818 28.4375 16.1261 28.9785C16.0348 29.9965 16.161 31.0503 16.5358 32.0754C16.9144 33.1111 17.5063 34.0069 18.244 34.7323C19.1675 34.6621 20.0974 34.4667 21.0117 34.1354C23.1466 33.3618 24.8707 31.9648 26.0528 30.2267C26.0785 30.189 26.1054 30.1505 26.1329 30.1113C26.4096 29.7165 26.746 29.2366 26.4723 28.4879C26.204 27.754 25.5653 27.5749 25.0941 27.4429C25.0718 27.4366 25.0498 27.4305 25.0283 27.4244C23.0006 26.8494 20.7779 26.8826 18.643 27.6563ZM39.7774 28.9785C39.0217 28.4375 38.1793 27.9892 37.2604 27.6563C35.1255 26.8826 32.9029 26.8494 30.8752 27.4244C30.8685 27.4263 30.8618 27.4282 30.855 27.4301C30.8401 27.4343 30.8249 27.4385 30.8096 27.4428C30.3384 27.5749 29.6995 27.754 29.4312 28.4879C29.1575 29.2366 29.4938 29.7165 29.7706 30.1113C29.7981 30.1505 29.825 30.189 29.8507 30.2267C31.0328 31.9648 32.7569 33.3618 34.8918 34.1354C35.806 34.4667 36.736 34.6621 37.6595 34.7323C38.3972 34.0069 38.9891 33.1111 39.3677 32.0754C39.7425 31.0503 39.8686 29.9965 39.7774 28.9785ZM31.0381 39.423C31.2902 38.531 31.4252 37.5896 31.4252 36.616C31.4252 34.3541 30.6963 32.2633 29.4602 30.5629C29.4517 30.5512 29.4432 30.5394 29.4345 30.5275L29.4202 30.5077C29.1344 30.112 28.747 29.5757 27.9625 29.5757C27.1622 29.5757 26.8244 30.0544 26.5464 30.4484C26.5187 30.4876 26.4917 30.5259 26.4648 30.5629C25.2287 32.2633 24.4998 34.3541 24.4998 36.616C24.4998 37.5847 24.6334 38.5215 24.8831 39.4095C25.8201 39.8516 26.868 40.099 27.975 40.099C29.0707 40.099 30.1085 39.8566 31.0381 39.423Z" fill="white"/>
<path fill-rule="evenodd" clip-rule="evenodd" d="M18.863 22.0349C18.707 21.7606 18.5648 21.4812 18.4362 21.1976C18.8685 20.2705 19.5069 19.4207 20.3463 18.7195C21.1943 18.011 22.1568 17.5299 23.16 17.2689C23.3977 17.4308 23.6299 17.6034 23.8559 17.7868C22.6938 17.9102 21.5582 18.3822 20.6178 19.2131C19.7356 19.9926 19.148 20.9794 18.863 22.0349ZM19.1736 22.5458C19.3872 21.4158 19.9646 20.3456 20.8947 19.5238C21.8761 18.6567 23.0867 18.2106 24.3037 18.1721C24.5557 18.4018 24.7986 18.6458 25.0312 18.9043C23.7468 18.7535 22.4064 19.1281 21.3635 20.0496C20.3593 20.9369 19.828 22.1571 19.7879 23.396C19.5667 23.1201 19.362 22.8363 19.1736 22.5458ZM20.2171 23.8982C20.5065 24.2162 20.8117 24.5123 21.1304 24.7862C20.633 23.4494 20.9746 21.8886 22.1091 20.8861C23.2558 19.873 24.875 19.7284 26.1556 20.4032C25.9425 20.0583 25.707 19.7225 25.4487 19.3976C24.1436 19.0969 22.7177 19.4085 21.6405 20.3603C20.5936 21.2852 20.1106 22.6076 20.2171 23.8982ZM26.616 21.2313C25.4366 20.154 23.6075 20.1176 22.386 21.1968C21.1537 22.2857 20.9804 24.1211 21.9432 25.4172C22.6272 25.8954 23.3588 26.2833 24.1203 26.5792C23.6053 26.1409 23.1143 25.6621 22.6518 25.1432C22.6449 25.1355 22.6386 25.1274 22.6331 25.1189C22.6254 25.1125 22.618 25.1054 22.6111 25.0976C21.7375 24.1175 21.854 22.6069 22.8548 21.7227C23.8534 20.8403 25.3695 20.9025 26.244 21.8766C26.2718 21.8883 26.2976 21.9062 26.3189 21.9302C26.6146 22.2619 26.9277 22.5691 27.2557 22.8516C27.0904 22.2995 26.8774 21.7573 26.616 21.2313ZM27.4343 23.5332C26.9287 23.1451 26.4521 22.7046 26.0124 22.2121C25.9846 22.2004 25.9589 22.1825 25.9375 22.1585C25.2237 21.3578 23.9681 21.2944 23.1317 22.0333C22.2954 22.7723 22.2094 24.0212 22.9231 24.8219C22.93 24.8297 22.9363 24.8378 22.9418 24.8462C22.9495 24.8527 22.9569 24.8598 22.9638 24.8675C23.6678 25.6573 24.4396 26.3514 25.2629 26.9489C25.297 26.9578 25.3311 26.9665 25.3653 26.975C25.387 26.9805 25.4091 26.9861 25.4316 26.9918C25.7746 27.0787 26.2057 27.1879 26.6453 27.052C25.4951 26.359 24.4286 25.4842 23.4893 24.4304C23.0012 23.8828 23.0506 23.045 23.6004 22.5592C24.1503 22.0734 24.9917 22.1241 25.4798 22.6717C26.1222 23.3924 26.8384 24.0091 27.6069 24.5204C27.5656 24.1896 27.5081 23.8601 27.4343 23.5332ZM27.6592 25.0489C26.7537 24.4845 25.9129 23.7833 25.1677 22.9474C24.8323 22.571 24.2545 22.5366 23.8774 22.8699C23.5002 23.2031 23.4658 23.7783 23.8013 24.1547C24.7719 25.2436 25.8825 26.1352 27.082 26.8266C27.1047 26.8096 27.1274 26.7917 27.1499 26.7728C27.3436 26.611 27.4711 26.4422 27.5535 26.2717C26.3833 25.6101 25.3005 24.7487 24.3573 23.6906C24.2809 23.6049 24.2887 23.4736 24.3749 23.3975C24.4611 23.3213 24.5929 23.3291 24.6694 23.4149C25.5587 24.4127 26.5765 25.2295 27.6758 25.8627C27.7087 25.6312 27.6892 25.405 27.6713 25.198C27.6672 25.1503 27.6632 25.1036 27.6599 25.0581C27.6597 25.055 27.6594 25.052 27.6592 25.0489Z" fill="white"/>
<path d="M27.9523 26.5423L27.9629 26.5687C28.2073 27.1772 28.7784 27.5922 29.4327 27.6366L29.461 27.6385L29.4392 27.6567C28.936 28.0772 28.7179 28.7486 28.8778 29.3846L28.8848 29.4121L28.8607 29.397C28.3053 29.0483 27.5994 29.0483 27.044 29.397L27.0199 29.4121L27.0269 29.3846C27.1868 28.7486 26.9687 28.0772 26.4655 27.6567L26.4436 27.6385L26.472 27.6366C27.1263 27.5922 27.6974 27.1772 27.9418 26.5687L27.9523 26.5423Z" fill="white"/>
<path d="M3.18522 15.2426L3.20177 15.262C3.5836 15.7096 3.67748 16.3198 3.44338 16.8322L3.43323 16.8544L3.45666 16.8459C3.99708 16.6484 4.6191 16.7745 5.05739 17.1703L5.07639 17.1875L5.07431 17.1628C5.02649 16.5932 5.31703 16.0609 5.82201 15.7931L5.8439 15.7815L5.8192 15.7748C5.24922 15.6202 4.80676 15.1652 4.68057 14.6038L4.6751 14.5795L4.6619 14.6001C4.35746 15.0741 3.79347 15.3252 3.21049 15.246L3.18522 15.2426Z" fill="#3766E4"/>
<path d="M51.9113 13.5128L51.896 13.5332C51.544 14.0046 51.4899 14.6195 51.7567 15.1158L51.7683 15.1373L51.7444 15.1302C51.1923 14.9682 50.5798 15.1344 50.1681 15.5578L50.1502 15.5762L50.1507 15.5514C50.1615 14.9799 49.837 14.4676 49.3157 14.2331L49.2931 14.2229L49.3174 14.2146C49.8761 14.0234 50.2881 13.5406 50.3777 12.9723L50.3815 12.9477L50.396 12.9673C50.7306 13.4206 51.3097 13.6346 51.8863 13.5178L51.9113 13.5128Z" fill="#3766E4"/>
<path d="M28.9735 57.3217L28.9636 57.2982C28.7342 56.7565 28.2306 56.3994 27.6676 56.3794L27.6432 56.3785L27.6613 56.3614C28.0798 55.9665 28.2454 55.3539 28.0876 54.7848L28.0808 54.7601L28.1019 54.773C28.5899 55.0707 29.1959 55.0491 29.6614 54.7174L29.6816 54.703L29.6765 54.7281C29.5597 55.307 29.7685 55.9063 30.214 56.2704L30.2333 56.2862L30.2091 56.2888C29.6489 56.3489 29.1719 56.7409 28.9818 57.2976L28.9735 57.3217Z" fill="#3766E4"/>
<path d="M7.68179 13.3494C7.66341 13.3712 7.64125 13.3842 7.61532 13.3884C7.58904 13.3886 7.56501 13.3795 7.54323 13.3611L5.99462 12.0541C5.97284 12.0357 5.96093 12.0145 5.95889 11.9904C5.95651 11.9623 5.96451 11.9373 5.98289 11.9156L6.10422 11.7718C6.1226 11.75 6.14493 11.739 6.1712 11.7388C6.19714 11.7346 6.221 11.7417 6.24278 11.7601L6.87333 12.2923L7.63435 11.3905L7.0038 10.8584C6.98202 10.84 6.97011 10.8187 6.96807 10.7946C6.96569 10.7665 6.97369 10.7416 6.99207 10.7198L7.11339 10.576C7.13361 10.5521 7.15577 10.5391 7.17987 10.5371C7.20397 10.535 7.228 10.5441 7.25196 10.5643L8.80057 11.8713C8.82235 11.8897 8.83443 11.9129 8.83681 11.941C8.83885 11.9651 8.83068 11.9881 8.81229 12.0099L8.69097 12.1536C8.67259 12.1754 8.65043 12.1884 8.6245 12.1926C8.59822 12.1928 8.57419 12.1837 8.55241 12.1653L7.88592 11.6028L7.1249 12.5046L7.79139 13.0671C7.81317 13.0854 7.82525 13.1087 7.82763 13.1368C7.82967 13.1609 7.8215 13.1838 7.80312 13.2056L7.68179 13.3494Z" fill="#3766E4"/>
<path d="M12.1523 8.84175C11.9223 9.0195 11.6836 9.09048 11.4362 9.05469C11.1871 9.01665 10.9599 8.87882 10.7547 8.64119L10.6625 8.52879L10.5796 8.41453C10.4049 8.16051 10.3306 7.90817 10.3567 7.65754C10.3827 7.4069 10.5107 7.19271 10.7408 7.01496C10.9889 6.82327 11.2416 6.75409 11.4989 6.8074C11.7584 6.85897 11.9928 7.02008 12.2019 7.29071L12.2489 7.35161C12.2663 7.37416 12.2733 7.39943 12.2697 7.42741C12.2666 7.4514 12.2538 7.47211 12.2312 7.48953L11.0573 8.39656L11.0809 8.42701C11.2009 8.56837 11.3427 8.65869 11.5063 8.69796C11.6699 8.73723 11.8205 8.70371 11.9581 8.59741C12.0641 8.51551 12.1341 8.42899 12.1682 8.33786C12.2027 8.24273 12.2195 8.15954 12.2184 8.0883C12.2178 8.04555 12.2214 8.01757 12.2292 8.00434C12.2353 7.98886 12.2518 7.97067 12.2789 7.94976L12.4277 7.83475C12.448 7.81906 12.4693 7.81163 12.4915 7.81245C12.516 7.81153 12.5353 7.82009 12.5492 7.83813C12.5875 7.88775 12.6033 7.97104 12.5964 8.08801C12.5895 8.20497 12.5498 8.33295 12.4771 8.47196C12.4049 8.60696 12.2966 8.73023 12.1523 8.84175ZM11.8234 7.43724L11.8156 7.42709C11.6936 7.26922 11.5514 7.17378 11.3891 7.14076C11.2267 7.10775 11.0733 7.14701 10.929 7.25853C10.7824 7.3718 10.7057 7.51029 10.6989 7.674C10.6922 7.83771 10.7498 7.9985 10.8718 8.15637L10.8796 8.16652L11.8234 7.43724Z" fill="#3766E4"/>
<path d="M16.432 6.05318C16.2474 6.14294 16.0793 6.18827 15.9276 6.18916C15.7785 6.18881 15.6552 6.16006 15.5576 6.10291C15.4627 6.04451 15.394 5.97493 15.3515 5.89416C15.3403 5.87109 15.3392 5.84941 15.3484 5.82911C15.3563 5.80626 15.3718 5.78922 15.3948 5.778L15.5601 5.69759C15.5858 5.68512 15.6081 5.68218 15.6272 5.68876C15.6475 5.69153 15.6697 5.70452 15.6937 5.72772C15.7692 5.8114 15.858 5.8538 15.96 5.85491C16.0645 5.85478 16.1859 5.82105 16.3243 5.75373C16.4576 5.68891 16.5534 5.60901 16.6118 5.51405C16.6716 5.41527 16.6752 5.31207 16.6229 5.20442C16.5182 4.98913 16.3415 4.94195 16.0929 5.06288L15.8814 5.16573C15.8558 5.1782 15.8316 5.18048 15.8087 5.17258C15.7858 5.16469 15.7682 5.14792 15.7557 5.12229L15.709 5.02618C15.6965 5.00055 15.6942 4.97631 15.7021 4.95345C15.71 4.93059 15.7268 4.91293 15.7524 4.90046L15.9408 4.80883C16.1612 4.70162 16.2284 4.55959 16.1424 4.38274C16.0975 4.29048 16.0255 4.23042 15.9264 4.20257C15.8286 4.1709 15.7066 4.19061 15.5605 4.26167C15.417 4.33148 15.3251 4.40632 15.2847 4.48618C15.243 4.56348 15.2343 4.66281 15.2585 4.78417C15.2693 4.8391 15.2491 4.87903 15.1979 4.90397L15.0364 4.98251C15.0159 4.99248 14.9949 4.9948 14.9732 4.98947C14.9504 4.98157 14.934 4.96737 14.924 4.94686C14.8742 4.83797 14.8576 4.72562 14.8741 4.6098C14.8895 4.49143 14.9417 4.37727 15.0308 4.26735C15.1226 4.15618 15.253 4.05946 15.4222 3.97718C15.599 3.89115 15.7575 3.84891 15.8977 3.85044C16.0405 3.85073 16.1581 3.88069 16.2505 3.94034C16.3429 3.99998 16.4115 4.07593 16.4564 4.1682C16.5075 4.27328 16.5307 4.36659 16.526 4.44812C16.5238 4.5284 16.4898 4.61152 16.4238 4.69747C16.5552 4.68744 16.6652 4.71477 16.7537 4.77947C16.8435 4.84036 16.919 4.9336 16.9801 5.05919C17.0724 5.24885 17.0665 5.43234 16.9626 5.60966C16.8575 5.78441 16.6806 5.93225 16.432 6.05318Z" fill="#3766E4"/>
<path d="M21.1488 4.18115C21.0134 4.21538 20.8807 4.21953 20.7506 4.1936C20.6234 4.16698 20.5133 4.11542 20.4205 4.03893C20.3298 3.95899 20.2697 3.86099 20.2404 3.74493C20.1943 3.56256 20.2312 3.39449 20.351 3.24072C20.4709 3.08695 20.6544 2.95824 20.9016 2.8546L21.5013 2.6104L21.471 2.4902C21.399 2.20559 21.1986 2.10485 20.8698 2.18797C20.7427 2.2201 20.6471 2.27219 20.583 2.34425C20.5182 2.41354 20.4766 2.48727 20.4581 2.56543C20.4541 2.59586 20.4465 2.61834 20.4355 2.63289C20.4265 2.64397 20.411 2.65231 20.3889 2.6579L20.2273 2.69876C20.2024 2.70504 20.1782 2.70234 20.1547 2.69065C20.1332 2.6755 20.1193 2.65549 20.113 2.63062C20.097 2.56707 20.1075 2.48651 20.1445 2.38895C20.1837 2.28792 20.2577 2.1913 20.3667 2.09908C20.475 2.00409 20.6189 1.9339 20.7985 1.8885C21.108 1.81027 21.3472 1.82623 21.5162 1.93639C21.6879 2.04585 21.801 2.20834 21.8555 2.42387L22.196 3.77092C22.203 3.79855 22.1992 3.82448 22.1848 3.84871C22.1724 3.86948 22.1524 3.88336 22.1248 3.89035L21.9424 3.93645C21.9148 3.94343 21.8906 3.94073 21.8698 3.92834C21.8483 3.91319 21.8341 3.8918 21.8271 3.86417L21.781 3.6818C21.7433 3.78835 21.674 3.88669 21.5734 3.97681C21.4727 4.06694 21.3311 4.13505 21.1488 4.18115ZM21.1552 3.85763C21.3376 3.81153 21.4718 3.7144 21.5578 3.56625C21.6438 3.4181 21.6582 3.23073 21.6009 3.00415L21.5715 2.8881L21.1044 3.08114C20.9125 3.15906 20.7737 3.24411 20.6883 3.33627C20.6028 3.42843 20.5726 3.52424 20.5978 3.62372C20.6264 3.73701 20.694 3.81252 20.8006 3.85026C20.9099 3.88731 21.0281 3.88976 21.1552 3.85763Z" fill="#3766E4"/>
<path d="M27.5706 2.01468C27.5744 2.04306 27.5775 2.08858 27.5797 2.15124C27.5817 2.20536 27.5816 2.24386 27.5796 2.26675C27.5784 2.55483 27.4955 2.78879 27.3308 2.96863C27.1661 3.14847 26.9285 3.24392 26.6181 3.25499C26.299 3.26636 26.0523 3.18532 25.8779 3.01187C25.7033 2.83557 25.6033 2.58817 25.5776 2.26967L25.5594 1.75697C25.5477 1.34957 25.5909 1.04287 25.6891 0.836886C25.79 0.627952 25.9358 0.475884 26.1263 0.380683C26.3196 0.282532 26.6335 0.168673 27.0681 0.0391058L27.1824 0.00508668L27.2036 5.28254e-05C27.2235 -0.000657889 27.2423 0.00580287 27.2599 0.0194351C27.2775 0.0330673 27.2896 0.0511751 27.2961 0.0737584L27.336 0.234892L27.3412 0.260375C27.3427 0.303099 27.321 0.332394 27.2759 0.34826C27.242 0.358023 27.1672 0.379228 27.0514 0.411873C26.7295 0.500352 26.4969 0.575663 26.3537 0.637806C26.2133 0.699848 26.1068 0.793478 26.0343 0.918696C25.9617 1.04391 25.9255 1.22773 25.9256 1.47014C25.9903 1.36516 26.0841 1.27768 26.2071 1.20771C26.3301 1.13773 26.4628 1.1002 26.6052 1.09512C26.8929 1.08487 27.1196 1.1652 27.2854 1.3361C27.454 1.50406 27.549 1.73025 27.5706 2.01468ZM27.1857 2.2594C27.1879 2.23936 27.1882 2.20798 27.1867 2.16525C27.1848 2.11398 27.182 2.07558 27.1783 2.05005C27.165 1.83663 27.105 1.67478 26.9984 1.56451C26.8917 1.45138 26.7558 1.39776 26.5906 1.40365C26.4026 1.41035 26.2523 1.47418 26.1397 1.59512C26.0269 1.71321 25.9701 1.87922 25.9692 2.09315L25.969 2.20866L25.9766 2.3025C25.9928 2.51582 26.0557 2.67899 26.1652 2.79201C26.2775 2.90208 26.4248 2.95387 26.6071 2.94737C26.7865 2.94097 26.9283 2.87888 27.0325 2.76109C27.1366 2.64045 27.1877 2.47322 27.1857 2.2594Z" fill="#3766E4"/>
<path d="M33.4322 1.45762C33.4546 1.46162 33.4728 1.47354 33.4866 1.49337C33.5033 1.51371 33.5096 1.5351 33.5056 1.55755C33.5036 1.56877 33.4907 1.59252 33.4668 1.62881L32.3297 3.3803L32.276 3.46193C32.1683 3.62801 32.0735 3.76167 31.9918 3.86291C31.9129 3.96464 31.8201 4.04654 31.7135 4.10861C31.6092 4.17398 31.4954 4.19567 31.3719 4.17367L31.212 4.14517C31.1839 4.14017 31.1618 4.1261 31.1457 4.10296C31.1318 4.08313 31.1274 4.05918 31.1324 4.03112L31.1557 3.90064C31.1607 3.87259 31.1733 3.85024 31.1937 3.83359C31.2163 3.82026 31.2417 3.81609 31.2697 3.82109L31.3791 3.84059C31.4409 3.85159 31.4936 3.84796 31.5374 3.82971C31.5812 3.81145 31.6235 3.77702 31.6644 3.7264C31.7081 3.67628 31.7656 3.5968 31.8372 3.48795L31.9394 3.32814L31.4592 1.27108C31.4517 1.2321 31.4489 1.207 31.4509 1.19578C31.4554 1.17052 31.4676 1.15098 31.4874 1.13714C31.5072 1.12331 31.5298 1.11864 31.555 1.12314L31.7402 1.15614C31.7851 1.16414 31.8148 1.19258 31.8292 1.24148L32.2083 2.91575L33.1382 1.47472C33.1658 1.43332 33.2049 1.41712 33.2554 1.42612L33.4322 1.45762Z" fill="#3766E4"/>
<path d="M36.0752 4.87571C36.0488 4.86492 36.0297 4.84783 36.0177 4.82445C36.0083 4.80215 36.0096 4.77649 36.0214 4.74747L36.2513 4.18559C36.2621 4.15921 36.2786 4.14135 36.3009 4.132C36.3269 4.12108 36.3531 4.12102 36.3795 4.13181L36.3993 4.13991C36.5101 4.18523 36.631 4.12689 36.7619 3.9649C36.8955 3.80399 37.0437 3.52437 37.2067 3.12604L37.4139 2.61956C37.4246 2.59318 37.4412 2.57532 37.4635 2.56596C37.4895 2.55505 37.5157 2.55499 37.5421 2.56578L38.7925 3.07727C38.8215 3.08914 38.8407 3.10623 38.85 3.12853C38.8594 3.15083 38.8581 3.17649 38.8462 3.20551L38.1697 4.85948L38.3556 4.93556C38.3846 4.94743 38.4038 4.96451 38.4132 4.98682C38.4225 5.00912 38.4213 5.03478 38.4094 5.06379L38.1779 5.62963C38.1661 5.65864 38.149 5.67783 38.1267 5.68718C38.1044 5.69654 38.0787 5.69528 38.0497 5.68341L37.8756 5.61219C37.8492 5.6014 37.8319 5.58353 37.8236 5.55859C37.8143 5.53629 37.815 5.51195 37.8258 5.48557L37.9666 5.14132L36.5184 4.5489L36.3776 4.89315C36.3668 4.91953 36.3489 4.93685 36.324 4.94513C36.3006 4.95712 36.2757 4.95772 36.2493 4.94693L36.0752 4.87571ZM37.8135 4.7138L38.4027 3.2735L37.6746 2.97567L37.5387 3.30805C37.3185 3.84618 37.0904 4.18552 36.8543 4.32605L37.8135 4.7138Z" fill="#3766E4"/>
<path d="M43.0155 7.79845C43.0136 7.82135 43.0079 7.83986 42.9982 7.85397C42.9725 7.8916 42.9372 7.89512 42.8926 7.86454L42.6915 7.72689C42.6562 7.70274 42.6365 7.66337 42.6325 7.60877L42.621 6.51295L42.2859 6.28354L41.798 6.99615C41.7819 7.01967 41.76 7.03402 41.7323 7.03922C41.7085 7.04367 41.6849 7.03785 41.6614 7.02175L41.5097 6.91791C41.4862 6.90181 41.471 6.88107 41.4642 6.85569C41.4613 6.82957 41.468 6.80474 41.4841 6.78123L42.6287 5.10906C42.6448 5.08554 42.6648 5.07155 42.6885 5.0671C42.7163 5.06191 42.7419 5.06736 42.7654 5.08346L42.9171 5.1873C42.943 5.20501 42.9581 5.22575 42.9626 5.24952C42.967 5.27329 42.9604 5.29811 42.9427 5.32398L42.4766 6.00484L42.8047 6.22942L43.7734 5.85118C43.8211 5.832 43.8637 5.83529 43.9013 5.86105L44.0742 5.97937C44.0954 5.99386 44.109 6.01182 44.1151 6.03324C44.1227 6.0523 44.1209 6.07007 44.1097 6.08653C44.1064 6.09124 44.0993 6.09668 44.0881 6.10287C44.0786 6.1067 44.0702 6.11134 44.063 6.11679L43.0002 6.5342L43.0155 7.79845Z" fill="#3766E4"/>
<path d="M45.9975 10.5016C45.9007 10.4009 45.8314 10.2876 45.7896 10.1618C45.7497 10.0381 45.74 9.91695 45.7606 9.79843C45.7851 9.67999 45.8405 9.5793 45.9269 9.49637C46.0625 9.36605 46.2268 9.31491 46.4197 9.34295C46.6127 9.371 46.8154 9.46677 47.0278 9.63026L47.5368 10.0305L47.6262 9.94459C47.8379 9.7412 47.8263 9.51722 47.5913 9.27265C47.5004 9.17811 47.4079 9.12083 47.3135 9.1008C47.2212 9.0788 47.1366 9.07912 47.0595 9.10177C47.0311 9.11329 47.0078 9.11787 46.9897 9.11549C46.9756 9.11319 46.9607 9.10382 46.9449 9.08738L46.8294 8.96715C46.8116 8.94866 46.802 8.92629 46.8005 8.90005C46.803 8.8739 46.8136 8.85194 46.8321 8.83417C46.8793 8.78875 46.9545 8.758 47.0576 8.74192C47.1648 8.72592 47.2854 8.74245 47.4195 8.79149C47.5556 8.83856 47.6879 8.92889 47.8162 9.06248C48.0374 9.29266 48.1419 9.50842 48.1298 9.70975C48.1197 9.91313 48.0345 10.0918 47.8742 10.2459L46.8722 11.2085C46.8517 11.2282 46.8273 11.2378 46.7991 11.2373C46.7749 11.2368 46.753 11.2263 46.7332 11.2057L46.6029 11.0701C46.5832 11.0495 46.5735 11.0271 46.574 11.003C46.5765 10.9768 46.5881 10.9539 46.6086 10.9341L46.7443 10.8038C46.633 10.8237 46.5133 10.8123 46.3852 10.7694C46.257 10.7265 46.1278 10.6373 45.9975 10.5016ZM46.2817 10.347C46.4121 10.4827 46.5629 10.5512 46.7342 10.5526C46.9055 10.554 47.0754 10.4738 47.2439 10.3119L47.3303 10.2289L46.9313 9.9186C46.7686 9.79037 46.626 9.71193 46.5036 9.68327C46.3813 9.65462 46.2831 9.67584 46.2091 9.74693C46.1248 9.82789 46.0927 9.924 46.1126 10.0353C46.1345 10.1486 46.1909 10.2525 46.2817 10.347Z" fill="#3766E4"/>
<path d="M22.7023 54.2213C22.7299 54.2285 22.7512 54.2428 22.7662 54.2644C22.7778 54.288 22.7799 54.3136 22.7728 54.3412L22.2629 56.3024C22.2557 56.33 22.2417 56.3499 22.2209 56.3622C22.1965 56.3765 22.1706 56.38 22.143 56.3728L21.9609 56.3255C21.9333 56.3183 21.9138 56.303 21.9023 56.2793C21.8873 56.2578 21.8833 56.2332 21.8905 56.2056L22.0981 55.4071L20.9561 55.1102L20.7485 55.9087C20.7414 55.9363 20.7273 55.9562 20.7065 55.9685C20.6822 55.9828 20.6562 55.9863 20.6286 55.9791L20.4466 55.9318C20.4162 55.9239 20.3949 55.9096 20.3827 55.8887C20.3704 55.8679 20.3683 55.8423 20.3761 55.8119L20.886 53.8507C20.8932 53.8231 20.9089 53.8022 20.9333 53.7879C20.9541 53.7756 20.9783 53.7731 21.0059 53.7803L21.188 53.8276C21.2156 53.8348 21.2369 53.8491 21.2519 53.8707C21.2634 53.8943 21.2656 53.9199 21.2584 53.9475L21.039 54.7916L22.1809 55.0885L22.4004 54.2444C22.4076 54.2168 22.4233 54.1959 22.4476 54.1816C22.4685 54.1693 22.4927 54.1668 22.5203 54.174L22.7023 54.2213Z" fill="#3766E4"/>
<path d="M16.7059 52.1363C16.9656 52.267 17.1327 52.4516 17.2073 52.6902C17.2806 52.9313 17.2544 53.1957 17.1287 53.4834L17.0672 53.6151L16.9999 53.7392C16.8463 54.0065 16.6508 54.1825 16.4135 54.2673C16.1762 54.352 15.9277 54.3291 15.668 54.1984C15.388 54.0574 15.2164 53.8594 15.1534 53.6043C15.0878 53.3479 15.1319 53.067 15.2856 52.7615L15.3202 52.6928C15.3331 52.6673 15.3529 52.6502 15.3796 52.6413C15.4026 52.6337 15.4268 52.6363 15.4523 52.6491L16.7774 53.3161L16.7947 53.2817C16.8703 53.1124 16.8905 52.9455 16.8553 52.781C16.82 52.6165 16.7247 52.4951 16.5695 52.417C16.4498 52.3567 16.3415 52.331 16.2446 52.3396C16.1439 52.3496 16.0616 52.3704 15.9978 52.4021C15.9595 52.4211 15.9328 52.4299 15.9175 52.4286C15.9009 52.4298 15.8773 52.4228 15.8468 52.4074L15.6788 52.3228C15.6558 52.3113 15.6399 52.2953 15.6311 52.2749C15.6197 52.2532 15.6191 52.2322 15.6293 52.2118C15.6575 52.1558 15.7259 52.1056 15.8343 52.0613C15.9428 52.017 16.0754 51.9976 16.2321 52.0031C16.3851 52.0099 16.543 52.0543 16.7059 52.1363ZM15.5812 53.0395L15.5755 53.051C15.4858 53.2292 15.4611 53.3986 15.5015 53.5594C15.5418 53.7201 15.6435 53.8414 15.8064 53.9234C15.9719 54.0067 16.1299 54.0161 16.2805 53.9515C16.4311 53.8869 16.5512 53.7654 16.6409 53.5872L16.6467 53.5758L15.5812 53.0395Z" fill="#3766E4"/>
<path d="M12.3424 49.4809C12.5031 49.6085 12.6166 49.7406 12.6829 49.877C12.747 50.0117 12.7743 50.1353 12.7649 50.248C12.7532 50.3588 12.7202 50.4509 12.6657 50.524C12.6497 50.5441 12.6306 50.5544 12.6083 50.5549C12.5843 50.5577 12.5623 50.5511 12.5422 50.5351L12.3982 50.4208C12.3759 50.403 12.3636 50.3842 12.3613 50.3641C12.355 50.3446 12.3572 50.319 12.3678 50.2873C12.4106 50.183 12.4105 50.0847 12.3675 49.9922C12.3222 49.898 12.2393 49.803 12.1188 49.7073C12.0028 49.6151 11.8893 49.5632 11.7785 49.5515C11.6636 49.5403 11.5689 49.5816 11.4944 49.6753C11.3455 49.8627 11.3793 50.0424 11.5957 50.2144L11.7798 50.3607C11.8021 50.3784 11.8146 50.3993 11.8174 50.4234C11.8201 50.4474 11.8126 50.4705 11.7949 50.4929L11.7284 50.5765C11.7107 50.5989 11.6898 50.6114 11.6658 50.6141C11.6418 50.6169 11.6186 50.6094 11.5963 50.5917L11.4323 50.4613C11.2404 50.3089 11.0832 50.3096 10.9609 50.4636C10.8971 50.5439 10.874 50.6348 10.8917 50.7362C10.9054 50.8381 10.9758 50.9396 11.103 51.0406C11.228 51.1399 11.3352 51.1905 11.4247 51.1925C11.5124 51.1966 11.6057 51.1616 11.7047 51.0874C11.7496 51.0539 11.7943 51.0548 11.8389 51.0903L11.9795 51.202C11.9974 51.2162 12.0086 51.2342 12.0131 51.256C12.0158 51.28 12.0101 51.3009 11.9959 51.3188C11.9192 51.4107 11.8251 51.4742 11.7135 51.5093C11.6001 51.5466 11.4746 51.5488 11.3369 51.5159C11.1971 51.4812 11.0535 51.4053 10.9062 51.2883C10.7522 51.166 10.6457 51.0412 10.5865 50.9141C10.5251 50.7853 10.5013 50.6663 10.5152 50.5572C10.5291 50.4481 10.5679 50.3534 10.6318 50.273C10.7045 50.1815 10.7786 50.1203 10.8542 50.0894C10.9275 50.0566 11.0172 50.0514 11.1232 50.0738C11.0574 49.9596 11.0345 49.8486 11.0547 49.7408C11.0708 49.6335 11.1223 49.5252 11.2092 49.4158C11.3404 49.2507 11.5084 49.1767 11.7132 49.1938C11.9162 49.2132 12.126 49.3089 12.3424 49.4809Z" fill="#3766E4"/>
<path d="M8.61668 46.0353C8.70603 46.1427 8.76709 46.2606 8.79987 46.389C8.83082 46.5153 8.83186 46.6368 8.80297 46.7536C8.77007 46.87 8.70762 46.9665 8.61562 47.043C8.47105 47.1634 8.30353 47.2027 8.11307 47.161C7.9226 47.1193 7.72724 47.0094 7.527 46.8312L7.04772 46.3958L6.95243 46.4751C6.72682 46.6629 6.72251 46.8872 6.9395 47.1478C7.02338 47.2486 7.11166 47.3123 7.20433 47.339C7.29482 47.3675 7.37929 47.3732 7.45776 47.3561C7.48696 47.3466 7.51049 47.3437 7.52837 47.3474C7.54224 47.3507 7.55646 47.3611 7.57105 47.3786L7.67773 47.5067C7.69414 47.5265 7.70215 47.5494 7.70177 47.5757C7.69738 47.6016 7.68533 47.6228 7.66562 47.6392C7.61523 47.6811 7.53804 47.7065 7.43404 47.7152C7.32602 47.7235 7.20688 47.6984 7.07664 47.64C6.9442 47.5834 6.81872 47.4839 6.7002 47.3415C6.49597 47.0961 6.40704 46.8735 6.43342 46.6735C6.45797 46.4714 6.55568 46.2992 6.72653 46.157L7.79437 45.268C7.81627 45.2498 7.84127 45.242 7.86937 45.2445C7.89345 45.2467 7.91461 45.2588 7.93285 45.2807L8.0532 45.4253C8.07143 45.4472 8.07945 45.4702 8.07724 45.4942C8.07285 45.5201 8.0597 45.5422 8.0378 45.5605L7.89323 45.6808C8.00563 45.6688 8.12422 45.6888 8.249 45.7406C8.37377 45.7925 8.49633 45.8908 8.61668 46.0353ZM8.32212 46.1693C8.20178 46.0247 8.05621 45.9456 7.88544 45.932C7.71467 45.9185 7.53947 45.9864 7.35985 46.1359L7.26786 46.2125L7.64373 46.5505C7.79692 46.6899 7.93354 46.7783 8.05358 46.8156C8.17362 46.8529 8.27306 46.8387 8.35192 46.773C8.44173 46.6983 8.48064 46.6047 8.46866 46.4923C8.45485 46.3777 8.406 46.27 8.32212 46.1693Z" fill="#3766E4"/>
<path d="M3.88896 41.1792C3.91289 41.1635 3.95263 41.141 4.00818 41.112C4.05615 41.0868 4.0909 41.0703 4.11242 41.0622C4.37274 40.9388 4.61957 40.9125 4.8529 40.9834C5.08624 41.0543 5.27495 41.2273 5.41903 41.5026C5.56707 41.7854 5.60055 42.0429 5.51946 42.2752C5.43585 42.5087 5.25594 42.7059 4.97974 42.8665L4.52524 43.1045C4.16284 43.2909 3.86754 43.3844 3.63936 43.3848C3.40732 43.3841 3.20723 43.3183 3.03907 43.1876C2.86706 43.0556 2.62878 42.8217 2.32421 42.4857L2.24417 42.3973L2.23046 42.3804C2.22121 42.3627 2.21893 42.343 2.22363 42.3212C2.22832 42.2994 2.23945 42.2808 2.257 42.2651L2.38507 42.1595L2.40581 42.1438C2.44369 42.124 2.47951 42.131 2.51329 42.1647C2.53672 42.1911 2.58816 42.2494 2.66761 42.3397C2.88647 42.5919 3.05486 42.7691 3.17278 42.8715C3.28937 42.9713 3.4198 43.0269 3.56406 43.0382C3.70833 43.0495 3.88976 43.0028 4.10835 42.898C3.98573 42.885 3.8663 42.8382 3.75006 42.7575C3.63382 42.6768 3.54266 42.5733 3.47657 42.447C3.34307 42.192 3.31758 41.9528 3.40011 41.7295C3.47879 41.5049 3.64174 41.3215 3.88896 41.1792ZM4.2759 41.4206C4.2569 41.4273 4.22847 41.4406 4.19059 41.4604C4.14514 41.4842 4.11171 41.5033 4.09031 41.5177C3.90357 41.6219 3.7835 41.7459 3.73008 41.8897C3.67414 42.0348 3.6845 42.1806 3.76117 42.327C3.84841 42.4937 3.97089 42.6017 4.12861 42.651C4.28381 42.7016 4.45808 42.6812 4.65142 42.5896L4.75567 42.5399L4.83701 42.4925C5.02243 42.3858 5.14244 42.2586 5.19706 42.111C5.24783 41.9621 5.23092 41.8069 5.14632 41.6453C5.06305 41.4863 4.9458 41.3852 4.79456 41.3421C4.64081 41.3003 4.46792 41.3265 4.2759 41.4206Z" fill="#3766E4"/>
<path d="M0.854755 36.1332C0.848666 36.1112 0.851579 36.0897 0.863493 36.0687C0.874645 36.0449 0.891208 36.0299 0.913181 36.0238C0.924168 36.0208 0.95117 36.0222 0.994189 36.028L3.06504 36.2971L3.16184 36.3102C3.35817 36.3357 3.51964 36.3634 3.64624 36.3934C3.77209 36.4206 3.88602 36.4689 3.98804 36.5382C4.09205 36.604 4.16079 36.6974 4.19427 36.8182L4.23765 36.9748C4.24526 37.0023 4.24212 37.0283 4.22822 37.0528C4.21631 37.0739 4.19662 37.0882 4.16915 37.0958L4.04143 37.1312C4.01397 37.1388 3.98834 37.137 3.96454 37.1259C3.94274 37.1112 3.92803 37.0901 3.92042 37.0627L3.89074 36.9556C3.874 36.8951 3.84794 36.8491 3.81256 36.8175C3.77719 36.7859 3.72785 36.7626 3.66455 36.7476C3.60048 36.7299 3.50392 36.7123 3.37487 36.6948L3.18654 36.6716L1.5387 37.9932C1.5068 38.0168 1.48535 38.0302 1.47437 38.0332C1.44965 38.0401 1.42677 38.0375 1.40572 38.0256C1.38467 38.0137 1.37073 37.9954 1.36388 37.9707L1.31365 37.7894C1.30147 37.7454 1.31431 37.7064 1.35217 37.6722L2.69846 36.6072L0.997156 36.391C0.947883 36.3839 0.916397 36.3557 0.902699 36.3062L0.854755 36.1332Z" fill="#3766E4"/>
<path d="M2.79596 32.273C2.79762 32.3015 2.79049 32.3262 2.77459 32.3471C2.75851 32.3652 2.73483 32.3751 2.70353 32.3769L2.09749 32.4123C2.06904 32.414 2.04578 32.4068 2.02771 32.3907C2.00663 32.372 1.99526 32.3484 1.9936 32.3199L1.99235 32.2986C1.98537 32.1791 1.88055 32.0952 1.6779 32.0471C1.47508 31.9962 1.15885 31.9832 0.729215 32.0083L0.182928 32.0402C0.154475 32.0419 0.131215 32.0347 0.113146 32.0186C0.0920664 31.9998 0.0806957 31.9762 0.0790343 31.9478L0.000279872 30.5991C-0.00154776 30.5678 0.00557578 30.5432 0.0216505 30.5251C0.0377251 30.507 0.0614112 30.4971 0.092709 30.4952L1.87668 30.3911L1.86497 30.1905C1.86314 30.1592 1.87026 30.1345 1.88634 30.1164C1.90241 30.0984 1.9261 30.0884 1.9574 30.0866L2.5677 30.0509C2.599 30.0491 2.62368 30.0562 2.64175 30.0723C2.65982 30.0884 2.66977 30.1121 2.67159 30.1434L2.68256 30.3312C2.68422 30.3596 2.67559 30.383 2.65667 30.4012C2.6406 30.4193 2.61833 30.4291 2.58988 30.4308L2.21858 30.4525L2.30979 32.0145L2.6811 31.9928C2.70955 31.9912 2.73289 31.9998 2.75113 32.0187C2.77204 32.0346 2.78333 32.0568 2.78499 32.0853L2.79596 32.273ZM1.89911 30.7752L0.345604 30.8659L0.391461 31.6512L0.749962 31.6303C1.33039 31.5964 1.73497 31.6555 1.96369 31.8078L1.89911 30.7752Z" fill="#3766E4"/>
<path d="M2.4343 24.7511C2.45576 24.7429 2.47494 24.7401 2.49184 24.7427C2.5369 24.7497 2.55529 24.78 2.547 24.8335L2.50971 25.0743C2.50317 25.1165 2.47616 25.1513 2.42868 25.1785L1.4453 25.6622L1.38315 26.0635L2.23655 26.1957C2.26472 26.2001 2.28713 26.2136 2.30379 26.2364C2.31808 26.2559 2.32304 26.2798 2.31867 26.3079L2.29054 26.4896C2.28618 26.5177 2.27402 26.5404 2.25407 26.5575C2.23174 26.5713 2.20649 26.5761 2.17832 26.5717L0.175776 26.2616C0.14761 26.2572 0.126387 26.2453 0.112105 26.2258C0.095442 26.203 0.0892915 26.1775 0.093653 26.1494L0.121785 25.9677C0.126583 25.9367 0.13874 25.9141 0.158256 25.8998C0.177772 25.8855 0.203021 25.8808 0.234003 25.8856L1.04939 26.0119L1.11023 25.619L0.35068 24.9087C0.312793 24.8739 0.29734 24.8341 0.304318 24.789L0.336376 24.582C0.340301 24.5566 0.350614 24.5366 0.367313 24.5219C0.381196 24.5067 0.397996 24.5007 0.417712 24.5037C0.423345 24.5046 0.431358 24.5087 0.441752 24.5161C0.449329 24.523 0.457124 24.5286 0.465138 24.5327L1.30068 25.311L2.4343 24.7511Z" fill="#3766E4"/>
<path d="M3.58432 20.8941C3.53528 21.0249 3.46306 21.1363 3.36766 21.2284C3.27326 21.3178 3.16818 21.3788 3.05243 21.4115C2.93501 21.4405 2.82026 21.434 2.70818 21.392C2.53205 21.3259 2.41496 21.1998 2.35691 21.0137C2.29887 20.8276 2.2977 20.6034 2.35341 20.3412L2.49451 19.7092L2.37842 19.6657C2.10355 19.5626 1.90658 19.6699 1.78749 19.9875C1.74146 20.1102 1.72978 20.2185 1.75247 20.3122C1.77248 20.4049 1.80934 20.4811 1.86305 20.5409C1.88573 20.5615 1.89991 20.5806 1.90558 20.5979C1.90958 20.6116 1.90758 20.6291 1.89958 20.6504L1.84103 20.8066C1.83203 20.8306 1.81602 20.8489 1.793 20.8616C1.76831 20.8706 1.74396 20.8706 1.71995 20.8616C1.65857 20.8386 1.59836 20.784 1.53931 20.698C1.4786 20.6082 1.44141 20.4923 1.42773 20.3502C1.41138 20.2071 1.43573 20.0488 1.50078 19.8754C1.61286 19.5765 1.7623 19.389 1.94911 19.313C2.13691 19.2342 2.33489 19.2339 2.54304 19.312L3.844 19.7998C3.87069 19.8098 3.88987 19.8277 3.90154 19.8533C3.91155 19.8754 3.91155 19.8997 3.90154 19.9264L3.8355 20.1025C3.82549 20.1292 3.80948 20.1476 3.78746 20.1576C3.76278 20.1666 3.73709 20.1661 3.7104 20.1561L3.53428 20.09C3.60032 20.1818 3.64169 20.2947 3.65837 20.4288C3.67505 20.5629 3.65036 20.718 3.58432 20.8941ZM3.32212 20.7045C3.38817 20.5283 3.38483 20.3627 3.31211 20.2076C3.23939 20.0525 3.09362 19.9339 2.87479 19.8518L2.76271 19.8098L2.65513 20.3037C2.60976 20.5058 2.60059 20.6683 2.62761 20.791C2.65463 20.9138 2.71618 20.9932 2.81225 21.0292C2.92166 21.0702 3.02224 21.0577 3.11397 20.9917C3.20671 20.923 3.27609 20.8272 3.32212 20.7045Z" fill="#3766E4"/>
<path d="M51.7494 19.075C51.7398 19.0482 51.7396 19.0225 51.7489 18.9979C51.7619 18.9751 51.7818 18.9588 51.8086 18.9491L53.7147 18.2615C53.7415 18.2518 53.7659 18.2521 53.7878 18.2624C53.8133 18.2744 53.8309 18.2938 53.8406 18.3206L53.9044 18.4976C53.9141 18.5244 53.9125 18.5492 53.8995 18.5721C53.8902 18.5966 53.8721 18.6138 53.8453 18.6234L53.0692 18.9034L53.4696 20.0133L54.2457 19.7333C54.2725 19.7237 54.2969 19.724 54.3188 19.7343C54.3443 19.7463 54.3619 19.7657 54.3716 19.7925L54.4354 19.9694C54.446 19.9989 54.4462 20.0246 54.4359 20.0465C54.4257 20.0684 54.4058 20.0846 54.3763 20.0953L52.4701 20.7829C52.4433 20.7926 52.4171 20.7914 52.3916 20.7794C52.3697 20.7692 52.3539 20.7506 52.3442 20.7238L52.2804 20.5469C52.2707 20.5201 52.2706 20.4944 52.2799 20.4698C52.2928 20.4469 52.3127 20.4307 52.3395 20.421L53.1599 20.125L52.7595 19.0151L51.9391 19.3111C51.9123 19.3207 51.8862 19.3196 51.8606 19.3076C51.8387 19.2973 51.8229 19.2788 51.8133 19.2519L51.7494 19.075Z" fill="#3766E4"/>
<path d="M53.4179 25.2004C53.379 24.9123 53.4369 24.6701 53.5915 24.4738C53.749 24.2771 53.982 24.1492 54.2904 24.0903L54.4339 24.0666L54.5742 24.052C54.8816 24.0277 55.1372 24.0895 55.3413 24.2374C55.5453 24.3853 55.6668 24.6033 55.7057 24.8914C55.7477 25.2021 55.6812 25.4555 55.5064 25.6517C55.332 25.8507 55.0753 25.9731 54.7364 26.0188L54.6601 26.0291C54.6319 26.0329 54.6065 26.0263 54.5841 26.0092C54.5648 25.9945 54.5533 25.9731 54.5495 25.9448L54.3509 24.4747L54.3128 24.4799C54.1304 24.5131 53.9812 24.5908 53.8654 24.7129C53.7496 24.8349 53.7033 24.9821 53.7266 25.1544C53.7445 25.2871 53.7845 25.391 53.8464 25.4661C53.9115 25.5435 53.9751 25.5997 54.0373 25.6344C54.0747 25.6552 54.0971 25.6723 54.1047 25.6857C54.115 25.6987 54.1225 25.7221 54.1271 25.756L54.1523 25.9424C54.1557 25.9678 54.1515 25.99 54.1397 26.0088C54.1282 26.0305 54.1112 26.0429 54.0886 26.0459C54.0265 26.0543 53.9465 26.0263 53.8486 25.9619C53.7508 25.8974 53.6598 25.799 53.5758 25.6665C53.4949 25.5365 53.4423 25.3811 53.4179 25.2004ZM54.7987 25.6178L54.8114 25.6161C55.0091 25.5894 55.1628 25.514 55.2726 25.3899C55.3824 25.2658 55.4251 25.1133 55.4007 24.9326C55.3759 24.749 55.2943 24.6133 55.1559 24.5256C55.0175 24.4379 54.8494 24.4074 54.6517 24.4341L54.639 24.4358L54.7987 25.6178Z" fill="#3766E4"/>
<path d="M53.693 30.301C53.7076 30.0963 53.7524 29.928 53.8274 29.7962C53.9023 29.6672 53.9889 29.5748 54.0871 29.5189C54.1852 29.4659 54.2798 29.4412 54.371 29.4448C54.3966 29.4466 54.4159 29.4565 54.4289 29.4746C54.4447 29.4929 54.4517 29.5148 54.4499 29.5404L54.4369 29.7238C54.4349 29.7522 54.4263 29.773 54.411 29.7862C54.3985 29.8025 54.3761 29.8152 54.3441 29.8243C54.2338 29.8479 54.1527 29.9036 54.1007 29.9913C54.0486 30.0819 54.0171 30.204 54.0062 30.3575C53.9957 30.5053 54.017 30.6283 54.07 30.7263C54.1257 30.8274 54.2132 30.8822 54.3326 30.8907C54.5714 30.9076 54.7006 30.7782 54.7202 30.5025L54.7369 30.2679C54.7389 30.2395 54.749 30.2174 54.7673 30.2015C54.7856 30.1857 54.8089 30.1788 54.8373 30.1808L54.9439 30.1883C54.9724 30.1904 54.9945 30.2005 55.0104 30.2188C55.0262 30.237 55.0331 30.2604 55.0311 30.2888L55.0163 30.4978C54.9989 30.7423 55.0883 30.8715 55.2845 30.8854C55.3868 30.8927 55.4748 30.8603 55.5485 30.7884C55.6248 30.7196 55.6688 30.6041 55.6803 30.442C55.6916 30.2828 55.6727 30.1658 55.6238 30.0909C55.5776 30.0162 55.496 29.9589 55.3788 29.9192C55.3258 29.9011 55.3013 29.8637 55.3053 29.8068L55.3181 29.6277C55.3197 29.605 55.3282 29.5856 55.3436 29.5695C55.3619 29.5537 55.3824 29.5466 55.4051 29.5482C55.5243 29.5595 55.6299 29.6013 55.722 29.6735C55.8168 29.746 55.8896 29.8483 55.9402 29.9805C55.9906 30.1155 56.0091 30.2768 55.9958 30.4645C55.9819 30.6606 55.9392 30.819 55.8678 30.9397C55.7962 31.0632 55.7114 31.15 55.6136 31.2002C55.5157 31.2504 55.4156 31.2719 55.3133 31.2646C55.1967 31.2563 55.1043 31.2298 55.0361 31.1849C54.9676 31.1429 54.9127 31.0719 54.8712 30.9718C54.8142 31.0906 54.7355 31.1722 54.6352 31.2165C54.5376 31.2638 54.4191 31.2826 54.2798 31.2727C54.0694 31.2577 53.9134 31.1609 53.8118 30.9823C53.7131 30.8038 53.6735 30.5767 53.693 30.301Z" fill="#3766E4"/>
<path d="M52.9559 35.3219C52.9939 35.1875 53.0567 35.0705 53.1441 34.9708C53.2308 34.874 53.3305 34.8044 53.4432 34.7623C53.5578 34.7237 53.6727 34.7206 53.7878 34.7533C53.9688 34.8045 54.0959 34.9205 54.1692 35.1012C54.2424 35.2819 54.2621 35.5052 54.2283 35.7711L54.1399 36.4126L54.2592 36.4464C54.5416 36.5264 54.7291 36.4032 54.8215 36.0769C54.8572 35.9507 54.8599 35.8419 54.8295 35.7504C54.8019 35.6596 54.7589 35.5867 54.7004 35.5316C54.6761 35.5129 54.6604 35.4951 54.6533 35.4783C54.6482 35.465 54.6488 35.4474 54.655 35.4254L54.7004 35.265C54.7074 35.2403 54.7218 35.2207 54.7437 35.2062C54.7676 35.1952 54.7919 35.1931 54.8165 35.2001C54.8796 35.218 54.9441 35.2674 55.0101 35.3483C55.078 35.4327 55.1247 35.5451 55.15 35.6856C55.1782 35.8269 55.167 35.9866 55.1165 36.1649C55.0295 36.472 54.8961 36.6712 54.7162 36.7624C54.5355 36.8564 54.3383 36.8731 54.1244 36.8125L52.7875 36.4339C52.7601 36.4261 52.7395 36.4099 52.7258 36.3853C52.714 36.3642 52.712 36.3399 52.7197 36.3125L52.771 36.1315C52.7788 36.1041 52.7932 36.0845 52.8143 36.0727C52.8382 36.0617 52.8638 36.06 52.8912 36.0678L53.0722 36.1191C52.9988 36.0331 52.9482 35.924 52.9205 35.7917C52.8928 35.6595 52.9046 35.5028 52.9559 35.3219ZM53.2328 35.4892C53.1816 35.6702 53.1986 35.8349 53.2839 35.9835C53.3692 36.1321 53.5243 36.2382 53.7491 36.3019L53.8643 36.3345L53.9307 35.8335C53.9592 35.6283 53.9549 35.4656 53.9178 35.3455C53.8807 35.2254 53.8128 35.1514 53.7141 35.1234C53.6017 35.0916 53.5025 35.1123 53.4165 35.1857C53.3298 35.2619 53.2686 35.363 53.2328 35.4892Z" fill="#3766E4"/>
<path d="M51.6212 41.9666C51.5947 41.9557 51.5537 41.9356 51.4983 41.9062C51.4505 41.8808 51.4172 41.8615 51.3984 41.8483C51.1495 41.7033 50.9883 41.5145 50.9149 41.2819C50.8415 41.0494 50.8777 40.7959 51.0233 40.5215C51.173 40.2395 51.3665 40.0664 51.6039 40.002C51.8439 39.939 52.1082 39.976 52.3968 40.1131L52.85 40.3536C53.2086 40.5472 53.4526 40.738 53.5819 40.9261C53.7124 41.1179 53.7712 41.3202 53.7584 41.5328C53.7468 41.7492 53.6884 42.078 53.5833 42.5192L53.5556 42.6352L53.5494 42.656C53.54 42.6737 53.5251 42.6867 53.5045 42.6951C53.4838 42.7035 53.4621 42.7049 53.4393 42.6993L53.2798 42.6533L53.2551 42.6451C53.2174 42.625 53.2029 42.5915 53.2117 42.5446C53.2202 42.5103 53.2392 42.4349 53.2688 42.3184C53.3532 41.9953 53.4043 41.7562 53.4221 41.6011C53.4385 41.4485 53.4107 41.3095 53.3385 41.1841C53.2663 41.0586 53.1252 40.9353 52.9153 40.8142C52.9738 40.9227 53.0027 41.0477 53.0018 41.1893C53.0009 41.3308 52.967 41.4644 52.9002 41.5903C52.7653 41.8446 52.5823 42.0008 52.3514 42.0589C52.1217 42.1209 51.8783 42.0901 51.6212 41.9666ZM51.6017 41.5109C51.618 41.5228 51.645 41.5387 51.6827 41.5588C51.7281 41.5828 51.7627 41.5996 51.7867 41.6091C51.9782 41.7043 52.1483 41.7333 52.2971 41.6961C52.4484 41.6603 52.5629 41.5694 52.6404 41.4233C52.7285 41.2572 52.7484 41.0951 52.7 40.9371C52.6541 40.7804 52.5387 40.6482 52.3539 40.5405L52.254 40.4826L52.1689 40.4423C51.9761 40.3496 51.8033 40.3224 51.6507 40.3608C51.4992 40.403 51.3807 40.5047 51.2952 40.6658C51.211 40.8244 51.1939 40.9783 51.2438 41.1274C51.2962 41.2778 51.4155 41.4057 51.6017 41.5109Z" fill="#3766E4"/>
<path d="M49.1728 47.3214C49.1581 47.3388 49.1387 47.3486 49.1146 47.3506C49.0887 47.3549 49.067 47.3497 49.0496 47.335C49.0409 47.3276 49.0267 47.3046 49.0072 47.2658L48.059 45.4052L48.0151 45.318C47.9251 45.1416 47.8568 44.9927 47.81 44.8713C47.7613 44.7521 47.7368 44.6308 47.7363 44.5075C47.7318 44.3845 47.77 44.275 47.8508 44.1791L47.9554 44.0548C47.9738 44.033 47.997 44.0209 48.0251 44.0185C48.0492 44.0165 48.0722 44.0246 48.094 44.043L48.1953 44.1283C48.2171 44.1467 48.2302 44.1688 48.2344 44.1948C48.2346 44.2211 48.2256 44.2451 48.2072 44.2669L48.1356 44.3519C48.0952 44.3999 48.072 44.4474 48.0659 44.4944C48.0598 44.5415 48.0685 44.5953 48.0919 44.656C48.1135 44.7189 48.1535 44.8085 48.212 44.9249L48.2993 45.0934L50.3209 45.706C50.3584 45.719 50.3815 45.7291 50.3902 45.7365C50.4098 45.753 50.4207 45.7733 50.4227 45.7974C50.4248 45.8215 50.4176 45.8433 50.401 45.863L50.2799 46.0068C50.2505 46.0417 50.211 46.0532 50.1615 46.0413L48.522 45.5324L49.305 47.0582C49.327 47.1029 49.3215 47.1448 49.2885 47.184L49.1728 47.3214Z" fill="#3766E4"/>
<path d="M44.8911 47.9013C44.9137 47.8838 44.9381 47.8757 44.9643 47.8771C44.9883 47.8801 45.0099 47.894 45.0291 47.9188L45.4008 48.3988C45.4182 48.4213 45.4254 48.4446 45.4224 48.4686C45.4188 48.4966 45.4058 48.5193 45.3832 48.5367L45.3663 48.5498C45.2717 48.6231 45.2618 48.757 45.3366 48.9514C45.4092 49.1475 45.5772 49.4157 45.8407 49.756L46.1757 50.1886C46.1932 50.2112 46.2004 50.2344 46.1973 50.2584C46.1937 50.2864 46.1807 50.3091 46.1582 50.3266L45.09 51.1537C45.0652 51.1729 45.0408 51.181 45.0168 51.1779C44.9929 51.1749 44.9713 51.1609 44.9521 51.1361L43.858 49.7232L43.6991 49.8462C43.6743 49.8654 43.6499 49.8735 43.6259 49.8704C43.6019 49.8674 43.5804 49.8535 43.5612 49.8287L43.1869 49.3453C43.1677 49.3205 43.1596 49.2961 43.1627 49.2721C43.1657 49.2482 43.1796 49.2266 43.2044 49.2074L43.3531 49.0922C43.3757 49.0747 43.3998 49.0687 43.4255 49.074C43.4495 49.077 43.4703 49.0898 43.4877 49.1124L43.7154 49.4064L44.9526 48.4485L44.7249 48.1544C44.7074 48.1318 44.7013 48.1077 44.7066 48.082C44.708 48.0557 44.7199 48.0339 44.7424 48.0164L44.8911 47.9013ZM44.1622 49.4876L45.1149 50.718L45.7369 50.2364L45.517 49.9525C45.1611 49.4928 44.9813 49.1256 44.9776 48.8508L44.1622 49.4876Z" fill="#3766E4"/>
<path d="M38.8898 52.4504C38.8709 52.4373 38.8578 52.4231 38.8504 52.4076C38.8307 52.3665 38.8452 52.3343 38.8941 52.3108L39.1138 52.2055C39.1524 52.187 39.1963 52.1897 39.2456 52.2135L40.2004 52.7514L40.5666 52.5759L40.1934 51.7972C40.1811 51.7715 40.1796 51.7453 40.1889 51.7187C40.197 51.6959 40.2138 51.6783 40.2395 51.666L40.4053 51.5865C40.431 51.5742 40.4566 51.5715 40.4819 51.5783C40.506 51.5889 40.5242 51.607 40.5365 51.6327L41.4123 53.4601C41.4246 53.4858 41.4268 53.51 41.4187 53.5329C41.4094 53.5595 41.3918 53.5789 41.3661 53.5913L41.2004 53.6707C41.1721 53.6843 41.1465 53.687 41.1237 53.679C41.1009 53.671 41.0827 53.6528 41.0692 53.6245L40.7126 52.8805L40.354 53.0523L40.1973 54.0804C40.19 54.1312 40.1659 54.1665 40.1247 54.1862L39.9358 54.2768C39.9127 54.2878 39.8904 54.2907 39.8688 54.2852C39.8484 54.2823 39.8339 54.2719 39.8253 54.2539C39.8229 54.2487 39.8217 54.2398 39.8219 54.2271C39.8234 54.2169 39.8235 54.2073 39.8224 54.1984L39.9924 53.0692L38.8898 52.4504Z" fill="#3766E4"/>
<path d="M35.0578 53.6812C35.1934 53.6478 35.3262 53.6444 35.456 53.6711C35.5831 53.6984 35.6929 53.7506 35.7853 53.8277C35.8756 53.9081 35.9351 54.0065 35.9637 54.1227C36.0088 54.3053 35.9709 54.4732 35.8501 54.6263C35.7294 54.7793 35.5451 54.907 35.2973 55.0092L34.6962 55.2499L34.7259 55.3703C34.7962 55.6553 34.996 55.7572 35.3252 55.676C35.4525 55.6446 35.5484 55.5931 35.613 55.5214C35.6782 55.4525 35.7202 55.379 35.7391 55.3009C35.7434 55.2705 35.751 55.2481 35.7621 55.2336C35.7712 55.2226 35.7867 55.2143 35.8089 55.2089L35.9708 55.1689C35.9957 55.1628 36.0198 55.1656 36.0433 55.1775C36.0647 55.1927 36.0785 55.2128 36.0846 55.2377C36.1003 55.3014 36.0893 55.3819 36.0517 55.4792C36.012 55.58 35.9374 55.6762 35.8278 55.7678C35.719 55.8622 35.5747 55.9315 35.3948 55.9759C35.0849 56.0523 34.8458 56.035 34.6774 55.9238C34.5064 55.8134 34.3942 55.6502 34.341 55.4344L34.0083 54.0854C34.0015 54.0577 34.0053 54.0318 34.0199 54.0077C34.0324 53.987 34.0525 53.9732 34.0802 53.9664L34.2628 53.9213C34.2905 53.9145 34.3147 53.9173 34.3354 53.9299C34.3568 53.9451 34.3709 53.9666 34.3777 53.9943L34.4227 54.1769C34.4611 54.0706 34.5309 53.9726 34.6321 53.8831C34.7333 53.7936 34.8752 53.7263 35.0578 53.6812ZM35.0496 54.0047C34.8669 54.0497 34.7322 54.1461 34.6453 54.2937C34.5584 54.4414 34.543 54.6287 34.5989 54.8556L34.6276 54.9718L35.0958 54.7815C35.2882 54.7047 35.4274 54.6204 35.5135 54.5288C35.5995 54.4371 35.6302 54.3415 35.6056 54.2418C35.5776 54.1284 35.5105 54.0525 35.4041 54.0141C35.295 53.9765 35.1768 53.9733 35.0496 54.0047Z" fill="#3766E4"/>
</svg>
