<svg width="40" height="40" viewBox="0 0 40 40" fill="none" xmlns="http://www.w3.org/2000/svg">
<path fill-rule="evenodd" clip-rule="evenodd" d="M20 40C31.0457 40 40 31.0457 40 20C40 8.9543 31.0457 0 20 0C8.9543 0 0 8.9543 0 20C0 31.0457 8.9543 40 20 40ZM30 15.9581C30 12.6728 27.3272 10 24.0419 10H15.9581C12.6728 10 10 12.6728 10 15.9581V24.0419C10 27.3272 12.6728 30 15.9581 30H24.0419C27.3272 30 30 27.3272 30 24.0419V15.9581ZM27.988 24.0419C27.988 26.2212 26.2212 27.988 24.0419 27.988H15.9581C13.7788 27.988 12.012 26.2212 12.012 24.0419V15.9581C12.012 13.7787 13.7788 12.012 15.9581 12.012H24.0419C26.2212 12.012 27.988 13.7787 27.988 15.9581V24.0419ZM20.0002 14.8263C17.148 14.8263 14.8275 17.1468 14.8275 19.9992C14.8275 22.8515 17.148 25.1722 20.0002 25.1722C22.8525 25.1722 25.1729 22.8516 25.1729 19.9992C25.1729 17.1468 22.8525 14.8263 20.0002 14.8263ZM20.0002 23.1601C18.2546 23.1601 16.8395 21.7449 16.8395 19.9992C16.8395 18.2535 18.2547 16.8384 20.0002 16.8384C21.7459 16.8384 23.161 18.2535 23.161 19.9992C23.161 21.7449 21.7458 23.1601 20.0002 23.1601ZM26.422 14.8661C26.422 15.5504 25.8671 16.1052 25.1825 16.1052C24.498 16.1052 23.9431 15.5504 23.9431 14.8661C23.9431 14.1817 24.498 13.627 25.1825 13.627C25.8671 13.627 26.422 14.1817 26.422 14.8661Z" fill="#3766E4"/>
</svg>
