<svg width="148" height="46" viewBox="0 0 148 46" fill="none" xmlns="http://www.w3.org/2000/svg">
<path d="M58.9349 23.8072C58.8128 23.8072 58.709 23.7706 58.6236 23.6973C58.5503 23.6119 58.5137 23.5081 58.5137 23.386V14.7055C58.5137 14.5834 58.5503 14.4857 58.6236 14.4125C58.709 14.327 58.8128 14.2843 58.9349 14.2843H59.7407C59.8627 14.2843 59.9604 14.327 60.0337 14.4125C60.1191 14.4857 60.1619 14.5834 60.1619 14.7055V18.24H65.2163V14.7055C65.2163 14.5834 65.253 14.4857 65.3262 14.4125C65.4117 14.327 65.5154 14.2843 65.6375 14.2843H66.4433C66.5776 14.2843 66.6814 14.3209 66.7546 14.3942C66.8279 14.4674 66.8645 14.5712 66.8645 14.7055V23.386C66.8645 23.5081 66.8218 23.6119 66.7363 23.6973C66.6631 23.7706 66.5654 23.8072 66.4433 23.8072H65.6375C65.5154 23.8072 65.4117 23.7706 65.3262 23.6973C65.253 23.6119 65.2163 23.5081 65.2163 23.386V19.6501H60.1619V23.386C60.1619 23.5081 60.1191 23.6119 60.0337 23.6973C59.9604 23.7706 59.8627 23.8072 59.7407 23.8072H58.9349Z" fill="black"/>
<path d="M73.4101 23.9903C72.1648 23.9903 71.1698 23.6058 70.425 22.8366C69.6803 22.0552 69.2713 20.9931 69.198 19.6501L69.1797 19.0274L69.198 18.4231C69.2713 17.1045 69.6803 16.0546 70.425 15.2732C71.1698 14.4919 72.1648 14.1012 73.4101 14.1012C74.753 14.1012 75.7908 14.5285 76.5233 15.3831C77.2681 16.2377 77.6404 17.3976 77.6404 18.8626V19.1923C77.6404 19.3143 77.5977 19.4181 77.5122 19.5036C77.439 19.5768 77.3413 19.6135 77.2192 19.6135H70.8645V19.7783C70.9012 20.5719 71.1453 21.2494 71.5971 21.8111C72.0488 22.3727 72.647 22.6535 73.3918 22.6535C73.9656 22.6535 74.4295 22.5436 74.7836 22.3238C75.1498 22.0919 75.4245 21.8538 75.6077 21.6096C75.7175 21.4631 75.803 21.3776 75.8641 21.3532C75.9251 21.3166 76.0289 21.2983 76.1754 21.2983H76.9812C77.091 21.2983 77.1826 21.3288 77.2559 21.3898C77.3413 21.4509 77.3841 21.5302 77.3841 21.6279C77.3841 21.8965 77.2192 22.22 76.8896 22.5985C76.56 22.977 76.0899 23.3066 75.4795 23.5874C74.8812 23.856 74.1914 23.9903 73.4101 23.9903ZM75.9739 18.3682V18.3132C75.9739 17.4586 75.742 16.7627 75.278 16.2255C74.8141 15.6883 74.1914 15.4197 73.4101 15.4197C72.6165 15.4197 71.9938 15.6883 71.5421 16.2255C71.0904 16.7627 70.8645 17.4586 70.8645 18.3132V18.3682H75.9739Z" fill="black"/>
<path d="M83.1453 23.9903C82.2663 23.9903 81.5337 23.8499 80.9477 23.5691C80.3739 23.2883 79.9527 22.9465 79.6841 22.5436C79.4277 22.1407 79.2934 21.7439 79.2812 21.3532C79.2812 21.2433 79.3178 21.1579 79.3911 21.0968C79.4643 21.0236 79.5559 20.987 79.6658 20.987H80.4532C80.5753 20.987 80.6669 21.0175 80.7279 21.0785C80.8012 21.1274 80.8622 21.2189 80.9111 21.3532C81.0454 21.8172 81.3079 22.1468 81.6985 22.3421C82.1014 22.5375 82.6325 22.6351 83.2918 22.6351C83.9267 22.6351 84.4455 22.507 84.8484 22.2506C85.2635 21.982 85.4711 21.5913 85.4711 21.0785C85.4711 20.053 84.8789 19.5402 83.6947 19.5402H82.6875C82.5654 19.5402 82.4677 19.5036 82.3944 19.4303C82.3212 19.3571 82.2846 19.2594 82.2846 19.1373V18.6795C82.2846 18.5574 82.3212 18.4597 82.3944 18.3865C82.4677 18.3132 82.5654 18.2766 82.6875 18.2766H83.5848C84.6348 18.2766 85.1597 17.8554 85.1597 17.013C85.1597 16.5735 84.9949 16.2072 84.6653 15.9142C84.3479 15.609 83.8412 15.4564 83.1453 15.4564C82.4616 15.4564 81.9671 15.5723 81.6619 15.8043C81.3567 16.0241 81.1369 16.3903 81.0026 16.9031C80.9416 17.1351 80.789 17.2511 80.5448 17.2511H79.7756C79.678 17.2511 79.5925 17.2205 79.5193 17.1595C79.446 17.0862 79.4094 17.0008 79.4094 16.9031C79.4216 16.3903 79.5681 15.9264 79.8489 15.5113C80.1297 15.084 80.5448 14.7421 81.0942 14.4857C81.6558 14.2294 82.3395 14.1012 83.1453 14.1012C83.9877 14.1012 84.6775 14.2355 85.2147 14.5041C85.7641 14.7727 86.1609 15.1084 86.405 15.5113C86.6492 15.9142 86.7713 16.3354 86.7713 16.7749C86.7713 17.2755 86.6859 17.6784 86.5149 17.9836C86.3562 18.2888 86.0693 18.5452 85.6542 18.7527C86.1792 18.9603 86.5516 19.2716 86.7713 19.6867C87.0033 20.0896 87.1193 20.5902 87.1193 21.1884C87.1193 22.0919 86.753 22.7878 86.0205 23.2761C85.2879 23.7523 84.3295 23.9903 83.1453 23.9903Z" fill="black"/>
<path d="M91.8398 23.9903C91.2416 23.9903 90.6861 23.8682 90.1733 23.6241C89.6727 23.3799 89.2698 23.0502 88.9646 22.6351C88.6716 22.2078 88.5251 21.7378 88.5251 21.225C88.5251 20.4192 88.8547 19.76 89.514 19.2472C90.1733 18.7344 91.0706 18.3926 92.2061 18.2217L94.953 17.8371V17.306C94.953 16.0485 94.2266 15.4197 92.7738 15.4197C92.2122 15.4197 91.7604 15.5357 91.4186 15.7677C91.0767 15.9874 90.8265 16.2499 90.6677 16.5551C90.6189 16.6772 90.564 16.7627 90.5029 16.8115C90.4541 16.8482 90.3808 16.8665 90.2832 16.8665H89.5689C89.4591 16.8665 89.3614 16.8298 89.2759 16.7566C89.2027 16.6711 89.1661 16.5735 89.1661 16.4636C89.1661 16.1828 89.2942 15.8592 89.5506 15.493C89.8192 15.1145 90.2282 14.791 90.7776 14.5224C91.327 14.2416 91.9985 14.1012 92.7921 14.1012C94.1595 14.1012 95.1362 14.4186 95.7222 15.0535C96.3204 15.6883 96.6196 16.4819 96.6196 17.4342V23.386C96.6196 23.5081 96.5768 23.6119 96.4914 23.6973C96.4181 23.7706 96.3204 23.8072 96.1983 23.8072H95.3926C95.2705 23.8072 95.1728 23.7706 95.0996 23.6973C95.0263 23.6119 94.9897 23.5081 94.9897 23.386V22.5802C94.7211 22.9831 94.3304 23.3188 93.8176 23.5874C93.3049 23.856 92.6456 23.9903 91.8398 23.9903ZM92.2061 22.6535C93.0118 22.6535 93.6711 22.391 94.1839 21.866C94.6967 21.341 94.953 20.578 94.953 19.5768V19.0641L92.8104 19.3754C91.9314 19.4975 91.266 19.705 90.8143 19.998C90.3625 20.2911 90.1367 20.6573 90.1367 21.0968C90.1367 21.5974 90.3381 21.982 90.741 22.2506C91.1561 22.5192 91.6444 22.6535 92.2061 22.6535Z" fill="black"/>
<path d="M107.549 18.826C107.561 18.9481 107.567 19.1434 107.567 19.412C107.567 19.644 107.561 19.8088 107.549 19.9065C107.5 21.1396 107.109 22.1285 106.377 22.8732C105.644 23.618 104.613 23.9903 103.282 23.9903C101.915 23.9903 100.871 23.6058 100.15 22.8366C99.4301 22.0552 99.0394 20.9809 98.9784 19.6135V17.4159C98.9906 15.67 99.2226 14.3637 99.6743 13.4968C100.138 12.6178 100.785 11.989 101.615 11.6106C102.458 11.2199 103.819 10.7804 105.699 10.292L106.194 10.1638L106.285 10.1455C106.371 10.1455 106.45 10.176 106.523 10.2371C106.597 10.2981 106.646 10.3775 106.67 10.4751L106.816 11.171L106.835 11.2809C106.835 11.4641 106.737 11.5862 106.542 11.6472C106.395 11.6838 106.072 11.7632 105.571 11.8853C104.179 12.2149 103.172 12.5018 102.549 12.746C101.939 12.9902 101.469 13.3747 101.139 13.8997C100.81 14.4247 100.627 15.2061 100.59 16.2438C100.883 15.8043 101.298 15.4441 101.835 15.1633C102.372 14.8825 102.946 14.7421 103.557 14.7421C104.79 14.7421 105.748 15.1206 106.432 15.8776C107.128 16.6223 107.5 17.6051 107.549 18.826ZM105.864 19.8149C105.876 19.7294 105.882 19.5951 105.882 19.412C105.882 19.1923 105.876 19.0274 105.864 18.9176C105.84 18.0019 105.608 17.2999 105.168 16.8115C104.729 16.311 104.155 16.0607 103.447 16.0607C102.641 16.0607 101.988 16.311 101.487 16.8115C100.987 17.2999 100.718 18.0019 100.682 18.9176L100.663 19.412L100.682 19.8149C100.718 20.7306 100.962 21.4387 101.414 21.9392C101.878 22.4276 102.501 22.6718 103.282 22.6718C104.051 22.6718 104.668 22.4276 105.132 21.9392C105.596 21.4387 105.84 20.7306 105.864 19.8149Z" fill="black"/>
<path d="M117.641 14.2843C117.739 14.2843 117.824 14.3209 117.897 14.3942C117.983 14.4674 118.026 14.5529 118.026 14.6506C118.026 14.6994 117.989 14.8093 117.916 14.9802L114.436 23.2212L114.271 23.6058C113.942 24.3871 113.643 25.022 113.374 25.5103C113.118 25.9987 112.788 26.4138 112.385 26.7556C111.994 27.1097 111.53 27.2867 110.993 27.2867H110.297C110.175 27.2867 110.072 27.244 109.986 27.1585C109.913 27.0853 109.876 26.9876 109.876 26.8655V26.2978C109.876 26.1757 109.913 26.0719 109.986 25.9865C110.072 25.9132 110.175 25.8766 110.297 25.8766H110.774C111.042 25.8766 111.262 25.8217 111.433 25.7118C111.604 25.6019 111.756 25.4249 111.891 25.1807C112.037 24.9365 112.22 24.558 112.44 24.0453L112.751 23.2944L109.18 14.9802C109.119 14.8215 109.089 14.7177 109.089 14.6689C109.089 14.559 109.125 14.4674 109.199 14.3942C109.272 14.3209 109.363 14.2843 109.473 14.2843H110.279C110.474 14.2843 110.621 14.382 110.719 14.5773L113.575 21.3532L116.414 14.5773C116.499 14.382 116.652 14.2843 116.872 14.2843H117.641Z" fill="black"/>
<path d="M119.324 25.8217C119.202 25.8217 119.098 25.785 119.013 25.7118C118.939 25.6385 118.903 25.5347 118.903 25.4004V22.8C118.903 22.6779 118.939 22.5802 119.013 22.507C119.098 22.4215 119.202 22.3788 119.324 22.3788H119.416C119.928 22.3788 120.313 21.9515 120.569 21.0968C120.838 20.2422 120.972 18.8931 120.972 17.0496V14.7055C120.972 14.5834 121.009 14.4857 121.082 14.4125C121.168 14.327 121.271 14.2843 121.393 14.2843H127.18C127.315 14.2843 127.418 14.3209 127.492 14.3942C127.565 14.4674 127.602 14.5712 127.602 14.7055V22.3604H128.462C128.597 22.3604 128.7 22.3971 128.774 22.4703C128.847 22.5436 128.884 22.6474 128.884 22.7817V25.4004C128.884 25.5347 128.847 25.6385 128.774 25.7118C128.7 25.785 128.597 25.8217 128.462 25.8217H127.657C127.534 25.8217 127.437 25.7789 127.364 25.6935C127.29 25.6202 127.254 25.5225 127.254 25.4004V23.8072H120.551V25.4004C120.551 25.5225 120.508 25.6202 120.423 25.6935C120.35 25.7789 120.252 25.8217 120.13 25.8217H119.324ZM125.953 22.3604V15.6944H122.584V17.2327C122.584 19.7233 122.23 21.4387 121.522 22.3788L125.953 22.3604Z" fill="black"/>
<path d="M138.694 23.2761C138.742 23.3616 138.767 23.4409 138.767 23.5142C138.767 23.7095 138.651 23.8072 138.419 23.8072H137.375C137.192 23.8072 137.027 23.7156 136.881 23.5325L134.188 19.6867H132.449V23.386C132.449 23.5081 132.406 23.6119 132.321 23.6973C132.247 23.7706 132.15 23.8072 132.028 23.8072H131.24C131.118 23.8072 131.014 23.7706 130.929 23.6973C130.855 23.6119 130.819 23.5081 130.819 23.386V14.7055C130.819 14.5834 130.855 14.4857 130.929 14.4125C131.014 14.327 131.118 14.2843 131.24 14.2843H132.028C132.162 14.2843 132.266 14.3209 132.339 14.3942C132.412 14.4674 132.449 14.5712 132.449 14.7055V18.24H134.152L136.661 14.559C136.783 14.3759 136.942 14.2843 137.137 14.2843H138.034C138.144 14.2843 138.236 14.3148 138.309 14.3759C138.382 14.4247 138.419 14.4919 138.419 14.5773C138.419 14.6017 138.407 14.6384 138.382 14.6872C138.358 14.7238 138.339 14.7604 138.327 14.7971L135.58 18.8443L138.694 23.2761Z" fill="black"/>
<path d="M143.221 23.9903C142.622 23.9903 142.067 23.8682 141.554 23.6241C141.054 23.3799 140.651 23.0502 140.345 22.6351C140.052 22.2078 139.906 21.7378 139.906 21.225C139.906 20.4192 140.236 19.76 140.895 19.2472C141.554 18.7344 142.451 18.3926 143.587 18.2217L146.334 17.8371V17.306C146.334 16.0485 145.607 15.4197 144.155 15.4197C143.593 15.4197 143.141 15.5357 142.799 15.7677C142.458 15.9874 142.207 16.2499 142.049 16.5551C142 16.6772 141.945 16.7627 141.884 16.8115C141.835 16.8482 141.762 16.8665 141.664 16.8665H140.95C140.84 16.8665 140.742 16.8298 140.657 16.7566C140.584 16.6711 140.547 16.5735 140.547 16.4636C140.547 16.1828 140.675 15.8592 140.931 15.493C141.2 15.1145 141.609 14.791 142.158 14.5224C142.708 14.2416 143.379 14.1012 144.173 14.1012C145.54 14.1012 146.517 14.4186 147.103 15.0535C147.701 15.6883 148 16.4819 148 17.4342V23.386C148 23.5081 147.958 23.6119 147.872 23.6973C147.799 23.7706 147.701 23.8072 147.579 23.8072H146.773C146.651 23.8072 146.554 23.7706 146.48 23.6973C146.407 23.6119 146.371 23.5081 146.371 23.386V22.5802C146.102 22.9831 145.711 23.3188 145.198 23.5874C144.686 23.856 144.026 23.9903 143.221 23.9903ZM143.587 22.6535C144.393 22.6535 145.052 22.391 145.565 21.866C146.078 21.341 146.334 20.578 146.334 19.5768V19.0641L144.191 19.3754C143.312 19.4975 142.647 19.705 142.195 19.998C141.743 20.2911 141.518 20.6573 141.518 21.0968C141.518 21.5974 141.719 21.982 142.122 22.2506C142.537 22.5192 143.025 22.6535 143.587 22.6535Z" fill="black"/>
<path d="M60.4156 35.9856C59.7807 35.9856 59.2893 35.8025 58.9414 35.4362C58.5934 35.0638 58.4103 34.545 58.392 33.8796L58.3828 33.5133L58.392 33.147C58.4103 32.4817 58.5934 31.9658 58.9414 31.5996C59.2893 31.2272 59.7807 31.041 60.4156 31.041C60.8185 31.041 61.1603 31.1143 61.4411 31.2608C61.728 31.4012 61.9417 31.5843 62.0821 31.8102C62.2225 32.0299 62.2988 32.2588 62.311 32.4969C62.3171 32.5519 62.2988 32.6007 62.2561 32.6434C62.2133 32.6801 62.1645 32.6984 62.1096 32.6984H61.9814C61.9203 32.6984 61.8745 32.6862 61.844 32.6617C61.8196 32.6312 61.7921 32.5793 61.7616 32.5061C61.6395 32.1703 61.4686 31.9323 61.2488 31.7919C61.0291 31.6454 60.7513 31.5721 60.4156 31.5721C59.9761 31.5721 59.6251 31.7064 59.3626 31.975C59.1062 32.2375 58.9688 32.6434 58.9505 33.1928L58.9414 33.5133L58.9505 33.8338C58.9688 34.3832 59.1062 34.7922 59.3626 35.0608C59.6251 35.3233 59.9761 35.4545 60.4156 35.4545C60.7513 35.4545 61.0291 35.3843 61.2488 35.2439C61.4686 35.0974 61.6395 34.8563 61.7616 34.5205C61.7921 34.4473 61.8196 34.3984 61.844 34.374C61.8745 34.3435 61.9203 34.3282 61.9814 34.3282H62.1096C62.1645 34.3282 62.2133 34.3496 62.2561 34.3923C62.2988 34.429 62.3171 34.4748 62.311 34.5297C62.2988 34.7678 62.2225 34.9997 62.0821 35.2256C61.9417 35.4454 61.728 35.6285 61.4411 35.775C61.1603 35.9154 60.8185 35.9856 60.4156 35.9856Z" fill="#5B5E67"/>
<path d="M65.2881 35.9856C64.7082 35.9856 64.2412 35.7964 63.8872 35.4179C63.5331 35.0333 63.3317 34.5205 63.2828 33.8796L63.2737 33.5133L63.2828 33.147C63.3317 32.5122 63.5301 32.0025 63.878 31.6179C64.2321 31.2333 64.7021 31.041 65.2881 31.041C65.923 31.041 66.4174 31.2516 66.7715 31.6728C67.1317 32.094 67.3117 32.6709 67.3117 33.4034V33.5408C67.3117 33.6018 67.2904 33.6507 67.2476 33.6873C67.211 33.7239 67.1622 33.7422 67.1011 33.7422H63.8414V33.8338C63.8536 34.1207 63.9177 34.3893 64.0337 34.6396C64.1558 34.8837 64.3236 35.0821 64.5373 35.2348C64.7509 35.3813 65.0012 35.4545 65.2881 35.4545C65.6239 35.4545 65.8955 35.3904 66.1031 35.2622C66.3167 35.1279 66.4693 34.9936 66.5609 34.8593C66.6158 34.7861 66.6555 34.7403 66.6799 34.722C66.7105 34.7037 66.7623 34.6945 66.8356 34.6945H66.9821C67.037 34.6945 67.0828 34.7098 67.1195 34.7403C67.1561 34.7708 67.1744 34.8105 67.1744 34.8593C67.1744 34.9875 67.092 35.1432 66.9272 35.3263C66.7684 35.5033 66.5456 35.659 66.2587 35.7933C65.9718 35.9215 65.6483 35.9856 65.2881 35.9856ZM66.7532 33.2294V33.1928C66.7532 32.7228 66.6189 32.3352 66.3503 32.0299C66.0878 31.7247 65.7337 31.5721 65.2881 31.5721C64.8425 31.5721 64.4884 31.7247 64.226 32.0299C63.9696 32.3352 63.8414 32.7228 63.8414 33.1928V33.2294H66.7532Z" fill="#5B5E67"/>
<path d="M68.7301 37.6338C68.669 37.6338 68.6202 37.6155 68.5836 37.5788C68.547 37.5422 68.5286 37.4934 68.5286 37.4323V31.334C68.5286 31.273 68.547 31.2241 68.5836 31.1875C68.6202 31.1509 68.669 31.1326 68.7301 31.1326H68.8857C68.9468 31.1326 68.9956 31.1509 69.0323 31.1875C69.0689 31.2241 69.0872 31.273 69.0872 31.334V31.7644C69.4413 31.2821 69.954 31.041 70.6255 31.041C71.2848 31.041 71.7701 31.2516 72.0814 31.6728C72.3988 32.0879 72.5667 32.6007 72.585 33.2111C72.5911 33.2722 72.5942 33.3729 72.5942 33.5133C72.5942 33.6537 72.5911 33.7544 72.585 33.8155C72.5667 34.4259 72.3988 34.9417 72.0814 35.3629C71.7701 35.778 71.2848 35.9856 70.6255 35.9856C69.9601 35.9856 69.4474 35.7445 69.0872 35.2622V37.4323C69.0872 37.4934 69.0689 37.5422 69.0323 37.5788C68.9956 37.6155 68.9468 37.6338 68.8857 37.6338H68.7301ZM70.5706 35.4545C71.065 35.4545 71.4252 35.2988 71.6511 34.9875C71.883 34.6701 72.0082 34.2641 72.0265 33.7697C72.0326 33.7086 72.0356 33.6232 72.0356 33.5133C72.0356 32.9456 71.9258 32.4817 71.706 32.1215C71.4862 31.7552 71.1078 31.5721 70.5706 31.5721C70.0883 31.5721 69.7251 31.7339 69.4809 32.0574C69.2368 32.3748 69.1055 32.7503 69.0872 33.1837L69.078 33.5408L69.0872 33.8979C69.0933 34.1604 69.1513 34.4107 69.2612 34.6487C69.3711 34.8807 69.5359 35.073 69.7556 35.2256C69.9754 35.3782 70.247 35.4545 70.5706 35.4545Z" fill="#5B5E67"/>
<path d="M74.0414 35.894C73.9804 35.894 73.9316 35.8757 73.8949 35.8391C73.8583 35.8025 73.84 35.7536 73.84 35.6926V31.334C73.84 31.273 73.8583 31.2241 73.8949 31.1875C73.9316 31.1509 73.9804 31.1326 74.0414 31.1326H75.8453C76.3397 31.1326 76.7243 31.2455 76.999 31.4714C77.2798 31.6972 77.4202 31.9994 77.4202 32.3779C77.4202 32.6526 77.3683 32.8632 77.2646 33.0097C77.1669 33.1562 77.0051 33.2813 76.7793 33.3851C77.0112 33.4706 77.1913 33.6262 77.3195 33.8521C77.4477 34.078 77.5118 34.316 77.5118 34.5663C77.5118 34.9936 77.3653 35.3233 77.0723 35.5552C76.7854 35.7811 76.3916 35.894 75.8911 35.894H74.0414ZM75.7537 33.2294C76.0895 33.2294 76.3581 33.1531 76.5595 33.0005C76.761 32.8479 76.8617 32.6404 76.8617 32.3779C76.8617 32.1215 76.764 31.9384 76.5687 31.8285C76.3794 31.7186 76.1078 31.6637 75.7537 31.6637H74.3985V33.2294H75.7537ZM75.8178 35.3629C76.1658 35.3629 76.4405 35.2958 76.6419 35.1615C76.8495 35.0211 76.9532 34.8227 76.9532 34.5663C76.9532 34.2916 76.8586 34.0902 76.6694 33.962C76.4862 33.8277 76.2024 33.7605 75.8178 33.7605H74.3985V35.3629H75.8178Z" fill="#5B5E67"/>
<path d="M82.5936 31.1326C82.6425 31.1326 82.6852 31.1509 82.7218 31.1875C82.7585 31.2241 82.7768 31.2638 82.7768 31.3066V35.6926C82.7768 35.7536 82.7585 35.8025 82.7218 35.8391C82.6852 35.8757 82.6364 35.894 82.5753 35.894H82.4197C82.3586 35.894 82.3098 35.8757 82.2732 35.8391C82.2365 35.8025 82.2182 35.7536 82.2182 35.6926V32.0666L79.398 35.7567C79.3308 35.8482 79.2515 35.894 79.1599 35.894H78.9859C78.9371 35.894 78.8944 35.8757 78.8577 35.8391C78.8211 35.8025 78.8028 35.7597 78.8028 35.7109V31.334C78.8028 31.273 78.8211 31.2241 78.8577 31.1875C78.8944 31.1509 78.9432 31.1326 79.0043 31.1326H79.1599C79.221 31.1326 79.2698 31.1509 79.3064 31.1875C79.343 31.2241 79.3614 31.273 79.3614 31.334V34.9601L82.1816 31.2699C82.2488 31.1784 82.3281 31.1326 82.4197 31.1326H82.5936Z" fill="#5B5E67"/>
<path d="M86.0613 35.9856C85.4264 35.9856 84.935 35.8025 84.5871 35.4362C84.2391 35.0638 84.056 34.545 84.0377 33.8796L84.0285 33.5133L84.0377 33.147C84.056 32.4817 84.2391 31.9658 84.5871 31.5996C84.935 31.2272 85.4264 31.041 86.0613 31.041C86.4642 31.041 86.806 31.1143 87.0868 31.2608C87.3737 31.4012 87.5874 31.5843 87.7278 31.8102C87.8682 32.0299 87.9445 32.2588 87.9567 32.4969C87.9628 32.5519 87.9445 32.6007 87.9018 32.6434C87.859 32.6801 87.8102 32.6984 87.7553 32.6984H87.6271C87.566 32.6984 87.5202 32.6862 87.4897 32.6617C87.4653 32.6312 87.4378 32.5793 87.4073 32.5061C87.2852 32.1703 87.1143 31.9323 86.8945 31.7919C86.6748 31.6454 86.397 31.5721 86.0613 31.5721C85.6218 31.5721 85.2708 31.7064 85.0083 31.975C84.7519 32.2375 84.6145 32.6434 84.5962 33.1928L84.5871 33.5133L84.5962 33.8338C84.6145 34.3832 84.7519 34.7922 85.0083 35.0608C85.2708 35.3233 85.6218 35.4545 86.0613 35.4545C86.397 35.4545 86.6748 35.3843 86.8945 35.2439C87.1143 35.0974 87.2852 34.8563 87.4073 34.5205C87.4378 34.4473 87.4653 34.3984 87.4897 34.374C87.5202 34.3435 87.566 34.3282 87.6271 34.3282H87.7553C87.8102 34.3282 87.859 34.3496 87.9018 34.3923C87.9445 34.429 87.9628 34.4748 87.9567 34.5297C87.9445 34.7678 87.8682 34.9997 87.7278 35.2256C87.5874 35.4454 87.3737 35.6285 87.0868 35.775C86.806 35.9154 86.4642 35.9856 86.0613 35.9856Z" fill="#5B5E67"/>
<path d="M91.2251 35.894C91.1641 35.894 91.1122 35.8757 91.0695 35.8391C91.0328 35.7964 91.0145 35.7445 91.0145 35.6834V35.5369C91.0145 35.482 91.0298 35.4362 91.0603 35.3996C91.0969 35.3629 91.1427 35.3446 91.1977 35.3446C91.509 35.3446 91.7471 35.1188 91.9119 34.667C92.0767 34.2153 92.1591 33.4797 92.1591 32.4603V31.334C92.1591 31.273 92.1774 31.2241 92.214 31.1875C92.2507 31.1509 92.2995 31.1326 92.3606 31.1326H94.9793C95.0404 31.1326 95.0892 31.1509 95.1259 31.1875C95.1625 31.2241 95.1808 31.273 95.1808 31.334V35.6926C95.1808 35.7536 95.1625 35.8025 95.1259 35.8391C95.0892 35.8757 95.0404 35.894 94.9793 35.894H94.8237C94.7626 35.894 94.7138 35.8757 94.6772 35.8391C94.6406 35.8025 94.6222 35.7536 94.6222 35.6926V31.6637H92.7177V32.5244C92.7177 34.7708 92.2202 35.894 91.2251 35.894Z" fill="#5B5E67"/>
<path d="M98.473 35.9856C97.8382 35.9856 97.3437 35.7933 96.9897 35.4087C96.6417 35.018 96.4586 34.5144 96.4403 33.8979L96.4311 33.5133L96.4403 33.1287C96.4586 32.5122 96.6417 32.0116 96.9897 31.627C97.3437 31.2364 97.8382 31.041 98.473 31.041C99.1079 31.041 99.5993 31.2364 99.9472 31.627C100.301 32.0116 100.487 32.5122 100.506 33.1287C100.512 33.1898 100.515 33.318 100.515 33.5133C100.515 33.7086 100.512 33.8368 100.506 33.8979C100.487 34.5144 100.301 35.018 99.9472 35.4087C99.5993 35.7933 99.1079 35.9856 98.473 35.9856ZM98.473 35.4545C98.9064 35.4545 99.2544 35.3172 99.5169 35.0425C99.7855 34.7617 99.9289 34.3649 99.9472 33.8521C99.9534 33.7911 99.9564 33.6781 99.9564 33.5133C99.9564 33.3485 99.9534 33.2356 99.9472 33.1745C99.9289 32.6617 99.7855 32.268 99.5169 31.9933C99.2544 31.7125 98.9064 31.5721 98.473 31.5721C98.0396 31.5721 97.6886 31.7125 97.42 31.9933C97.1575 32.268 97.0171 32.6617 96.9988 33.1745L96.9897 33.5133L96.9988 33.8521C97.0171 34.3649 97.1575 34.7617 97.42 35.0425C97.6886 35.3172 98.0396 35.4545 98.473 35.4545Z" fill="#5B5E67"/>
<path d="M104.833 31.1326C104.894 31.1326 104.943 31.1509 104.98 31.1875C105.017 31.2241 105.035 31.273 105.035 31.334V35.6926C105.035 35.7536 105.017 35.8025 104.98 35.8391C104.943 35.8757 104.894 35.894 104.833 35.894H104.678C104.617 35.894 104.568 35.8757 104.531 35.8391C104.495 35.8025 104.476 35.7536 104.476 35.6926V34.1176H103.368L102.215 35.7567C102.135 35.8482 102.053 35.894 101.967 35.894H101.803C101.754 35.894 101.711 35.8757 101.674 35.8391C101.638 35.8025 101.619 35.7597 101.619 35.7109C101.619 35.6437 101.644 35.5827 101.693 35.5278L102.755 34.0078C102.413 33.9223 102.157 33.7544 101.986 33.5041C101.821 33.2539 101.738 32.9486 101.738 32.5885C101.738 32.0818 101.882 31.7125 102.169 31.4805C102.456 31.2486 102.904 31.1326 103.515 31.1326H104.833ZM104.476 31.6637H103.432C103.03 31.6637 102.74 31.7339 102.563 31.8743C102.386 32.0086 102.297 32.2466 102.297 32.5885C102.297 32.8937 102.382 33.1379 102.553 33.321C102.73 33.498 102.993 33.5866 103.341 33.5866H104.476V31.6637Z" fill="#5B5E67"/>
<path d="M106.212 35.894C106.151 35.894 106.099 35.8757 106.056 35.8391C106.02 35.7964 106.001 35.7445 106.001 35.6834V35.5369C106.001 35.482 106.017 35.4362 106.047 35.3996C106.084 35.3629 106.13 35.3446 106.184 35.3446C106.496 35.3446 106.734 35.1188 106.899 34.667C107.064 34.2153 107.146 33.4797 107.146 32.4603V31.334C107.146 31.273 107.164 31.2241 107.201 31.1875C107.237 31.1509 107.286 31.1326 107.347 31.1326H109.966C110.027 31.1326 110.076 31.1509 110.113 31.1875C110.149 31.2241 110.168 31.273 110.168 31.334V35.6926C110.168 35.7536 110.149 35.8025 110.113 35.8391C110.076 35.8757 110.027 35.894 109.966 35.894H109.811C109.749 35.894 109.701 35.8757 109.664 35.8391C109.627 35.8025 109.609 35.7536 109.609 35.6926V31.6637H107.704V32.5244C107.704 34.7708 107.207 35.894 106.212 35.894Z" fill="#5B5E67"/>
<path d="M111.848 35.894C111.787 35.894 111.738 35.8757 111.702 35.8391C111.665 35.8025 111.647 35.7536 111.647 35.6926V31.334C111.647 31.273 111.665 31.2241 111.702 31.1875C111.738 31.1509 111.787 31.1326 111.848 31.1326H112.004C112.065 31.1326 112.114 31.1509 112.15 31.1875C112.187 31.2241 112.205 31.273 112.205 31.334V32.7258H113.304C114.458 32.7258 115.035 33.2661 115.035 34.3466C115.035 34.8837 114.882 35.2775 114.577 35.5278C114.278 35.7719 113.808 35.894 113.167 35.894H111.848ZM113.249 35.3629C113.683 35.3629 113.994 35.2866 114.183 35.134C114.379 34.9814 114.476 34.7189 114.476 34.3466C114.476 33.9742 114.379 33.6995 114.183 33.5225C113.994 33.3454 113.683 33.2569 113.249 33.2569H112.205V35.3629H113.249Z" fill="#5B5E67"/>
<path d="M116.203 35.894C116.142 35.894 116.093 35.8757 116.057 35.8391C116.02 35.8025 116.002 35.7536 116.002 35.6926V31.334C116.002 31.273 116.02 31.2241 116.057 31.1875C116.093 31.1509 116.142 31.1326 116.203 31.1326H116.359C116.42 31.1326 116.469 31.1509 116.505 31.1875C116.542 31.2241 116.56 31.273 116.56 31.334V33.1928H119.417V31.334C119.417 31.273 119.435 31.2241 119.472 31.1875C119.509 31.1509 119.557 31.1326 119.618 31.1326H119.774C119.835 31.1326 119.884 31.1509 119.921 31.1875C119.957 31.2241 119.976 31.273 119.976 31.334V35.6926C119.976 35.7536 119.957 35.8025 119.921 35.8391C119.884 35.8757 119.835 35.894 119.774 35.894H119.618C119.557 35.894 119.509 35.8757 119.472 35.8391C119.435 35.8025 119.417 35.7536 119.417 35.6926V33.7239H116.56V35.6926C116.56 35.7536 116.542 35.8025 116.505 35.8391C116.469 35.8757 116.42 35.894 116.359 35.894H116.203Z" fill="#5B5E67"/>
<path d="M123.269 35.9856C122.634 35.9856 122.14 35.7933 121.786 35.4087C121.438 35.018 121.255 34.5144 121.236 33.8979L121.227 33.5133L121.236 33.1287C121.255 32.5122 121.438 32.0116 121.786 31.627C122.14 31.2364 122.634 31.041 123.269 31.041C123.904 31.041 124.396 31.2364 124.743 31.627C125.098 32.0116 125.284 32.5122 125.302 33.1287C125.308 33.1898 125.311 33.318 125.311 33.5133C125.311 33.7086 125.308 33.8368 125.302 33.8979C125.284 34.5144 125.098 35.018 124.743 35.4087C124.396 35.7933 123.904 35.9856 123.269 35.9856ZM123.269 35.4545C123.703 35.4545 124.051 35.3172 124.313 35.0425C124.582 34.7617 124.725 34.3649 124.743 33.8521C124.75 33.7911 124.753 33.6781 124.753 33.5133C124.753 33.3485 124.75 33.2356 124.743 33.1745C124.725 32.6617 124.582 32.268 124.313 31.9933C124.051 31.7125 123.703 31.5721 123.269 31.5721C122.836 31.5721 122.485 31.7125 122.216 31.9933C121.954 32.268 121.813 32.6617 121.795 33.1745L121.786 33.5133L121.795 33.8521C121.813 34.3649 121.954 34.7617 122.216 35.0425C122.485 35.3172 122.836 35.4545 123.269 35.4545Z" fill="#5B5E67"/>
<path d="M128.366 35.9856C127.731 35.9856 127.24 35.8025 126.892 35.4362C126.544 35.0638 126.361 34.545 126.342 33.8796L126.333 33.5133L126.342 33.147C126.361 32.4817 126.544 31.9658 126.892 31.5996C127.24 31.2272 127.731 31.041 128.366 31.041C128.769 31.041 129.111 31.1143 129.392 31.2608C129.678 31.4012 129.892 31.5843 130.032 31.8102C130.173 32.0299 130.249 32.2588 130.261 32.4969C130.268 32.5519 130.249 32.6007 130.206 32.6434C130.164 32.6801 130.115 32.6984 130.06 32.6984H129.932C129.871 32.6984 129.825 32.6862 129.794 32.6617C129.77 32.6312 129.743 32.5793 129.712 32.5061C129.59 32.1703 129.419 31.9323 129.199 31.7919C128.979 31.6454 128.702 31.5721 128.366 31.5721C127.926 31.5721 127.575 31.7064 127.313 31.975C127.057 32.2375 126.919 32.6434 126.901 33.1928L126.892 33.5133L126.901 33.8338C126.919 34.3832 127.057 34.7922 127.313 35.0608C127.575 35.3233 127.926 35.4545 128.366 35.4545C128.702 35.4545 128.979 35.3843 129.199 35.2439C129.419 35.0974 129.59 34.8563 129.712 34.5205C129.743 34.4473 129.77 34.3984 129.794 34.374C129.825 34.3435 129.871 34.3282 129.932 34.3282H130.06C130.115 34.3282 130.164 34.3496 130.206 34.3923C130.249 34.429 130.268 34.4748 130.261 34.5297C130.249 34.7678 130.173 34.9997 130.032 35.2256C129.892 35.4454 129.678 35.6285 129.392 35.775C129.111 35.9154 128.769 35.9856 128.366 35.9856Z" fill="#5B5E67"/>
<path d="M132.927 35.894C132.866 35.894 132.817 35.8757 132.781 35.8391C132.744 35.8025 132.726 35.7536 132.726 35.6926V31.6637H131.05C130.989 31.6637 130.94 31.6454 130.904 31.6087C130.867 31.5721 130.849 31.5233 130.849 31.4622V31.334C130.849 31.273 130.867 31.2241 130.904 31.1875C130.94 31.1509 130.989 31.1326 131.05 31.1326H134.96C135.021 31.1326 135.07 31.1509 135.106 31.1875C135.143 31.2241 135.161 31.273 135.161 31.334V31.4622C135.161 31.5233 135.143 31.5721 135.106 31.6087C135.07 31.6454 135.021 31.6637 134.96 31.6637H133.284V35.6926C133.284 35.7536 133.266 35.8025 133.229 35.8391C133.193 35.8757 133.144 35.894 133.083 35.894H132.927Z" fill="#5B5E67"/>
<path d="M139.814 31.1326C139.862 31.1326 139.905 31.1509 139.942 31.1875C139.978 31.2241 139.997 31.2638 139.997 31.3066V35.6926C139.997 35.7536 139.978 35.8025 139.942 35.8391C139.905 35.8757 139.856 35.894 139.795 35.894H139.64C139.579 35.894 139.53 35.8757 139.493 35.8391C139.457 35.8025 139.438 35.7536 139.438 35.6926V32.0666L136.618 35.7567C136.551 35.8482 136.471 35.894 136.38 35.894H136.206C136.157 35.894 136.114 35.8757 136.078 35.8391C136.041 35.8025 136.023 35.7597 136.023 35.7109V31.334C136.023 31.273 136.041 31.2241 136.078 31.1875C136.114 31.1509 136.163 31.1326 136.224 31.1326H136.38C136.441 31.1326 136.49 31.1509 136.526 31.1875C136.563 31.2241 136.581 31.273 136.581 31.334V34.9601L139.402 31.2699C139.469 31.1784 139.548 31.1326 139.64 31.1326H139.814Z" fill="#5B5E67"/>
<path fill-rule="evenodd" clip-rule="evenodd" d="M41.9853 7.75241C41.2343 9.41918 40.2447 11.0128 39.0115 12.4844C36.1462 15.9036 32.4023 18.1438 28.3905 19.1531C28.3479 19.1638 28.3046 19.1749 28.2605 19.1861C27.3297 19.4233 26.0681 19.7447 24.889 18.754C23.6862 17.7434 23.7849 16.593 23.8661 15.6464C23.8741 15.5523 23.882 15.4602 23.8885 15.3704C24.1845 11.2389 25.7375 7.15795 28.6027 3.73873C29.8297 2.27451 31.2173 1.0271 32.7173 0C34.6855 0.51507 36.5739 1.46439 38.2378 2.8624C39.8846 4.2461 41.1373 5.92307 41.9853 7.75241ZM4.99408 20.4974C3.19127 21.1544 1.5385 22.039 0.0558077 23.1064C-0.123231 25.1153 0.124288 27.1948 0.859555 29.2176C1.60242 31.2614 2.76382 33.029 4.21114 34.4605C6.0231 34.322 7.84762 33.9364 9.64135 33.2827C13.83 31.7561 17.2127 28.9994 19.532 25.5697C19.5824 25.4951 19.6353 25.4193 19.6893 25.3418C20.2322 24.5627 20.8921 23.6158 20.3551 22.1384C19.8287 20.6901 18.5756 20.3369 17.6511 20.0763C17.6073 20.0639 17.5642 20.0518 17.522 20.0397C13.5437 18.9052 9.18276 18.9708 4.99408 20.4974ZM46.4599 23.1064C44.9772 22.039 43.3244 21.1544 41.5216 20.4974C37.3329 18.9708 32.972 18.9052 28.9937 20.0397C28.9805 20.0435 28.9673 20.0472 28.9541 20.051C28.9247 20.0593 28.895 20.0677 28.865 20.0762L28.8646 20.0763C27.9401 20.3369 26.687 20.6901 26.1606 22.1384C25.6236 23.6158 26.2834 24.5627 26.8264 25.3418C26.8804 25.4193 26.9332 25.4951 26.9836 25.5697C29.3029 28.9994 32.6857 31.7561 36.8743 33.2827C38.6681 33.9364 40.4926 34.322 42.3045 34.4605C43.7519 33.029 44.9132 31.2614 45.6561 29.2176C46.3914 27.1948 46.6389 25.1153 46.4599 23.1064ZM29.3133 43.7168C29.8079 41.9565 30.0727 40.0988 30.0727 38.1777C30.0727 33.7142 28.6428 29.5884 26.2174 26.2329C26.2008 26.21 26.184 26.1867 26.1671 26.1632L26.139 26.124C25.5782 25.3432 24.8181 24.2849 23.279 24.2849C21.7088 24.2849 21.0459 25.2297 20.5005 26.0071C20.4462 26.0844 20.3932 26.16 20.3405 26.2329C17.9151 29.5884 16.4851 33.7142 16.4851 38.1777C16.4851 40.0891 16.7473 41.9377 17.2371 43.6901C19.0755 44.5623 21.1315 45.0506 23.3035 45.0506C25.4533 45.0506 27.4894 44.5723 29.3133 43.7168Z" fill="#3766E4"/>
<path fill-rule="evenodd" clip-rule="evenodd" d="M5.4257 9.40466C5.11956 8.86339 4.84051 8.31203 4.58834 7.75241C5.43636 5.92307 6.68907 4.24611 8.33589 2.8624C9.99974 1.46439 11.8882 0.51507 13.8564 7.81662e-08C14.3228 0.3194 14.7784 0.660106 15.2217 1.02201C12.9417 1.26544 10.7136 2.19691 8.86856 3.83649C7.13774 5.37458 5.98477 7.32193 5.4257 9.40466ZM6.03507 10.4128C6.45408 8.18312 7.58705 6.07115 9.41187 4.44953C11.3373 2.73849 13.7125 1.85815 16.1004 1.78231C16.5949 2.23547 17.0714 2.71708 17.5278 3.227C15.0077 2.92947 12.3779 3.66881 10.3317 5.48711C8.36148 7.23798 7.3189 9.64581 7.2403 12.0906C6.80631 11.5462 6.40465 10.9861 6.03507 10.4128ZM8.08237 13.0816C8.65026 13.7091 9.24901 14.2933 9.87433 14.8338C8.89844 12.1959 9.56858 9.11601 11.7946 7.13787C14.0444 5.13862 17.2212 4.85321 19.7338 6.18485C19.3158 5.50438 18.8535 4.84164 18.3468 4.20048C15.7862 3.60712 12.9886 4.22197 10.875 6.10015C8.82112 7.92537 7.87346 10.5347 8.08237 13.0816ZM20.6371 7.81896C18.3232 5.69305 14.7344 5.62128 12.3379 7.75091C9.91992 9.89963 9.57993 13.5215 11.469 16.0789C12.811 17.0227 14.2465 17.788 15.7406 18.372C14.7301 17.507 13.7667 16.5623 12.8593 15.5384C12.8457 15.5231 12.8335 15.5071 12.8226 15.4904C12.8075 15.4777 12.793 15.4636 12.7795 15.4483C11.0654 13.5144 11.2941 10.5335 13.2576 8.78861C15.2169 7.04744 18.1914 7.17015 19.9072 9.09243C19.9618 9.11545 20.0123 9.15077 20.0543 9.19814C20.6344 9.85273 21.2487 10.4589 21.8921 11.0164C21.568 9.92683 21.15 8.85697 20.6371 7.81896ZM22.2426 12.3612C21.2506 11.5955 20.3156 10.7262 19.4529 9.75438C19.3983 9.73136 19.3478 9.69605 19.3058 9.6487C17.9055 8.06863 15.4418 7.94345 13.8009 9.40165C12.16 10.8598 11.9913 13.3242 13.3917 14.9043C13.4052 14.9196 13.4174 14.9356 13.4283 14.9522C13.4435 14.965 13.4579 14.979 13.4715 14.9943C14.8527 16.5528 16.3671 17.9225 17.9822 19.1014C18.0492 19.119 18.1162 19.1362 18.1832 19.1531C18.2258 19.1638 18.2691 19.1749 18.3132 19.1861C18.9862 19.3576 19.832 19.5731 20.6946 19.305C18.438 17.9374 16.3455 16.2113 14.5025 14.1318C13.5448 13.0512 13.6418 11.398 14.7205 10.4393C15.7993 9.48068 17.4501 9.58071 18.4078 10.6613C19.6682 12.0834 21.0734 13.3003 22.5813 14.3094C22.5002 13.6566 22.3874 13.0064 22.2426 12.3612ZM22.6839 15.3522C20.9073 14.2384 19.2575 12.8549 17.7956 11.2054C17.1374 10.4626 16.0038 10.3948 15.2638 11.0524C14.5239 11.7099 14.4565 12.845 15.1147 13.5877C17.019 15.7364 19.198 17.4959 21.5515 18.8602C21.596 18.8266 21.6404 18.7913 21.6847 18.754C22.0647 18.4348 22.3147 18.1016 22.4765 17.7652C20.1805 16.4597 18.0561 14.7599 16.2056 12.672C16.0556 12.5027 16.071 12.2437 16.24 12.0934C16.4091 11.9432 16.6678 11.9587 16.8178 12.1279C18.5627 14.0968 20.5596 15.7087 22.7165 16.958C22.7809 16.5013 22.7426 16.0549 22.7076 15.6464C22.6995 15.5523 22.6916 15.4601 22.6852 15.3704C22.6848 15.3643 22.6843 15.3583 22.6839 15.3522Z" fill="#3766E4"/>
<path d="M23.2578 17.8795L23.2806 17.9364C23.8057 19.2499 25.033 20.1456 26.4389 20.2414L26.4998 20.2455L26.453 20.2849C25.3716 21.1924 24.9028 22.6417 25.2466 24.0144L25.2615 24.0739L25.2098 24.0413C24.0163 23.2887 22.4993 23.2887 21.3059 24.0413L21.2542 24.0739L21.2691 24.0144C21.6129 22.6417 21.1441 21.1924 20.0627 20.2849L20.0158 20.2455L20.0768 20.2414C21.4827 20.1456 22.71 19.2499 23.2351 17.9364L23.2578 17.8795Z" fill="#3766E4"/>
</svg>
