<svg width="169" height="50" viewBox="0 0 169 50" fill="none" xmlns="http://www.w3.org/2000/svg">
<path d="M162.75 0H6.5C3.0625 0 0.249999 2.8125 0.249999 6.25V43.75C0.249999 47.1875 3.0625 50 6.5 50H162.75C166.188 50 169 47.1875 169 43.75V6.25C169 2.8125 166.188 0 162.75 0Z"/>
<path d="M133.67 37.5H136.003V21.8735H133.67V37.5ZM154.679 27.5025L152.006 34.2773H151.926L149.15 27.5025H146.638L150.799 36.9716L148.427 42.2387H150.861L157.273 27.5025H154.679ZM141.452 35.7251C140.687 35.7251 139.622 35.3432 139.622 34.398C139.622 33.1918 140.949 32.7295 142.094 32.7295C143.12 32.7295 143.602 32.9506 144.226 33.2525C144.044 34.6997 142.798 35.7251 141.452 35.7251ZM141.733 27.1606C140.044 27.1606 138.295 27.9047 137.572 29.5532L139.642 30.4175C140.084 29.5532 140.908 29.2715 141.773 29.2715C142.979 29.2715 144.206 29.9956 144.226 31.2822V31.4428C143.803 31.2016 142.899 30.8398 141.793 30.8398C139.562 30.8398 137.289 32.0658 137.289 34.3578C137.289 36.4487 139.119 37.7958 141.169 37.7958C142.738 37.7958 143.602 37.0922 144.146 36.2681H144.226V37.4741H146.477V31.4828C146.477 28.709 144.407 27.1606 141.733 27.1606ZM127.318 29.4047H124V24.0483H127.318C129.062 24.0483 130.052 25.4921 130.052 26.7265C130.052 27.9375 129.062 29.4047 127.318 29.4047ZM127.258 21.8735H121.669V37.5H124V31.5796H127.258C129.843 31.5796 132.384 29.708 132.384 26.7265C132.384 23.7451 129.843 21.8735 127.258 21.8735ZM96.7817 35.728C95.1704 35.728 93.8212 34.3788 93.8212 32.5258C93.8212 30.6533 95.1704 29.2837 96.7817 29.2837C98.3726 29.2837 99.6211 30.6533 99.6211 32.5258C99.6211 34.3788 98.3726 35.728 96.7817 35.728ZM99.46 28.3775H99.3794C98.856 27.7533 97.8486 27.1895 96.5801 27.1895C93.9219 27.1895 91.4854 29.5253 91.4854 32.5258C91.4854 35.5063 93.9219 37.8222 96.5801 37.8222C97.8486 37.8222 98.856 37.2582 99.3794 36.6142H99.46V37.3793C99.46 39.4136 98.3726 40.501 96.6206 40.501C95.1909 40.501 94.3047 39.4736 93.9419 38.6078L91.9082 39.4536C92.4922 40.8632 94.043 42.5952 96.6206 42.5952C99.3594 42.5952 101.675 40.9838 101.675 37.0571V27.5117H99.46V28.3775ZM103.286 37.5H105.622V21.873H103.286V37.5ZM109.066 32.3447C109.005 30.2905 110.657 29.2436 111.845 29.2436C112.772 29.2436 113.557 29.7065 113.818 30.3716L109.066 32.3447ZM116.315 30.5727C115.873 29.3842 114.523 27.1895 111.764 27.1895C109.025 27.1895 106.75 29.3442 106.75 32.5058C106.75 35.4863 109.005 37.8222 112.026 37.8222C114.463 37.8222 115.873 36.332 116.457 35.4662L114.644 34.2577C114.04 35.144 113.214 35.728 112.026 35.728C110.838 35.728 109.992 35.1841 109.448 34.1171L116.557 31.1767L116.315 30.5727ZM59.6802 28.8207V31.0761H65.0771C64.916 32.3447 64.4931 33.271 63.8486 33.9155C63.0635 34.7011 61.835 35.5668 59.6802 35.5668C56.3574 35.5668 53.7597 32.8886 53.7597 29.5658C53.7597 26.2431 56.3574 23.5645 59.6802 23.5645C61.4726 23.5645 62.7812 24.2695 63.748 25.1757L65.3389 23.585C63.9897 22.2958 62.1972 21.3091 59.6802 21.3091C55.1289 21.3091 51.3027 25.0146 51.3027 29.5658C51.3027 34.1171 55.1289 37.8222 59.6802 37.8222C62.1372 37.8222 63.9897 37.0171 65.4395 35.5063C66.9297 34.0161 67.3931 31.9218 67.3931 30.2305C67.3931 29.7065 67.353 29.2236 67.272 28.8207H59.6802ZM73.5289 35.728C71.9175 35.728 70.5279 34.3988 70.5279 32.5058C70.5279 30.5927 71.9175 29.2837 73.5289 29.2837C75.1396 29.2837 76.5292 30.5927 76.5292 32.5058C76.5292 34.3988 75.1396 35.728 73.5289 35.728ZM73.5289 27.1895C70.5884 27.1895 68.1919 29.4247 68.1919 32.5058C68.1919 35.5668 70.5884 37.8222 73.5289 37.8222C76.4687 37.8222 78.8652 35.5668 78.8652 32.5058C78.8652 29.4247 76.4687 27.1895 73.5289 27.1895ZM85.1704 35.728C83.5596 35.728 82.1699 34.3988 82.1699 32.5058C82.1699 30.5927 83.5596 29.2837 85.1704 29.2837C86.7812 29.2837 88.1709 30.5927 88.1709 32.5058C88.1709 34.3988 86.7812 35.728 85.1704 35.728ZM85.1704 27.1895C82.23 27.1895 79.834 29.4247 79.834 32.5058C79.834 35.5668 82.23 37.8222 85.1704 37.8222C88.1104 37.8222 90.5069 35.5668 90.5069 32.5058C90.5069 29.4247 88.1104 27.1895 85.1704 27.1895Z" fill="white"/>
<path d="M13.5304 39.6873L28.2606 24.957L13.53 10.2268C13.3967 10.4937 13.3105 10.8535 13.3105 11.3179V38.5976C13.3105 39.0607 13.397 39.4205 13.5304 39.6873ZM13.315 10.952C13.315 10.9519 13.315 10.9518 13.315 10.9518L12.8343 10.9261L12.8346 10.9262L12.8346 10.9262L13.315 10.952Z" stroke="white"/>
<path d="M40.1172 26.1444L40.1173 26.1444C40.7923 25.7609 41.0976 25.3234 41.1685 24.9572C41.0976 24.59 40.7923 24.1528 40.1173 23.7692C40.1173 23.7692 40.1172 23.7692 40.1172 23.7692L34.2156 20.4164L29.6758 24.9566L34.2161 29.4977L40.1172 26.1444Z" stroke="white"/>
<path d="M15.7397 39.9948L33.3128 30.0101L28.9672 25.6637L14.31 40.3214C14.396 40.3397 14.4877 40.3492 14.5854 40.3491H14.586C14.9032 40.3491 15.2943 40.2473 15.7396 39.9949C15.7396 39.9948 15.7397 39.9948 15.7397 39.9948Z" stroke="white"/>
<path d="M14.584 9.56392C14.4866 9.56392 14.3952 9.57338 14.3095 9.59157L28.9677 24.2494L33.3128 19.9039L15.7403 9.91927C15.2937 9.66611 14.9021 9.56392 14.584 9.56392Z" stroke="white"/>
<path d="M14.357 41.0742C14.75 41.0517 15.1852 40.9165 15.6427 40.6572L33.7852 30.3486L15.6427 40.6572C15.1855 40.917 14.75 41.0517 14.357 41.0742ZM13.1373 40.6708L13.1334 40.6675C13.1348 40.6685 13.1363 40.6698 13.1373 40.6708ZM13.0528 40.5888L13.0449 40.5811V40.5806C13.0479 40.5835 13.0503 40.5863 13.0528 40.5888Z" fill="black"/>
<path d="M33.7852 30.3486L33.9038 30.2812L33.7852 30.3486Z" fill="url(#paint0_linear)"/>
<path d="M13.0433 40.5806C12.6796 40.1957 12.4648 39.5981 12.4648 38.8242V38.8237C12.4648 39.5981 12.6796 40.1952 13.0433 40.5801V40.5806Z" fill="black"/>
<path d="M13.0449 40.5801L13.1378 40.4868V40.4872L13.0449 40.5801Z" fill="url(#paint1_linear)"/>
<path d="M41.1836 25.6475C41.2797 25.4365 41.3281 25.2197 41.3281 25.0028C41.3281 25.0025 41.3281 25.002 41.3281 25.002C41.3281 25.2192 41.2797 25.436 41.1836 25.6475Z" fill="black"/>
<path d="M41.3291 25.001V25.0005C41.3286 24.3466 40.8916 23.6929 40.019 23.1967L33.9028 19.7216H33.9023L33.9028 19.7212L40.019 23.1962C40.8926 23.6924 41.3301 24.3471 41.3291 25.001Z" fill="#404040"/>
<path d="M12.4648 11.1724C12.4648 11.1719 12.4648 11.1714 12.4648 11.1709C12.4648 11.1714 12.4648 11.1719 12.4648 11.1724ZM12.4702 10.9692C12.4702 10.9682 12.4702 10.9672 12.4702 10.9662C12.4702 10.9672 12.4702 10.9682 12.4702 10.9692ZM12.4706 10.9634C12.4706 10.9614 12.4706 10.9595 12.4706 10.9575C12.4706 10.9595 12.4706 10.9614 12.4706 10.9634ZM12.4706 10.956C12.543 9.67186 13.2412 8.93011 14.229 8.92574C13.8007 8.92824 13.4277 9.06886 13.1357 9.33199V9.33149L13.1322 9.33499C13.1015 9.36274 13.0722 9.39211 13.0433 9.42236C12.7152 9.76949 12.5082 10.2895 12.4706 10.956Z" fill="#404040"/>
<path d="M54.3701 12.4589C54.3847 13.6454 54.147 14.6024 53.6586 15.329H57.4501V9.67174H54.3701V12.4589ZM52.6416 17.8421H51.7202V15.329H52.4536C53.103 14.7694 53.4203 13.8134 53.4072 12.4589V8.75037H58.4145V15.329H59.252V17.8421H58.3301V16.2504H52.6416V17.8421Z" fill="white"/>
<path d="M54.3701 12.4589L54.2456 12.4603L54.2466 12.5613C54.2461 13.684 54.0117 14.5805 53.5551 15.2591L53.4243 15.454H57.5756V9.54671H54.2456V12.4603L54.3701 12.4589L54.4956 12.4588V9.79671H57.3256V15.204H53.6591L53.6586 15.329L53.7627 15.3983C54.2543 14.6668 54.4966 13.7176 54.4966 12.5613L54.4956 12.4573L54.3701 12.4589ZM52.6416 17.8421L52.6421 17.7171H51.8457V15.454H52.5005L52.5356 15.4237C53.2113 14.8407 53.5332 13.8695 53.5332 12.5408L53.5327 12.4578V12.4588V8.87534H58.29V15.454H59.1275V17.7171H58.4556V16.1253H52.5171V17.8421L52.6416 17.8421L52.7671 17.8421V16.3753H58.2056V17.9671H59.3775V15.204H58.54V8.62534H53.2827V12.4593L53.2832 12.5408C53.2827 13.8343 52.9692 14.7216 52.3725 15.2337L52.4536 15.329L52.4541 15.204H51.5957V17.9671H52.7671V17.8421L52.6416 17.8421Z" fill="white"/>
<path d="M61.9796 14.6529C62.5352 15.2149 63.214 15.4957 64.0172 15.4957C64.8203 15.4957 65.5001 15.2149 66.0542 14.6529C66.61 14.0909 66.8882 13.3726 66.8882 12.5001C66.8882 11.6276 66.61 10.9092 66.0542 10.3472C65.5001 9.78519 64.8203 9.50444 64.0172 9.50444C63.214 9.50444 62.5352 9.78519 61.9796 10.3472C61.4253 10.9092 61.1471 11.6276 61.1471 12.5001C61.1471 13.3726 61.4253 14.0909 61.9796 14.6529ZM66.7672 15.2808C66.0298 16.0391 65.1133 16.4176 64.0172 16.4176C62.921 16.4176 62.004 16.0391 61.2681 15.2808C60.5308 14.5234 60.1632 13.5963 60.1632 12.5001C60.1632 11.4038 60.5308 10.4766 61.2681 9.71932C62.004 8.96094 62.921 8.58207 64.0172 8.58207C65.107 8.58207 66.0216 8.96294 66.7622 9.72419C67.502 10.4854 67.8721 11.4107 67.8721 12.5001C67.8721 13.5963 67.5035 14.5234 66.7672 15.2808Z" fill="white"/>
<path d="M61.9796 14.6529L61.8912 14.7408C62.4668 15.3253 63.1851 15.6222 64.0177 15.6207C64.8497 15.6222 65.5694 15.3253 66.1436 14.7408C66.7232 14.1558 67.0147 13.3989 67.0137 12.5C67.0147 11.6012 66.7232 10.8443 66.1436 10.2593C65.5694 9.67478 64.8497 9.37791 64.0177 9.37941C63.1851 9.37791 62.4668 9.67478 61.8912 10.2593C61.3131 10.8443 61.0216 11.6012 61.0226 12.5C61.0216 13.3989 61.3131 14.1558 61.8912 14.7408L61.9796 14.6529L62.0695 14.565C61.5391 14.0254 61.274 13.3467 61.2726 12.5C61.274 11.6534 61.5391 10.9747 62.0695 10.435C62.6046 9.89554 63.2432 9.63091 64.0177 9.62941C64.7916 9.63091 65.4322 9.89554 65.9658 10.435C66.4976 10.9747 66.7623 11.6534 66.7637 12.5C66.7623 13.3467 66.4976 14.0254 65.9658 14.565C65.4322 15.1045 64.7916 15.3692 64.0177 15.3707C63.2432 15.3692 62.6046 15.1045 62.0695 14.565L61.9796 14.6529ZM66.7672 15.2808L66.6783 15.1939C65.9619 15.9283 65.0851 16.291 64.0177 16.2925C62.9498 16.291 62.0733 15.9283 61.358 15.1939C60.6431 14.457 60.2901 13.5684 60.2887 12.5C60.2901 11.4317 60.6431 10.543 61.358 9.80616C62.0733 9.07178 62.9498 8.70853 64.0177 8.70703C65.0787 8.70853 65.9532 9.07328 66.6734 9.81153C67.3912 10.5518 67.7462 11.439 67.7476 12.5C67.7462 13.5684 67.3922 14.457 66.6783 15.1939L66.7672 15.2808L66.8574 15.3677C67.6153 14.5894 67.9986 13.624 67.9976 12.5C67.9986 11.3824 67.6143 10.419 66.8526 9.63728C66.0908 8.85253 65.1368 8.45566 64.0177 8.45703C62.8927 8.45566 61.9356 8.85066 61.1788 9.63241C60.4195 10.4112 60.0377 11.376 60.0387 12.5C60.0377 13.624 60.4195 14.5894 61.1788 15.3682C61.9356 16.1499 62.8927 16.5435 64.0177 16.5425C65.1422 16.5435 66.0992 16.1494 66.8574 15.3677L66.7672 15.2808Z" fill="white"/>
<path d="M72.7243 16.4176C71.6208 16.4176 70.6955 16.0441 69.9484 15.2964C69.1999 14.5494 68.8278 13.6172 68.8278 12.5001C68.8278 11.3828 69.1999 10.4507 69.9484 9.70369C70.6955 8.95607 71.6208 8.58207 72.7243 8.58207C73.8546 8.58207 74.7736 8.99082 75.4791 9.80769L74.8078 10.4576C74.299 9.82182 73.6031 9.50444 72.7243 9.50444C71.9064 9.50444 71.2164 9.78032 70.6549 10.3321C70.0924 10.8838 69.8116 11.6066 69.8116 12.5001C69.8116 13.3936 70.0924 14.1168 70.6549 14.6681C71.2164 15.2198 71.9064 15.4957 72.7243 15.4957C73.6251 15.4957 74.3928 15.1328 75.0289 14.4068L75.6989 15.0767C75.3561 15.4888 74.9274 15.8154 74.4098 16.0557C73.8936 16.2969 73.3308 16.4176 72.7243 16.4176Z" fill="white"/>
<path d="M72.7229 16.2925C71.6473 16.291 70.7611 15.9322 70.0354 15.208C69.3103 14.4829 68.9524 13.5894 68.9514 12.5C68.9524 11.4107 69.3103 10.5172 70.0354 9.79203C70.7611 9.06741 71.6473 8.70854 72.7229 8.70704C73.8236 8.70904 74.6985 9.09866 75.383 9.88916L75.4778 9.80766L75.3909 9.71779L74.7195 10.3682L74.8064 10.4575L74.904 10.3794C74.3738 9.71441 73.6312 9.37754 72.7229 9.37941C71.8767 9.37841 71.1487 9.66904 70.5662 10.2427C69.9778 10.8184 69.6838 11.581 69.6853 12.5C69.6838 13.419 69.9778 14.1827 70.5662 14.7574C71.1487 15.331 71.8767 15.6217 72.7229 15.6207C73.6579 15.6222 74.468 15.2383 75.1213 14.4893L75.0275 14.4068L74.9392 14.4952L75.6092 15.165L75.6976 15.0767L75.6013 14.9972C75.2703 15.3945 74.8582 15.709 74.3557 15.9424C73.8562 16.1758 73.3133 16.292 72.7229 16.2925V16.5425C73.3459 16.5425 73.928 16.4185 74.4612 16.169C74.9944 15.9219 75.4388 15.5835 75.7937 15.1568L75.8664 15.0694L75.0213 14.2237L74.9334 14.3243C74.3152 15.0279 73.5897 15.3692 72.7229 15.3707C71.9329 15.3692 71.282 15.1084 70.7414 14.5787C70.2043 14.0513 69.9363 13.3682 69.9353 12.5C69.9363 11.6319 70.2039 10.9498 70.741 10.4214C71.2817 9.89166 71.9329 9.63091 72.7229 9.62941C73.5721 9.63141 74.2209 9.92929 74.7088 10.5357L74.7947 10.6432L75.5647 9.89753L75.6497 9.81541L75.5726 9.72616C74.8464 8.88241 73.8831 8.45566 72.7229 8.45704C71.5911 8.45604 70.6267 8.84528 69.8587 9.61528C69.0867 10.3838 68.6999 11.3555 68.7014 12.5C68.6999 13.6445 69.0867 14.6163 69.8587 15.3853C70.6267 16.1548 71.5911 16.5435 72.7229 16.5425V16.2925Z" fill="white"/>
<path d="M79.5955 16.25H78.6312V9.6714H76.5365V8.75002H81.6902V9.6714H79.5955V16.25Z" fill="white"/>
<path d="M79.5955 16.25L79.596 16.125H78.7567V9.54637H76.662V8.87499H81.5657V9.54637H79.471V16.25L79.5955 16.25L79.721 16.25V9.79637H81.8157V8.62499H76.412V9.79637H78.5067V16.375H79.721V16.25L79.5955 16.25Z" fill="white"/>
<path d="M88.307 8.75007L85.4692 15.0767C85.077 15.9708 84.4955 16.4176 83.7202 16.4176C83.4897 16.4176 83.2415 16.3619 82.9755 16.2501L83.2269 15.3594C83.388 15.4507 83.5555 15.4957 83.7299 15.4957C83.9535 15.4957 84.1268 15.4522 84.2489 15.3653C84.371 15.2779 84.4843 15.1182 84.5893 14.8882L84.8617 14.2906L82.3373 8.75007H83.4687L85.3227 13.0552H85.3642L87.1752 8.75007H88.307Z" fill="white"/>
<path d="M88.307 8.75007L88.1931 8.69876L85.3552 15.0259L85.3547 15.0269C84.9689 15.8935 84.4421 16.2881 83.7204 16.2925C83.5099 16.2925 83.2784 16.2418 83.0241 16.1348L82.9755 16.2501L83.0963 16.2841L83.3473 15.3935L83.2269 15.3594L83.1662 15.4683C83.3439 15.5689 83.5338 15.6211 83.7302 15.6206C83.9689 15.6206 84.1691 15.5753 84.3219 15.4668C84.4723 15.3579 84.5929 15.1806 84.7033 14.9404L84.9758 14.3428L84.9992 14.2905L82.5319 8.87501H83.3869L85.2404 13.1801H85.4474L87.2584 8.87501H88.3073L88.307 8.75007L88.3073 8.62501H87.0924L85.2487 13.0069L85.3642 13.0552L85.3644 12.9301H85.3229L85.3227 13.0552L85.4377 13.0059L83.5514 8.62501H82.1432L84.7243 14.2905L84.4758 14.8364C84.3767 15.0556 84.2702 15.1973 84.1764 15.2631C84.0852 15.3291 83.9382 15.3711 83.7302 15.3706C83.5773 15.3706 83.4333 15.332 83.2887 15.2505L83.1501 15.1724L82.8557 16.2159L82.8253 16.3223L82.9274 16.3653C83.2052 16.4819 83.4694 16.5425 83.7204 16.5425C84.5489 16.5464 85.1857 16.0474 85.5837 15.127L85.5832 15.1279L88.5002 8.62501H88.3073L88.307 8.75007Z" fill="white"/>
<path d="M89.3997 16.25V8.75002H94.8259V16.25H93.8617V9.6714H90.3625V16.25H89.3997Z" fill="white"/>
<path d="M89.3983 16.25H89.5233V8.87499H94.6992V16.125H93.9853V9.54637H90.2362V16.125H89.3983V16.25V16.375H90.4862V9.79637H93.7353V16.375H94.9496V8.62499H89.2733V16.375H89.3983V16.25Z" fill="white"/>
<path d="M96.5426 16.25V8.75002H97.506V11.9654H101.256V8.75002H102.22V16.25H101.256V12.8663H97.506V16.25H96.5426Z" fill="white"/>
<path d="M96.5426 16.25L96.6681 16.25V8.87499H97.3815V12.0904H101.381V8.87499H102.096V16.125H101.381V12.7412H97.3815V16.125H96.5431L96.5426 16.25L96.5431 16.375H97.6315V12.9912H101.131V16.375H102.346V8.62499H101.131V11.8404H97.6315V8.62499H96.4181V16.375H96.5431L96.5426 16.25Z" fill="white"/>
<path d="M105.284 14.6529C105.84 15.2149 106.518 15.4957 107.322 15.4957C108.125 15.4957 108.805 15.2149 109.359 14.6529C109.914 14.0909 110.193 13.3726 110.193 12.5001C110.193 11.6276 109.914 10.9092 109.359 10.3472C108.805 9.78519 108.125 9.50444 107.322 9.50444C106.518 9.50444 105.84 9.78519 105.284 10.3472C104.73 10.9092 104.452 11.6276 104.452 12.5001C104.452 13.3726 104.73 14.0909 105.284 14.6529ZM110.072 15.2808C109.335 16.0391 108.418 16.4176 107.322 16.4176C106.226 16.4176 105.309 16.0391 104.573 15.2808C103.835 14.5234 103.468 13.5963 103.468 12.5001C103.468 11.4038 103.835 10.4766 104.573 9.71932C105.309 8.96094 106.226 8.58207 107.322 8.58207C108.412 8.58207 109.326 8.96294 110.067 9.72419C110.807 10.4854 111.177 11.4107 111.177 12.5001C111.177 13.5963 110.808 14.5234 110.072 15.2808Z" fill="white"/>
<path d="M105.284 14.6529L105.196 14.7408C105.772 15.3253 106.49 15.6222 107.322 15.6207C108.155 15.6222 108.874 15.3253 109.449 14.7408C110.028 14.1558 110.319 13.3989 110.318 12.5C110.319 11.6012 110.028 10.8443 109.449 10.2593C108.874 9.67478 108.155 9.37791 107.322 9.37941C106.49 9.37791 105.772 9.67478 105.196 10.2593C104.618 10.8443 104.326 11.6012 104.327 12.5C104.326 13.3989 104.618 14.1558 105.196 14.7408L105.284 14.6529L105.374 14.565C104.844 14.0254 104.579 13.3467 104.577 12.5C104.579 11.6534 104.844 10.9747 105.374 10.435C105.909 9.89554 106.548 9.63091 107.322 9.62941C108.096 9.63091 108.737 9.89554 109.27 10.435C109.802 10.9747 110.067 11.6534 110.068 12.5C110.067 13.3467 109.802 14.0254 109.27 14.565C108.737 15.1045 108.096 15.3692 107.322 15.3707C106.548 15.3692 105.909 15.1045 105.374 14.565L105.284 14.6529ZM110.072 15.2808L109.983 15.1939C109.267 15.9283 108.39 16.291 107.322 16.2925C106.255 16.291 105.378 15.9283 104.663 15.1939C103.948 14.457 103.595 13.5684 103.593 12.5C103.595 11.4317 103.948 10.543 104.663 9.80616C105.378 9.07178 106.255 8.70853 107.322 8.70703C108.383 8.70853 109.258 9.07328 109.978 9.81153C110.696 10.5518 111.051 11.439 111.052 12.5C111.051 13.5684 110.697 14.457 109.983 15.1939L110.072 15.2808L110.162 15.3677C110.92 14.5894 111.303 13.624 111.302 12.5C111.303 11.3824 110.919 10.419 110.157 9.63728C109.395 8.85253 108.441 8.45566 107.322 8.45703C106.197 8.45566 105.241 8.85066 104.483 9.63241C103.724 10.4112 103.342 11.376 103.343 12.5C103.342 13.624 103.724 14.5894 104.483 15.3682C105.241 16.1499 106.197 16.5435 107.322 16.5425C108.447 16.5435 109.404 16.1494 110.162 15.3677L110.072 15.2808Z" fill="white"/>
<path d="M116.079 15.3287H118.018C118.388 15.3287 118.688 15.1993 118.919 14.94C119.149 14.6826 119.264 14.3994 119.264 14.0918C119.264 13.7847 119.146 13.5039 118.908 13.249C118.672 12.9942 118.359 12.8663 117.976 12.8663H116.079V15.3287ZM116.079 11.9654H117.829C118.193 11.9654 118.484 11.8458 118.704 11.604C118.924 11.3633 119.034 11.1001 119.034 10.8135C119.034 10.5274 118.928 10.2646 118.714 10.0284C118.502 9.79052 118.221 9.6714 117.872 9.6714H116.079V11.9654ZM115.117 16.25V8.75002H117.829C118.416 8.75002 118.924 8.9444 119.353 9.33103C119.783 9.71928 119.998 10.206 119.998 10.7925C119.998 11.1484 119.906 11.4629 119.719 11.7354C119.536 12.0078 119.289 12.2139 118.982 12.3535V12.395C119.351 12.5205 119.656 12.7373 119.893 13.0444C120.129 13.352 120.249 13.7085 120.249 14.1133C120.249 14.7275 120.024 15.2373 119.573 15.6422C119.123 16.0474 118.591 16.25 117.976 16.25H115.117Z" fill="white"/>
<path d="M116.079 15.3287L116.08 15.4536H118.019C118.417 15.4551 118.761 15.3086 119.012 15.0234C119.26 14.7485 119.391 14.4311 119.39 14.0917C119.391 13.752 119.255 13.436 119 13.1636C118.741 12.8827 118.387 12.7397 117.976 12.7412H115.955V15.4536H116.08L116.079 15.3287L116.205 15.3286V12.9912H117.976C118.334 12.9926 118.602 13.106 118.817 13.334C119.037 13.5722 119.139 13.8179 119.14 14.0917C119.139 14.3676 119.04 14.6167 118.826 14.8569C118.617 15.0894 118.36 15.2016 118.019 15.2036H116.08L116.079 15.3287ZM116.079 11.9654L116.08 12.0904H117.83C118.22 12.0917 118.555 11.957 118.797 11.688C119.034 11.4301 119.16 11.1327 119.16 10.8135C119.16 10.4961 119.039 10.1992 118.807 9.94437C118.574 9.67962 118.249 9.54487 117.872 9.54637H115.955V12.0904H116.08L116.079 11.9654L116.205 11.9654V9.79637H117.872C118.194 9.79837 118.431 9.90087 118.621 10.1114C118.817 10.3301 118.909 10.5591 118.91 10.8135C118.909 11.0669 118.815 11.2964 118.612 11.5195C118.415 11.7339 118.166 11.8389 117.83 11.8404H116.08L116.079 11.9654ZM115.117 16.25L115.242 16.25V8.87499H117.83C118.389 8.87599 118.861 9.05662 119.27 9.42387C119.676 9.79199 119.872 10.2369 119.874 10.7925C119.874 11.127 119.787 11.4136 119.617 11.665C119.445 11.919 119.219 12.1084 118.93 12.2397L118.857 12.273V12.4844L118.941 12.5131C119.29 12.6324 119.571 12.8325 119.795 13.1211C120.015 13.4082 120.125 13.7329 120.125 14.1132C120.124 14.6972 119.916 15.1645 119.49 15.5494C119.06 15.9346 118.564 16.124 117.976 16.125H115.117L115.117 16.25L115.117 16.375H117.976C118.619 16.376 119.186 16.1601 119.657 15.7349C120.132 15.3105 120.376 14.7582 120.375 14.1132C120.376 13.6841 120.246 13.2964 119.992 12.9682C119.741 12.6431 119.414 12.4091 119.022 12.2769L118.982 12.395L119.107 12.395V12.3535L118.982 12.3535L119.034 12.4672C119.36 12.3194 119.627 12.0971 119.824 11.8051C120.024 11.5117 120.124 11.1699 120.124 10.7925C120.125 10.1757 119.892 9.64649 119.437 9.23824C118.987 8.83149 118.444 8.62399 117.83 8.62499H114.992V16.375H115.117L115.117 16.25Z" fill="white"/>
<defs>
<linearGradient id="paint0_linear" x1="42.3581" y1="24.9616" x2="11.8823" y2="24.9616" gradientUnits="userSpaceOnUse">
<stop stop-color="#CCB300"/>
<stop offset="0.4087" stop-color="#CC9700"/>
<stop offset="0.7754" stop-color="#CC8400"/>
<stop offset="1" stop-color="#CC7D00"/>
</linearGradient>
<linearGradient id="paint1_linear" x1="31.0346" y1="27.87" x2="2.58662" y2="56.3184" gradientUnits="userSpaceOnUse">
<stop stop-color="#E0333C"/>
<stop offset="1" stop-color="#AB0F56"/>
</linearGradient>
</defs>
</svg>
