<svg width="40" height="40" viewBox="0 0 40 40" fill="none" xmlns="http://www.w3.org/2000/svg">
<path fill-rule="evenodd" clip-rule="evenodd" d="M20 40C31.0457 40 40 31.0457 40 20C40 8.9543 31.0457 0 20 0C8.9543 0 0 8.9543 0 20C0 31.0457 8.9543 40 20 40ZM14.6445 29.827L15.025 24.5223L24.8261 15.7985C25.2526 15.4242 24.7341 15.2171 24.1639 15.5914L12.0474 23.1068L6.83107 21.4984C5.69637 21.1498 5.67529 20.3803 7.06778 19.8445L27.4712 12.1011C28.4161 11.7524 29.2422 12.3082 28.9346 13.7294L28.9336 13.7303L25.4625 29.8536C25.2008 30.9917 24.5175 31.2739 23.5477 30.7381L18.2595 26.8992L15.7074 29.3169C15.4246 29.5952 15.1889 29.827 14.6445 29.827Z" fill="#3766E4"/>
</svg>
