<svg width="21" height="21" viewBox="0 0 21 21" fill="none" xmlns="http://www.w3.org/2000/svg">
<path fill-rule="evenodd" clip-rule="evenodd" d="M18.9 4.1087H16.4233C16.6624 3.70543 16.8 3.2379 16.8 2.73915C16.8 1.22879 15.5439 0 14 0C12.5406 0 11.253 0.732006 10.5 1.84025C9.74693 0.732006 8.45931 0 7 0C5.45608 0 4.19999 1.22879 4.19999 2.73915C4.19999 3.2379 4.3376 3.70547 4.57666 4.1087H2.1C0.942057 4.1087 0 5.03028 0 6.16305V9.3152C0 9.69337 0.313404 10 0.700012 10H1.40003V11.0241V18.9456C1.40003 20.0784 2.34208 21 3.50002 21H17.5C18.6579 21 19.6 20.0784 19.6 18.9456V11.0241V10H20.3C20.6866 10 21 9.69341 21 9.3152V6.16305C21 5.03028 20.0579 4.1087 18.9 4.1087ZM7.06665 1.36955C8.61057 1.36955 9.86666 2.59833 9.86666 4.10869H7.06665C6.29469 4.10869 5.66667 3.49432 5.66667 2.73914C5.66662 1.98396 6.29469 1.36955 7.06665 1.36955ZM14.0666 1.36955C14.8386 1.36955 15.4666 1.98392 15.4666 2.7391C15.4666 3.49428 14.8386 4.10865 14.0666 4.10865H11.2666C11.2666 2.59833 12.5227 1.36955 14.0666 1.36955Z" fill="#3766E4"/>
<line x1="1" y1="9.8" x2="20" y2="9.8" stroke="#E5F2FF" stroke-width="0.4"/>
</svg>
