<svg width="21" height="23" viewBox="0 0 21 23" fill="none" xmlns="http://www.w3.org/2000/svg">
<path d="M19.9907 12.1467C19.9029 11.9672 19.9029 11.7612 19.9907 11.5817L20.8043 9.91727C21.2573 8.99056 20.8983 7.88601 19.9872 7.40257L18.3507 6.53426C18.1741 6.44062 18.0531 6.27394 18.0186 6.07715L17.6985 4.2524C17.5203 3.23642 16.5805 2.55371 15.5594 2.69819L13.7251 2.95766C13.5271 2.9856 13.3313 2.92195 13.1877 2.78302L11.8562 1.49496C11.1148 0.777742 9.9534 0.777699 9.21207 1.49496L7.88056 2.78314C7.73689 2.92212 7.54112 2.98565 7.34317 2.95778L5.50888 2.69832C4.48741 2.55375 3.54796 3.23655 3.36974 4.25252L3.04968 6.07719C3.01513 6.27403 2.89409 6.44066 2.71757 6.53435L1.08109 7.40265C0.169932 7.88605 -0.188977 8.99069 0.264005 9.9174L1.07756 11.5817C1.16533 11.7613 1.16533 11.9673 1.07756 12.1468L0.263962 13.8112C-0.189021 14.7379 0.169889 15.8424 1.08105 16.3259L2.71753 17.1942C2.89409 17.2878 3.01513 17.4545 3.04968 17.6513L3.36974 19.476C3.53198 20.4009 4.32504 21.0496 5.2365 21.0495C5.32627 21.0495 5.41736 21.0432 5.50892 21.0302L7.34322 20.7707C7.54103 20.7427 7.73693 20.8064 7.8806 20.9454L9.21207 22.2334C9.58282 22.5921 10.0584 22.7714 10.5341 22.7713C11.0097 22.7713 11.4856 22.592 11.8562 22.2334L13.1877 20.9454C13.3313 20.8064 13.5272 20.743 13.7251 20.7707L15.5594 21.0302C16.581 21.1747 17.5203 20.492 17.6985 19.476L18.0186 17.6513C18.0531 17.4545 18.1742 17.2879 18.3507 17.1942L19.9872 16.3259C20.8983 15.8425 21.2573 14.7378 20.8043 13.8111L19.9907 12.1467Z" fill="#3766E4"/>
<line x1="14.3228" y1="8.96952" x2="7.07959" y2="15.911" stroke="#E5F2FF" stroke-linecap="round" stroke-linejoin="round"/>
<circle cx="12.679" cy="14.2365" r="1.15943" stroke="#E5F2FF"/>
<circle cx="8.03247" cy="9.922" r="1.15943" stroke="#E5F2FF"/>
</svg>
