<svg width="21" height="21" viewBox="0 0 21 21" fill="none" xmlns="http://www.w3.org/2000/svg">
<path d="M9.65777 1.23855C10.0514 0.625784 10.947 0.625784 11.3406 1.23855L14.2335 5.74253C14.3689 5.95336 14.5785 6.10567 14.8209 6.16931L19.9984 7.52884C20.7028 7.7138 20.9796 8.56559 20.5184 9.12926L17.1288 13.2724C16.9702 13.4663 16.8901 13.7128 16.9045 13.9629L17.2114 19.3072C17.2532 20.0342 16.5286 20.5607 15.85 20.2963L10.8622 18.3529C10.6287 18.2619 10.3696 18.2619 10.1361 18.3529L5.14832 20.2963C4.46974 20.5607 3.74516 20.0342 3.78692 19.3072L4.09387 13.9629C4.10824 13.7128 4.02817 13.4663 3.8695 13.2724L0.479921 9.12926C0.0187715 8.56559 0.295534 7.7138 0.999929 7.52884L6.17743 6.16931C6.41979 6.10567 6.62943 5.95336 6.76485 5.74253L9.65777 1.23855Z" fill="#3766E4"/>
</svg>
