<svg width="47" height="43" viewBox="0 0 47 43" fill="none" xmlns="http://www.w3.org/2000/svg">
<path d="M0.251092 32.4437L0.251069 32.4437C0.217981 32.5094 0.2 32.5851 0.2 32.6584V40.4784C0.2 41.7565 1.25107 42.8 2.5469 42.8H7.50823H10.2657H44.4223C45.7181 42.8 46.7692 41.7565 46.7692 40.4784V32.6636L46.7689 32.6583C46.7687 32.6551 46.7684 32.6507 46.7684 32.6455L46.9683 32.642M0.251092 32.4437L46.7181 32.4437C46.7493 32.5059 46.7667 32.5764 46.7684 32.6468L46.9683 32.642M0.251092 32.4437L4.35798 24.2905L4.37936 24.248V24.2005V14.0536C4.37936 12.7755 5.43043 11.732 6.72617 11.732H13.9701H14.1701V11.532V6.95828V6.75828H13.9701H9.23812C8.96596 6.75828 8.74871 6.54038 8.74871 6.2757V0.682576C8.74871 0.417894 8.96596 0.2 9.23812 0.2H21.8744C22.1466 0.2 22.3638 0.417876 22.3638 0.682576V6.2757C22.3638 6.54038 22.1465 6.75828 21.8744 6.75828H16.9786H16.7786V6.95828V11.5319V11.7319H16.9786H21.8744H24.6319H28.0728L38.6386 11.732H40.2431C41.5388 11.732 42.5899 12.7755 42.5899 14.0536V24.2005V24.248L42.6113 24.2905L46.718 32.4436L0.251092 32.4437ZM46.9683 32.642C46.9659 32.5426 46.9415 32.4429 46.8967 32.3537L46.9692 32.6584C46.9692 32.6556 46.969 32.6528 46.9688 32.6501C46.9686 32.6474 46.9684 32.6447 46.9683 32.642Z" fill="#3766E4" stroke="#E5F2FF" stroke-width="0.4"/>
<path d="M30.4316 28.4462H33.7393" stroke="#E5F2FF" stroke-width="0.4"/>
<path d="M8.59961 28.4462H11.9073" stroke="#E5F2FF" stroke-width="0.4"/>
<path d="M13.8926 28.4462H17.2003" stroke="#E5F2FF" stroke-width="0.4"/>
<path d="M35.7227 28.4462H39.0303" stroke="#E5F2FF" stroke-width="0.4"/>
<path d="M19.1855 28.4462H22.4932" stroke="#E5F2FF" stroke-width="0.4"/>
<path d="M24.4766 28.4462H27.7843" stroke="#E5F2FF" stroke-width="0.4"/>
<path d="M10.1238 5.24977V1.52312H20.97V5.24977H10.1238Z" fill="#3766E4" stroke="#E5F2FF" stroke-width="0.4"/>
<path d="M8 22.8C7.55817 22.8 7.2 22.4418 7.2 22V15C7.2 14.5582 7.55817 14.2 8 14.2H39C39.4418 14.2 39.8 14.5582 39.8 15V22C39.8 22.4418 39.4418 22.8 39 22.8H8Z" fill="#3766E4" stroke="#E5F2FF" stroke-width="0.4"/>
<path d="M19.5152 38.8309C18.7122 38.8309 18.0613 38.18 18.0613 37.377C18.0613 36.5741 18.7122 35.9231 19.5152 35.9231H27.4536C28.2566 35.9231 28.9075 36.5741 28.9075 37.377C28.9075 38.18 28.2566 38.8309 27.4536 38.8309H19.5152Z" fill="#3766E4" stroke="#E5F2FF" stroke-width="0.4"/>
<path d="M36.0547 31.5538H2.3148L5.56797 25.3384H41.4008L44.654 31.5538H36.0547Z" fill="#3766E4" stroke="#E5F2FF" stroke-width="0.4"/>
</svg>
