<svg width="120" height="122" viewBox="0 0 120 122" fill="none" xmlns="http://www.w3.org/2000/svg">
<circle cx="59.9421" cy="61.0491" r="46.0983" fill="#3766E4"/>
<path fill-rule="evenodd" clip-rule="evenodd" d="M79.945 45.1155C79.1303 46.9132 78.0567 48.632 76.719 50.2193C73.6109 53.9072 69.5496 56.3233 65.1976 57.4119C65.1514 57.4235 65.1044 57.4354 65.0566 57.4475C64.0469 57.7033 62.6783 58.05 61.3993 56.9815C60.0946 55.8915 60.2016 54.6507 60.2897 53.6298C60.2984 53.5282 60.307 53.4289 60.314 53.3321C60.6351 48.876 62.3198 44.4744 65.4279 40.7865C66.7589 39.2072 68.264 37.8618 69.8913 36.754C72.0263 37.3096 74.0748 38.3335 75.8797 39.8413C77.6662 41.3337 79.0251 43.1425 79.945 45.1155ZM39.8178 58.8618C37.8622 59.5705 36.0693 60.5246 34.4609 61.6759C34.2667 63.8426 34.5352 66.0854 35.3328 68.2672C36.1387 70.4715 37.3985 72.378 38.9685 73.922C40.9341 73.7726 42.9133 73.3568 44.8591 72.6517C49.4028 71.0051 53.0723 68.0319 55.5882 64.3326C55.6429 64.2523 55.7002 64.1705 55.7588 64.0869C56.3478 63.2466 57.0636 62.2253 56.4811 60.6318C55.91 59.0697 54.5507 58.6887 53.5478 58.4076C53.5003 58.3943 53.4536 58.3812 53.4078 58.3682C49.0922 57.1446 44.3616 57.2153 39.8178 58.8618ZM84.7988 61.6759C83.1904 60.5246 81.3976 59.5705 79.4419 58.8618C74.8982 57.2153 70.1676 57.1446 65.8519 58.3682C65.8377 58.3723 65.8234 58.3763 65.809 58.3804C65.7772 58.3893 65.745 58.3984 65.7124 58.4075C64.7095 58.6886 63.3497 59.0697 62.7787 60.6318C62.1961 62.2253 62.912 63.2466 63.501 64.0869C63.5595 64.1705 63.6169 64.2523 63.6715 64.3326C66.1874 68.0319 69.8569 71.0051 74.4007 72.6517C76.3465 73.3568 78.3257 73.7726 80.2912 73.922C81.8612 72.378 83.1211 70.4715 83.9269 68.2672C84.7245 66.0854 84.993 63.8426 84.7988 61.6759ZM66.1987 83.9055C66.7352 82.007 67.0225 80.0033 67.0225 77.9312C67.0225 73.1171 65.4713 68.6671 62.8403 65.048C62.8223 65.0233 62.8041 64.9982 62.7858 64.9728L62.7553 64.9305C62.1469 64.0884 61.3224 62.947 59.6528 62.947C57.9496 62.947 57.2305 63.966 56.6388 64.8044C56.5799 64.8878 56.5224 64.9694 56.4652 65.048C53.8342 68.6671 52.283 73.117 52.283 77.9312C52.283 79.9928 52.5674 81.9867 53.0988 83.8767C55.093 84.8175 57.3233 85.3441 59.6794 85.3441C62.0114 85.3441 64.2201 84.8282 66.1987 83.9055Z" fill="white"/>
<path fill-rule="evenodd" clip-rule="evenodd" d="M40.2861 46.8976C39.954 46.3138 39.6512 45.7191 39.3777 45.1155C40.2976 43.1425 41.6565 41.3337 43.4429 39.8413C45.2478 38.3335 47.2963 37.3096 49.4314 36.754C49.9374 37.0985 50.4316 37.466 50.9125 37.8563C48.4392 38.1189 46.0222 39.1235 44.0208 40.8919C42.1432 42.5509 40.8925 44.6512 40.2861 46.8976ZM40.9471 47.9849C41.4016 45.5801 42.6306 43.3022 44.6101 41.5531C46.6988 39.7077 49.2754 38.7582 51.8657 38.6764C52.4021 39.1651 52.919 39.6846 53.4141 40.2346C50.6804 39.9137 47.8276 40.7111 45.608 42.6723C43.4707 44.5607 42.3397 47.1577 42.2545 49.7945C41.7837 49.2073 41.348 48.6033 40.9471 47.9849ZM43.1679 50.8635C43.784 51.5402 44.4335 52.1703 45.1118 52.7533C44.0532 49.9081 44.7801 46.5863 47.1948 44.4527C49.6353 42.2964 53.0814 41.9885 55.8071 43.4248C55.3536 42.6909 54.8522 41.9761 54.3025 41.2845C51.5249 40.6446 48.4901 41.3077 46.1974 43.3335C43.9693 45.3021 42.9413 48.1164 43.1679 50.8635ZM56.7869 45.1873C54.2769 42.8944 50.3839 42.817 47.7842 45.1139C45.1613 47.4315 44.7924 51.3379 46.8417 54.0962C48.2974 55.1141 49.8546 55.9396 51.4754 56.5695C50.3792 55.6365 49.3342 54.6176 48.3498 53.5132C48.3351 53.4967 48.3218 53.4794 48.31 53.4615C48.2936 53.4477 48.2779 53.4326 48.2632 53.4161C46.4039 51.3302 46.6519 48.1151 48.7819 46.2331C50.9073 44.3552 54.134 44.4875 55.9952 46.5608C56.0545 46.5857 56.1092 46.6238 56.1548 46.6748C56.7841 47.3809 57.4505 48.0347 58.1484 48.6359C57.7968 47.4608 57.3433 46.3069 56.7869 45.1873ZM58.5286 50.0864C57.4525 49.2605 56.4382 48.323 55.5024 47.2748C55.4431 47.25 55.3884 47.2119 55.3429 47.1608C53.8238 45.4566 51.1512 45.3216 49.3712 46.8943C47.5912 48.4671 47.4083 51.1251 48.9273 52.8293C48.942 52.8458 48.9553 52.8631 48.967 52.881C48.9835 52.8948 48.9992 52.9099 49.0139 52.9264C50.5122 54.6073 52.155 56.0846 53.907 57.3562C53.9796 57.3752 54.0523 57.3937 54.1251 57.4119C54.1712 57.4235 54.2183 57.4354 54.2661 57.4475C54.9961 57.6325 55.9137 57.8649 56.8494 57.5757C54.4014 56.1007 52.1315 54.239 50.1323 51.9961C49.0934 50.8306 49.1986 49.0475 50.3688 48.0135C51.5391 46.9796 53.3298 47.0875 54.3687 48.253C55.7359 49.7868 57.2602 51.0993 58.896 52.1877C58.808 51.4836 58.6856 50.7823 58.5286 50.0864ZM59.0073 53.3124C57.0801 52.1111 55.2905 50.6189 53.7046 48.8398C52.9906 48.0387 51.7609 47.9655 50.9582 48.6747C50.1555 49.384 50.0824 50.6083 50.7964 51.4093C52.8621 53.7268 55.2258 55.6246 57.7789 57.096C57.8271 57.0598 57.8753 57.0217 57.9234 56.9815C58.3355 56.6372 58.6068 56.2778 58.7823 55.915C56.2917 54.507 53.9871 52.6736 51.9798 50.4216C51.817 50.239 51.8338 49.9597 52.0171 49.7976C52.2005 49.6356 52.4811 49.6522 52.6439 49.8348C54.5368 51.9584 56.7029 53.6969 59.0427 55.0444C59.1125 54.5518 59.071 54.0703 59.033 53.6297C59.0243 53.5283 59.0157 53.4288 59.0087 53.3321C59.0082 53.3255 59.0078 53.319 59.0073 53.3124Z" fill="white"/>
<path d="M59.6312 56.4909L59.6537 56.5471C60.1738 57.8423 61.3894 58.7255 62.7818 58.8199L62.8422 58.824L62.7958 58.8628C61.7247 59.7577 61.2604 61.1867 61.6009 62.5402L61.6157 62.5989L61.5645 62.5667C60.3824 61.8246 58.8799 61.8246 57.6979 62.5667L57.6466 62.5989L57.6614 62.5402C58.0019 61.1867 57.5376 59.7577 56.4666 58.8628L56.4201 58.824L56.4805 58.8199C57.873 58.7255 59.0885 57.8423 59.6086 56.5471L59.6312 56.4909Z" fill="white"/>
<path d="M6.9179 32.4414L6.95313 32.4827C7.76578 33.4353 7.9656 34.734 7.46735 35.8246L7.44575 35.8719L7.49561 35.8537C8.6458 35.4335 9.96968 35.7018 10.9025 36.5442L10.9429 36.5808L10.9385 36.5282C10.8367 35.3159 11.4551 34.1831 12.5299 33.6131L12.5765 33.5884L12.5239 33.5741C11.3108 33.2451 10.3691 32.2767 10.1005 31.0819L10.0889 31.0301L10.0608 31.0739C9.41283 32.0828 8.21245 32.6171 6.97168 32.4487L6.9179 32.4414Z" fill="#3766E4"/>
<path d="M110.623 28.7597L110.591 28.8032C109.842 29.8065 109.727 31.1153 110.295 32.1714L110.319 32.2172L110.268 32.2023C109.093 31.8575 107.789 32.2111 106.913 33.1123L106.875 33.1513L106.876 33.0986C106.899 31.8822 106.209 30.7919 105.099 30.2928L105.051 30.2711L105.103 30.2535C106.292 29.8465 107.169 28.8191 107.359 27.6094L107.368 27.557L107.398 27.5988C108.11 28.5636 109.343 29.0189 110.57 28.7705L110.623 28.7597Z" fill="#3766E4"/>
<path d="M61.8041 122L61.7829 121.95C61.2948 120.797 60.223 120.037 59.0246 119.994L58.9727 119.993L59.0113 119.956C59.9019 119.116 60.2545 117.812 59.9186 116.6L59.9041 116.548L59.9491 116.575C60.9876 117.209 62.2774 117.163 63.2682 116.457L63.3111 116.427L63.3003 116.48C63.0516 117.712 63.4961 118.988 64.4443 119.762L64.4854 119.796L64.4337 119.802C63.2415 119.929 62.2264 120.764 61.8216 121.949L61.8041 122Z" fill="#3766E4"/>
<path d="M16.4881 28.412C16.449 28.4583 16.4018 28.486 16.3466 28.495C16.2907 28.4954 16.2396 28.4761 16.1932 28.4369L12.8972 25.6553C12.8509 25.6161 12.8255 25.5709 12.8212 25.5196C12.8161 25.4598 12.8332 25.4067 12.8723 25.3604L13.1305 25.0544C13.1696 25.008 13.2172 24.9846 13.2731 24.9842C13.3283 24.9752 13.3791 24.9903 13.4254 25.0294L14.7674 26.1621L16.3871 24.2429L15.0451 23.1103C14.9988 23.0711 14.9734 23.0259 14.9691 22.9746C14.964 22.9148 14.981 22.8617 15.0202 22.8154L15.2784 22.5094C15.3214 22.4584 15.3686 22.4307 15.4199 22.4264C15.4712 22.4221 15.5223 22.4414 15.5733 22.4844L18.8693 25.2661C18.9156 25.3052 18.9413 25.3547 18.9464 25.4146C18.9507 25.4658 18.9333 25.5147 18.8942 25.561L18.636 25.867C18.5969 25.9133 18.5497 25.941 18.4945 25.95C18.4386 25.9504 18.3874 25.9311 18.3411 25.8919L16.9226 24.6948L15.3029 26.6139L16.7214 27.8111C16.7677 27.8502 16.7935 27.8997 16.7985 27.9596C16.8029 28.0108 16.7855 28.0597 16.7463 28.106L16.4881 28.412Z" fill="#3766E4"/>
<path d="M26.0029 18.8182C25.5133 19.1965 25.0052 19.3476 24.4788 19.2714C23.9486 19.1905 23.4651 18.8971 23.0284 18.3914L22.832 18.1521L22.6556 17.909C22.2839 17.3683 22.1257 16.8313 22.1811 16.2978C22.2366 15.7644 22.5091 15.3085 22.9987 14.9302C23.5267 14.5222 24.0645 14.375 24.6121 14.4885C25.1646 14.5982 25.6633 14.9411 26.1084 15.5171L26.2085 15.6467C26.2456 15.6947 26.2603 15.7485 26.2527 15.808C26.2461 15.8591 26.2189 15.9032 26.1709 15.9403L23.6724 17.8707L23.7225 17.9355C23.978 18.2364 24.2798 18.4286 24.628 18.5122C24.9762 18.5958 25.2967 18.5244 25.5895 18.2982C25.8152 18.1239 25.9642 17.9397 26.0366 17.7458C26.1101 17.5433 26.1458 17.3663 26.1436 17.2146C26.1423 17.1237 26.15 17.0641 26.1666 17.0359C26.1794 17.003 26.2147 16.9643 26.2723 16.9198L26.5891 16.675C26.6323 16.6416 26.6775 16.6258 26.7249 16.6275C26.777 16.6256 26.8179 16.6438 26.8476 16.6822C26.9292 16.7878 26.9627 16.9651 26.9481 17.214C26.9334 17.4629 26.8488 17.7353 26.6941 18.0312C26.5405 18.3185 26.3101 18.5809 26.0029 18.8182ZM25.3029 15.829L25.2863 15.8074C25.0266 15.4714 24.724 15.2682 24.3784 15.198C24.0329 15.1277 23.7065 15.2112 23.3993 15.4486C23.0873 15.6897 22.924 15.9844 22.9096 16.3329C22.8952 16.6813 23.0178 17.0235 23.2774 17.3595L23.2941 17.3811L25.3029 15.829Z" fill="#3766E4"/>
<path d="M35.1114 12.8832C34.7187 13.0743 34.3609 13.1707 34.038 13.1726C33.7206 13.1719 33.4581 13.1107 33.2506 12.989C33.0485 12.8648 32.9022 12.7167 32.8119 12.5448C32.788 12.4957 32.7858 12.4495 32.8052 12.4063C32.822 12.3577 32.855 12.3214 32.9041 12.2975L33.2559 12.1264C33.3105 12.0999 33.358 12.0936 33.3986 12.1076C33.4419 12.1135 33.4891 12.1411 33.5401 12.1905C33.7009 12.3686 33.8898 12.4589 34.1068 12.4612C34.3293 12.461 34.5878 12.3892 34.8824 12.2459C35.166 12.1079 35.37 11.9379 35.4943 11.7358C35.6214 11.5255 35.6292 11.3059 35.5178 11.0768C35.2949 10.6186 34.9189 10.5181 34.3898 10.7755L33.9397 10.9944C33.8852 11.021 33.8336 11.0258 33.7849 11.009C33.7363 10.9922 33.6987 10.9565 33.6722 10.902L33.5727 10.6974C33.5461 10.6429 33.5413 10.5913 33.5581 10.5426C33.5749 10.494 33.6106 10.4564 33.6651 10.4298L34.066 10.2348C34.5352 10.0066 34.6782 9.70434 34.4951 9.32796C34.3996 9.13158 34.2463 9.00375 34.0354 8.94448C33.8272 8.87709 33.5677 8.91902 33.2567 9.07026C32.9513 9.21885 32.7556 9.37813 32.6696 9.54811C32.581 9.71263 32.5624 9.92404 32.6138 10.1823C32.637 10.2992 32.594 10.3842 32.4849 10.4373L32.1412 10.6045C32.0976 10.6257 32.0528 10.6306 32.0068 10.6193C31.9581 10.6025 31.9232 10.5722 31.902 10.5286C31.796 10.2968 31.7606 10.0577 31.7959 9.81122C31.8285 9.55927 31.9396 9.31632 32.1294 9.08237C32.3246 8.84576 32.6022 8.63989 32.9622 8.46477C33.3386 8.28169 33.676 8.19178 33.9744 8.19504C34.2782 8.19565 34.5285 8.25942 34.7251 8.38636C34.9218 8.51331 35.0679 8.67497 35.1634 8.87134C35.2722 9.09499 35.3216 9.29358 35.3115 9.46709C35.307 9.63796 35.2345 9.81487 35.0941 9.99781C35.3738 9.97645 35.6078 10.0346 35.7962 10.1723C35.9874 10.3019 36.148 10.5004 36.2781 10.7677C36.4744 11.1713 36.462 11.5618 36.2408 11.9392C36.017 12.3112 35.6406 12.6258 35.1114 12.8832Z" fill="#3766E4"/>
<path d="M45.1504 8.8989C44.8622 8.97175 44.5798 8.98058 44.3031 8.9254C44.0322 8.86873 43.798 8.759 43.6004 8.59622C43.4073 8.42606 43.2794 8.21748 43.217 7.97048C43.1189 7.58233 43.1974 7.22462 43.4525 6.89735C43.7077 6.57007 44.0983 6.29613 44.6244 6.07554L45.9008 5.55581L45.8361 5.29998C45.683 4.69424 45.2565 4.47982 44.5567 4.65673C44.2862 4.72512 44.0827 4.83599 43.9463 4.98935C43.8084 5.13684 43.7198 5.29375 43.6805 5.4601C43.6718 5.52486 43.6558 5.57272 43.6323 5.60367C43.6133 5.62726 43.5802 5.64501 43.5331 5.6569L43.1891 5.74387C43.1362 5.75725 43.0847 5.75149 43.0346 5.72661C42.9889 5.69437 42.9594 5.65178 42.946 5.59885C42.9118 5.46359 42.9341 5.29213 43.013 5.08448C43.0963 4.86947 43.254 4.66382 43.4859 4.46754C43.7163 4.26538 44.0227 4.11599 44.405 4.01936C45.0636 3.85286 45.5728 3.88683 45.9324 4.12129C46.2978 4.35425 46.5385 4.70009 46.6545 5.15881L47.3792 8.02579C47.3941 8.0846 47.3861 8.13979 47.3554 8.19136C47.329 8.23557 47.2864 8.2651 47.2276 8.27997L46.8395 8.37809C46.7807 8.39295 46.7292 8.3872 46.685 8.36084C46.6393 8.32859 46.609 8.28306 46.5941 8.22425L46.496 7.8361C46.4157 8.06288 46.2684 8.27218 46.0541 8.464C45.8398 8.65582 45.5386 8.80079 45.1504 8.8989ZM45.1641 8.21034C45.5522 8.11222 45.8378 7.90551 46.0209 7.59019C46.204 7.27487 46.2346 6.87608 46.1127 6.39384L46.0502 6.14684L45.056 6.55771C44.6474 6.72356 44.3522 6.90455 44.1703 7.1007C43.9884 7.29685 43.9242 7.50078 43.9777 7.7125C44.0386 7.95362 44.1825 8.11434 44.4093 8.19466C44.6419 8.2735 44.8935 8.27872 45.1641 8.21034Z" fill="#3766E4"/>
<path d="M58.8182 4.28791C58.8264 4.34832 58.8329 4.4452 58.8377 4.57857C58.8418 4.69375 58.8417 4.77569 58.8373 4.82441C58.8349 5.43755 58.6584 5.93549 58.3079 6.31825C57.9573 6.701 57.4517 6.90416 56.7909 6.92771C56.1119 6.95191 55.5868 6.77943 55.2155 6.41027C54.844 6.03504 54.631 5.50849 54.5765 4.83061L54.5376 3.73943C54.5128 2.87233 54.6049 2.21958 54.8138 1.78118C55.0286 1.33649 55.3388 1.01284 55.7443 0.810222C56.1557 0.601324 56.8238 0.358993 57.7487 0.0832303L57.992 0.0108262L58.0371 0.00011243C58.0796 -0.00140021 58.1195 0.0123505 58.157 0.0413645C58.1944 0.0703785 58.2201 0.108918 58.2339 0.156983L58.319 0.49993L58.33 0.554165C58.3333 0.645097 58.2869 0.707447 58.191 0.741215C58.1189 0.761994 57.9597 0.807125 57.7133 0.876605C57.028 1.06492 56.533 1.2252 56.2281 1.35747C55.9294 1.48951 55.7028 1.68879 55.5484 1.9553C55.394 2.2218 55.3169 2.61302 55.3171 3.12895C55.4548 2.90552 55.6545 2.71934 55.9163 2.57041C56.1781 2.42147 56.4605 2.3416 56.7636 2.3308C57.3759 2.30897 57.8584 2.47993 58.2113 2.84368C58.57 3.20115 58.7723 3.68256 58.8182 4.28791ZM57.9991 4.80876C58.0037 4.76611 58.0043 4.69932 58.0011 4.60839C57.9972 4.49927 57.9912 4.41754 57.9832 4.3632C57.9549 3.90897 57.8273 3.56451 57.6004 3.3298C57.3733 3.08903 57.084 2.97492 56.7324 2.98745C56.3323 3.00171 56.0124 3.13754 55.7727 3.39495C55.5328 3.6463 55.4119 3.99962 55.4099 4.45493L55.4095 4.70077L55.4258 4.90049C55.4601 5.3545 55.5939 5.70179 55.8271 5.94234C56.0661 6.17661 56.3796 6.28683 56.7676 6.273C57.1495 6.25939 57.4513 6.12723 57.673 5.87654C57.8945 5.61978 58.0032 5.26385 57.9991 4.80876Z" fill="#3766E4"/>
<path d="M71.2937 3.10231C71.3414 3.11082 71.3801 3.13619 71.4095 3.1784C71.4449 3.22168 71.4584 3.26721 71.4499 3.31499C71.4456 3.33887 71.4181 3.38943 71.3674 3.46665L68.9471 7.19441L68.833 7.36816C68.6036 7.72163 68.402 8.0061 68.228 8.22157C68.0601 8.4381 67.8626 8.61241 67.6358 8.74451C67.4138 8.88364 67.1715 8.9298 66.9087 8.88298L66.5683 8.82232C66.5086 8.81168 66.4615 8.78174 66.4272 8.73249C66.3977 8.69027 66.3883 8.6393 66.399 8.57958L66.4485 8.30189C66.4591 8.24217 66.4861 8.1946 66.5293 8.15918C66.5775 8.1308 66.6315 8.12193 66.6912 8.13257L66.9241 8.17407C67.0555 8.19748 67.1678 8.18976 67.2609 8.15091C67.3541 8.11206 67.4442 8.03877 67.5312 7.93104C67.6241 7.82437 67.7467 7.6552 67.8989 7.42354L68.1166 7.0834L67.0945 2.70528C67.0785 2.62233 67.0726 2.56891 67.0768 2.54502C67.0864 2.49127 67.1123 2.44967 67.1545 2.42023C67.1967 2.39078 67.2447 2.38084 67.2985 2.39042L67.6926 2.46065C67.7882 2.47768 67.8513 2.53822 67.8821 2.64229L68.6889 6.20569L70.668 3.13869C70.7268 3.05059 70.8099 3.01612 70.9174 3.03527L71.2937 3.10231Z" fill="#3766E4"/>
<path d="M76.9189 10.3772C76.8628 10.3542 76.8219 10.3178 76.7964 10.2681C76.7765 10.2206 76.7792 10.166 76.8045 10.1042L77.2937 8.90836C77.3166 8.85221 77.3518 8.81419 77.3993 8.79428C77.4547 8.77106 77.5104 8.77093 77.5666 8.79389L77.6087 8.81112C77.8445 8.90758 78.1017 8.78342 78.3804 8.43865C78.6647 8.09617 78.9802 7.50104 79.327 6.65327L79.768 5.57531C79.791 5.51917 79.8262 5.48114 79.8736 5.46124C79.929 5.43801 79.9848 5.43788 80.0409 5.46085L82.7021 6.54947C82.7639 6.57473 82.8047 6.6111 82.8246 6.65857C82.8445 6.70603 82.8419 6.76064 82.8166 6.8224L81.3766 10.3426L81.7724 10.5045C81.8342 10.5298 81.875 10.5662 81.8949 10.6136C81.9148 10.6611 81.9121 10.7157 81.8869 10.7775L81.3942 11.9817C81.3689 12.0435 81.3326 12.0843 81.2851 12.1042C81.2377 12.1241 81.183 12.1215 81.1213 12.0962L80.7507 11.9446C80.6946 11.9217 80.6577 11.8836 80.6401 11.8306C80.6202 11.7831 80.6217 11.7313 80.6447 11.6751L80.9444 10.9425L77.8621 9.68159L77.5624 10.4143C77.5394 10.4704 77.5014 10.5073 77.4483 10.5249C77.3986 10.5504 77.3456 10.5517 77.2895 10.5287L76.9189 10.3772ZM80.6186 10.0326L81.8726 6.96712L80.3231 6.33323L80.0337 7.04065C79.5651 8.18598 79.0797 8.9082 78.5772 9.2073L80.6186 10.0326Z" fill="#3766E4"/>
<path d="M91.6902 16.5977C91.6862 16.6465 91.674 16.6859 91.6534 16.7159C91.5986 16.796 91.5236 16.8035 91.4285 16.7384L91.0006 16.4454C90.9255 16.394 90.8836 16.3102 90.8749 16.194L90.8505 13.8618L90.1372 13.3735L89.099 14.8902C89.0648 14.9402 89.0181 14.9708 88.9591 14.9818C88.9085 14.9913 88.8582 14.9789 88.8081 14.9446L88.4853 14.7236C88.4352 14.6894 88.4029 14.6452 88.3885 14.5912C88.3824 14.5356 88.3965 14.4828 88.4308 14.4327L90.867 10.8738C90.9013 10.8237 90.9437 10.794 90.9943 10.7845C91.0533 10.7734 91.1078 10.7851 91.1579 10.8193L91.4808 11.0403C91.5358 11.078 91.5681 11.1222 91.5776 11.1727C91.587 11.2233 91.5729 11.2762 91.5352 11.3312L90.5433 12.7803L91.2416 13.2583L93.3033 12.4533C93.4047 12.4125 93.4955 12.4195 93.5756 12.4743L93.9435 12.7261C93.9885 12.757 94.0175 12.7952 94.0304 12.8408C94.0467 12.8813 94.0429 12.9192 94.0189 12.9542C94.0121 12.9642 93.9968 12.9758 93.9731 12.989C93.9528 12.9971 93.935 13.007 93.9197 13.0186L91.6576 13.907L91.6902 16.5977Z" fill="#3766E4"/>
<path d="M98.0368 22.351C97.8309 22.1366 97.6834 21.8956 97.5944 21.6278C97.5095 21.3644 97.4889 21.1066 97.5326 20.8544C97.5848 20.6023 97.7028 20.388 97.8865 20.2115C98.1752 19.9341 98.5249 19.8253 98.9356 19.885C99.3462 19.9447 99.7776 20.1485 100.23 20.4964L101.313 21.3483L101.503 21.1654C101.954 20.7326 101.929 20.2559 101.429 19.7353C101.236 19.5341 101.039 19.4122 100.838 19.3696C100.641 19.3227 100.461 19.3234 100.297 19.3716C100.237 19.3962 100.187 19.4059 100.149 19.4008C100.119 19.396 100.087 19.376 100.053 19.341L99.8074 19.0851C99.7696 19.0458 99.7491 18.9982 99.7459 18.9423C99.7513 18.8867 99.7737 18.8399 99.8131 18.8021C99.9137 18.7054 100.074 18.64 100.293 18.6058C100.521 18.5717 100.778 18.6069 101.063 18.7113C101.353 18.8114 101.635 19.0037 101.908 19.288C102.378 19.7779 102.601 20.2371 102.575 20.6656C102.554 21.0985 102.372 21.4788 102.031 21.8066L99.8987 23.8554C99.8549 23.8975 99.803 23.9179 99.743 23.9167C99.6915 23.9157 99.6448 23.8933 99.6028 23.8495L99.3254 23.5608C99.2834 23.5171 99.2629 23.4695 99.2639 23.418C99.2693 23.3624 99.2939 23.3135 99.3376 23.2715L99.6263 22.9941C99.3895 23.0366 99.1347 23.0122 98.862 22.9209C98.5892 22.8297 98.3142 22.6397 98.0368 22.351ZM98.6418 22.022C98.9192 22.3107 99.2402 22.4566 99.6048 22.4596C99.9694 22.4626 100.331 22.2918 100.69 21.9471L100.873 21.7706L100.024 21.1101C99.678 20.8372 99.3746 20.6703 99.1141 20.6093C98.8537 20.5483 98.6447 20.5935 98.4872 20.7447C98.3079 20.9171 98.2394 21.1216 98.2819 21.3584C98.3285 21.5996 98.4485 21.8208 98.6418 22.022Z" fill="#3766E4"/>
<path d="M48.4569 115.401C48.5156 115.416 48.561 115.447 48.5929 115.493C48.6174 115.543 48.6221 115.598 48.6068 115.656L47.5216 119.831C47.5064 119.889 47.4765 119.932 47.4322 119.958C47.3804 119.988 47.3251 119.996 47.2664 119.98L46.8789 119.88C46.8202 119.864 46.7786 119.832 46.7541 119.781C46.7221 119.736 46.7138 119.683 46.7291 119.625L47.1709 117.925L44.7404 117.293L44.2985 118.993C44.2833 119.051 44.2535 119.094 44.2091 119.12C44.1573 119.15 44.1021 119.158 44.0433 119.143L43.6559 119.042C43.5913 119.025 43.546 118.994 43.5199 118.95C43.4938 118.906 43.4892 118.851 43.506 118.787L44.5912 114.612C44.6064 114.554 44.64 114.509 44.6917 114.479C44.7361 114.453 44.7877 114.447 44.8464 114.463L45.2338 114.563C45.2926 114.579 45.3379 114.609 45.3698 114.655C45.3944 114.705 45.399 114.76 45.3837 114.818L44.9167 116.615L47.3472 117.247L47.8142 115.45C47.8295 115.392 47.863 115.347 47.9148 115.317C47.9592 115.291 48.0107 115.285 48.0694 115.3L48.4569 115.401Z" fill="#3766E4"/>
<path d="M35.6946 110.964C36.2472 111.242 36.6029 111.635 36.7616 112.142C36.9176 112.656 36.8618 113.218 36.5944 113.831L36.4634 114.111L36.3203 114.375C35.9932 114.944 35.5772 115.319 35.0721 115.499C34.567 115.679 34.0382 115.631 33.4855 115.352C32.8895 115.052 32.5244 114.631 32.3902 114.088C32.2506 113.542 32.3444 112.944 32.6717 112.294L32.7453 112.148C32.7726 112.094 32.8147 112.057 32.8718 112.038C32.9206 112.022 32.9722 112.028 33.0263 112.055L35.8466 113.475L35.8834 113.402C36.0444 113.041 36.0874 112.686 36.0124 112.336C35.9374 111.986 35.7346 111.727 35.4041 111.561C35.1494 111.433 34.919 111.378 34.7127 111.396C34.4984 111.418 34.3233 111.462 34.1875 111.529C34.106 111.57 34.0489 111.589 34.0164 111.586C33.9811 111.588 33.931 111.573 33.866 111.541L33.5084 111.361C33.4596 111.336 33.4258 111.302 33.4069 111.259C33.3826 111.212 33.3814 111.168 33.4032 111.124C33.4632 111.005 33.6086 110.898 33.8394 110.804C34.0703 110.71 34.3525 110.668 34.6862 110.68C35.0117 110.695 35.3478 110.789 35.6946 110.964ZM33.3008 112.886L33.2886 112.91C33.0976 113.29 33.0451 113.65 33.131 113.992C33.2169 114.334 33.4333 114.593 33.78 114.767C34.1322 114.945 34.4686 114.964 34.789 114.827C35.1095 114.689 35.3652 114.431 35.5561 114.052L35.5684 114.027L33.3008 112.886Z" fill="#3766E4"/>
<path d="M26.4075 105.312C26.7494 105.584 26.991 105.865 27.1321 106.155C27.2686 106.442 27.3267 106.705 27.3067 106.945C27.2819 107.181 27.2115 107.376 27.0955 107.532C27.0615 107.575 27.0208 107.597 26.9735 107.598C26.9223 107.604 26.8754 107.59 26.8327 107.556L26.5263 107.312C26.4788 107.275 26.4527 107.234 26.4478 107.192C26.4344 107.15 26.4389 107.096 26.4615 107.028C26.5526 106.806 26.5524 106.597 26.4608 106.4C26.3645 106.2 26.1881 105.998 25.9316 105.794C25.6846 105.598 25.4432 105.487 25.2072 105.462C24.9627 105.438 24.7612 105.526 24.6027 105.726C24.2857 106.125 24.3576 106.507 24.8182 106.873L25.21 107.185C25.2575 107.222 25.2842 107.267 25.2901 107.318C25.2959 107.369 25.28 107.418 25.2422 107.466L25.1007 107.644C25.063 107.691 25.0185 107.718 24.9674 107.724C24.9163 107.73 24.867 107.714 24.8195 107.676L24.4704 107.399C24.062 107.074 23.7276 107.076 23.4672 107.404C23.3313 107.574 23.2822 107.768 23.3199 107.984C23.349 108.201 23.4989 108.417 23.7696 108.632C24.0356 108.843 24.2638 108.951 24.4542 108.955C24.6409 108.964 24.8396 108.889 25.0503 108.731C25.1458 108.66 25.241 108.662 25.336 108.737L25.6352 108.975C25.6731 109.005 25.697 109.044 25.7066 109.09C25.7124 109.141 25.7003 109.186 25.6701 109.224C25.5068 109.419 25.3064 109.555 25.0689 109.629C24.8276 109.709 24.5605 109.713 24.2675 109.643C23.9698 109.569 23.6642 109.408 23.3508 109.159C23.0231 108.898 22.7962 108.633 22.6703 108.362C22.5396 108.088 22.489 107.835 22.5186 107.603C22.5481 107.371 22.6308 107.169 22.7667 106.998C22.9214 106.803 23.0792 106.673 23.24 106.607C23.3961 106.537 23.587 106.526 23.8126 106.574C23.6725 106.331 23.6239 106.095 23.6667 105.865C23.701 105.637 23.8106 105.406 23.9955 105.174C24.2748 104.822 24.6324 104.665 25.0683 104.701C25.5004 104.742 25.9468 104.946 26.4075 105.312Z" fill="#3766E4"/>
<path d="M18.4779 97.9787C18.668 98.2071 18.798 98.4581 18.8678 98.7315C18.9336 99.0003 18.9358 99.2589 18.8744 99.5074C18.8043 99.7551 18.6714 99.9605 18.4756 100.123C18.1679 100.38 17.8114 100.463 17.406 100.375C17.0006 100.286 16.5849 100.052 16.1587 99.6726L15.1386 98.7459L14.9358 98.9147C14.4556 99.3145 14.4464 99.7917 14.9083 100.346C15.0868 100.561 15.2747 100.697 15.4719 100.753C15.6645 100.814 15.8443 100.826 16.0113 100.79C16.0734 100.77 16.1235 100.763 16.1616 100.771C16.1911 100.778 16.2214 100.8 16.2524 100.838L16.4795 101.11C16.5144 101.152 16.5315 101.201 16.5306 101.257C16.5213 101.312 16.4956 101.357 16.4537 101.392C16.3465 101.482 16.1822 101.535 15.9608 101.554C15.7309 101.572 15.4774 101.518 15.2001 101.394C14.9183 101.273 14.6512 101.062 14.399 100.759C13.9643 100.237 13.775 99.7626 13.8312 99.3371C13.8834 98.9068 14.0914 98.5403 14.455 98.2376L16.7277 96.3456C16.7743 96.3068 16.8276 96.2902 16.8874 96.2956C16.9386 96.3003 16.9836 96.326 17.0225 96.3726L17.2786 96.6803C17.3174 96.7269 17.3345 96.7758 17.3298 96.8271C17.3204 96.8822 17.2924 96.9292 17.2458 96.968L16.9381 97.2242C17.1774 97.1987 17.4298 97.2411 17.6953 97.3515C17.9609 97.462 18.2217 97.671 18.4779 97.9787ZM17.851 98.2638C17.5948 97.9561 17.285 97.7878 16.9216 97.7589C16.5581 97.73 16.1852 97.8746 15.8029 98.1929L15.6071 98.3559L16.4071 99.0751C16.7332 99.3719 17.0239 99.56 17.2794 99.6394C17.5349 99.7187 17.7465 99.6886 17.9144 99.5488C18.1055 99.3897 18.1883 99.1906 18.1628 98.9513C18.1334 98.7074 18.0295 98.4783 17.851 98.2638Z" fill="#3766E4"/>
<path d="M8.41569 87.6432C8.46662 87.6097 8.5512 87.562 8.66943 87.5001C8.77154 87.4467 8.84549 87.4114 8.8913 87.3943C9.44534 87.1316 9.97067 87.0757 10.4673 87.2266C10.9639 87.3774 11.3655 87.7457 11.6722 88.3315C11.9873 88.9334 12.0585 89.4815 11.8859 89.9758C11.708 90.4729 11.3251 90.8925 10.7373 91.2344L9.76991 91.7408C8.99859 92.1377 8.37011 92.3367 7.88445 92.3376C7.39061 92.3359 6.96474 92.196 6.60684 91.9177C6.24075 91.6369 5.73359 91.139 5.08538 90.4239L4.91501 90.2358L4.88585 90.1997C4.86616 90.1621 4.86131 90.1201 4.8713 90.0738C4.88129 90.0275 4.90497 89.9877 4.94234 89.9545L5.2149 89.7296L5.25905 89.6962C5.33966 89.654 5.41591 89.6689 5.48779 89.7408C5.53768 89.7969 5.64716 89.921 5.81625 90.1132C6.28206 90.6499 6.64045 91.0272 6.89141 91.245C7.13956 91.4574 7.41716 91.5757 7.7242 91.5998C8.03125 91.624 8.41739 91.5245 8.88264 91.3015C8.62165 91.2738 8.36746 91.1741 8.12007 91.0023C7.87268 90.8306 7.67865 90.6103 7.53799 90.3416C7.25384 89.7989 7.1996 89.2898 7.37525 88.8144C7.54272 88.3365 7.88953 87.9461 8.41569 87.6432ZM9.23923 88.157C9.1988 88.1713 9.13827 88.1996 9.05766 88.2418C8.96093 88.2924 8.88978 88.3331 8.84423 88.3638C8.4468 88.5855 8.19124 88.8494 8.07755 89.1554C7.95849 89.4642 7.98054 89.7745 8.14371 90.0862C8.32939 90.4409 8.59007 90.6707 8.92576 90.7757C9.25607 90.8835 9.62697 90.84 10.0385 90.6451L10.2603 90.5392L10.4335 90.4383C10.8281 90.2112 11.0835 89.9406 11.1998 89.6264C11.3078 89.3096 11.2718 88.9793 11.0918 88.6353C10.9145 88.2968 10.665 88.0816 10.3431 87.9899C10.0159 87.9011 9.64791 87.9567 9.23923 88.157Z" fill="#3766E4"/>
<path d="M1.95788 76.9036C1.94492 76.8568 1.95112 76.8111 1.97648 76.7663C2.00021 76.7156 2.03546 76.6838 2.08223 76.6709C2.10561 76.6644 2.16308 76.6674 2.25464 76.6798L6.66212 77.2525L6.86813 77.2804C7.28599 77.3346 7.62965 77.3936 7.89911 77.4574C8.16695 77.5153 8.40944 77.6181 8.62657 77.7657C8.84793 77.9058 8.99424 78.1044 9.06551 78.3616L9.15783 78.6948C9.17403 78.7533 9.16733 78.8086 9.13775 78.8609C9.1124 78.9057 9.07049 78.9362 9.01203 78.9524L8.74021 79.0277C8.68175 79.0439 8.6272 79.0401 8.57656 79.0164C8.53015 78.9852 8.49885 78.9404 8.48265 78.8819L8.41948 78.6539C8.38385 78.5253 8.32839 78.4274 8.2531 78.3601C8.17781 78.2929 8.0728 78.2433 7.93807 78.2114C7.80172 78.1736 7.59621 78.1361 7.32153 78.0989L6.92072 78.0495L3.41354 80.8624C3.34565 80.9127 3.30001 80.941 3.27662 80.9475C3.22401 80.9621 3.17531 80.9567 3.13052 80.9314C3.08572 80.906 3.05604 80.867 3.04146 80.8144L2.93456 80.4286C2.90865 80.3351 2.93598 80.2519 3.01655 80.1793L5.88192 77.9124L2.26096 77.4522C2.15609 77.4372 2.08907 77.3771 2.05992 77.2719L1.95788 76.9036Z" fill="#3766E4"/>
<path d="M6.08941 68.6879C6.09295 68.7485 6.07779 68.801 6.04393 68.8455C6.00972 68.884 5.9593 68.9052 5.89269 68.9091L4.60284 68.9844C4.54228 68.9879 4.49278 68.9726 4.45432 68.9384C4.40945 68.8984 4.38525 68.8482 4.38172 68.7877L4.37907 68.7422C4.36421 68.4879 4.14113 68.3095 3.70981 68.2071C3.27813 68.0986 2.60509 68.0711 1.69069 68.1245L0.528004 68.1924C0.467447 68.1959 0.417941 68.1806 0.379485 68.1464C0.33462 68.1065 0.31042 68.0562 0.306883 67.9957L0.139268 65.1253C0.135378 65.0587 0.150539 65.0061 0.184751 64.9677C0.218964 64.9292 0.269376 64.9081 0.335988 64.9042L4.13288 64.6825L4.10795 64.2555C4.10406 64.1889 4.11922 64.1364 4.15343 64.0979C4.18765 64.0595 4.23806 64.0383 4.30467 64.0344L5.60361 63.9586C5.67022 63.9547 5.72275 63.9698 5.76121 64.004C5.79966 64.0383 5.82084 64.0887 5.82473 64.1553L5.84807 64.555C5.8516 64.6155 5.83324 64.6652 5.79297 64.704C5.75876 64.7425 5.71137 64.7635 5.65082 64.767L4.86055 64.8131L5.05469 68.1377L5.84495 68.0915C5.90551 68.088 5.95519 68.1064 5.994 68.1466C6.03851 68.1805 6.06254 68.2277 6.06607 68.2883L6.08941 68.6879ZM4.18062 65.5L0.874234 65.693L0.971833 67.3644L1.73485 67.3199C2.9702 67.2477 3.83127 67.3736 4.31807 67.6976L4.18062 65.5Z" fill="#3766E4"/>
<path d="M5.31968 52.6787C5.36536 52.6613 5.40618 52.6553 5.44214 52.6609C5.53806 52.6757 5.57719 52.7401 5.55956 52.854L5.48019 53.3665C5.46626 53.4565 5.40877 53.5304 5.30771 53.5884L3.21475 54.6178L3.08247 55.472L4.89881 55.7533C4.95876 55.7626 5.00646 55.7915 5.04192 55.8399C5.07232 55.8814 5.08288 55.9322 5.07359 55.9921L5.01372 56.3788C5.00444 56.4387 4.97856 56.4869 4.9361 56.5233C4.88857 56.5527 4.83483 56.5628 4.77488 56.5536L0.512782 55.8935C0.452837 55.8843 0.407666 55.8589 0.377268 55.8173C0.341805 55.7689 0.328714 55.7147 0.337997 55.6547L0.397872 55.2681C0.408083 55.2021 0.433958 55.154 0.475495 55.1236C0.517031 55.0932 0.57077 55.0831 0.636709 55.0933L2.37212 55.362L2.50162 54.5258L0.885037 53.014C0.804402 52.9402 0.771511 52.8553 0.786364 52.7594L0.854593 52.3188C0.862948 52.2648 0.884896 52.2222 0.920439 52.1908C0.949987 52.1586 0.985741 52.1457 1.0277 52.1522C1.03969 52.1541 1.05675 52.1628 1.07887 52.1786C1.095 52.1933 1.11159 52.2051 1.12864 52.2139L2.90696 53.8704L5.31968 52.6787Z" fill="#3766E4"/>
<path d="M7.76731 44.4697C7.66294 44.748 7.50924 44.9852 7.30619 45.1811C7.10527 45.3714 6.88163 45.5013 6.63527 45.5709C6.38536 45.6327 6.14113 45.6188 5.90258 45.5294C5.52772 45.3888 5.27852 45.1204 5.15498 44.7243C5.03145 44.3281 5.02896 43.851 5.14752 43.293L5.44783 41.9479L5.20076 41.8553C4.61575 41.6359 4.19651 41.8642 3.94306 42.54C3.84508 42.8013 3.82023 43.0317 3.86851 43.2312C3.91111 43.4286 3.98956 43.5908 4.10387 43.7179C4.15215 43.7619 4.18232 43.8024 4.19439 43.8393C4.20291 43.8684 4.19865 43.9057 4.18161 43.9511L4.05702 44.2834C4.03785 44.3345 4.00377 44.3735 3.95478 44.4005C3.90224 44.4197 3.85042 44.4197 3.7993 44.4005C3.66866 44.3515 3.54051 44.2355 3.41485 44.0523C3.28563 43.8613 3.20647 43.6146 3.17736 43.3121C3.14257 43.0076 3.1944 42.6707 3.33284 42.3015C3.57138 41.6654 3.88945 41.2664 4.28703 41.1045C4.68674 40.9369 5.1081 40.9362 5.55113 41.1024L8.32 42.1407C8.3768 42.162 8.41763 42.2 8.44248 42.2546C8.46377 42.3015 8.46377 42.3533 8.44248 42.4101L8.3019 42.785C8.28061 42.8418 8.24653 42.8808 8.19967 42.9021C8.14713 42.9213 8.09246 42.9202 8.03567 42.8989L7.6608 42.7583C7.80138 42.9536 7.88942 43.1939 7.92492 43.4793C7.96042 43.7647 7.90788 44.0949 7.76731 44.4697ZM7.20927 44.0661C7.34984 43.6912 7.34274 43.3387 7.18797 43.0086C7.03319 42.6785 6.72293 42.4261 6.25719 42.2514L6.01864 42.162L5.78969 43.2131C5.69313 43.6433 5.67361 43.9891 5.73112 44.2504C5.78863 44.5116 5.91962 44.6806 6.12409 44.7573C6.35696 44.8446 6.57101 44.818 6.76625 44.6774C6.96363 44.5311 7.1113 44.3274 7.20927 44.0661Z" fill="#3766E4"/>
<path d="M110.279 40.5981C110.258 40.541 110.258 40.4863 110.278 40.434C110.305 40.3854 110.348 40.3508 110.405 40.3302L114.462 38.8666C114.519 38.846 114.571 38.8467 114.617 38.8686C114.672 38.8941 114.709 38.9354 114.73 38.9925L114.866 39.3691C114.886 39.4261 114.883 39.479 114.855 39.5276C114.835 39.5799 114.797 39.6163 114.74 39.6369L113.088 40.2329L113.94 42.5951L115.592 41.9992C115.649 41.9786 115.701 41.9793 115.747 42.0012C115.802 42.0267 115.839 42.068 115.86 42.1251L115.996 42.5017C116.018 42.5644 116.019 42.6191 115.997 42.6657C115.975 42.7123 115.933 42.7469 115.87 42.7695L111.813 44.2331C111.756 44.2537 111.7 44.2512 111.646 44.2257C111.599 44.2038 111.565 44.1643 111.545 44.1073L111.409 43.7307C111.388 43.6736 111.388 43.6189 111.408 43.5666C111.436 43.518 111.478 43.4834 111.535 43.4628L113.281 42.8329L112.429 40.4706L110.683 41.1005C110.626 41.1211 110.57 41.1186 110.516 41.0931C110.469 41.0712 110.435 41.0317 110.415 40.9747L110.279 40.5981Z" fill="#3766E4"/>
<path d="M113.83 53.6349C113.747 53.0218 113.87 52.5063 114.2 52.0884C114.535 51.6698 115.031 51.3977 115.687 51.2724L115.992 51.2219L116.291 51.1908C116.945 51.1391 117.489 51.2707 117.924 51.5854C118.358 51.9002 118.616 52.3641 118.699 52.9773C118.789 53.6385 118.647 54.1779 118.275 54.5954C117.904 55.0189 117.358 55.2794 116.636 55.3769L116.474 55.3988C116.414 55.4069 116.36 55.3928 116.312 55.3564C116.271 55.3252 116.247 55.2795 116.238 55.2194L115.816 52.0905L115.735 52.1014C115.346 52.1722 115.029 52.3375 114.782 52.5973C114.536 52.8571 114.438 53.1703 114.487 53.537C114.525 53.8195 114.61 54.0407 114.742 54.2004C114.88 54.3653 115.016 54.4847 115.148 54.5587C115.228 54.603 115.276 54.6394 115.292 54.6678C115.314 54.6955 115.33 54.7453 115.339 54.8175L115.393 55.2142C115.4 55.2683 115.391 55.3154 115.366 55.3556C115.342 55.4017 115.306 55.428 115.257 55.4345C115.125 55.4524 114.955 55.3927 114.747 55.2556C114.538 55.1185 114.345 54.909 114.166 54.6271C113.994 54.3504 113.882 54.0197 113.83 53.6349ZM116.769 54.5234L116.796 54.5198C117.217 54.4629 117.544 54.3024 117.777 54.0383C118.011 53.7741 118.102 53.4497 118.05 53.0649C117.997 52.6742 117.824 52.3855 117.529 52.1988C117.234 52.0121 116.877 51.9472 116.456 52.004L116.429 52.0077L116.769 54.5234Z" fill="#3766E4"/>
<path d="M114.416 64.4907C114.447 64.055 114.542 63.6969 114.702 63.4164C114.861 63.1419 115.045 62.9452 115.254 62.8262C115.463 62.7133 115.664 62.6607 115.859 62.6684C115.913 62.6723 115.954 62.6934 115.982 62.7319C116.015 62.7708 116.03 62.8175 116.027 62.8719L115.999 63.2622C115.995 63.3227 115.976 63.367 115.944 63.3951C115.917 63.4297 115.869 63.4567 115.801 63.4762C115.567 63.5264 115.394 63.6449 115.283 63.8317C115.172 64.0245 115.105 64.2842 115.082 64.611C115.06 64.9256 115.105 65.1873 115.218 65.396C115.336 65.6112 115.523 65.7278 115.777 65.7458C116.285 65.7819 116.56 65.5065 116.602 64.9196L116.637 64.4204C116.641 64.3599 116.663 64.3127 116.702 64.279C116.741 64.2453 116.791 64.2306 116.851 64.2349L117.078 64.251C117.138 64.2553 117.186 64.2769 117.219 64.3157C117.253 64.3546 117.268 64.4043 117.263 64.4648L117.232 64.9096C117.195 65.4299 117.385 65.7049 117.803 65.7346C118.021 65.75 118.208 65.6812 118.365 65.5282C118.527 65.3816 118.621 65.1358 118.645 64.791C118.669 64.4521 118.629 64.203 118.525 64.0435C118.427 63.8845 118.253 63.7627 118.003 63.6782C117.891 63.6397 117.839 63.56 117.847 63.439L117.874 63.0578C117.878 63.0094 117.896 62.9681 117.929 62.934C117.967 62.9002 118.011 62.8851 118.059 62.8885C118.313 62.9126 118.538 63.0016 118.734 63.1553C118.936 63.3095 119.091 63.5273 119.198 63.8086C119.306 64.0959 119.345 64.4393 119.317 64.8386C119.287 65.2561 119.196 65.5933 119.044 65.8501C118.892 66.1129 118.711 66.2977 118.503 66.4046C118.295 66.5114 118.082 66.5571 117.864 66.5416C117.616 66.524 117.419 66.4675 117.274 66.372C117.128 66.2826 117.011 66.1314 116.923 65.9184C116.802 66.1713 116.634 66.3449 116.421 66.4392C116.213 66.54 115.961 66.5798 115.664 66.5588C115.217 66.527 114.885 66.321 114.668 65.9408C114.458 65.561 114.374 65.0776 114.416 64.4907Z" fill="#3766E4"/>
<path d="M112.847 75.1768C112.928 74.8909 113.061 74.6418 113.247 74.4298C113.432 74.2235 113.644 74.0756 113.884 73.9859C114.128 73.9036 114.372 73.8973 114.617 73.9667C115.003 74.0758 115.273 74.3226 115.429 74.7072C115.585 75.0918 115.627 75.5671 115.555 76.133L115.367 77.4983L115.621 77.5702C116.222 77.7404 116.621 77.4783 116.817 76.7838C116.893 76.5153 116.899 76.2836 116.834 76.0888C116.776 75.8956 116.684 75.7405 116.56 75.6233C116.508 75.5834 116.475 75.5455 116.459 75.5098C116.449 75.4815 116.45 75.4439 116.463 75.3973L116.56 75.0558C116.575 75.0033 116.605 74.9616 116.652 74.9306C116.703 74.9072 116.754 74.9029 116.807 74.9178C116.941 74.9558 117.078 75.0609 117.219 75.233C117.363 75.4127 117.463 75.652 117.517 75.951C117.576 76.2517 117.553 76.5917 117.445 76.9711C117.26 77.6247 116.976 78.0487 116.593 78.2429C116.209 78.4429 115.789 78.4784 115.334 78.3495L112.488 77.5436C112.43 77.5271 112.386 77.4926 112.357 77.4402C112.332 77.3952 112.328 77.3436 112.344 77.2852L112.453 76.9C112.47 76.8417 112.5 76.7999 112.545 76.7748C112.596 76.7514 112.651 76.7479 112.709 76.7645L113.094 76.8736C112.938 76.6906 112.83 76.4584 112.771 76.1769C112.712 75.8954 112.738 75.562 112.847 75.1768ZM113.436 75.533C113.327 75.9182 113.363 76.2689 113.545 76.5851C113.726 76.9013 114.056 77.1272 114.535 77.2627L114.78 77.3321L114.921 76.2657C114.982 75.8289 114.973 75.4828 114.894 75.2271C114.815 74.9715 114.671 74.814 114.46 74.7544C114.221 74.6867 114.01 74.7309 113.827 74.8871C113.642 75.0492 113.512 75.2645 113.436 75.533Z" fill="#3766E4"/>
<path d="M110.006 89.319C109.95 89.2959 109.862 89.2531 109.745 89.1905C109.643 89.1365 109.572 89.0954 109.532 89.0673C109.002 88.7586 108.659 88.3568 108.503 87.8619C108.347 87.3669 108.424 86.8274 108.734 86.2434C109.052 85.6433 109.464 85.2748 109.969 85.1378C110.48 85.0037 111.043 85.0825 111.657 85.3743L112.621 85.8862C113.385 86.2982 113.904 86.7043 114.179 87.1045C114.457 87.5128 114.582 87.9433 114.555 88.3958C114.53 88.8565 114.406 89.5563 114.182 90.4952L114.123 90.742L114.11 90.7865C114.09 90.824 114.058 90.8517 114.014 90.8696C113.97 90.8876 113.924 90.8905 113.876 90.8785L113.536 90.7806L113.484 90.7631C113.403 90.7204 113.372 90.6491 113.391 90.5492C113.409 90.4764 113.45 90.3159 113.513 90.0678C113.692 89.3802 113.801 88.8713 113.839 88.5412C113.874 88.2164 113.815 87.9205 113.661 87.6536C113.507 87.3866 113.207 87.1242 112.76 86.8664C112.885 87.0974 112.946 87.3635 112.944 87.6646C112.942 87.9658 112.87 88.2503 112.728 88.5182C112.441 89.0594 112.052 89.3918 111.56 89.5155C111.071 89.6475 110.553 89.582 110.006 89.319ZM109.964 88.3492C109.999 88.3745 110.057 88.4085 110.137 88.4511C110.233 88.5023 110.307 88.538 110.358 88.5583C110.766 88.7608 111.128 88.8226 111.445 88.7434C111.767 88.6672 112.01 88.4736 112.175 88.1628C112.363 87.8092 112.405 87.4643 112.302 87.128C112.204 86.7946 111.959 86.5132 111.566 86.2838L111.353 86.1606L111.172 86.0748C110.761 85.8775 110.394 85.8198 110.069 85.9014C109.746 85.9913 109.494 86.2076 109.312 86.5505C109.133 86.8881 109.097 87.2156 109.203 87.5329C109.314 87.8531 109.568 88.1252 109.964 88.3492Z" fill="#3766E4"/>
<path d="M104.795 100.716C104.764 100.753 104.722 100.774 104.671 100.778C104.616 100.787 104.57 100.776 104.533 100.745C104.514 100.729 104.484 100.68 104.443 100.598L102.424 96.6376L102.331 96.4519C102.14 96.0766 101.994 95.7597 101.894 95.5013C101.791 95.2476 101.739 94.9895 101.738 94.7269C101.728 94.4652 101.809 94.2322 101.981 94.028L102.204 93.7636C102.243 93.7172 102.293 93.6914 102.352 93.6863C102.404 93.6819 102.452 93.6992 102.499 93.7383L102.715 93.92C102.761 93.9591 102.789 94.0062 102.798 94.0614C102.798 94.1173 102.779 94.1685 102.74 94.2149L102.588 94.3958C102.502 94.4979 102.452 94.599 102.439 94.6991C102.426 94.7993 102.445 94.9139 102.494 95.0431C102.54 95.1769 102.626 95.3677 102.75 95.6153L102.936 95.9739L107.238 97.2778C107.318 97.3054 107.368 97.327 107.386 97.3426C107.428 97.3778 107.451 97.421 107.455 97.4723C107.46 97.5236 107.444 97.5701 107.409 97.6119L107.151 97.9181C107.089 97.9923 107.005 98.0167 106.899 97.9913L103.41 96.9084L105.076 100.156C105.123 100.251 105.112 100.34 105.041 100.424L104.795 100.716Z" fill="#3766E4"/>
<path d="M95.6822 101.95C95.7301 101.913 95.7821 101.896 95.8379 101.899C95.889 101.905 95.9349 101.935 95.9758 101.987L96.7668 103.009C96.804 103.057 96.8193 103.106 96.8128 103.158C96.8052 103.217 96.7775 103.265 96.7295 103.303L96.6935 103.33C96.4921 103.486 96.471 103.771 96.6302 104.185C96.7847 104.602 97.1423 105.173 97.7031 105.897L98.4162 106.818C98.4533 106.866 98.4686 106.916 98.4621 106.967C98.4546 107.026 98.4268 107.075 98.3788 107.112L96.1055 108.872C96.0527 108.913 96.0008 108.93 95.9497 108.924C95.8987 108.917 95.8527 108.888 95.8119 108.835L93.4833 105.828L93.1451 106.09C93.0924 106.13 93.0405 106.148 92.9894 106.141C92.9383 106.135 92.8924 106.105 92.8515 106.052L92.0549 105.023C92.0141 104.971 91.9969 104.919 92.0034 104.868C92.0099 104.817 92.0395 104.771 92.0923 104.73L92.4088 104.485C92.4568 104.448 92.5081 104.435 92.5629 104.446C92.614 104.452 92.6581 104.48 92.6952 104.528L93.1799 105.154L95.813 103.115L95.3283 102.489C95.2912 102.441 95.2782 102.389 95.2895 102.335C95.2923 102.279 95.3177 102.232 95.3656 102.195L95.6822 101.95ZM94.1308 105.326L96.1585 107.945L97.4823 106.92L97.0143 106.316C96.2567 105.337 95.874 104.556 95.8662 103.971L94.1308 105.326Z" fill="#3766E4"/>
<path d="M82.9094 111.632C82.8691 111.604 82.8411 111.574 82.8254 111.541C82.7835 111.454 82.8145 111.385 82.9184 111.335L83.3861 111.111C83.4681 111.072 83.5617 111.077 83.6666 111.128L85.6986 112.273L86.4781 111.899L85.6837 110.242C85.6575 110.187 85.6544 110.131 85.6743 110.075C85.6914 110.026 85.7273 109.989 85.782 109.963L86.1348 109.794C86.1895 109.767 86.2439 109.761 86.2979 109.776C86.3491 109.799 86.3878 109.837 86.414 109.892L88.278 113.781C88.3043 113.836 88.3088 113.887 88.2917 113.936C88.2718 113.993 88.2345 114.034 88.1798 114.06L87.827 114.229C87.7668 114.258 87.7124 114.264 87.6639 114.247C87.6153 114.23 87.5766 114.191 87.5478 114.131L86.7888 112.548L86.0257 112.913L85.692 115.101C85.6767 115.21 85.6252 115.285 85.5377 115.327L85.1356 115.519C85.0864 115.543 85.0388 115.549 84.9929 115.537C84.9496 115.531 84.9188 115.509 84.9004 115.471C84.8952 115.46 84.8928 115.441 84.8932 115.413C84.8963 115.392 84.8966 115.371 84.8942 115.352L85.2559 112.949L82.9094 111.632Z" fill="#3766E4"/>
<path d="M74.7536 114.252C75.0422 114.181 75.3247 114.173 75.6011 114.23C75.8716 114.288 76.1052 114.4 76.3018 114.563C76.494 114.735 76.6206 114.944 76.6816 115.191C76.7775 115.58 76.6969 115.937 76.4399 116.263C76.1828 116.589 75.7906 116.861 75.2632 117.078L73.9839 117.59L74.047 117.847C74.1966 118.453 74.6219 118.67 75.3227 118.497C75.5937 118.43 75.7978 118.321 75.9351 118.168C76.0738 118.022 76.1633 117.865 76.2036 117.699C76.2126 117.634 76.229 117.587 76.2526 117.556C76.2718 117.532 76.3049 117.515 76.3521 117.503L76.6966 117.418C76.7496 117.405 76.8011 117.411 76.851 117.436C76.8965 117.469 76.9258 117.512 76.9389 117.565C76.9723 117.7 76.9489 117.871 76.8688 118.078C76.7843 118.293 76.6255 118.498 76.3924 118.693C76.1608 118.894 75.8536 119.041 75.4708 119.136C74.8111 119.298 74.3022 119.261 73.944 119.025C73.5799 118.79 73.3412 118.442 73.2279 117.983L72.5198 115.112C72.5052 115.053 72.5135 114.998 72.5446 114.947C72.5712 114.902 72.614 114.873 72.6729 114.859L73.0616 114.763C73.1205 114.748 73.1719 114.754 73.216 114.781C73.2615 114.813 73.2915 114.859 73.306 114.918L73.4019 115.307C73.4835 115.08 73.632 114.872 73.8474 114.681C74.0629 114.491 74.3649 114.348 74.7536 114.252ZM74.736 114.94C74.3473 115.036 74.0605 115.241 73.8756 115.555C73.6907 115.87 73.6578 116.268 73.7769 116.751L73.8379 116.999L74.8344 116.593C75.244 116.43 75.5403 116.251 75.7233 116.056C75.9063 115.861 75.9717 115.657 75.9194 115.445C75.8599 115.203 75.717 115.042 75.4907 114.96C75.2585 114.88 75.0069 114.873 74.736 114.94Z" fill="#3766E4"/>
</svg>
